%TF.GenerationSoftware,KiCad,Pcbnew,10.0.5*%
%TF.CreationDate,2026-09-20T20:42:16-04:00*%
%TF.ProjectId,compact_stepper_controller,636f6d70-6163-4745-9f73-746570706572,rev?*%
%TF.SameCoordinates,Original*%
%TF.FileFunction,Legend,Top*%
%TF.FilePolarity,Positive*%
%FSLAX46Y46*%
G04 Gerber Fmt 4.6, Leading zero omitted, Abs format (unit mm)*
G04 Created by KiCad (PCBNEW 10.0.5) date 2026-09-20 20:42:16*
%MOMM*%
%LPD*%
G01*
G04 APERTURE LIST*
%ADD10C,0.150000*%
%ADD11C,0.120000*%
G04 APERTURE END LIST*
D10*
X178260476Y-129934819D02*
X178260476Y-130649104D01*
X178260476Y-130649104D02*
X178212857Y-130791961D01*
X178212857Y-130791961D02*
X178117619Y-130887200D01*
X178117619Y-130887200D02*
X177974762Y-130934819D01*
X177974762Y-130934819D02*
X177879524Y-130934819D01*
X179260476Y-130934819D02*
X178689048Y-130934819D01*
X178974762Y-130934819D02*
X178974762Y-129934819D01*
X178974762Y-129934819D02*
X178879524Y-130077676D01*
X178879524Y-130077676D02*
X178784286Y-130172914D01*
X178784286Y-130172914D02*
X178689048Y-130220533D01*
X180165238Y-129934819D02*
X179689048Y-129934819D01*
X179689048Y-129934819D02*
X179641429Y-130411009D01*
X179641429Y-130411009D02*
X179689048Y-130363390D01*
X179689048Y-130363390D02*
X179784286Y-130315771D01*
X179784286Y-130315771D02*
X180022381Y-130315771D01*
X180022381Y-130315771D02*
X180117619Y-130363390D01*
X180117619Y-130363390D02*
X180165238Y-130411009D01*
X180165238Y-130411009D02*
X180212857Y-130506247D01*
X180212857Y-130506247D02*
X180212857Y-130744342D01*
X180212857Y-130744342D02*
X180165238Y-130839580D01*
X180165238Y-130839580D02*
X180117619Y-130887200D01*
X180117619Y-130887200D02*
X180022381Y-130934819D01*
X180022381Y-130934819D02*
X179784286Y-130934819D01*
X179784286Y-130934819D02*
X179689048Y-130887200D01*
X179689048Y-130887200D02*
X179641429Y-130839580D01*
X113607200Y-134133332D02*
X113654819Y-133990475D01*
X113654819Y-133990475D02*
X113654819Y-133752380D01*
X113654819Y-133752380D02*
X113607200Y-133657142D01*
X113607200Y-133657142D02*
X113559580Y-133609523D01*
X113559580Y-133609523D02*
X113464342Y-133561904D01*
X113464342Y-133561904D02*
X113369104Y-133561904D01*
X113369104Y-133561904D02*
X113273866Y-133609523D01*
X113273866Y-133609523D02*
X113226247Y-133657142D01*
X113226247Y-133657142D02*
X113178628Y-133752380D01*
X113178628Y-133752380D02*
X113131009Y-133942856D01*
X113131009Y-133942856D02*
X113083390Y-134038094D01*
X113083390Y-134038094D02*
X113035771Y-134085713D01*
X113035771Y-134085713D02*
X112940533Y-134133332D01*
X112940533Y-134133332D02*
X112845295Y-134133332D01*
X112845295Y-134133332D02*
X112750057Y-134085713D01*
X112750057Y-134085713D02*
X112702438Y-134038094D01*
X112702438Y-134038094D02*
X112654819Y-133942856D01*
X112654819Y-133942856D02*
X112654819Y-133704761D01*
X112654819Y-133704761D02*
X112702438Y-133561904D01*
X112654819Y-133228570D02*
X113654819Y-132990475D01*
X113654819Y-132990475D02*
X112940533Y-132799999D01*
X112940533Y-132799999D02*
X113654819Y-132609523D01*
X113654819Y-132609523D02*
X112654819Y-132371428D01*
X112654819Y-131561904D02*
X112654819Y-131752380D01*
X112654819Y-131752380D02*
X112702438Y-131847618D01*
X112702438Y-131847618D02*
X112750057Y-131895237D01*
X112750057Y-131895237D02*
X112892914Y-131990475D01*
X112892914Y-131990475D02*
X113083390Y-132038094D01*
X113083390Y-132038094D02*
X113464342Y-132038094D01*
X113464342Y-132038094D02*
X113559580Y-131990475D01*
X113559580Y-131990475D02*
X113607200Y-131942856D01*
X113607200Y-131942856D02*
X113654819Y-131847618D01*
X113654819Y-131847618D02*
X113654819Y-131657142D01*
X113654819Y-131657142D02*
X113607200Y-131561904D01*
X113607200Y-131561904D02*
X113559580Y-131514285D01*
X113559580Y-131514285D02*
X113464342Y-131466666D01*
X113464342Y-131466666D02*
X113226247Y-131466666D01*
X113226247Y-131466666D02*
X113131009Y-131514285D01*
X113131009Y-131514285D02*
X113083390Y-131561904D01*
X113083390Y-131561904D02*
X113035771Y-131657142D01*
X113035771Y-131657142D02*
X113035771Y-131847618D01*
X113035771Y-131847618D02*
X113083390Y-131942856D01*
X113083390Y-131942856D02*
X113131009Y-131990475D01*
X113131009Y-131990475D02*
X113226247Y-132038094D01*
X99454819Y-127733333D02*
X100169104Y-127733333D01*
X100169104Y-127733333D02*
X100311961Y-127780952D01*
X100311961Y-127780952D02*
X100407200Y-127876190D01*
X100407200Y-127876190D02*
X100454819Y-128019047D01*
X100454819Y-128019047D02*
X100454819Y-128114285D01*
X99883390Y-127114285D02*
X99835771Y-127209523D01*
X99835771Y-127209523D02*
X99788152Y-127257142D01*
X99788152Y-127257142D02*
X99692914Y-127304761D01*
X99692914Y-127304761D02*
X99645295Y-127304761D01*
X99645295Y-127304761D02*
X99550057Y-127257142D01*
X99550057Y-127257142D02*
X99502438Y-127209523D01*
X99502438Y-127209523D02*
X99454819Y-127114285D01*
X99454819Y-127114285D02*
X99454819Y-126923809D01*
X99454819Y-126923809D02*
X99502438Y-126828571D01*
X99502438Y-126828571D02*
X99550057Y-126780952D01*
X99550057Y-126780952D02*
X99645295Y-126733333D01*
X99645295Y-126733333D02*
X99692914Y-126733333D01*
X99692914Y-126733333D02*
X99788152Y-126780952D01*
X99788152Y-126780952D02*
X99835771Y-126828571D01*
X99835771Y-126828571D02*
X99883390Y-126923809D01*
X99883390Y-126923809D02*
X99883390Y-127114285D01*
X99883390Y-127114285D02*
X99931009Y-127209523D01*
X99931009Y-127209523D02*
X99978628Y-127257142D01*
X99978628Y-127257142D02*
X100073866Y-127304761D01*
X100073866Y-127304761D02*
X100264342Y-127304761D01*
X100264342Y-127304761D02*
X100359580Y-127257142D01*
X100359580Y-127257142D02*
X100407200Y-127209523D01*
X100407200Y-127209523D02*
X100454819Y-127114285D01*
X100454819Y-127114285D02*
X100454819Y-126923809D01*
X100454819Y-126923809D02*
X100407200Y-126828571D01*
X100407200Y-126828571D02*
X100359580Y-126780952D01*
X100359580Y-126780952D02*
X100264342Y-126733333D01*
X100264342Y-126733333D02*
X100073866Y-126733333D01*
X100073866Y-126733333D02*
X99978628Y-126780952D01*
X99978628Y-126780952D02*
X99931009Y-126828571D01*
X99931009Y-126828571D02*
X99883390Y-126923809D01*
X103607200Y-143933332D02*
X103654819Y-143790475D01*
X103654819Y-143790475D02*
X103654819Y-143552380D01*
X103654819Y-143552380D02*
X103607200Y-143457142D01*
X103607200Y-143457142D02*
X103559580Y-143409523D01*
X103559580Y-143409523D02*
X103464342Y-143361904D01*
X103464342Y-143361904D02*
X103369104Y-143361904D01*
X103369104Y-143361904D02*
X103273866Y-143409523D01*
X103273866Y-143409523D02*
X103226247Y-143457142D01*
X103226247Y-143457142D02*
X103178628Y-143552380D01*
X103178628Y-143552380D02*
X103131009Y-143742856D01*
X103131009Y-143742856D02*
X103083390Y-143838094D01*
X103083390Y-143838094D02*
X103035771Y-143885713D01*
X103035771Y-143885713D02*
X102940533Y-143933332D01*
X102940533Y-143933332D02*
X102845295Y-143933332D01*
X102845295Y-143933332D02*
X102750057Y-143885713D01*
X102750057Y-143885713D02*
X102702438Y-143838094D01*
X102702438Y-143838094D02*
X102654819Y-143742856D01*
X102654819Y-143742856D02*
X102654819Y-143504761D01*
X102654819Y-143504761D02*
X102702438Y-143361904D01*
X102654819Y-143028570D02*
X103654819Y-142790475D01*
X103654819Y-142790475D02*
X102940533Y-142599999D01*
X102940533Y-142599999D02*
X103654819Y-142409523D01*
X103654819Y-142409523D02*
X102654819Y-142171428D01*
X103083390Y-141647618D02*
X103035771Y-141742856D01*
X103035771Y-141742856D02*
X102988152Y-141790475D01*
X102988152Y-141790475D02*
X102892914Y-141838094D01*
X102892914Y-141838094D02*
X102845295Y-141838094D01*
X102845295Y-141838094D02*
X102750057Y-141790475D01*
X102750057Y-141790475D02*
X102702438Y-141742856D01*
X102702438Y-141742856D02*
X102654819Y-141647618D01*
X102654819Y-141647618D02*
X102654819Y-141457142D01*
X102654819Y-141457142D02*
X102702438Y-141361904D01*
X102702438Y-141361904D02*
X102750057Y-141314285D01*
X102750057Y-141314285D02*
X102845295Y-141266666D01*
X102845295Y-141266666D02*
X102892914Y-141266666D01*
X102892914Y-141266666D02*
X102988152Y-141314285D01*
X102988152Y-141314285D02*
X103035771Y-141361904D01*
X103035771Y-141361904D02*
X103083390Y-141457142D01*
X103083390Y-141457142D02*
X103083390Y-141647618D01*
X103083390Y-141647618D02*
X103131009Y-141742856D01*
X103131009Y-141742856D02*
X103178628Y-141790475D01*
X103178628Y-141790475D02*
X103273866Y-141838094D01*
X103273866Y-141838094D02*
X103464342Y-141838094D01*
X103464342Y-141838094D02*
X103559580Y-141790475D01*
X103559580Y-141790475D02*
X103607200Y-141742856D01*
X103607200Y-141742856D02*
X103654819Y-141647618D01*
X103654819Y-141647618D02*
X103654819Y-141457142D01*
X103654819Y-141457142D02*
X103607200Y-141361904D01*
X103607200Y-141361904D02*
X103559580Y-141314285D01*
X103559580Y-141314285D02*
X103464342Y-141266666D01*
X103464342Y-141266666D02*
X103273866Y-141266666D01*
X103273866Y-141266666D02*
X103178628Y-141314285D01*
X103178628Y-141314285D02*
X103131009Y-141361904D01*
X103131009Y-141361904D02*
X103083390Y-141457142D01*
X111002976Y-144939819D02*
X111002976Y-145654104D01*
X111002976Y-145654104D02*
X110955357Y-145796961D01*
X110955357Y-145796961D02*
X110860119Y-145892200D01*
X110860119Y-145892200D02*
X110717262Y-145939819D01*
X110717262Y-145939819D02*
X110622024Y-145939819D01*
X112002976Y-145939819D02*
X111431548Y-145939819D01*
X111717262Y-145939819D02*
X111717262Y-144939819D01*
X111717262Y-144939819D02*
X111622024Y-145082676D01*
X111622024Y-145082676D02*
X111526786Y-145177914D01*
X111526786Y-145177914D02*
X111431548Y-145225533D01*
X112336310Y-144939819D02*
X113002976Y-144939819D01*
X113002976Y-144939819D02*
X112574405Y-145939819D01*
X183454819Y-117583333D02*
X184169104Y-117583333D01*
X184169104Y-117583333D02*
X184311961Y-117630952D01*
X184311961Y-117630952D02*
X184407200Y-117726190D01*
X184407200Y-117726190D02*
X184454819Y-117869047D01*
X184454819Y-117869047D02*
X184454819Y-117964285D01*
X183454819Y-117202380D02*
X183454819Y-116535714D01*
X183454819Y-116535714D02*
X184454819Y-116964285D01*
X183254819Y-103533333D02*
X183969104Y-103533333D01*
X183969104Y-103533333D02*
X184111961Y-103580952D01*
X184111961Y-103580952D02*
X184207200Y-103676190D01*
X184207200Y-103676190D02*
X184254819Y-103819047D01*
X184254819Y-103819047D02*
X184254819Y-103914285D01*
X183588152Y-102628571D02*
X184254819Y-102628571D01*
X183207200Y-102866666D02*
X183921485Y-103104761D01*
X183921485Y-103104761D02*
X183921485Y-102485714D01*
X153266666Y-144987319D02*
X153266666Y-145701604D01*
X153266666Y-145701604D02*
X153219047Y-145844461D01*
X153219047Y-145844461D02*
X153123809Y-145939700D01*
X153123809Y-145939700D02*
X152980952Y-145987319D01*
X152980952Y-145987319D02*
X152885714Y-145987319D01*
X154266666Y-145987319D02*
X153695238Y-145987319D01*
X153980952Y-145987319D02*
X153980952Y-144987319D01*
X153980952Y-144987319D02*
X153885714Y-145130176D01*
X153885714Y-145130176D02*
X153790476Y-145225414D01*
X153790476Y-145225414D02*
X153695238Y-145273033D01*
X183454819Y-67533333D02*
X184169104Y-67533333D01*
X184169104Y-67533333D02*
X184311961Y-67580952D01*
X184311961Y-67580952D02*
X184407200Y-67676190D01*
X184407200Y-67676190D02*
X184454819Y-67819047D01*
X184454819Y-67819047D02*
X184454819Y-67914285D01*
X183550057Y-67104761D02*
X183502438Y-67057142D01*
X183502438Y-67057142D02*
X183454819Y-66961904D01*
X183454819Y-66961904D02*
X183454819Y-66723809D01*
X183454819Y-66723809D02*
X183502438Y-66628571D01*
X183502438Y-66628571D02*
X183550057Y-66580952D01*
X183550057Y-66580952D02*
X183645295Y-66533333D01*
X183645295Y-66533333D02*
X183740533Y-66533333D01*
X183740533Y-66533333D02*
X183883390Y-66580952D01*
X183883390Y-66580952D02*
X184454819Y-67152380D01*
X184454819Y-67152380D02*
X184454819Y-66533333D01*
X164242976Y-145139819D02*
X164242976Y-145854104D01*
X164242976Y-145854104D02*
X164195357Y-145996961D01*
X164195357Y-145996961D02*
X164100119Y-146092200D01*
X164100119Y-146092200D02*
X163957262Y-146139819D01*
X163957262Y-146139819D02*
X163862024Y-146139819D01*
X165242976Y-146139819D02*
X164671548Y-146139819D01*
X164957262Y-146139819D02*
X164957262Y-145139819D01*
X164957262Y-145139819D02*
X164862024Y-145282676D01*
X164862024Y-145282676D02*
X164766786Y-145377914D01*
X164766786Y-145377914D02*
X164671548Y-145425533D01*
X166100119Y-145473152D02*
X166100119Y-146139819D01*
X165862024Y-145092200D02*
X165623929Y-145806485D01*
X165623929Y-145806485D02*
X166242976Y-145806485D01*
X129987976Y-145072319D02*
X129987976Y-145786604D01*
X129987976Y-145786604D02*
X129940357Y-145929461D01*
X129940357Y-145929461D02*
X129845119Y-146024700D01*
X129845119Y-146024700D02*
X129702262Y-146072319D01*
X129702262Y-146072319D02*
X129607024Y-146072319D01*
X130987976Y-146072319D02*
X130416548Y-146072319D01*
X130702262Y-146072319D02*
X130702262Y-145072319D01*
X130702262Y-145072319D02*
X130607024Y-145215176D01*
X130607024Y-145215176D02*
X130511786Y-145310414D01*
X130511786Y-145310414D02*
X130416548Y-145358033D01*
X131321310Y-145072319D02*
X131940357Y-145072319D01*
X131940357Y-145072319D02*
X131607024Y-145453271D01*
X131607024Y-145453271D02*
X131749881Y-145453271D01*
X131749881Y-145453271D02*
X131845119Y-145500890D01*
X131845119Y-145500890D02*
X131892738Y-145548509D01*
X131892738Y-145548509D02*
X131940357Y-145643747D01*
X131940357Y-145643747D02*
X131940357Y-145881842D01*
X131940357Y-145881842D02*
X131892738Y-145977080D01*
X131892738Y-145977080D02*
X131845119Y-146024700D01*
X131845119Y-146024700D02*
X131749881Y-146072319D01*
X131749881Y-146072319D02*
X131464167Y-146072319D01*
X131464167Y-146072319D02*
X131368929Y-146024700D01*
X131368929Y-146024700D02*
X131321310Y-145977080D01*
X106407200Y-134133332D02*
X106454819Y-133990475D01*
X106454819Y-133990475D02*
X106454819Y-133752380D01*
X106454819Y-133752380D02*
X106407200Y-133657142D01*
X106407200Y-133657142D02*
X106359580Y-133609523D01*
X106359580Y-133609523D02*
X106264342Y-133561904D01*
X106264342Y-133561904D02*
X106169104Y-133561904D01*
X106169104Y-133561904D02*
X106073866Y-133609523D01*
X106073866Y-133609523D02*
X106026247Y-133657142D01*
X106026247Y-133657142D02*
X105978628Y-133752380D01*
X105978628Y-133752380D02*
X105931009Y-133942856D01*
X105931009Y-133942856D02*
X105883390Y-134038094D01*
X105883390Y-134038094D02*
X105835771Y-134085713D01*
X105835771Y-134085713D02*
X105740533Y-134133332D01*
X105740533Y-134133332D02*
X105645295Y-134133332D01*
X105645295Y-134133332D02*
X105550057Y-134085713D01*
X105550057Y-134085713D02*
X105502438Y-134038094D01*
X105502438Y-134038094D02*
X105454819Y-133942856D01*
X105454819Y-133942856D02*
X105454819Y-133704761D01*
X105454819Y-133704761D02*
X105502438Y-133561904D01*
X105454819Y-133228570D02*
X106454819Y-132990475D01*
X106454819Y-132990475D02*
X105740533Y-132799999D01*
X105740533Y-132799999D02*
X106454819Y-132609523D01*
X106454819Y-132609523D02*
X105454819Y-132371428D01*
X105454819Y-132085713D02*
X105454819Y-131419047D01*
X105454819Y-131419047D02*
X106454819Y-131847618D01*
X99454819Y-104409523D02*
X100169104Y-104409523D01*
X100169104Y-104409523D02*
X100311961Y-104457142D01*
X100311961Y-104457142D02*
X100407200Y-104552380D01*
X100407200Y-104552380D02*
X100454819Y-104695237D01*
X100454819Y-104695237D02*
X100454819Y-104790475D01*
X100454819Y-103409523D02*
X100454819Y-103980951D01*
X100454819Y-103695237D02*
X99454819Y-103695237D01*
X99454819Y-103695237D02*
X99597676Y-103790475D01*
X99597676Y-103790475D02*
X99692914Y-103885713D01*
X99692914Y-103885713D02*
X99740533Y-103980951D01*
X100454819Y-102457142D02*
X100454819Y-103028570D01*
X100454819Y-102742856D02*
X99454819Y-102742856D01*
X99454819Y-102742856D02*
X99597676Y-102838094D01*
X99597676Y-102838094D02*
X99692914Y-102933332D01*
X99692914Y-102933332D02*
X99740533Y-103028570D01*
X99554819Y-118209523D02*
X100269104Y-118209523D01*
X100269104Y-118209523D02*
X100411961Y-118257142D01*
X100411961Y-118257142D02*
X100507200Y-118352380D01*
X100507200Y-118352380D02*
X100554819Y-118495237D01*
X100554819Y-118495237D02*
X100554819Y-118590475D01*
X100554819Y-117209523D02*
X100554819Y-117780951D01*
X100554819Y-117495237D02*
X99554819Y-117495237D01*
X99554819Y-117495237D02*
X99697676Y-117590475D01*
X99697676Y-117590475D02*
X99792914Y-117685713D01*
X99792914Y-117685713D02*
X99840533Y-117780951D01*
X99554819Y-116590475D02*
X99554819Y-116495237D01*
X99554819Y-116495237D02*
X99602438Y-116399999D01*
X99602438Y-116399999D02*
X99650057Y-116352380D01*
X99650057Y-116352380D02*
X99745295Y-116304761D01*
X99745295Y-116304761D02*
X99935771Y-116257142D01*
X99935771Y-116257142D02*
X100173866Y-116257142D01*
X100173866Y-116257142D02*
X100364342Y-116304761D01*
X100364342Y-116304761D02*
X100459580Y-116352380D01*
X100459580Y-116352380D02*
X100507200Y-116399999D01*
X100507200Y-116399999D02*
X100554819Y-116495237D01*
X100554819Y-116495237D02*
X100554819Y-116590475D01*
X100554819Y-116590475D02*
X100507200Y-116685713D01*
X100507200Y-116685713D02*
X100459580Y-116733332D01*
X100459580Y-116733332D02*
X100364342Y-116780951D01*
X100364342Y-116780951D02*
X100173866Y-116828570D01*
X100173866Y-116828570D02*
X99935771Y-116828570D01*
X99935771Y-116828570D02*
X99745295Y-116780951D01*
X99745295Y-116780951D02*
X99650057Y-116733332D01*
X99650057Y-116733332D02*
X99602438Y-116685713D01*
X99602438Y-116685713D02*
X99554819Y-116590475D01*
X183454819Y-127183333D02*
X184169104Y-127183333D01*
X184169104Y-127183333D02*
X184311961Y-127230952D01*
X184311961Y-127230952D02*
X184407200Y-127326190D01*
X184407200Y-127326190D02*
X184454819Y-127469047D01*
X184454819Y-127469047D02*
X184454819Y-127564285D01*
X183454819Y-126278571D02*
X183454819Y-126469047D01*
X183454819Y-126469047D02*
X183502438Y-126564285D01*
X183502438Y-126564285D02*
X183550057Y-126611904D01*
X183550057Y-126611904D02*
X183692914Y-126707142D01*
X183692914Y-126707142D02*
X183883390Y-126754761D01*
X183883390Y-126754761D02*
X184264342Y-126754761D01*
X184264342Y-126754761D02*
X184359580Y-126707142D01*
X184359580Y-126707142D02*
X184407200Y-126659523D01*
X184407200Y-126659523D02*
X184454819Y-126564285D01*
X184454819Y-126564285D02*
X184454819Y-126373809D01*
X184454819Y-126373809D02*
X184407200Y-126278571D01*
X184407200Y-126278571D02*
X184359580Y-126230952D01*
X184359580Y-126230952D02*
X184264342Y-126183333D01*
X184264342Y-126183333D02*
X184026247Y-126183333D01*
X184026247Y-126183333D02*
X183931009Y-126230952D01*
X183931009Y-126230952D02*
X183883390Y-126278571D01*
X183883390Y-126278571D02*
X183835771Y-126373809D01*
X183835771Y-126373809D02*
X183835771Y-126564285D01*
X183835771Y-126564285D02*
X183883390Y-126659523D01*
X183883390Y-126659523D02*
X183931009Y-126707142D01*
X183931009Y-126707142D02*
X184026247Y-126754761D01*
X99654819Y-85583333D02*
X100369104Y-85583333D01*
X100369104Y-85583333D02*
X100511961Y-85630952D01*
X100511961Y-85630952D02*
X100607200Y-85726190D01*
X100607200Y-85726190D02*
X100654819Y-85869047D01*
X100654819Y-85869047D02*
X100654819Y-85964285D01*
X100654819Y-85059523D02*
X100654819Y-84869047D01*
X100654819Y-84869047D02*
X100607200Y-84773809D01*
X100607200Y-84773809D02*
X100559580Y-84726190D01*
X100559580Y-84726190D02*
X100416723Y-84630952D01*
X100416723Y-84630952D02*
X100226247Y-84583333D01*
X100226247Y-84583333D02*
X99845295Y-84583333D01*
X99845295Y-84583333D02*
X99750057Y-84630952D01*
X99750057Y-84630952D02*
X99702438Y-84678571D01*
X99702438Y-84678571D02*
X99654819Y-84773809D01*
X99654819Y-84773809D02*
X99654819Y-84964285D01*
X99654819Y-84964285D02*
X99702438Y-85059523D01*
X99702438Y-85059523D02*
X99750057Y-85107142D01*
X99750057Y-85107142D02*
X99845295Y-85154761D01*
X99845295Y-85154761D02*
X100083390Y-85154761D01*
X100083390Y-85154761D02*
X100178628Y-85107142D01*
X100178628Y-85107142D02*
X100226247Y-85059523D01*
X100226247Y-85059523D02*
X100273866Y-84964285D01*
X100273866Y-84964285D02*
X100273866Y-84773809D01*
X100273866Y-84773809D02*
X100226247Y-84678571D01*
X100226247Y-84678571D02*
X100178628Y-84630952D01*
X100178628Y-84630952D02*
X100083390Y-84583333D01*
X106407200Y-124333332D02*
X106454819Y-124190475D01*
X106454819Y-124190475D02*
X106454819Y-123952380D01*
X106454819Y-123952380D02*
X106407200Y-123857142D01*
X106407200Y-123857142D02*
X106359580Y-123809523D01*
X106359580Y-123809523D02*
X106264342Y-123761904D01*
X106264342Y-123761904D02*
X106169104Y-123761904D01*
X106169104Y-123761904D02*
X106073866Y-123809523D01*
X106073866Y-123809523D02*
X106026247Y-123857142D01*
X106026247Y-123857142D02*
X105978628Y-123952380D01*
X105978628Y-123952380D02*
X105931009Y-124142856D01*
X105931009Y-124142856D02*
X105883390Y-124238094D01*
X105883390Y-124238094D02*
X105835771Y-124285713D01*
X105835771Y-124285713D02*
X105740533Y-124333332D01*
X105740533Y-124333332D02*
X105645295Y-124333332D01*
X105645295Y-124333332D02*
X105550057Y-124285713D01*
X105550057Y-124285713D02*
X105502438Y-124238094D01*
X105502438Y-124238094D02*
X105454819Y-124142856D01*
X105454819Y-124142856D02*
X105454819Y-123904761D01*
X105454819Y-123904761D02*
X105502438Y-123761904D01*
X105454819Y-123428570D02*
X106454819Y-123190475D01*
X106454819Y-123190475D02*
X105740533Y-122999999D01*
X105740533Y-122999999D02*
X106454819Y-122809523D01*
X106454819Y-122809523D02*
X105454819Y-122571428D01*
X105454819Y-121714285D02*
X105454819Y-122190475D01*
X105454819Y-122190475D02*
X105931009Y-122238094D01*
X105931009Y-122238094D02*
X105883390Y-122190475D01*
X105883390Y-122190475D02*
X105835771Y-122095237D01*
X105835771Y-122095237D02*
X105835771Y-121857142D01*
X105835771Y-121857142D02*
X105883390Y-121761904D01*
X105883390Y-121761904D02*
X105931009Y-121714285D01*
X105931009Y-121714285D02*
X106026247Y-121666666D01*
X106026247Y-121666666D02*
X106264342Y-121666666D01*
X106264342Y-121666666D02*
X106359580Y-121714285D01*
X106359580Y-121714285D02*
X106407200Y-121761904D01*
X106407200Y-121761904D02*
X106454819Y-121857142D01*
X106454819Y-121857142D02*
X106454819Y-122095237D01*
X106454819Y-122095237D02*
X106407200Y-122190475D01*
X106407200Y-122190475D02*
X106359580Y-122238094D01*
X99654819Y-67783333D02*
X100369104Y-67783333D01*
X100369104Y-67783333D02*
X100511961Y-67830952D01*
X100511961Y-67830952D02*
X100607200Y-67926190D01*
X100607200Y-67926190D02*
X100654819Y-68069047D01*
X100654819Y-68069047D02*
X100654819Y-68164285D01*
X99654819Y-66830952D02*
X99654819Y-67307142D01*
X99654819Y-67307142D02*
X100131009Y-67354761D01*
X100131009Y-67354761D02*
X100083390Y-67307142D01*
X100083390Y-67307142D02*
X100035771Y-67211904D01*
X100035771Y-67211904D02*
X100035771Y-66973809D01*
X100035771Y-66973809D02*
X100083390Y-66878571D01*
X100083390Y-66878571D02*
X100131009Y-66830952D01*
X100131009Y-66830952D02*
X100226247Y-66783333D01*
X100226247Y-66783333D02*
X100464342Y-66783333D01*
X100464342Y-66783333D02*
X100559580Y-66830952D01*
X100559580Y-66830952D02*
X100607200Y-66878571D01*
X100607200Y-66878571D02*
X100654819Y-66973809D01*
X100654819Y-66973809D02*
X100654819Y-67211904D01*
X100654819Y-67211904D02*
X100607200Y-67307142D01*
X100607200Y-67307142D02*
X100559580Y-67354761D01*
X153607200Y-122733332D02*
X153654819Y-122590475D01*
X153654819Y-122590475D02*
X153654819Y-122352380D01*
X153654819Y-122352380D02*
X153607200Y-122257142D01*
X153607200Y-122257142D02*
X153559580Y-122209523D01*
X153559580Y-122209523D02*
X153464342Y-122161904D01*
X153464342Y-122161904D02*
X153369104Y-122161904D01*
X153369104Y-122161904D02*
X153273866Y-122209523D01*
X153273866Y-122209523D02*
X153226247Y-122257142D01*
X153226247Y-122257142D02*
X153178628Y-122352380D01*
X153178628Y-122352380D02*
X153131009Y-122542856D01*
X153131009Y-122542856D02*
X153083390Y-122638094D01*
X153083390Y-122638094D02*
X153035771Y-122685713D01*
X153035771Y-122685713D02*
X152940533Y-122733332D01*
X152940533Y-122733332D02*
X152845295Y-122733332D01*
X152845295Y-122733332D02*
X152750057Y-122685713D01*
X152750057Y-122685713D02*
X152702438Y-122638094D01*
X152702438Y-122638094D02*
X152654819Y-122542856D01*
X152654819Y-122542856D02*
X152654819Y-122304761D01*
X152654819Y-122304761D02*
X152702438Y-122161904D01*
X152654819Y-121828570D02*
X153654819Y-121590475D01*
X153654819Y-121590475D02*
X152940533Y-121399999D01*
X152940533Y-121399999D02*
X153654819Y-121209523D01*
X153654819Y-121209523D02*
X152654819Y-120971428D01*
X153654819Y-120066666D02*
X153654819Y-120638094D01*
X153654819Y-120352380D02*
X152654819Y-120352380D01*
X152654819Y-120352380D02*
X152797676Y-120447618D01*
X152797676Y-120447618D02*
X152892914Y-120542856D01*
X152892914Y-120542856D02*
X152940533Y-120638094D01*
X134807200Y-122733332D02*
X134854819Y-122590475D01*
X134854819Y-122590475D02*
X134854819Y-122352380D01*
X134854819Y-122352380D02*
X134807200Y-122257142D01*
X134807200Y-122257142D02*
X134759580Y-122209523D01*
X134759580Y-122209523D02*
X134664342Y-122161904D01*
X134664342Y-122161904D02*
X134569104Y-122161904D01*
X134569104Y-122161904D02*
X134473866Y-122209523D01*
X134473866Y-122209523D02*
X134426247Y-122257142D01*
X134426247Y-122257142D02*
X134378628Y-122352380D01*
X134378628Y-122352380D02*
X134331009Y-122542856D01*
X134331009Y-122542856D02*
X134283390Y-122638094D01*
X134283390Y-122638094D02*
X134235771Y-122685713D01*
X134235771Y-122685713D02*
X134140533Y-122733332D01*
X134140533Y-122733332D02*
X134045295Y-122733332D01*
X134045295Y-122733332D02*
X133950057Y-122685713D01*
X133950057Y-122685713D02*
X133902438Y-122638094D01*
X133902438Y-122638094D02*
X133854819Y-122542856D01*
X133854819Y-122542856D02*
X133854819Y-122304761D01*
X133854819Y-122304761D02*
X133902438Y-122161904D01*
X133854819Y-121828570D02*
X134854819Y-121590475D01*
X134854819Y-121590475D02*
X134140533Y-121399999D01*
X134140533Y-121399999D02*
X134854819Y-121209523D01*
X134854819Y-121209523D02*
X133854819Y-120971428D01*
X133950057Y-120638094D02*
X133902438Y-120590475D01*
X133902438Y-120590475D02*
X133854819Y-120495237D01*
X133854819Y-120495237D02*
X133854819Y-120257142D01*
X133854819Y-120257142D02*
X133902438Y-120161904D01*
X133902438Y-120161904D02*
X133950057Y-120114285D01*
X133950057Y-120114285D02*
X134045295Y-120066666D01*
X134045295Y-120066666D02*
X134140533Y-120066666D01*
X134140533Y-120066666D02*
X134283390Y-120114285D01*
X134283390Y-120114285D02*
X134854819Y-120685713D01*
X134854819Y-120685713D02*
X134854819Y-120066666D01*
X122607200Y-122733332D02*
X122654819Y-122590475D01*
X122654819Y-122590475D02*
X122654819Y-122352380D01*
X122654819Y-122352380D02*
X122607200Y-122257142D01*
X122607200Y-122257142D02*
X122559580Y-122209523D01*
X122559580Y-122209523D02*
X122464342Y-122161904D01*
X122464342Y-122161904D02*
X122369104Y-122161904D01*
X122369104Y-122161904D02*
X122273866Y-122209523D01*
X122273866Y-122209523D02*
X122226247Y-122257142D01*
X122226247Y-122257142D02*
X122178628Y-122352380D01*
X122178628Y-122352380D02*
X122131009Y-122542856D01*
X122131009Y-122542856D02*
X122083390Y-122638094D01*
X122083390Y-122638094D02*
X122035771Y-122685713D01*
X122035771Y-122685713D02*
X121940533Y-122733332D01*
X121940533Y-122733332D02*
X121845295Y-122733332D01*
X121845295Y-122733332D02*
X121750057Y-122685713D01*
X121750057Y-122685713D02*
X121702438Y-122638094D01*
X121702438Y-122638094D02*
X121654819Y-122542856D01*
X121654819Y-122542856D02*
X121654819Y-122304761D01*
X121654819Y-122304761D02*
X121702438Y-122161904D01*
X121654819Y-121828570D02*
X122654819Y-121590475D01*
X122654819Y-121590475D02*
X121940533Y-121399999D01*
X121940533Y-121399999D02*
X122654819Y-121209523D01*
X122654819Y-121209523D02*
X121654819Y-120971428D01*
X121654819Y-120685713D02*
X121654819Y-120066666D01*
X121654819Y-120066666D02*
X122035771Y-120399999D01*
X122035771Y-120399999D02*
X122035771Y-120257142D01*
X122035771Y-120257142D02*
X122083390Y-120161904D01*
X122083390Y-120161904D02*
X122131009Y-120114285D01*
X122131009Y-120114285D02*
X122226247Y-120066666D01*
X122226247Y-120066666D02*
X122464342Y-120066666D01*
X122464342Y-120066666D02*
X122559580Y-120114285D01*
X122559580Y-120114285D02*
X122607200Y-120161904D01*
X122607200Y-120161904D02*
X122654819Y-120257142D01*
X122654819Y-120257142D02*
X122654819Y-120542856D01*
X122654819Y-120542856D02*
X122607200Y-120638094D01*
X122607200Y-120638094D02*
X122559580Y-120685713D01*
X183454819Y-85733333D02*
X184169104Y-85733333D01*
X184169104Y-85733333D02*
X184311961Y-85780952D01*
X184311961Y-85780952D02*
X184407200Y-85876190D01*
X184407200Y-85876190D02*
X184454819Y-86019047D01*
X184454819Y-86019047D02*
X184454819Y-86114285D01*
X183454819Y-85352380D02*
X183454819Y-84733333D01*
X183454819Y-84733333D02*
X183835771Y-85066666D01*
X183835771Y-85066666D02*
X183835771Y-84923809D01*
X183835771Y-84923809D02*
X183883390Y-84828571D01*
X183883390Y-84828571D02*
X183931009Y-84780952D01*
X183931009Y-84780952D02*
X184026247Y-84733333D01*
X184026247Y-84733333D02*
X184264342Y-84733333D01*
X184264342Y-84733333D02*
X184359580Y-84780952D01*
X184359580Y-84780952D02*
X184407200Y-84828571D01*
X184407200Y-84828571D02*
X184454819Y-84923809D01*
X184454819Y-84923809D02*
X184454819Y-85209523D01*
X184454819Y-85209523D02*
X184407200Y-85304761D01*
X184407200Y-85304761D02*
X184359580Y-85352380D01*
X179530476Y-145072319D02*
X179530476Y-145786604D01*
X179530476Y-145786604D02*
X179482857Y-145929461D01*
X179482857Y-145929461D02*
X179387619Y-146024700D01*
X179387619Y-146024700D02*
X179244762Y-146072319D01*
X179244762Y-146072319D02*
X179149524Y-146072319D01*
X180530476Y-146072319D02*
X179959048Y-146072319D01*
X180244762Y-146072319D02*
X180244762Y-145072319D01*
X180244762Y-145072319D02*
X180149524Y-145215176D01*
X180149524Y-145215176D02*
X180054286Y-145310414D01*
X180054286Y-145310414D02*
X179959048Y-145358033D01*
X181387619Y-145072319D02*
X181197143Y-145072319D01*
X181197143Y-145072319D02*
X181101905Y-145119938D01*
X181101905Y-145119938D02*
X181054286Y-145167557D01*
X181054286Y-145167557D02*
X180959048Y-145310414D01*
X180959048Y-145310414D02*
X180911429Y-145500890D01*
X180911429Y-145500890D02*
X180911429Y-145881842D01*
X180911429Y-145881842D02*
X180959048Y-145977080D01*
X180959048Y-145977080D02*
X181006667Y-146024700D01*
X181006667Y-146024700D02*
X181101905Y-146072319D01*
X181101905Y-146072319D02*
X181292381Y-146072319D01*
X181292381Y-146072319D02*
X181387619Y-146024700D01*
X181387619Y-146024700D02*
X181435238Y-145977080D01*
X181435238Y-145977080D02*
X181482857Y-145881842D01*
X181482857Y-145881842D02*
X181482857Y-145643747D01*
X181482857Y-145643747D02*
X181435238Y-145548509D01*
X181435238Y-145548509D02*
X181387619Y-145500890D01*
X181387619Y-145500890D02*
X181292381Y-145453271D01*
X181292381Y-145453271D02*
X181101905Y-145453271D01*
X181101905Y-145453271D02*
X181006667Y-145500890D01*
X181006667Y-145500890D02*
X180959048Y-145548509D01*
X180959048Y-145548509D02*
X180911429Y-145643747D01*
X141455476Y-144987319D02*
X141455476Y-145701604D01*
X141455476Y-145701604D02*
X141407857Y-145844461D01*
X141407857Y-145844461D02*
X141312619Y-145939700D01*
X141312619Y-145939700D02*
X141169762Y-145987319D01*
X141169762Y-145987319D02*
X141074524Y-145987319D01*
X142455476Y-145987319D02*
X141884048Y-145987319D01*
X142169762Y-145987319D02*
X142169762Y-144987319D01*
X142169762Y-144987319D02*
X142074524Y-145130176D01*
X142074524Y-145130176D02*
X141979286Y-145225414D01*
X141979286Y-145225414D02*
X141884048Y-145273033D01*
X142836429Y-145082557D02*
X142884048Y-145034938D01*
X142884048Y-145034938D02*
X142979286Y-144987319D01*
X142979286Y-144987319D02*
X143217381Y-144987319D01*
X143217381Y-144987319D02*
X143312619Y-145034938D01*
X143312619Y-145034938D02*
X143360238Y-145082557D01*
X143360238Y-145082557D02*
X143407857Y-145177795D01*
X143407857Y-145177795D02*
X143407857Y-145273033D01*
X143407857Y-145273033D02*
X143360238Y-145415890D01*
X143360238Y-145415890D02*
X142788810Y-145987319D01*
X142788810Y-145987319D02*
X143407857Y-145987319D01*
X165807200Y-122733332D02*
X165854819Y-122590475D01*
X165854819Y-122590475D02*
X165854819Y-122352380D01*
X165854819Y-122352380D02*
X165807200Y-122257142D01*
X165807200Y-122257142D02*
X165759580Y-122209523D01*
X165759580Y-122209523D02*
X165664342Y-122161904D01*
X165664342Y-122161904D02*
X165569104Y-122161904D01*
X165569104Y-122161904D02*
X165473866Y-122209523D01*
X165473866Y-122209523D02*
X165426247Y-122257142D01*
X165426247Y-122257142D02*
X165378628Y-122352380D01*
X165378628Y-122352380D02*
X165331009Y-122542856D01*
X165331009Y-122542856D02*
X165283390Y-122638094D01*
X165283390Y-122638094D02*
X165235771Y-122685713D01*
X165235771Y-122685713D02*
X165140533Y-122733332D01*
X165140533Y-122733332D02*
X165045295Y-122733332D01*
X165045295Y-122733332D02*
X164950057Y-122685713D01*
X164950057Y-122685713D02*
X164902438Y-122638094D01*
X164902438Y-122638094D02*
X164854819Y-122542856D01*
X164854819Y-122542856D02*
X164854819Y-122304761D01*
X164854819Y-122304761D02*
X164902438Y-122161904D01*
X164854819Y-121828570D02*
X165854819Y-121590475D01*
X165854819Y-121590475D02*
X165140533Y-121399999D01*
X165140533Y-121399999D02*
X165854819Y-121209523D01*
X165854819Y-121209523D02*
X164854819Y-120971428D01*
X165188152Y-120161904D02*
X165854819Y-120161904D01*
X164807200Y-120399999D02*
X165521485Y-120638094D01*
X165521485Y-120638094D02*
X165521485Y-120019047D01*
%TO.C,J15*%
D11*
X171050000Y-132600000D02*
X171050000Y-136600000D01*
X171920000Y-131570000D02*
X171920000Y-132170000D01*
X171920000Y-132170000D02*
X173520000Y-132170000D01*
X172720000Y-136590000D02*
X172970000Y-136060000D01*
X172720000Y-136590000D02*
X185420000Y-136590000D01*
X172720000Y-137590000D02*
X172720000Y-136590000D01*
X172970000Y-136060000D02*
X185170000Y-136060000D01*
X172970000Y-137590000D02*
X172970000Y-136590000D01*
X173520000Y-132170000D02*
X173520000Y-131570000D01*
X174460000Y-131570000D02*
X174460000Y-132170000D01*
X174460000Y-132170000D02*
X176060000Y-132170000D01*
X176060000Y-132170000D02*
X176060000Y-131570000D01*
X177000000Y-131570000D02*
X177000000Y-132170000D01*
X177000000Y-132170000D02*
X178600000Y-132170000D01*
X178600000Y-132170000D02*
X178600000Y-131570000D01*
X179540000Y-131570000D02*
X179540000Y-132170000D01*
X179540000Y-132170000D02*
X181140000Y-132170000D01*
X181140000Y-132170000D02*
X181140000Y-131570000D01*
X182080000Y-131570000D02*
X182080000Y-132170000D01*
X182080000Y-132170000D02*
X183680000Y-132170000D01*
X183680000Y-132170000D02*
X183680000Y-131570000D01*
X184620000Y-131570000D02*
X184620000Y-132170000D01*
X184620000Y-132170000D02*
X186220000Y-132170000D01*
X185170000Y-136060000D02*
X185420000Y-136590000D01*
X185170000Y-137590000D02*
X185170000Y-136590000D01*
X185420000Y-136590000D02*
X185420000Y-137590000D01*
X186220000Y-132170000D02*
X186220000Y-131570000D01*
X171340000Y-131570000D02*
X186800000Y-131570000D01*
X186800000Y-137590000D01*
X171340000Y-137590000D01*
X171340000Y-131570000D01*
%TO.C,SW6*%
X111150000Y-128300000D02*
X111150000Y-129500000D01*
X111150000Y-137500000D02*
X111150000Y-136300000D01*
X115350000Y-128300000D02*
X111150000Y-128300000D01*
X115350000Y-128650000D02*
X115350000Y-128300000D01*
X115350000Y-136300000D02*
X115350000Y-137500000D01*
X115350000Y-137500000D02*
X111150000Y-137500000D01*
X115350000Y-129400000D02*
X115350000Y-128920000D01*
X115830000Y-129400000D01*
X115350000Y-129400000D01*
G36*
X115830000Y-129400000D02*
G01*
X115350000Y-129400000D01*
X115350000Y-128920000D01*
X115830000Y-129400000D01*
G37*
%TO.C,J8*%
X97190000Y-123590000D02*
X98400000Y-123590000D01*
X97190000Y-130310000D02*
X97190000Y-123590000D01*
X98400000Y-123590000D02*
X98400000Y-123090000D01*
X98400000Y-130310000D02*
X97190000Y-130310000D01*
X98400000Y-130810000D02*
X98400000Y-130310000D01*
X98510000Y-131110000D02*
X101010000Y-131110000D01*
X99210000Y-123090000D02*
X99210000Y-124090000D01*
X99210000Y-124090000D02*
X100710000Y-124090000D01*
X99210000Y-129810000D02*
X100710000Y-129810000D01*
X99210000Y-130810000D02*
X99210000Y-129810000D01*
X101010000Y-131110000D02*
X101010000Y-128610000D01*
X96690000Y-123090000D02*
X100710000Y-123090000D01*
X100710000Y-130810000D01*
X96690000Y-130810000D01*
X96690000Y-123090000D01*
%TO.C,C3*%
X123449759Y-101761000D02*
X124079759Y-101761000D01*
X123764759Y-101446000D02*
X123764759Y-102076000D01*
X126950000Y-100370000D02*
X126950000Y-106830000D01*
X126990000Y-100370000D02*
X126990000Y-106830000D01*
X127030000Y-100371000D02*
X127030000Y-106829000D01*
X127070000Y-100372000D02*
X127070000Y-106828000D01*
X127110000Y-100374000D02*
X127110000Y-106826000D01*
X127150000Y-100376000D02*
X127150000Y-106824000D01*
X127190000Y-100379000D02*
X127190000Y-102560000D01*
X127190000Y-104640000D02*
X127190000Y-106821000D01*
X127230000Y-100382000D02*
X127230000Y-102560000D01*
X127230000Y-104640000D02*
X127230000Y-106818000D01*
X127270000Y-100386000D02*
X127270000Y-102560000D01*
X127270000Y-104640000D02*
X127270000Y-106814000D01*
X127310000Y-100390000D02*
X127310000Y-102560000D01*
X127310000Y-104640000D02*
X127310000Y-106810000D01*
X127350000Y-100395000D02*
X127350000Y-102560000D01*
X127350000Y-104640000D02*
X127350000Y-106805000D01*
X127390000Y-100400000D02*
X127390000Y-102560000D01*
X127390000Y-104640000D02*
X127390000Y-106800000D01*
X127430000Y-100405000D02*
X127430000Y-102560000D01*
X127430000Y-104640000D02*
X127430000Y-106795000D01*
X127470000Y-100412000D02*
X127470000Y-102560000D01*
X127470000Y-104640000D02*
X127470000Y-106788000D01*
X127510000Y-100418000D02*
X127510000Y-102560000D01*
X127510000Y-104640000D02*
X127510000Y-106782000D01*
X127550000Y-100426000D02*
X127550000Y-102560000D01*
X127550000Y-104640000D02*
X127550000Y-106774000D01*
X127590000Y-100433000D02*
X127590000Y-102560000D01*
X127590000Y-104640000D02*
X127590000Y-106767000D01*
X127630000Y-100441000D02*
X127630000Y-102560000D01*
X127630000Y-104640000D02*
X127630000Y-106759000D01*
X127670000Y-100450000D02*
X127670000Y-102560000D01*
X127670000Y-104640000D02*
X127670000Y-106750000D01*
X127710000Y-100460000D02*
X127710000Y-102560000D01*
X127710000Y-104640000D02*
X127710000Y-106740000D01*
X127750000Y-100469000D02*
X127750000Y-102560000D01*
X127750000Y-104640000D02*
X127750000Y-106731000D01*
X127790000Y-100480000D02*
X127790000Y-102560000D01*
X127790000Y-104640000D02*
X127790000Y-106720000D01*
X127830000Y-100491000D02*
X127830000Y-102560000D01*
X127830000Y-104640000D02*
X127830000Y-106709000D01*
X127870000Y-100502000D02*
X127870000Y-102560000D01*
X127870000Y-104640000D02*
X127870000Y-106698000D01*
X127910000Y-100514000D02*
X127910000Y-102560000D01*
X127910000Y-104640000D02*
X127910000Y-106686000D01*
X127950000Y-100527000D02*
X127950000Y-102560000D01*
X127950000Y-104640000D02*
X127950000Y-106673000D01*
X127990000Y-100540000D02*
X127990000Y-102560000D01*
X127990000Y-104640000D02*
X127990000Y-106660000D01*
X128030000Y-100553000D02*
X128030000Y-102560000D01*
X128030000Y-104640000D02*
X128030000Y-106647000D01*
X128070000Y-100568000D02*
X128070000Y-102560000D01*
X128070000Y-104640000D02*
X128070000Y-106632000D01*
X128110000Y-100583000D02*
X128110000Y-102560000D01*
X128110000Y-104640000D02*
X128110000Y-106617000D01*
X128150000Y-100598000D02*
X128150000Y-102560000D01*
X128150000Y-104640000D02*
X128150000Y-106602000D01*
X128190000Y-100614000D02*
X128190000Y-102560000D01*
X128190000Y-104640000D02*
X128190000Y-106586000D01*
X128230000Y-100631000D02*
X128230000Y-102560000D01*
X128230000Y-104640000D02*
X128230000Y-106569000D01*
X128270000Y-100648000D02*
X128270000Y-102560000D01*
X128270000Y-104640000D02*
X128270000Y-106552000D01*
X128310000Y-100666000D02*
X128310000Y-102560000D01*
X128310000Y-104640000D02*
X128310000Y-106534000D01*
X128350000Y-100685000D02*
X128350000Y-102560000D01*
X128350000Y-104640000D02*
X128350000Y-106515000D01*
X128390000Y-100704000D02*
X128390000Y-102560000D01*
X128390000Y-104640000D02*
X128390000Y-106496000D01*
X128430000Y-100724000D02*
X128430000Y-102560000D01*
X128430000Y-104640000D02*
X128430000Y-106476000D01*
X128470000Y-100745000D02*
X128470000Y-102560000D01*
X128470000Y-104640000D02*
X128470000Y-106455000D01*
X128510000Y-100766000D02*
X128510000Y-102560000D01*
X128510000Y-104640000D02*
X128510000Y-106434000D01*
X128550000Y-100788000D02*
X128550000Y-102560000D01*
X128550000Y-104640000D02*
X128550000Y-106412000D01*
X128590000Y-100811000D02*
X128590000Y-102560000D01*
X128590000Y-104640000D02*
X128590000Y-106389000D01*
X128630000Y-100835000D02*
X128630000Y-102560000D01*
X128630000Y-104640000D02*
X128630000Y-106365000D01*
X128670000Y-100859000D02*
X128670000Y-102560000D01*
X128670000Y-104640000D02*
X128670000Y-106341000D01*
X128710000Y-100884000D02*
X128710000Y-102560000D01*
X128710000Y-104640000D02*
X128710000Y-106316000D01*
X128750000Y-100910000D02*
X128750000Y-102560000D01*
X128750000Y-104640000D02*
X128750000Y-106290000D01*
X128790000Y-100937000D02*
X128790000Y-102560000D01*
X128790000Y-104640000D02*
X128790000Y-106263000D01*
X128830000Y-100964000D02*
X128830000Y-102560000D01*
X128830000Y-104640000D02*
X128830000Y-106236000D01*
X128870000Y-100993000D02*
X128870000Y-102560000D01*
X128870000Y-104640000D02*
X128870000Y-106207000D01*
X128910000Y-101023000D02*
X128910000Y-102560000D01*
X128910000Y-104640000D02*
X128910000Y-106177000D01*
X128950000Y-101053000D02*
X128950000Y-102560000D01*
X128950000Y-104640000D02*
X128950000Y-106147000D01*
X128990000Y-101084000D02*
X128990000Y-102560000D01*
X128990000Y-104640000D02*
X128990000Y-106116000D01*
X129030000Y-101117000D02*
X129030000Y-102560000D01*
X129030000Y-104640000D02*
X129030000Y-106083000D01*
X129070000Y-101150000D02*
X129070000Y-102560000D01*
X129070000Y-104640000D02*
X129070000Y-106050000D01*
X129110000Y-101185000D02*
X129110000Y-102560000D01*
X129110000Y-104640000D02*
X129110000Y-106015000D01*
X129150000Y-101221000D02*
X129150000Y-102560000D01*
X129150000Y-104640000D02*
X129150000Y-105979000D01*
X129190000Y-101258000D02*
X129190000Y-102560000D01*
X129190000Y-104640000D02*
X129190000Y-105942000D01*
X129230000Y-101296000D02*
X129230000Y-102560000D01*
X129230000Y-104640000D02*
X129230000Y-105904000D01*
X129270000Y-101336000D02*
X129270000Y-105864000D01*
X129310000Y-101377000D02*
X129310000Y-105823000D01*
X129350000Y-101419000D02*
X129350000Y-105781000D01*
X129390000Y-101463000D02*
X129390000Y-105737000D01*
X129430000Y-101509000D02*
X129430000Y-105691000D01*
X129470000Y-101556000D02*
X129470000Y-105644000D01*
X129510000Y-101605000D02*
X129510000Y-105595000D01*
X129550000Y-101657000D02*
X129550000Y-105543000D01*
X129590000Y-101710000D02*
X129590000Y-105490000D01*
X129630000Y-101766000D02*
X129630000Y-105434000D01*
X129670000Y-101825000D02*
X129670000Y-105375000D01*
X129710000Y-101886000D02*
X129710000Y-105314000D01*
X129750000Y-101951000D02*
X129750000Y-105249000D01*
X129790000Y-102019000D02*
X129790000Y-105181000D01*
X129830000Y-102091000D02*
X129830000Y-105109000D01*
X129870000Y-102168000D02*
X129870000Y-105032000D01*
X129910000Y-102250000D02*
X129910000Y-104950000D01*
X129950000Y-102339000D02*
X129950000Y-104861000D01*
X129990000Y-102435000D02*
X129990000Y-104765000D01*
X130030000Y-102542000D02*
X130030000Y-104658000D01*
X130070000Y-102661000D02*
X130070000Y-104539000D01*
X130110000Y-102799000D02*
X130110000Y-104401000D01*
X130150000Y-102967000D02*
X130150000Y-104233000D01*
X130190000Y-103198000D02*
X130190000Y-104002000D01*
X130220000Y-103600000D02*
G75*
G02*
X123680000Y-103600000I-3270000J0D01*
G01*
X123680000Y-103600000D02*
G75*
G02*
X130220000Y-103600000I3270000J0D01*
G01*
%TO.C,A2*%
X161110000Y-59440000D02*
X161110000Y-72270000D01*
X161110000Y-62110000D02*
X181690000Y-62110000D01*
X161110000Y-72270000D02*
X163780000Y-72270000D01*
X161110000Y-73540000D02*
X161110000Y-74940000D01*
X161110000Y-74940000D02*
X162510000Y-74940000D01*
X163780000Y-72270000D02*
X163780000Y-74940000D01*
X163780000Y-72270000D02*
X181690000Y-72270000D01*
X163780000Y-74940000D02*
X181690000Y-74940000D01*
X181690000Y-59440000D02*
X161110000Y-59440000D01*
X181690000Y-74940000D02*
X181690000Y-59440000D01*
%TO.C,SW8*%
X101150000Y-138000000D02*
X101150000Y-139200000D01*
X101150000Y-147200000D02*
X101150000Y-146000000D01*
X105350000Y-138000000D02*
X101150000Y-138000000D01*
X105350000Y-138350000D02*
X105350000Y-138000000D01*
X105350000Y-146000000D02*
X105350000Y-147200000D01*
X105350000Y-147200000D02*
X101150000Y-147200000D01*
X105350000Y-139100000D02*
X105350000Y-138620000D01*
X105830000Y-139100000D01*
X105350000Y-139100000D01*
G36*
X105830000Y-139100000D02*
G01*
X105350000Y-139100000D01*
X105350000Y-138620000D01*
X105830000Y-139100000D01*
G37*
%TO.C,J17*%
X106540000Y-138280000D02*
X116940000Y-138280000D01*
X106540000Y-140400000D02*
X116940000Y-140400000D01*
X106540000Y-144400000D02*
X116940000Y-144400000D01*
X106540000Y-146520000D02*
X106540000Y-138280000D01*
X108900000Y-146520000D02*
X106540000Y-146520000D01*
X116940000Y-138280000D02*
X116940000Y-146520000D01*
X116940000Y-146520000D02*
X109500000Y-146520000D01*
X109200000Y-146520000D02*
X109640000Y-147130000D01*
X108760000Y-147130000D01*
X109200000Y-146520000D01*
G36*
X109640000Y-147130000D02*
G01*
X108760000Y-147130000D01*
X109200000Y-146520000D01*
X109640000Y-147130000D01*
G37*
%TO.C,J7*%
X182990000Y-113090000D02*
X182990000Y-115590000D01*
X184790000Y-113390000D02*
X184790000Y-114390000D01*
X184790000Y-114390000D02*
X183290000Y-114390000D01*
X184790000Y-120110000D02*
X183290000Y-120110000D01*
X184790000Y-121110000D02*
X184790000Y-120110000D01*
X185490000Y-113090000D02*
X182990000Y-113090000D01*
X185600000Y-113390000D02*
X185600000Y-113890000D01*
X185600000Y-113890000D02*
X186810000Y-113890000D01*
X185600000Y-120610000D02*
X185600000Y-121110000D01*
X186810000Y-113890000D02*
X186810000Y-120610000D01*
X186810000Y-120610000D02*
X185600000Y-120610000D01*
X183290000Y-113390000D02*
X187310000Y-113390000D01*
X187310000Y-121110000D01*
X183290000Y-121110000D01*
X183290000Y-113390000D01*
%TO.C,J4*%
X182690000Y-96540000D02*
X182690000Y-99040000D01*
X184490000Y-96840000D02*
X184490000Y-97840000D01*
X184490000Y-97840000D02*
X182990000Y-97840000D01*
X184490000Y-108560000D02*
X182990000Y-108560000D01*
X184490000Y-109560000D02*
X184490000Y-108560000D01*
X185190000Y-96540000D02*
X182690000Y-96540000D01*
X185300000Y-96840000D02*
X185300000Y-97340000D01*
X185300000Y-97340000D02*
X186510000Y-97340000D01*
X185300000Y-109060000D02*
X185300000Y-109560000D01*
X186510000Y-97340000D02*
X186510000Y-109060000D01*
X186510000Y-109060000D02*
X185300000Y-109060000D01*
X182990000Y-96840000D02*
X187010000Y-96840000D01*
X187010000Y-109560000D01*
X182990000Y-109560000D01*
X182990000Y-96840000D01*
%TO.C,A3*%
X161110000Y-77640000D02*
X161110000Y-90470000D01*
X161110000Y-80310000D02*
X181690000Y-80310000D01*
X161110000Y-90470000D02*
X163780000Y-90470000D01*
X161110000Y-91740000D02*
X161110000Y-93140000D01*
X161110000Y-93140000D02*
X162510000Y-93140000D01*
X163780000Y-90470000D02*
X163780000Y-93140000D01*
X163780000Y-90470000D02*
X181690000Y-90470000D01*
X163780000Y-93140000D02*
X181690000Y-93140000D01*
X181690000Y-77640000D02*
X161110000Y-77640000D01*
X181690000Y-93140000D02*
X181690000Y-77640000D01*
%TO.C,C7*%
X153767380Y-72561000D02*
X154397380Y-72561000D01*
X154082380Y-72246000D02*
X154082380Y-72876000D01*
X157267621Y-71170000D02*
X157267621Y-77630000D01*
X157307621Y-71170000D02*
X157307621Y-77630000D01*
X157347621Y-71171000D02*
X157347621Y-77629000D01*
X157387621Y-71172000D02*
X157387621Y-77628000D01*
X157427621Y-71174000D02*
X157427621Y-77626000D01*
X157467621Y-71176000D02*
X157467621Y-77624000D01*
X157507621Y-71179000D02*
X157507621Y-73360000D01*
X157507621Y-75440000D02*
X157507621Y-77621000D01*
X157547621Y-71182000D02*
X157547621Y-73360000D01*
X157547621Y-75440000D02*
X157547621Y-77618000D01*
X157587621Y-71186000D02*
X157587621Y-73360000D01*
X157587621Y-75440000D02*
X157587621Y-77614000D01*
X157627621Y-71190000D02*
X157627621Y-73360000D01*
X157627621Y-75440000D02*
X157627621Y-77610000D01*
X157667621Y-71195000D02*
X157667621Y-73360000D01*
X157667621Y-75440000D02*
X157667621Y-77605000D01*
X157707621Y-71200000D02*
X157707621Y-73360000D01*
X157707621Y-75440000D02*
X157707621Y-77600000D01*
X157747621Y-71205000D02*
X157747621Y-73360000D01*
X157747621Y-75440000D02*
X157747621Y-77595000D01*
X157787621Y-71212000D02*
X157787621Y-73360000D01*
X157787621Y-75440000D02*
X157787621Y-77588000D01*
X157827621Y-71218000D02*
X157827621Y-73360000D01*
X157827621Y-75440000D02*
X157827621Y-77582000D01*
X157867621Y-71226000D02*
X157867621Y-73360000D01*
X157867621Y-75440000D02*
X157867621Y-77574000D01*
X157907621Y-71233000D02*
X157907621Y-73360000D01*
X157907621Y-75440000D02*
X157907621Y-77567000D01*
X157947621Y-71241000D02*
X157947621Y-73360000D01*
X157947621Y-75440000D02*
X157947621Y-77559000D01*
X157987621Y-71250000D02*
X157987621Y-73360000D01*
X157987621Y-75440000D02*
X157987621Y-77550000D01*
X158027621Y-71260000D02*
X158027621Y-73360000D01*
X158027621Y-75440000D02*
X158027621Y-77540000D01*
X158067621Y-71269000D02*
X158067621Y-73360000D01*
X158067621Y-75440000D02*
X158067621Y-77531000D01*
X158107621Y-71280000D02*
X158107621Y-73360000D01*
X158107621Y-75440000D02*
X158107621Y-77520000D01*
X158147621Y-71291000D02*
X158147621Y-73360000D01*
X158147621Y-75440000D02*
X158147621Y-77509000D01*
X158187621Y-71302000D02*
X158187621Y-73360000D01*
X158187621Y-75440000D02*
X158187621Y-77498000D01*
X158227621Y-71314000D02*
X158227621Y-73360000D01*
X158227621Y-75440000D02*
X158227621Y-77486000D01*
X158267621Y-71327000D02*
X158267621Y-73360000D01*
X158267621Y-75440000D02*
X158267621Y-77473000D01*
X158307621Y-71340000D02*
X158307621Y-73360000D01*
X158307621Y-75440000D02*
X158307621Y-77460000D01*
X158347621Y-71353000D02*
X158347621Y-73360000D01*
X158347621Y-75440000D02*
X158347621Y-77447000D01*
X158387621Y-71368000D02*
X158387621Y-73360000D01*
X158387621Y-75440000D02*
X158387621Y-77432000D01*
X158427621Y-71383000D02*
X158427621Y-73360000D01*
X158427621Y-75440000D02*
X158427621Y-77417000D01*
X158467621Y-71398000D02*
X158467621Y-73360000D01*
X158467621Y-75440000D02*
X158467621Y-77402000D01*
X158507621Y-71414000D02*
X158507621Y-73360000D01*
X158507621Y-75440000D02*
X158507621Y-77386000D01*
X158547621Y-71431000D02*
X158547621Y-73360000D01*
X158547621Y-75440000D02*
X158547621Y-77369000D01*
X158587621Y-71448000D02*
X158587621Y-73360000D01*
X158587621Y-75440000D02*
X158587621Y-77352000D01*
X158627621Y-71466000D02*
X158627621Y-73360000D01*
X158627621Y-75440000D02*
X158627621Y-77334000D01*
X158667621Y-71485000D02*
X158667621Y-73360000D01*
X158667621Y-75440000D02*
X158667621Y-77315000D01*
X158707621Y-71504000D02*
X158707621Y-73360000D01*
X158707621Y-75440000D02*
X158707621Y-77296000D01*
X158747621Y-71524000D02*
X158747621Y-73360000D01*
X158747621Y-75440000D02*
X158747621Y-77276000D01*
X158787621Y-71545000D02*
X158787621Y-73360000D01*
X158787621Y-75440000D02*
X158787621Y-77255000D01*
X158827621Y-71566000D02*
X158827621Y-73360000D01*
X158827621Y-75440000D02*
X158827621Y-77234000D01*
X158867621Y-71588000D02*
X158867621Y-73360000D01*
X158867621Y-75440000D02*
X158867621Y-77212000D01*
X158907621Y-71611000D02*
X158907621Y-73360000D01*
X158907621Y-75440000D02*
X158907621Y-77189000D01*
X158947621Y-71635000D02*
X158947621Y-73360000D01*
X158947621Y-75440000D02*
X158947621Y-77165000D01*
X158987621Y-71659000D02*
X158987621Y-73360000D01*
X158987621Y-75440000D02*
X158987621Y-77141000D01*
X159027621Y-71684000D02*
X159027621Y-73360000D01*
X159027621Y-75440000D02*
X159027621Y-77116000D01*
X159067621Y-71710000D02*
X159067621Y-73360000D01*
X159067621Y-75440000D02*
X159067621Y-77090000D01*
X159107621Y-71737000D02*
X159107621Y-73360000D01*
X159107621Y-75440000D02*
X159107621Y-77063000D01*
X159147621Y-71764000D02*
X159147621Y-73360000D01*
X159147621Y-75440000D02*
X159147621Y-77036000D01*
X159187621Y-71793000D02*
X159187621Y-73360000D01*
X159187621Y-75440000D02*
X159187621Y-77007000D01*
X159227621Y-71823000D02*
X159227621Y-73360000D01*
X159227621Y-75440000D02*
X159227621Y-76977000D01*
X159267621Y-71853000D02*
X159267621Y-73360000D01*
X159267621Y-75440000D02*
X159267621Y-76947000D01*
X159307621Y-71884000D02*
X159307621Y-73360000D01*
X159307621Y-75440000D02*
X159307621Y-76916000D01*
X159347621Y-71917000D02*
X159347621Y-73360000D01*
X159347621Y-75440000D02*
X159347621Y-76883000D01*
X159387621Y-71950000D02*
X159387621Y-73360000D01*
X159387621Y-75440000D02*
X159387621Y-76850000D01*
X159427621Y-71985000D02*
X159427621Y-73360000D01*
X159427621Y-75440000D02*
X159427621Y-76815000D01*
X159467621Y-72021000D02*
X159467621Y-73360000D01*
X159467621Y-75440000D02*
X159467621Y-76779000D01*
X159507621Y-72058000D02*
X159507621Y-73360000D01*
X159507621Y-75440000D02*
X159507621Y-76742000D01*
X159547621Y-72096000D02*
X159547621Y-73360000D01*
X159547621Y-75440000D02*
X159547621Y-76704000D01*
X159587621Y-72136000D02*
X159587621Y-76664000D01*
X159627621Y-72177000D02*
X159627621Y-76623000D01*
X159667621Y-72219000D02*
X159667621Y-76581000D01*
X159707621Y-72263000D02*
X159707621Y-76537000D01*
X159747621Y-72309000D02*
X159747621Y-76491000D01*
X159787621Y-72356000D02*
X159787621Y-76444000D01*
X159827621Y-72405000D02*
X159827621Y-76395000D01*
X159867621Y-72457000D02*
X159867621Y-76343000D01*
X159907621Y-72510000D02*
X159907621Y-76290000D01*
X159947621Y-72566000D02*
X159947621Y-76234000D01*
X159987621Y-72625000D02*
X159987621Y-76175000D01*
X160027621Y-72686000D02*
X160027621Y-76114000D01*
X160067621Y-72751000D02*
X160067621Y-76049000D01*
X160107621Y-72819000D02*
X160107621Y-75981000D01*
X160147621Y-72891000D02*
X160147621Y-75909000D01*
X160187621Y-72968000D02*
X160187621Y-75832000D01*
X160227621Y-73050000D02*
X160227621Y-75750000D01*
X160267621Y-73139000D02*
X160267621Y-75661000D01*
X160307621Y-73235000D02*
X160307621Y-75565000D01*
X160347621Y-73342000D02*
X160347621Y-75458000D01*
X160387621Y-73461000D02*
X160387621Y-75339000D01*
X160427621Y-73599000D02*
X160427621Y-75201000D01*
X160467621Y-73767000D02*
X160467621Y-75033000D01*
X160507621Y-73998000D02*
X160507621Y-74802000D01*
X160537621Y-74400000D02*
G75*
G02*
X153997621Y-74400000I-3270000J0D01*
G01*
X153997621Y-74400000D02*
G75*
G02*
X160537621Y-74400000I3270000J0D01*
G01*
%TO.C,A7*%
X102510000Y-59460000D02*
X102510000Y-74960000D01*
X102510000Y-74960000D02*
X123090000Y-74960000D01*
X120420000Y-59460000D02*
X102510000Y-59460000D01*
X120420000Y-62130000D02*
X102510000Y-62130000D01*
X120420000Y-62130000D02*
X120420000Y-59460000D01*
X123090000Y-59460000D02*
X121690000Y-59460000D01*
X123090000Y-60860000D02*
X123090000Y-59460000D01*
X123090000Y-62130000D02*
X120420000Y-62130000D01*
X123090000Y-72290000D02*
X102510000Y-72290000D01*
X123090000Y-74960000D02*
X123090000Y-62130000D01*
%TO.C,J1*%
X148475000Y-138480000D02*
X158875000Y-138480000D01*
X148475000Y-140600000D02*
X158875000Y-140600000D01*
X148475000Y-144600000D02*
X158875000Y-144600000D01*
X148475000Y-146720000D02*
X148475000Y-138480000D01*
X150835000Y-146720000D02*
X148475000Y-146720000D01*
X158875000Y-138480000D02*
X158875000Y-146720000D01*
X158875000Y-146720000D02*
X151435000Y-146720000D01*
X151135000Y-146720000D02*
X151575000Y-147330000D01*
X150695000Y-147330000D01*
X151135000Y-146720000D01*
G36*
X151575000Y-147330000D02*
G01*
X150695000Y-147330000D01*
X151135000Y-146720000D01*
X151575000Y-147330000D01*
G37*
%TO.C,A5*%
X102440000Y-95820000D02*
X102440000Y-111320000D01*
X102440000Y-111320000D02*
X123020000Y-111320000D01*
X120350000Y-95820000D02*
X102440000Y-95820000D01*
X120350000Y-98490000D02*
X102440000Y-98490000D01*
X120350000Y-98490000D02*
X120350000Y-95820000D01*
X123020000Y-95820000D02*
X121620000Y-95820000D01*
X123020000Y-97220000D02*
X123020000Y-95820000D01*
X123020000Y-98490000D02*
X120350000Y-98490000D01*
X123020000Y-108650000D02*
X102440000Y-108650000D01*
X123020000Y-111320000D02*
X123020000Y-98490000D01*
%TO.C,C2*%
X123449759Y-83561000D02*
X124079759Y-83561000D01*
X123764759Y-83246000D02*
X123764759Y-83876000D01*
X126950000Y-82170000D02*
X126950000Y-88630000D01*
X126990000Y-82170000D02*
X126990000Y-88630000D01*
X127030000Y-82171000D02*
X127030000Y-88629000D01*
X127070000Y-82172000D02*
X127070000Y-88628000D01*
X127110000Y-82174000D02*
X127110000Y-88626000D01*
X127150000Y-82176000D02*
X127150000Y-88624000D01*
X127190000Y-82179000D02*
X127190000Y-84360000D01*
X127190000Y-86440000D02*
X127190000Y-88621000D01*
X127230000Y-82182000D02*
X127230000Y-84360000D01*
X127230000Y-86440000D02*
X127230000Y-88618000D01*
X127270000Y-82186000D02*
X127270000Y-84360000D01*
X127270000Y-86440000D02*
X127270000Y-88614000D01*
X127310000Y-82190000D02*
X127310000Y-84360000D01*
X127310000Y-86440000D02*
X127310000Y-88610000D01*
X127350000Y-82195000D02*
X127350000Y-84360000D01*
X127350000Y-86440000D02*
X127350000Y-88605000D01*
X127390000Y-82200000D02*
X127390000Y-84360000D01*
X127390000Y-86440000D02*
X127390000Y-88600000D01*
X127430000Y-82205000D02*
X127430000Y-84360000D01*
X127430000Y-86440000D02*
X127430000Y-88595000D01*
X127470000Y-82212000D02*
X127470000Y-84360000D01*
X127470000Y-86440000D02*
X127470000Y-88588000D01*
X127510000Y-82218000D02*
X127510000Y-84360000D01*
X127510000Y-86440000D02*
X127510000Y-88582000D01*
X127550000Y-82226000D02*
X127550000Y-84360000D01*
X127550000Y-86440000D02*
X127550000Y-88574000D01*
X127590000Y-82233000D02*
X127590000Y-84360000D01*
X127590000Y-86440000D02*
X127590000Y-88567000D01*
X127630000Y-82241000D02*
X127630000Y-84360000D01*
X127630000Y-86440000D02*
X127630000Y-88559000D01*
X127670000Y-82250000D02*
X127670000Y-84360000D01*
X127670000Y-86440000D02*
X127670000Y-88550000D01*
X127710000Y-82260000D02*
X127710000Y-84360000D01*
X127710000Y-86440000D02*
X127710000Y-88540000D01*
X127750000Y-82269000D02*
X127750000Y-84360000D01*
X127750000Y-86440000D02*
X127750000Y-88531000D01*
X127790000Y-82280000D02*
X127790000Y-84360000D01*
X127790000Y-86440000D02*
X127790000Y-88520000D01*
X127830000Y-82291000D02*
X127830000Y-84360000D01*
X127830000Y-86440000D02*
X127830000Y-88509000D01*
X127870000Y-82302000D02*
X127870000Y-84360000D01*
X127870000Y-86440000D02*
X127870000Y-88498000D01*
X127910000Y-82314000D02*
X127910000Y-84360000D01*
X127910000Y-86440000D02*
X127910000Y-88486000D01*
X127950000Y-82327000D02*
X127950000Y-84360000D01*
X127950000Y-86440000D02*
X127950000Y-88473000D01*
X127990000Y-82340000D02*
X127990000Y-84360000D01*
X127990000Y-86440000D02*
X127990000Y-88460000D01*
X128030000Y-82353000D02*
X128030000Y-84360000D01*
X128030000Y-86440000D02*
X128030000Y-88447000D01*
X128070000Y-82368000D02*
X128070000Y-84360000D01*
X128070000Y-86440000D02*
X128070000Y-88432000D01*
X128110000Y-82383000D02*
X128110000Y-84360000D01*
X128110000Y-86440000D02*
X128110000Y-88417000D01*
X128150000Y-82398000D02*
X128150000Y-84360000D01*
X128150000Y-86440000D02*
X128150000Y-88402000D01*
X128190000Y-82414000D02*
X128190000Y-84360000D01*
X128190000Y-86440000D02*
X128190000Y-88386000D01*
X128230000Y-82431000D02*
X128230000Y-84360000D01*
X128230000Y-86440000D02*
X128230000Y-88369000D01*
X128270000Y-82448000D02*
X128270000Y-84360000D01*
X128270000Y-86440000D02*
X128270000Y-88352000D01*
X128310000Y-82466000D02*
X128310000Y-84360000D01*
X128310000Y-86440000D02*
X128310000Y-88334000D01*
X128350000Y-82485000D02*
X128350000Y-84360000D01*
X128350000Y-86440000D02*
X128350000Y-88315000D01*
X128390000Y-82504000D02*
X128390000Y-84360000D01*
X128390000Y-86440000D02*
X128390000Y-88296000D01*
X128430000Y-82524000D02*
X128430000Y-84360000D01*
X128430000Y-86440000D02*
X128430000Y-88276000D01*
X128470000Y-82545000D02*
X128470000Y-84360000D01*
X128470000Y-86440000D02*
X128470000Y-88255000D01*
X128510000Y-82566000D02*
X128510000Y-84360000D01*
X128510000Y-86440000D02*
X128510000Y-88234000D01*
X128550000Y-82588000D02*
X128550000Y-84360000D01*
X128550000Y-86440000D02*
X128550000Y-88212000D01*
X128590000Y-82611000D02*
X128590000Y-84360000D01*
X128590000Y-86440000D02*
X128590000Y-88189000D01*
X128630000Y-82635000D02*
X128630000Y-84360000D01*
X128630000Y-86440000D02*
X128630000Y-88165000D01*
X128670000Y-82659000D02*
X128670000Y-84360000D01*
X128670000Y-86440000D02*
X128670000Y-88141000D01*
X128710000Y-82684000D02*
X128710000Y-84360000D01*
X128710000Y-86440000D02*
X128710000Y-88116000D01*
X128750000Y-82710000D02*
X128750000Y-84360000D01*
X128750000Y-86440000D02*
X128750000Y-88090000D01*
X128790000Y-82737000D02*
X128790000Y-84360000D01*
X128790000Y-86440000D02*
X128790000Y-88063000D01*
X128830000Y-82764000D02*
X128830000Y-84360000D01*
X128830000Y-86440000D02*
X128830000Y-88036000D01*
X128870000Y-82793000D02*
X128870000Y-84360000D01*
X128870000Y-86440000D02*
X128870000Y-88007000D01*
X128910000Y-82823000D02*
X128910000Y-84360000D01*
X128910000Y-86440000D02*
X128910000Y-87977000D01*
X128950000Y-82853000D02*
X128950000Y-84360000D01*
X128950000Y-86440000D02*
X128950000Y-87947000D01*
X128990000Y-82884000D02*
X128990000Y-84360000D01*
X128990000Y-86440000D02*
X128990000Y-87916000D01*
X129030000Y-82917000D02*
X129030000Y-84360000D01*
X129030000Y-86440000D02*
X129030000Y-87883000D01*
X129070000Y-82950000D02*
X129070000Y-84360000D01*
X129070000Y-86440000D02*
X129070000Y-87850000D01*
X129110000Y-82985000D02*
X129110000Y-84360000D01*
X129110000Y-86440000D02*
X129110000Y-87815000D01*
X129150000Y-83021000D02*
X129150000Y-84360000D01*
X129150000Y-86440000D02*
X129150000Y-87779000D01*
X129190000Y-83058000D02*
X129190000Y-84360000D01*
X129190000Y-86440000D02*
X129190000Y-87742000D01*
X129230000Y-83096000D02*
X129230000Y-84360000D01*
X129230000Y-86440000D02*
X129230000Y-87704000D01*
X129270000Y-83136000D02*
X129270000Y-87664000D01*
X129310000Y-83177000D02*
X129310000Y-87623000D01*
X129350000Y-83219000D02*
X129350000Y-87581000D01*
X129390000Y-83263000D02*
X129390000Y-87537000D01*
X129430000Y-83309000D02*
X129430000Y-87491000D01*
X129470000Y-83356000D02*
X129470000Y-87444000D01*
X129510000Y-83405000D02*
X129510000Y-87395000D01*
X129550000Y-83457000D02*
X129550000Y-87343000D01*
X129590000Y-83510000D02*
X129590000Y-87290000D01*
X129630000Y-83566000D02*
X129630000Y-87234000D01*
X129670000Y-83625000D02*
X129670000Y-87175000D01*
X129710000Y-83686000D02*
X129710000Y-87114000D01*
X129750000Y-83751000D02*
X129750000Y-87049000D01*
X129790000Y-83819000D02*
X129790000Y-86981000D01*
X129830000Y-83891000D02*
X129830000Y-86909000D01*
X129870000Y-83968000D02*
X129870000Y-86832000D01*
X129910000Y-84050000D02*
X129910000Y-86750000D01*
X129950000Y-84139000D02*
X129950000Y-86661000D01*
X129990000Y-84235000D02*
X129990000Y-86565000D01*
X130030000Y-84342000D02*
X130030000Y-86458000D01*
X130070000Y-84461000D02*
X130070000Y-86339000D01*
X130110000Y-84599000D02*
X130110000Y-86201000D01*
X130150000Y-84767000D02*
X130150000Y-86033000D01*
X130190000Y-84998000D02*
X130190000Y-85802000D01*
X130220000Y-85400000D02*
G75*
G02*
X123680000Y-85400000I-3270000J0D01*
G01*
X123680000Y-85400000D02*
G75*
G02*
X130220000Y-85400000I3270000J0D01*
G01*
%TO.C,C8*%
X153649759Y-79961000D02*
X154279759Y-79961000D01*
X153964759Y-79646000D02*
X153964759Y-80276000D01*
X157150000Y-78570000D02*
X157150000Y-85030000D01*
X157190000Y-78570000D02*
X157190000Y-85030000D01*
X157230000Y-78571000D02*
X157230000Y-85029000D01*
X157270000Y-78572000D02*
X157270000Y-85028000D01*
X157310000Y-78574000D02*
X157310000Y-85026000D01*
X157350000Y-78576000D02*
X157350000Y-85024000D01*
X157390000Y-78579000D02*
X157390000Y-80760000D01*
X157390000Y-82840000D02*
X157390000Y-85021000D01*
X157430000Y-78582000D02*
X157430000Y-80760000D01*
X157430000Y-82840000D02*
X157430000Y-85018000D01*
X157470000Y-78586000D02*
X157470000Y-80760000D01*
X157470000Y-82840000D02*
X157470000Y-85014000D01*
X157510000Y-78590000D02*
X157510000Y-80760000D01*
X157510000Y-82840000D02*
X157510000Y-85010000D01*
X157550000Y-78595000D02*
X157550000Y-80760000D01*
X157550000Y-82840000D02*
X157550000Y-85005000D01*
X157590000Y-78600000D02*
X157590000Y-80760000D01*
X157590000Y-82840000D02*
X157590000Y-85000000D01*
X157630000Y-78605000D02*
X157630000Y-80760000D01*
X157630000Y-82840000D02*
X157630000Y-84995000D01*
X157670000Y-78612000D02*
X157670000Y-80760000D01*
X157670000Y-82840000D02*
X157670000Y-84988000D01*
X157710000Y-78618000D02*
X157710000Y-80760000D01*
X157710000Y-82840000D02*
X157710000Y-84982000D01*
X157750000Y-78626000D02*
X157750000Y-80760000D01*
X157750000Y-82840000D02*
X157750000Y-84974000D01*
X157790000Y-78633000D02*
X157790000Y-80760000D01*
X157790000Y-82840000D02*
X157790000Y-84967000D01*
X157830000Y-78641000D02*
X157830000Y-80760000D01*
X157830000Y-82840000D02*
X157830000Y-84959000D01*
X157870000Y-78650000D02*
X157870000Y-80760000D01*
X157870000Y-82840000D02*
X157870000Y-84950000D01*
X157910000Y-78660000D02*
X157910000Y-80760000D01*
X157910000Y-82840000D02*
X157910000Y-84940000D01*
X157950000Y-78669000D02*
X157950000Y-80760000D01*
X157950000Y-82840000D02*
X157950000Y-84931000D01*
X157990000Y-78680000D02*
X157990000Y-80760000D01*
X157990000Y-82840000D02*
X157990000Y-84920000D01*
X158030000Y-78691000D02*
X158030000Y-80760000D01*
X158030000Y-82840000D02*
X158030000Y-84909000D01*
X158070000Y-78702000D02*
X158070000Y-80760000D01*
X158070000Y-82840000D02*
X158070000Y-84898000D01*
X158110000Y-78714000D02*
X158110000Y-80760000D01*
X158110000Y-82840000D02*
X158110000Y-84886000D01*
X158150000Y-78727000D02*
X158150000Y-80760000D01*
X158150000Y-82840000D02*
X158150000Y-84873000D01*
X158190000Y-78740000D02*
X158190000Y-80760000D01*
X158190000Y-82840000D02*
X158190000Y-84860000D01*
X158230000Y-78753000D02*
X158230000Y-80760000D01*
X158230000Y-82840000D02*
X158230000Y-84847000D01*
X158270000Y-78768000D02*
X158270000Y-80760000D01*
X158270000Y-82840000D02*
X158270000Y-84832000D01*
X158310000Y-78783000D02*
X158310000Y-80760000D01*
X158310000Y-82840000D02*
X158310000Y-84817000D01*
X158350000Y-78798000D02*
X158350000Y-80760000D01*
X158350000Y-82840000D02*
X158350000Y-84802000D01*
X158390000Y-78814000D02*
X158390000Y-80760000D01*
X158390000Y-82840000D02*
X158390000Y-84786000D01*
X158430000Y-78831000D02*
X158430000Y-80760000D01*
X158430000Y-82840000D02*
X158430000Y-84769000D01*
X158470000Y-78848000D02*
X158470000Y-80760000D01*
X158470000Y-82840000D02*
X158470000Y-84752000D01*
X158510000Y-78866000D02*
X158510000Y-80760000D01*
X158510000Y-82840000D02*
X158510000Y-84734000D01*
X158550000Y-78885000D02*
X158550000Y-80760000D01*
X158550000Y-82840000D02*
X158550000Y-84715000D01*
X158590000Y-78904000D02*
X158590000Y-80760000D01*
X158590000Y-82840000D02*
X158590000Y-84696000D01*
X158630000Y-78924000D02*
X158630000Y-80760000D01*
X158630000Y-82840000D02*
X158630000Y-84676000D01*
X158670000Y-78945000D02*
X158670000Y-80760000D01*
X158670000Y-82840000D02*
X158670000Y-84655000D01*
X158710000Y-78966000D02*
X158710000Y-80760000D01*
X158710000Y-82840000D02*
X158710000Y-84634000D01*
X158750000Y-78988000D02*
X158750000Y-80760000D01*
X158750000Y-82840000D02*
X158750000Y-84612000D01*
X158790000Y-79011000D02*
X158790000Y-80760000D01*
X158790000Y-82840000D02*
X158790000Y-84589000D01*
X158830000Y-79035000D02*
X158830000Y-80760000D01*
X158830000Y-82840000D02*
X158830000Y-84565000D01*
X158870000Y-79059000D02*
X158870000Y-80760000D01*
X158870000Y-82840000D02*
X158870000Y-84541000D01*
X158910000Y-79084000D02*
X158910000Y-80760000D01*
X158910000Y-82840000D02*
X158910000Y-84516000D01*
X158950000Y-79110000D02*
X158950000Y-80760000D01*
X158950000Y-82840000D02*
X158950000Y-84490000D01*
X158990000Y-79137000D02*
X158990000Y-80760000D01*
X158990000Y-82840000D02*
X158990000Y-84463000D01*
X159030000Y-79164000D02*
X159030000Y-80760000D01*
X159030000Y-82840000D02*
X159030000Y-84436000D01*
X159070000Y-79193000D02*
X159070000Y-80760000D01*
X159070000Y-82840000D02*
X159070000Y-84407000D01*
X159110000Y-79223000D02*
X159110000Y-80760000D01*
X159110000Y-82840000D02*
X159110000Y-84377000D01*
X159150000Y-79253000D02*
X159150000Y-80760000D01*
X159150000Y-82840000D02*
X159150000Y-84347000D01*
X159190000Y-79284000D02*
X159190000Y-80760000D01*
X159190000Y-82840000D02*
X159190000Y-84316000D01*
X159230000Y-79317000D02*
X159230000Y-80760000D01*
X159230000Y-82840000D02*
X159230000Y-84283000D01*
X159270000Y-79350000D02*
X159270000Y-80760000D01*
X159270000Y-82840000D02*
X159270000Y-84250000D01*
X159310000Y-79385000D02*
X159310000Y-80760000D01*
X159310000Y-82840000D02*
X159310000Y-84215000D01*
X159350000Y-79421000D02*
X159350000Y-80760000D01*
X159350000Y-82840000D02*
X159350000Y-84179000D01*
X159390000Y-79458000D02*
X159390000Y-80760000D01*
X159390000Y-82840000D02*
X159390000Y-84142000D01*
X159430000Y-79496000D02*
X159430000Y-80760000D01*
X159430000Y-82840000D02*
X159430000Y-84104000D01*
X159470000Y-79536000D02*
X159470000Y-84064000D01*
X159510000Y-79577000D02*
X159510000Y-84023000D01*
X159550000Y-79619000D02*
X159550000Y-83981000D01*
X159590000Y-79663000D02*
X159590000Y-83937000D01*
X159630000Y-79709000D02*
X159630000Y-83891000D01*
X159670000Y-79756000D02*
X159670000Y-83844000D01*
X159710000Y-79805000D02*
X159710000Y-83795000D01*
X159750000Y-79857000D02*
X159750000Y-83743000D01*
X159790000Y-79910000D02*
X159790000Y-83690000D01*
X159830000Y-79966000D02*
X159830000Y-83634000D01*
X159870000Y-80025000D02*
X159870000Y-83575000D01*
X159910000Y-80086000D02*
X159910000Y-83514000D01*
X159950000Y-80151000D02*
X159950000Y-83449000D01*
X159990000Y-80219000D02*
X159990000Y-83381000D01*
X160030000Y-80291000D02*
X160030000Y-83309000D01*
X160070000Y-80368000D02*
X160070000Y-83232000D01*
X160110000Y-80450000D02*
X160110000Y-83150000D01*
X160150000Y-80539000D02*
X160150000Y-83061000D01*
X160190000Y-80635000D02*
X160190000Y-82965000D01*
X160230000Y-80742000D02*
X160230000Y-82858000D01*
X160270000Y-80861000D02*
X160270000Y-82739000D01*
X160310000Y-80999000D02*
X160310000Y-82601000D01*
X160350000Y-81167000D02*
X160350000Y-82433000D01*
X160390000Y-81398000D02*
X160390000Y-82202000D01*
X160420000Y-81800000D02*
G75*
G02*
X153880000Y-81800000I-3270000J0D01*
G01*
X153880000Y-81800000D02*
G75*
G02*
X160420000Y-81800000I3270000J0D01*
G01*
%TO.C,J2*%
X182990000Y-60540000D02*
X182990000Y-63040000D01*
X184790000Y-60840000D02*
X184790000Y-61840000D01*
X184790000Y-61840000D02*
X183290000Y-61840000D01*
X184790000Y-72560000D02*
X183290000Y-72560000D01*
X184790000Y-73560000D02*
X184790000Y-72560000D01*
X185490000Y-60540000D02*
X182990000Y-60540000D01*
X185600000Y-60840000D02*
X185600000Y-61340000D01*
X185600000Y-61340000D02*
X186810000Y-61340000D01*
X185600000Y-73060000D02*
X185600000Y-73560000D01*
X186810000Y-61340000D02*
X186810000Y-73060000D01*
X186810000Y-73060000D02*
X185600000Y-73060000D01*
X183290000Y-60840000D02*
X187310000Y-60840000D01*
X187310000Y-73560000D01*
X183290000Y-73560000D01*
X183290000Y-60840000D01*
%TO.C,C6*%
X153449759Y-100761000D02*
X154079759Y-100761000D01*
X153764759Y-100446000D02*
X153764759Y-101076000D01*
X156950000Y-99370000D02*
X156950000Y-105830000D01*
X156990000Y-99370000D02*
X156990000Y-105830000D01*
X157030000Y-99371000D02*
X157030000Y-105829000D01*
X157070000Y-99372000D02*
X157070000Y-105828000D01*
X157110000Y-99374000D02*
X157110000Y-105826000D01*
X157150000Y-99376000D02*
X157150000Y-105824000D01*
X157190000Y-99379000D02*
X157190000Y-101560000D01*
X157190000Y-103640000D02*
X157190000Y-105821000D01*
X157230000Y-99382000D02*
X157230000Y-101560000D01*
X157230000Y-103640000D02*
X157230000Y-105818000D01*
X157270000Y-99386000D02*
X157270000Y-101560000D01*
X157270000Y-103640000D02*
X157270000Y-105814000D01*
X157310000Y-99390000D02*
X157310000Y-101560000D01*
X157310000Y-103640000D02*
X157310000Y-105810000D01*
X157350000Y-99395000D02*
X157350000Y-101560000D01*
X157350000Y-103640000D02*
X157350000Y-105805000D01*
X157390000Y-99400000D02*
X157390000Y-101560000D01*
X157390000Y-103640000D02*
X157390000Y-105800000D01*
X157430000Y-99405000D02*
X157430000Y-101560000D01*
X157430000Y-103640000D02*
X157430000Y-105795000D01*
X157470000Y-99412000D02*
X157470000Y-101560000D01*
X157470000Y-103640000D02*
X157470000Y-105788000D01*
X157510000Y-99418000D02*
X157510000Y-101560000D01*
X157510000Y-103640000D02*
X157510000Y-105782000D01*
X157550000Y-99426000D02*
X157550000Y-101560000D01*
X157550000Y-103640000D02*
X157550000Y-105774000D01*
X157590000Y-99433000D02*
X157590000Y-101560000D01*
X157590000Y-103640000D02*
X157590000Y-105767000D01*
X157630000Y-99441000D02*
X157630000Y-101560000D01*
X157630000Y-103640000D02*
X157630000Y-105759000D01*
X157670000Y-99450000D02*
X157670000Y-101560000D01*
X157670000Y-103640000D02*
X157670000Y-105750000D01*
X157710000Y-99460000D02*
X157710000Y-101560000D01*
X157710000Y-103640000D02*
X157710000Y-105740000D01*
X157750000Y-99469000D02*
X157750000Y-101560000D01*
X157750000Y-103640000D02*
X157750000Y-105731000D01*
X157790000Y-99480000D02*
X157790000Y-101560000D01*
X157790000Y-103640000D02*
X157790000Y-105720000D01*
X157830000Y-99491000D02*
X157830000Y-101560000D01*
X157830000Y-103640000D02*
X157830000Y-105709000D01*
X157870000Y-99502000D02*
X157870000Y-101560000D01*
X157870000Y-103640000D02*
X157870000Y-105698000D01*
X157910000Y-99514000D02*
X157910000Y-101560000D01*
X157910000Y-103640000D02*
X157910000Y-105686000D01*
X157950000Y-99527000D02*
X157950000Y-101560000D01*
X157950000Y-103640000D02*
X157950000Y-105673000D01*
X157990000Y-99540000D02*
X157990000Y-101560000D01*
X157990000Y-103640000D02*
X157990000Y-105660000D01*
X158030000Y-99553000D02*
X158030000Y-101560000D01*
X158030000Y-103640000D02*
X158030000Y-105647000D01*
X158070000Y-99568000D02*
X158070000Y-101560000D01*
X158070000Y-103640000D02*
X158070000Y-105632000D01*
X158110000Y-99583000D02*
X158110000Y-101560000D01*
X158110000Y-103640000D02*
X158110000Y-105617000D01*
X158150000Y-99598000D02*
X158150000Y-101560000D01*
X158150000Y-103640000D02*
X158150000Y-105602000D01*
X158190000Y-99614000D02*
X158190000Y-101560000D01*
X158190000Y-103640000D02*
X158190000Y-105586000D01*
X158230000Y-99631000D02*
X158230000Y-101560000D01*
X158230000Y-103640000D02*
X158230000Y-105569000D01*
X158270000Y-99648000D02*
X158270000Y-101560000D01*
X158270000Y-103640000D02*
X158270000Y-105552000D01*
X158310000Y-99666000D02*
X158310000Y-101560000D01*
X158310000Y-103640000D02*
X158310000Y-105534000D01*
X158350000Y-99685000D02*
X158350000Y-101560000D01*
X158350000Y-103640000D02*
X158350000Y-105515000D01*
X158390000Y-99704000D02*
X158390000Y-101560000D01*
X158390000Y-103640000D02*
X158390000Y-105496000D01*
X158430000Y-99724000D02*
X158430000Y-101560000D01*
X158430000Y-103640000D02*
X158430000Y-105476000D01*
X158470000Y-99745000D02*
X158470000Y-101560000D01*
X158470000Y-103640000D02*
X158470000Y-105455000D01*
X158510000Y-99766000D02*
X158510000Y-101560000D01*
X158510000Y-103640000D02*
X158510000Y-105434000D01*
X158550000Y-99788000D02*
X158550000Y-101560000D01*
X158550000Y-103640000D02*
X158550000Y-105412000D01*
X158590000Y-99811000D02*
X158590000Y-101560000D01*
X158590000Y-103640000D02*
X158590000Y-105389000D01*
X158630000Y-99835000D02*
X158630000Y-101560000D01*
X158630000Y-103640000D02*
X158630000Y-105365000D01*
X158670000Y-99859000D02*
X158670000Y-101560000D01*
X158670000Y-103640000D02*
X158670000Y-105341000D01*
X158710000Y-99884000D02*
X158710000Y-101560000D01*
X158710000Y-103640000D02*
X158710000Y-105316000D01*
X158750000Y-99910000D02*
X158750000Y-101560000D01*
X158750000Y-103640000D02*
X158750000Y-105290000D01*
X158790000Y-99937000D02*
X158790000Y-101560000D01*
X158790000Y-103640000D02*
X158790000Y-105263000D01*
X158830000Y-99964000D02*
X158830000Y-101560000D01*
X158830000Y-103640000D02*
X158830000Y-105236000D01*
X158870000Y-99993000D02*
X158870000Y-101560000D01*
X158870000Y-103640000D02*
X158870000Y-105207000D01*
X158910000Y-100023000D02*
X158910000Y-101560000D01*
X158910000Y-103640000D02*
X158910000Y-105177000D01*
X158950000Y-100053000D02*
X158950000Y-101560000D01*
X158950000Y-103640000D02*
X158950000Y-105147000D01*
X158990000Y-100084000D02*
X158990000Y-101560000D01*
X158990000Y-103640000D02*
X158990000Y-105116000D01*
X159030000Y-100117000D02*
X159030000Y-101560000D01*
X159030000Y-103640000D02*
X159030000Y-105083000D01*
X159070000Y-100150000D02*
X159070000Y-101560000D01*
X159070000Y-103640000D02*
X159070000Y-105050000D01*
X159110000Y-100185000D02*
X159110000Y-101560000D01*
X159110000Y-103640000D02*
X159110000Y-105015000D01*
X159150000Y-100221000D02*
X159150000Y-101560000D01*
X159150000Y-103640000D02*
X159150000Y-104979000D01*
X159190000Y-100258000D02*
X159190000Y-101560000D01*
X159190000Y-103640000D02*
X159190000Y-104942000D01*
X159230000Y-100296000D02*
X159230000Y-101560000D01*
X159230000Y-103640000D02*
X159230000Y-104904000D01*
X159270000Y-100336000D02*
X159270000Y-104864000D01*
X159310000Y-100377000D02*
X159310000Y-104823000D01*
X159350000Y-100419000D02*
X159350000Y-104781000D01*
X159390000Y-100463000D02*
X159390000Y-104737000D01*
X159430000Y-100509000D02*
X159430000Y-104691000D01*
X159470000Y-100556000D02*
X159470000Y-104644000D01*
X159510000Y-100605000D02*
X159510000Y-104595000D01*
X159550000Y-100657000D02*
X159550000Y-104543000D01*
X159590000Y-100710000D02*
X159590000Y-104490000D01*
X159630000Y-100766000D02*
X159630000Y-104434000D01*
X159670000Y-100825000D02*
X159670000Y-104375000D01*
X159710000Y-100886000D02*
X159710000Y-104314000D01*
X159750000Y-100951000D02*
X159750000Y-104249000D01*
X159790000Y-101019000D02*
X159790000Y-104181000D01*
X159830000Y-101091000D02*
X159830000Y-104109000D01*
X159870000Y-101168000D02*
X159870000Y-104032000D01*
X159910000Y-101250000D02*
X159910000Y-103950000D01*
X159950000Y-101339000D02*
X159950000Y-103861000D01*
X159990000Y-101435000D02*
X159990000Y-103765000D01*
X160030000Y-101542000D02*
X160030000Y-103658000D01*
X160070000Y-101661000D02*
X160070000Y-103539000D01*
X160110000Y-101799000D02*
X160110000Y-103401000D01*
X160150000Y-101967000D02*
X160150000Y-103233000D01*
X160190000Y-102198000D02*
X160190000Y-103002000D01*
X160220000Y-102600000D02*
G75*
G02*
X153680000Y-102600000I-3270000J0D01*
G01*
X153680000Y-102600000D02*
G75*
G02*
X160220000Y-102600000I3270000J0D01*
G01*
%TO.C,J14*%
X159860000Y-138480000D02*
X170260000Y-138480000D01*
X159860000Y-140600000D02*
X170260000Y-140600000D01*
X159860000Y-144600000D02*
X170260000Y-144600000D01*
X159860000Y-146720000D02*
X159860000Y-138480000D01*
X162220000Y-146720000D02*
X159860000Y-146720000D01*
X170260000Y-138480000D02*
X170260000Y-146720000D01*
X170260000Y-146720000D02*
X162820000Y-146720000D01*
X162520000Y-146720000D02*
X162960000Y-147330000D01*
X162080000Y-147330000D01*
X162520000Y-146720000D01*
G36*
X162960000Y-147330000D02*
G01*
X162080000Y-147330000D01*
X162520000Y-146720000D01*
X162960000Y-147330000D01*
G37*
%TO.C,J13*%
X125660000Y-138480000D02*
X136060000Y-138480000D01*
X125660000Y-140600000D02*
X136060000Y-140600000D01*
X125660000Y-144600000D02*
X136060000Y-144600000D01*
X125660000Y-146720000D02*
X125660000Y-138480000D01*
X128020000Y-146720000D02*
X125660000Y-146720000D01*
X136060000Y-138480000D02*
X136060000Y-146720000D01*
X136060000Y-146720000D02*
X128620000Y-146720000D01*
X128320000Y-146720000D02*
X128760000Y-147330000D01*
X127880000Y-147330000D01*
X128320000Y-146720000D01*
G36*
X128760000Y-147330000D02*
G01*
X127880000Y-147330000D01*
X128320000Y-146720000D01*
X128760000Y-147330000D01*
G37*
%TO.C,C5*%
X153849759Y-87361000D02*
X154479759Y-87361000D01*
X154164759Y-87046000D02*
X154164759Y-87676000D01*
X157350000Y-85970000D02*
X157350000Y-92430000D01*
X157390000Y-85970000D02*
X157390000Y-92430000D01*
X157430000Y-85971000D02*
X157430000Y-92429000D01*
X157470000Y-85972000D02*
X157470000Y-92428000D01*
X157510000Y-85974000D02*
X157510000Y-92426000D01*
X157550000Y-85976000D02*
X157550000Y-92424000D01*
X157590000Y-85979000D02*
X157590000Y-88160000D01*
X157590000Y-90240000D02*
X157590000Y-92421000D01*
X157630000Y-85982000D02*
X157630000Y-88160000D01*
X157630000Y-90240000D02*
X157630000Y-92418000D01*
X157670000Y-85986000D02*
X157670000Y-88160000D01*
X157670000Y-90240000D02*
X157670000Y-92414000D01*
X157710000Y-85990000D02*
X157710000Y-88160000D01*
X157710000Y-90240000D02*
X157710000Y-92410000D01*
X157750000Y-85995000D02*
X157750000Y-88160000D01*
X157750000Y-90240000D02*
X157750000Y-92405000D01*
X157790000Y-86000000D02*
X157790000Y-88160000D01*
X157790000Y-90240000D02*
X157790000Y-92400000D01*
X157830000Y-86005000D02*
X157830000Y-88160000D01*
X157830000Y-90240000D02*
X157830000Y-92395000D01*
X157870000Y-86012000D02*
X157870000Y-88160000D01*
X157870000Y-90240000D02*
X157870000Y-92388000D01*
X157910000Y-86018000D02*
X157910000Y-88160000D01*
X157910000Y-90240000D02*
X157910000Y-92382000D01*
X157950000Y-86026000D02*
X157950000Y-88160000D01*
X157950000Y-90240000D02*
X157950000Y-92374000D01*
X157990000Y-86033000D02*
X157990000Y-88160000D01*
X157990000Y-90240000D02*
X157990000Y-92367000D01*
X158030000Y-86041000D02*
X158030000Y-88160000D01*
X158030000Y-90240000D02*
X158030000Y-92359000D01*
X158070000Y-86050000D02*
X158070000Y-88160000D01*
X158070000Y-90240000D02*
X158070000Y-92350000D01*
X158110000Y-86060000D02*
X158110000Y-88160000D01*
X158110000Y-90240000D02*
X158110000Y-92340000D01*
X158150000Y-86069000D02*
X158150000Y-88160000D01*
X158150000Y-90240000D02*
X158150000Y-92331000D01*
X158190000Y-86080000D02*
X158190000Y-88160000D01*
X158190000Y-90240000D02*
X158190000Y-92320000D01*
X158230000Y-86091000D02*
X158230000Y-88160000D01*
X158230000Y-90240000D02*
X158230000Y-92309000D01*
X158270000Y-86102000D02*
X158270000Y-88160000D01*
X158270000Y-90240000D02*
X158270000Y-92298000D01*
X158310000Y-86114000D02*
X158310000Y-88160000D01*
X158310000Y-90240000D02*
X158310000Y-92286000D01*
X158350000Y-86127000D02*
X158350000Y-88160000D01*
X158350000Y-90240000D02*
X158350000Y-92273000D01*
X158390000Y-86140000D02*
X158390000Y-88160000D01*
X158390000Y-90240000D02*
X158390000Y-92260000D01*
X158430000Y-86153000D02*
X158430000Y-88160000D01*
X158430000Y-90240000D02*
X158430000Y-92247000D01*
X158470000Y-86168000D02*
X158470000Y-88160000D01*
X158470000Y-90240000D02*
X158470000Y-92232000D01*
X158510000Y-86183000D02*
X158510000Y-88160000D01*
X158510000Y-90240000D02*
X158510000Y-92217000D01*
X158550000Y-86198000D02*
X158550000Y-88160000D01*
X158550000Y-90240000D02*
X158550000Y-92202000D01*
X158590000Y-86214000D02*
X158590000Y-88160000D01*
X158590000Y-90240000D02*
X158590000Y-92186000D01*
X158630000Y-86231000D02*
X158630000Y-88160000D01*
X158630000Y-90240000D02*
X158630000Y-92169000D01*
X158670000Y-86248000D02*
X158670000Y-88160000D01*
X158670000Y-90240000D02*
X158670000Y-92152000D01*
X158710000Y-86266000D02*
X158710000Y-88160000D01*
X158710000Y-90240000D02*
X158710000Y-92134000D01*
X158750000Y-86285000D02*
X158750000Y-88160000D01*
X158750000Y-90240000D02*
X158750000Y-92115000D01*
X158790000Y-86304000D02*
X158790000Y-88160000D01*
X158790000Y-90240000D02*
X158790000Y-92096000D01*
X158830000Y-86324000D02*
X158830000Y-88160000D01*
X158830000Y-90240000D02*
X158830000Y-92076000D01*
X158870000Y-86345000D02*
X158870000Y-88160000D01*
X158870000Y-90240000D02*
X158870000Y-92055000D01*
X158910000Y-86366000D02*
X158910000Y-88160000D01*
X158910000Y-90240000D02*
X158910000Y-92034000D01*
X158950000Y-86388000D02*
X158950000Y-88160000D01*
X158950000Y-90240000D02*
X158950000Y-92012000D01*
X158990000Y-86411000D02*
X158990000Y-88160000D01*
X158990000Y-90240000D02*
X158990000Y-91989000D01*
X159030000Y-86435000D02*
X159030000Y-88160000D01*
X159030000Y-90240000D02*
X159030000Y-91965000D01*
X159070000Y-86459000D02*
X159070000Y-88160000D01*
X159070000Y-90240000D02*
X159070000Y-91941000D01*
X159110000Y-86484000D02*
X159110000Y-88160000D01*
X159110000Y-90240000D02*
X159110000Y-91916000D01*
X159150000Y-86510000D02*
X159150000Y-88160000D01*
X159150000Y-90240000D02*
X159150000Y-91890000D01*
X159190000Y-86537000D02*
X159190000Y-88160000D01*
X159190000Y-90240000D02*
X159190000Y-91863000D01*
X159230000Y-86564000D02*
X159230000Y-88160000D01*
X159230000Y-90240000D02*
X159230000Y-91836000D01*
X159270000Y-86593000D02*
X159270000Y-88160000D01*
X159270000Y-90240000D02*
X159270000Y-91807000D01*
X159310000Y-86623000D02*
X159310000Y-88160000D01*
X159310000Y-90240000D02*
X159310000Y-91777000D01*
X159350000Y-86653000D02*
X159350000Y-88160000D01*
X159350000Y-90240000D02*
X159350000Y-91747000D01*
X159390000Y-86684000D02*
X159390000Y-88160000D01*
X159390000Y-90240000D02*
X159390000Y-91716000D01*
X159430000Y-86717000D02*
X159430000Y-88160000D01*
X159430000Y-90240000D02*
X159430000Y-91683000D01*
X159470000Y-86750000D02*
X159470000Y-88160000D01*
X159470000Y-90240000D02*
X159470000Y-91650000D01*
X159510000Y-86785000D02*
X159510000Y-88160000D01*
X159510000Y-90240000D02*
X159510000Y-91615000D01*
X159550000Y-86821000D02*
X159550000Y-88160000D01*
X159550000Y-90240000D02*
X159550000Y-91579000D01*
X159590000Y-86858000D02*
X159590000Y-88160000D01*
X159590000Y-90240000D02*
X159590000Y-91542000D01*
X159630000Y-86896000D02*
X159630000Y-88160000D01*
X159630000Y-90240000D02*
X159630000Y-91504000D01*
X159670000Y-86936000D02*
X159670000Y-91464000D01*
X159710000Y-86977000D02*
X159710000Y-91423000D01*
X159750000Y-87019000D02*
X159750000Y-91381000D01*
X159790000Y-87063000D02*
X159790000Y-91337000D01*
X159830000Y-87109000D02*
X159830000Y-91291000D01*
X159870000Y-87156000D02*
X159870000Y-91244000D01*
X159910000Y-87205000D02*
X159910000Y-91195000D01*
X159950000Y-87257000D02*
X159950000Y-91143000D01*
X159990000Y-87310000D02*
X159990000Y-91090000D01*
X160030000Y-87366000D02*
X160030000Y-91034000D01*
X160070000Y-87425000D02*
X160070000Y-90975000D01*
X160110000Y-87486000D02*
X160110000Y-90914000D01*
X160150000Y-87551000D02*
X160150000Y-90849000D01*
X160190000Y-87619000D02*
X160190000Y-90781000D01*
X160230000Y-87691000D02*
X160230000Y-90709000D01*
X160270000Y-87768000D02*
X160270000Y-90632000D01*
X160310000Y-87850000D02*
X160310000Y-90550000D01*
X160350000Y-87939000D02*
X160350000Y-90461000D01*
X160390000Y-88035000D02*
X160390000Y-90365000D01*
X160430000Y-88142000D02*
X160430000Y-90258000D01*
X160470000Y-88261000D02*
X160470000Y-90139000D01*
X160510000Y-88399000D02*
X160510000Y-90001000D01*
X160550000Y-88567000D02*
X160550000Y-89833000D01*
X160590000Y-88798000D02*
X160590000Y-89602000D01*
X160620000Y-89200000D02*
G75*
G02*
X154080000Y-89200000I-3270000J0D01*
G01*
X154080000Y-89200000D02*
G75*
G02*
X160620000Y-89200000I3270000J0D01*
G01*
%TO.C,C4*%
X153849759Y-64961000D02*
X154479759Y-64961000D01*
X154164759Y-64646000D02*
X154164759Y-65276000D01*
X157350000Y-63570000D02*
X157350000Y-70030000D01*
X157390000Y-63570000D02*
X157390000Y-70030000D01*
X157430000Y-63571000D02*
X157430000Y-70029000D01*
X157470000Y-63572000D02*
X157470000Y-70028000D01*
X157510000Y-63574000D02*
X157510000Y-70026000D01*
X157550000Y-63576000D02*
X157550000Y-70024000D01*
X157590000Y-63579000D02*
X157590000Y-65760000D01*
X157590000Y-67840000D02*
X157590000Y-70021000D01*
X157630000Y-63582000D02*
X157630000Y-65760000D01*
X157630000Y-67840000D02*
X157630000Y-70018000D01*
X157670000Y-63586000D02*
X157670000Y-65760000D01*
X157670000Y-67840000D02*
X157670000Y-70014000D01*
X157710000Y-63590000D02*
X157710000Y-65760000D01*
X157710000Y-67840000D02*
X157710000Y-70010000D01*
X157750000Y-63595000D02*
X157750000Y-65760000D01*
X157750000Y-67840000D02*
X157750000Y-70005000D01*
X157790000Y-63600000D02*
X157790000Y-65760000D01*
X157790000Y-67840000D02*
X157790000Y-70000000D01*
X157830000Y-63605000D02*
X157830000Y-65760000D01*
X157830000Y-67840000D02*
X157830000Y-69995000D01*
X157870000Y-63612000D02*
X157870000Y-65760000D01*
X157870000Y-67840000D02*
X157870000Y-69988000D01*
X157910000Y-63618000D02*
X157910000Y-65760000D01*
X157910000Y-67840000D02*
X157910000Y-69982000D01*
X157950000Y-63626000D02*
X157950000Y-65760000D01*
X157950000Y-67840000D02*
X157950000Y-69974000D01*
X157990000Y-63633000D02*
X157990000Y-65760000D01*
X157990000Y-67840000D02*
X157990000Y-69967000D01*
X158030000Y-63641000D02*
X158030000Y-65760000D01*
X158030000Y-67840000D02*
X158030000Y-69959000D01*
X158070000Y-63650000D02*
X158070000Y-65760000D01*
X158070000Y-67840000D02*
X158070000Y-69950000D01*
X158110000Y-63660000D02*
X158110000Y-65760000D01*
X158110000Y-67840000D02*
X158110000Y-69940000D01*
X158150000Y-63669000D02*
X158150000Y-65760000D01*
X158150000Y-67840000D02*
X158150000Y-69931000D01*
X158190000Y-63680000D02*
X158190000Y-65760000D01*
X158190000Y-67840000D02*
X158190000Y-69920000D01*
X158230000Y-63691000D02*
X158230000Y-65760000D01*
X158230000Y-67840000D02*
X158230000Y-69909000D01*
X158270000Y-63702000D02*
X158270000Y-65760000D01*
X158270000Y-67840000D02*
X158270000Y-69898000D01*
X158310000Y-63714000D02*
X158310000Y-65760000D01*
X158310000Y-67840000D02*
X158310000Y-69886000D01*
X158350000Y-63727000D02*
X158350000Y-65760000D01*
X158350000Y-67840000D02*
X158350000Y-69873000D01*
X158390000Y-63740000D02*
X158390000Y-65760000D01*
X158390000Y-67840000D02*
X158390000Y-69860000D01*
X158430000Y-63753000D02*
X158430000Y-65760000D01*
X158430000Y-67840000D02*
X158430000Y-69847000D01*
X158470000Y-63768000D02*
X158470000Y-65760000D01*
X158470000Y-67840000D02*
X158470000Y-69832000D01*
X158510000Y-63783000D02*
X158510000Y-65760000D01*
X158510000Y-67840000D02*
X158510000Y-69817000D01*
X158550000Y-63798000D02*
X158550000Y-65760000D01*
X158550000Y-67840000D02*
X158550000Y-69802000D01*
X158590000Y-63814000D02*
X158590000Y-65760000D01*
X158590000Y-67840000D02*
X158590000Y-69786000D01*
X158630000Y-63831000D02*
X158630000Y-65760000D01*
X158630000Y-67840000D02*
X158630000Y-69769000D01*
X158670000Y-63848000D02*
X158670000Y-65760000D01*
X158670000Y-67840000D02*
X158670000Y-69752000D01*
X158710000Y-63866000D02*
X158710000Y-65760000D01*
X158710000Y-67840000D02*
X158710000Y-69734000D01*
X158750000Y-63885000D02*
X158750000Y-65760000D01*
X158750000Y-67840000D02*
X158750000Y-69715000D01*
X158790000Y-63904000D02*
X158790000Y-65760000D01*
X158790000Y-67840000D02*
X158790000Y-69696000D01*
X158830000Y-63924000D02*
X158830000Y-65760000D01*
X158830000Y-67840000D02*
X158830000Y-69676000D01*
X158870000Y-63945000D02*
X158870000Y-65760000D01*
X158870000Y-67840000D02*
X158870000Y-69655000D01*
X158910000Y-63966000D02*
X158910000Y-65760000D01*
X158910000Y-67840000D02*
X158910000Y-69634000D01*
X158950000Y-63988000D02*
X158950000Y-65760000D01*
X158950000Y-67840000D02*
X158950000Y-69612000D01*
X158990000Y-64011000D02*
X158990000Y-65760000D01*
X158990000Y-67840000D02*
X158990000Y-69589000D01*
X159030000Y-64035000D02*
X159030000Y-65760000D01*
X159030000Y-67840000D02*
X159030000Y-69565000D01*
X159070000Y-64059000D02*
X159070000Y-65760000D01*
X159070000Y-67840000D02*
X159070000Y-69541000D01*
X159110000Y-64084000D02*
X159110000Y-65760000D01*
X159110000Y-67840000D02*
X159110000Y-69516000D01*
X159150000Y-64110000D02*
X159150000Y-65760000D01*
X159150000Y-67840000D02*
X159150000Y-69490000D01*
X159190000Y-64137000D02*
X159190000Y-65760000D01*
X159190000Y-67840000D02*
X159190000Y-69463000D01*
X159230000Y-64164000D02*
X159230000Y-65760000D01*
X159230000Y-67840000D02*
X159230000Y-69436000D01*
X159270000Y-64193000D02*
X159270000Y-65760000D01*
X159270000Y-67840000D02*
X159270000Y-69407000D01*
X159310000Y-64223000D02*
X159310000Y-65760000D01*
X159310000Y-67840000D02*
X159310000Y-69377000D01*
X159350000Y-64253000D02*
X159350000Y-65760000D01*
X159350000Y-67840000D02*
X159350000Y-69347000D01*
X159390000Y-64284000D02*
X159390000Y-65760000D01*
X159390000Y-67840000D02*
X159390000Y-69316000D01*
X159430000Y-64317000D02*
X159430000Y-65760000D01*
X159430000Y-67840000D02*
X159430000Y-69283000D01*
X159470000Y-64350000D02*
X159470000Y-65760000D01*
X159470000Y-67840000D02*
X159470000Y-69250000D01*
X159510000Y-64385000D02*
X159510000Y-65760000D01*
X159510000Y-67840000D02*
X159510000Y-69215000D01*
X159550000Y-64421000D02*
X159550000Y-65760000D01*
X159550000Y-67840000D02*
X159550000Y-69179000D01*
X159590000Y-64458000D02*
X159590000Y-65760000D01*
X159590000Y-67840000D02*
X159590000Y-69142000D01*
X159630000Y-64496000D02*
X159630000Y-65760000D01*
X159630000Y-67840000D02*
X159630000Y-69104000D01*
X159670000Y-64536000D02*
X159670000Y-69064000D01*
X159710000Y-64577000D02*
X159710000Y-69023000D01*
X159750000Y-64619000D02*
X159750000Y-68981000D01*
X159790000Y-64663000D02*
X159790000Y-68937000D01*
X159830000Y-64709000D02*
X159830000Y-68891000D01*
X159870000Y-64756000D02*
X159870000Y-68844000D01*
X159910000Y-64805000D02*
X159910000Y-68795000D01*
X159950000Y-64857000D02*
X159950000Y-68743000D01*
X159990000Y-64910000D02*
X159990000Y-68690000D01*
X160030000Y-64966000D02*
X160030000Y-68634000D01*
X160070000Y-65025000D02*
X160070000Y-68575000D01*
X160110000Y-65086000D02*
X160110000Y-68514000D01*
X160150000Y-65151000D02*
X160150000Y-68449000D01*
X160190000Y-65219000D02*
X160190000Y-68381000D01*
X160230000Y-65291000D02*
X160230000Y-68309000D01*
X160270000Y-65368000D02*
X160270000Y-68232000D01*
X160310000Y-65450000D02*
X160310000Y-68150000D01*
X160350000Y-65539000D02*
X160350000Y-68061000D01*
X160390000Y-65635000D02*
X160390000Y-67965000D01*
X160430000Y-65742000D02*
X160430000Y-67858000D01*
X160470000Y-65861000D02*
X160470000Y-67739000D01*
X160510000Y-65999000D02*
X160510000Y-67601000D01*
X160550000Y-66167000D02*
X160550000Y-67433000D01*
X160590000Y-66398000D02*
X160590000Y-67202000D01*
X160620000Y-66800000D02*
G75*
G02*
X154080000Y-66800000I-3270000J0D01*
G01*
X154080000Y-66800000D02*
G75*
G02*
X160620000Y-66800000I3270000J0D01*
G01*
%TO.C,SW7*%
X103950000Y-128300000D02*
X103950000Y-129500000D01*
X103950000Y-137500000D02*
X103950000Y-136300000D01*
X108150000Y-128300000D02*
X103950000Y-128300000D01*
X108150000Y-128650000D02*
X108150000Y-128300000D01*
X108150000Y-136300000D02*
X108150000Y-137500000D01*
X108150000Y-137500000D02*
X103950000Y-137500000D01*
X108150000Y-129400000D02*
X108150000Y-128920000D01*
X108630000Y-129400000D01*
X108150000Y-129400000D01*
G36*
X108630000Y-129400000D02*
G01*
X108150000Y-129400000D01*
X108150000Y-128920000D01*
X108630000Y-129400000D01*
G37*
%TO.C,J11*%
X97190000Y-97690000D02*
X98400000Y-97690000D01*
X97190000Y-109410000D02*
X97190000Y-97690000D01*
X98400000Y-97690000D02*
X98400000Y-97190000D01*
X98400000Y-109410000D02*
X97190000Y-109410000D01*
X98400000Y-109910000D02*
X98400000Y-109410000D01*
X98510000Y-110210000D02*
X101010000Y-110210000D01*
X99210000Y-97190000D02*
X99210000Y-98190000D01*
X99210000Y-98190000D02*
X100710000Y-98190000D01*
X99210000Y-108910000D02*
X100710000Y-108910000D01*
X99210000Y-109910000D02*
X99210000Y-108910000D01*
X101010000Y-110210000D02*
X101010000Y-107710000D01*
X96690000Y-97190000D02*
X100710000Y-97190000D01*
X100710000Y-109910000D01*
X96690000Y-109910000D01*
X96690000Y-97190000D01*
%TO.C,J10*%
X97190000Y-113990000D02*
X98400000Y-113990000D01*
X97190000Y-120710000D02*
X97190000Y-113990000D01*
X98400000Y-113990000D02*
X98400000Y-113490000D01*
X98400000Y-120710000D02*
X97190000Y-120710000D01*
X98400000Y-121210000D02*
X98400000Y-120710000D01*
X98510000Y-121510000D02*
X101010000Y-121510000D01*
X99210000Y-113490000D02*
X99210000Y-114490000D01*
X99210000Y-114490000D02*
X100710000Y-114490000D01*
X99210000Y-120210000D02*
X100710000Y-120210000D01*
X99210000Y-121210000D02*
X99210000Y-120210000D01*
X101010000Y-121510000D02*
X101010000Y-119010000D01*
X96690000Y-113490000D02*
X100710000Y-113490000D01*
X100710000Y-121210000D01*
X96690000Y-121210000D01*
X96690000Y-113490000D01*
%TO.C,J6*%
X182990000Y-122690000D02*
X182990000Y-125190000D01*
X184790000Y-122990000D02*
X184790000Y-123990000D01*
X184790000Y-123990000D02*
X183290000Y-123990000D01*
X184790000Y-129710000D02*
X183290000Y-129710000D01*
X184790000Y-130710000D02*
X184790000Y-129710000D01*
X185490000Y-122690000D02*
X182990000Y-122690000D01*
X185600000Y-122990000D02*
X185600000Y-123490000D01*
X185600000Y-123490000D02*
X186810000Y-123490000D01*
X185600000Y-130210000D02*
X185600000Y-130710000D01*
X186810000Y-123490000D02*
X186810000Y-130210000D01*
X186810000Y-130210000D02*
X185600000Y-130210000D01*
X183290000Y-122990000D02*
X187310000Y-122990000D01*
X187310000Y-130710000D01*
X183290000Y-130710000D01*
X183290000Y-122990000D01*
%TO.C,J9*%
X97390000Y-79390000D02*
X98600000Y-79390000D01*
X97390000Y-91110000D02*
X97390000Y-79390000D01*
X98600000Y-79390000D02*
X98600000Y-78890000D01*
X98600000Y-91110000D02*
X97390000Y-91110000D01*
X98600000Y-91610000D02*
X98600000Y-91110000D01*
X98710000Y-91910000D02*
X101210000Y-91910000D01*
X99410000Y-78890000D02*
X99410000Y-79890000D01*
X99410000Y-79890000D02*
X100910000Y-79890000D01*
X99410000Y-90610000D02*
X100910000Y-90610000D01*
X99410000Y-91610000D02*
X99410000Y-90610000D01*
X101210000Y-91910000D02*
X101210000Y-89410000D01*
X96890000Y-78890000D02*
X100910000Y-78890000D01*
X100910000Y-91610000D01*
X96890000Y-91610000D01*
X96890000Y-78890000D01*
%TO.C,SW5*%
X103950000Y-118300000D02*
X103950000Y-119500000D01*
X103950000Y-127500000D02*
X103950000Y-126300000D01*
X108150000Y-118300000D02*
X103950000Y-118300000D01*
X108150000Y-118650000D02*
X108150000Y-118300000D01*
X108150000Y-126300000D02*
X108150000Y-127500000D01*
X108150000Y-127500000D02*
X103950000Y-127500000D01*
X108150000Y-119400000D02*
X108150000Y-118920000D01*
X108630000Y-119400000D01*
X108150000Y-119400000D01*
G36*
X108630000Y-119400000D02*
G01*
X108150000Y-119400000D01*
X108150000Y-118920000D01*
X108630000Y-119400000D01*
G37*
%TO.C,J5*%
X97390000Y-61590000D02*
X98600000Y-61590000D01*
X97390000Y-73310000D02*
X97390000Y-61590000D01*
X98600000Y-61590000D02*
X98600000Y-61090000D01*
X98600000Y-73310000D02*
X97390000Y-73310000D01*
X98600000Y-73810000D02*
X98600000Y-73310000D01*
X98710000Y-74110000D02*
X101210000Y-74110000D01*
X99410000Y-61090000D02*
X99410000Y-62090000D01*
X99410000Y-62090000D02*
X100910000Y-62090000D01*
X99410000Y-72810000D02*
X100910000Y-72810000D01*
X99410000Y-73810000D02*
X99410000Y-72810000D01*
X101210000Y-74110000D02*
X101210000Y-71610000D01*
X96890000Y-61090000D02*
X100910000Y-61090000D01*
X100910000Y-73810000D01*
X96890000Y-73810000D01*
X96890000Y-61090000D01*
%TO.C,A4*%
X161060000Y-95700000D02*
X161060000Y-108530000D01*
X161060000Y-98370000D02*
X181640000Y-98370000D01*
X161060000Y-108530000D02*
X163730000Y-108530000D01*
X161060000Y-109800000D02*
X161060000Y-111200000D01*
X161060000Y-111200000D02*
X162460000Y-111200000D01*
X163730000Y-108530000D02*
X163730000Y-111200000D01*
X163730000Y-108530000D02*
X181640000Y-108530000D01*
X163730000Y-111200000D02*
X181640000Y-111200000D01*
X181640000Y-95700000D02*
X161060000Y-95700000D01*
X181640000Y-111200000D02*
X181640000Y-95700000D01*
%TO.C,SW1*%
X150980000Y-113660000D02*
X162220000Y-113660000D01*
X150980000Y-116020000D02*
X150980000Y-113660000D01*
X150980000Y-129140000D02*
X150980000Y-116620000D01*
X151600000Y-113660000D02*
X151600000Y-129140000D01*
X154100000Y-113660000D02*
X154100000Y-129140000D01*
X160300000Y-113660000D02*
X160300000Y-129140000D01*
X162220000Y-113660000D02*
X162220000Y-129140000D01*
X162220000Y-129140000D02*
X150980000Y-129140000D01*
X150980000Y-116320000D02*
X150370000Y-116760000D01*
X150370000Y-115880000D01*
X150980000Y-116320000D01*
G36*
X150980000Y-116320000D02*
G01*
X150370000Y-116760000D01*
X150370000Y-115880000D01*
X150980000Y-116320000D01*
G37*
%TO.C,Raspberry Pi Pico *%
X131075000Y-61335000D02*
X131075000Y-59735000D01*
X131395000Y-59665000D02*
X131395000Y-109665000D01*
X131735000Y-59118000D02*
X131735000Y-110212000D01*
X132005000Y-59055000D02*
X134495000Y-59055000D01*
X132005000Y-110275000D02*
X135842939Y-110275000D01*
X134495000Y-59055000D02*
X134495000Y-59968520D01*
X134495000Y-59055000D02*
X135842940Y-59055000D01*
X134495000Y-62361480D02*
X134495000Y-106968520D01*
X134495000Y-109361480D02*
X134495000Y-110275000D01*
X136767061Y-59055000D02*
X137770000Y-59055000D01*
X137770000Y-59055000D02*
X146240000Y-59055000D01*
X137895000Y-57755000D02*
X137895000Y-58575000D01*
X137895000Y-57755000D02*
X146115000Y-57755000D01*
X137895000Y-58575000D02*
X138105000Y-58575000D01*
X138105000Y-58575000D02*
X138105000Y-59971000D01*
X138105000Y-62359000D02*
X138105000Y-63575000D01*
X138405000Y-110275000D02*
X136767061Y-110275000D01*
X145605000Y-110275000D02*
X138405000Y-110275000D01*
X145905000Y-58575000D02*
X145905000Y-59971000D01*
X145905000Y-62359000D02*
X145905000Y-63575000D01*
X145905000Y-63575000D02*
X138105000Y-63575000D01*
X146115000Y-57755000D02*
X146115000Y-58575000D01*
X146115000Y-58575000D02*
X145905000Y-58575000D01*
X146240000Y-59055000D02*
X147242939Y-59055000D01*
X147242939Y-110275000D02*
X145605000Y-110275000D01*
X148167061Y-59055000D02*
X149515000Y-59055000D01*
X148167061Y-110275000D02*
X152005000Y-110275000D01*
X149515000Y-59055000D02*
X149515000Y-59968520D01*
X149515000Y-62361480D02*
X149515000Y-106968520D01*
X149515000Y-109361480D02*
X149515000Y-110275000D01*
X152005000Y-59055000D02*
X149515000Y-59055000D01*
X152275000Y-110212000D02*
X152275000Y-59118000D01*
X152615000Y-59665000D02*
X152615000Y-109665000D01*
X131395000Y-59665000D02*
G75*
G02*
X132005000Y-59055000I610000J0D01*
G01*
X132005000Y-110275000D02*
G75*
G02*
X131395000Y-109665000I-99J609901D01*
G01*
X152005000Y-59055000D02*
G75*
G02*
X152615000Y-59665000I0J-610000D01*
G01*
X152615000Y-109665000D02*
G75*
G02*
X152005000Y-110275000I-610000J0D01*
G01*
%TO.C,A6*%
X102450000Y-77600000D02*
X102450000Y-93100000D01*
X102450000Y-93100000D02*
X123030000Y-93100000D01*
X120360000Y-77600000D02*
X102450000Y-77600000D01*
X120360000Y-80270000D02*
X102450000Y-80270000D01*
X120360000Y-80270000D02*
X120360000Y-77600000D01*
X123030000Y-77600000D02*
X121630000Y-77600000D01*
X123030000Y-79000000D02*
X123030000Y-77600000D01*
X123030000Y-80270000D02*
X120360000Y-80270000D01*
X123030000Y-90430000D02*
X102450000Y-90430000D01*
X123030000Y-93100000D02*
X123030000Y-80270000D01*
%TO.C,SW2*%
X132312500Y-113660000D02*
X143552500Y-113660000D01*
X132312500Y-116020000D02*
X132312500Y-113660000D01*
X132312500Y-129140000D02*
X132312500Y-116620000D01*
X132932500Y-113660000D02*
X132932500Y-129140000D01*
X135432500Y-113660000D02*
X135432500Y-129140000D01*
X141632500Y-113660000D02*
X141632500Y-129140000D01*
X143552500Y-113660000D02*
X143552500Y-129140000D01*
X143552500Y-129140000D02*
X132312500Y-129140000D01*
X132312500Y-116320000D02*
X131702500Y-116760000D01*
X131702500Y-115880000D01*
X132312500Y-116320000D01*
G36*
X132312500Y-116320000D02*
G01*
X131702500Y-116760000D01*
X131702500Y-115880000D01*
X132312500Y-116320000D01*
G37*
%TO.C,SW3*%
X119980000Y-113660000D02*
X131220000Y-113660000D01*
X119980000Y-116020000D02*
X119980000Y-113660000D01*
X119980000Y-129140000D02*
X119980000Y-116620000D01*
X120600000Y-113660000D02*
X120600000Y-129140000D01*
X123100000Y-113660000D02*
X123100000Y-129140000D01*
X129300000Y-113660000D02*
X129300000Y-129140000D01*
X131220000Y-113660000D02*
X131220000Y-129140000D01*
X131220000Y-129140000D02*
X119980000Y-129140000D01*
X119980000Y-116320000D02*
X119370000Y-116760000D01*
X119370000Y-115880000D01*
X119980000Y-116320000D01*
G36*
X119980000Y-116320000D02*
G01*
X119370000Y-116760000D01*
X119370000Y-115880000D01*
X119980000Y-116320000D01*
G37*
%TO.C,J3*%
X182890000Y-78740000D02*
X182890000Y-81240000D01*
X184690000Y-79040000D02*
X184690000Y-80040000D01*
X184690000Y-80040000D02*
X183190000Y-80040000D01*
X184690000Y-90760000D02*
X183190000Y-90760000D01*
X184690000Y-91760000D02*
X184690000Y-90760000D01*
X185390000Y-78740000D02*
X182890000Y-78740000D01*
X185500000Y-79040000D02*
X185500000Y-79540000D01*
X185500000Y-79540000D02*
X186710000Y-79540000D01*
X185500000Y-91260000D02*
X185500000Y-91760000D01*
X186710000Y-79540000D02*
X186710000Y-91260000D01*
X186710000Y-91260000D02*
X185500000Y-91260000D01*
X183190000Y-79040000D02*
X187210000Y-79040000D01*
X187210000Y-91760000D01*
X183190000Y-91760000D01*
X183190000Y-79040000D01*
%TO.C,C1*%
X123449759Y-65561000D02*
X124079759Y-65561000D01*
X123764759Y-65246000D02*
X123764759Y-65876000D01*
X126950000Y-64170000D02*
X126950000Y-70630000D01*
X126990000Y-64170000D02*
X126990000Y-70630000D01*
X127030000Y-64171000D02*
X127030000Y-70629000D01*
X127070000Y-64172000D02*
X127070000Y-70628000D01*
X127110000Y-64174000D02*
X127110000Y-70626000D01*
X127150000Y-64176000D02*
X127150000Y-70624000D01*
X127190000Y-64179000D02*
X127190000Y-66360000D01*
X127190000Y-68440000D02*
X127190000Y-70621000D01*
X127230000Y-64182000D02*
X127230000Y-66360000D01*
X127230000Y-68440000D02*
X127230000Y-70618000D01*
X127270000Y-64186000D02*
X127270000Y-66360000D01*
X127270000Y-68440000D02*
X127270000Y-70614000D01*
X127310000Y-64190000D02*
X127310000Y-66360000D01*
X127310000Y-68440000D02*
X127310000Y-70610000D01*
X127350000Y-64195000D02*
X127350000Y-66360000D01*
X127350000Y-68440000D02*
X127350000Y-70605000D01*
X127390000Y-64200000D02*
X127390000Y-66360000D01*
X127390000Y-68440000D02*
X127390000Y-70600000D01*
X127430000Y-64205000D02*
X127430000Y-66360000D01*
X127430000Y-68440000D02*
X127430000Y-70595000D01*
X127470000Y-64212000D02*
X127470000Y-66360000D01*
X127470000Y-68440000D02*
X127470000Y-70588000D01*
X127510000Y-64218000D02*
X127510000Y-66360000D01*
X127510000Y-68440000D02*
X127510000Y-70582000D01*
X127550000Y-64226000D02*
X127550000Y-66360000D01*
X127550000Y-68440000D02*
X127550000Y-70574000D01*
X127590000Y-64233000D02*
X127590000Y-66360000D01*
X127590000Y-68440000D02*
X127590000Y-70567000D01*
X127630000Y-64241000D02*
X127630000Y-66360000D01*
X127630000Y-68440000D02*
X127630000Y-70559000D01*
X127670000Y-64250000D02*
X127670000Y-66360000D01*
X127670000Y-68440000D02*
X127670000Y-70550000D01*
X127710000Y-64260000D02*
X127710000Y-66360000D01*
X127710000Y-68440000D02*
X127710000Y-70540000D01*
X127750000Y-64269000D02*
X127750000Y-66360000D01*
X127750000Y-68440000D02*
X127750000Y-70531000D01*
X127790000Y-64280000D02*
X127790000Y-66360000D01*
X127790000Y-68440000D02*
X127790000Y-70520000D01*
X127830000Y-64291000D02*
X127830000Y-66360000D01*
X127830000Y-68440000D02*
X127830000Y-70509000D01*
X127870000Y-64302000D02*
X127870000Y-66360000D01*
X127870000Y-68440000D02*
X127870000Y-70498000D01*
X127910000Y-64314000D02*
X127910000Y-66360000D01*
X127910000Y-68440000D02*
X127910000Y-70486000D01*
X127950000Y-64327000D02*
X127950000Y-66360000D01*
X127950000Y-68440000D02*
X127950000Y-70473000D01*
X127990000Y-64340000D02*
X127990000Y-66360000D01*
X127990000Y-68440000D02*
X127990000Y-70460000D01*
X128030000Y-64353000D02*
X128030000Y-66360000D01*
X128030000Y-68440000D02*
X128030000Y-70447000D01*
X128070000Y-64368000D02*
X128070000Y-66360000D01*
X128070000Y-68440000D02*
X128070000Y-70432000D01*
X128110000Y-64383000D02*
X128110000Y-66360000D01*
X128110000Y-68440000D02*
X128110000Y-70417000D01*
X128150000Y-64398000D02*
X128150000Y-66360000D01*
X128150000Y-68440000D02*
X128150000Y-70402000D01*
X128190000Y-64414000D02*
X128190000Y-66360000D01*
X128190000Y-68440000D02*
X128190000Y-70386000D01*
X128230000Y-64431000D02*
X128230000Y-66360000D01*
X128230000Y-68440000D02*
X128230000Y-70369000D01*
X128270000Y-64448000D02*
X128270000Y-66360000D01*
X128270000Y-68440000D02*
X128270000Y-70352000D01*
X128310000Y-64466000D02*
X128310000Y-66360000D01*
X128310000Y-68440000D02*
X128310000Y-70334000D01*
X128350000Y-64485000D02*
X128350000Y-66360000D01*
X128350000Y-68440000D02*
X128350000Y-70315000D01*
X128390000Y-64504000D02*
X128390000Y-66360000D01*
X128390000Y-68440000D02*
X128390000Y-70296000D01*
X128430000Y-64524000D02*
X128430000Y-66360000D01*
X128430000Y-68440000D02*
X128430000Y-70276000D01*
X128470000Y-64545000D02*
X128470000Y-66360000D01*
X128470000Y-68440000D02*
X128470000Y-70255000D01*
X128510000Y-64566000D02*
X128510000Y-66360000D01*
X128510000Y-68440000D02*
X128510000Y-70234000D01*
X128550000Y-64588000D02*
X128550000Y-66360000D01*
X128550000Y-68440000D02*
X128550000Y-70212000D01*
X128590000Y-64611000D02*
X128590000Y-66360000D01*
X128590000Y-68440000D02*
X128590000Y-70189000D01*
X128630000Y-64635000D02*
X128630000Y-66360000D01*
X128630000Y-68440000D02*
X128630000Y-70165000D01*
X128670000Y-64659000D02*
X128670000Y-66360000D01*
X128670000Y-68440000D02*
X128670000Y-70141000D01*
X128710000Y-64684000D02*
X128710000Y-66360000D01*
X128710000Y-68440000D02*
X128710000Y-70116000D01*
X128750000Y-64710000D02*
X128750000Y-66360000D01*
X128750000Y-68440000D02*
X128750000Y-70090000D01*
X128790000Y-64737000D02*
X128790000Y-66360000D01*
X128790000Y-68440000D02*
X128790000Y-70063000D01*
X128830000Y-64764000D02*
X128830000Y-66360000D01*
X128830000Y-68440000D02*
X128830000Y-70036000D01*
X128870000Y-64793000D02*
X128870000Y-66360000D01*
X128870000Y-68440000D02*
X128870000Y-70007000D01*
X128910000Y-64823000D02*
X128910000Y-66360000D01*
X128910000Y-68440000D02*
X128910000Y-69977000D01*
X128950000Y-64853000D02*
X128950000Y-66360000D01*
X128950000Y-68440000D02*
X128950000Y-69947000D01*
X128990000Y-64884000D02*
X128990000Y-66360000D01*
X128990000Y-68440000D02*
X128990000Y-69916000D01*
X129030000Y-64917000D02*
X129030000Y-66360000D01*
X129030000Y-68440000D02*
X129030000Y-69883000D01*
X129070000Y-64950000D02*
X129070000Y-66360000D01*
X129070000Y-68440000D02*
X129070000Y-69850000D01*
X129110000Y-64985000D02*
X129110000Y-66360000D01*
X129110000Y-68440000D02*
X129110000Y-69815000D01*
X129150000Y-65021000D02*
X129150000Y-66360000D01*
X129150000Y-68440000D02*
X129150000Y-69779000D01*
X129190000Y-65058000D02*
X129190000Y-66360000D01*
X129190000Y-68440000D02*
X129190000Y-69742000D01*
X129230000Y-65096000D02*
X129230000Y-66360000D01*
X129230000Y-68440000D02*
X129230000Y-69704000D01*
X129270000Y-65136000D02*
X129270000Y-69664000D01*
X129310000Y-65177000D02*
X129310000Y-69623000D01*
X129350000Y-65219000D02*
X129350000Y-69581000D01*
X129390000Y-65263000D02*
X129390000Y-69537000D01*
X129430000Y-65309000D02*
X129430000Y-69491000D01*
X129470000Y-65356000D02*
X129470000Y-69444000D01*
X129510000Y-65405000D02*
X129510000Y-69395000D01*
X129550000Y-65457000D02*
X129550000Y-69343000D01*
X129590000Y-65510000D02*
X129590000Y-69290000D01*
X129630000Y-65566000D02*
X129630000Y-69234000D01*
X129670000Y-65625000D02*
X129670000Y-69175000D01*
X129710000Y-65686000D02*
X129710000Y-69114000D01*
X129750000Y-65751000D02*
X129750000Y-69049000D01*
X129790000Y-65819000D02*
X129790000Y-68981000D01*
X129830000Y-65891000D02*
X129830000Y-68909000D01*
X129870000Y-65968000D02*
X129870000Y-68832000D01*
X129910000Y-66050000D02*
X129910000Y-68750000D01*
X129950000Y-66139000D02*
X129950000Y-68661000D01*
X129990000Y-66235000D02*
X129990000Y-68565000D01*
X130030000Y-66342000D02*
X130030000Y-68458000D01*
X130070000Y-66461000D02*
X130070000Y-68339000D01*
X130110000Y-66599000D02*
X130110000Y-68201000D01*
X130150000Y-66767000D02*
X130150000Y-68033000D01*
X130190000Y-66998000D02*
X130190000Y-67802000D01*
X130220000Y-67400000D02*
G75*
G02*
X123680000Y-67400000I-3270000J0D01*
G01*
X123680000Y-67400000D02*
G75*
G02*
X130220000Y-67400000I3270000J0D01*
G01*
%TO.C,J16*%
X175140000Y-138480000D02*
X185540000Y-138480000D01*
X175140000Y-140600000D02*
X185540000Y-140600000D01*
X175140000Y-144600000D02*
X185540000Y-144600000D01*
X175140000Y-146720000D02*
X175140000Y-138480000D01*
X177500000Y-146720000D02*
X175140000Y-146720000D01*
X185540000Y-138480000D02*
X185540000Y-146720000D01*
X185540000Y-146720000D02*
X178100000Y-146720000D01*
X177800000Y-146720000D02*
X178240000Y-147330000D01*
X177360000Y-147330000D01*
X177800000Y-146720000D01*
G36*
X178240000Y-147330000D02*
G01*
X177360000Y-147330000D01*
X177800000Y-146720000D01*
X178240000Y-147330000D01*
G37*
%TO.C,J12*%
X137060000Y-138480000D02*
X147460000Y-138480000D01*
X137060000Y-140600000D02*
X147460000Y-140600000D01*
X137060000Y-144600000D02*
X147460000Y-144600000D01*
X137060000Y-146720000D02*
X137060000Y-138480000D01*
X139420000Y-146720000D02*
X137060000Y-146720000D01*
X147460000Y-138480000D02*
X147460000Y-146720000D01*
X147460000Y-146720000D02*
X140020000Y-146720000D01*
X139720000Y-146720000D02*
X140160000Y-147330000D01*
X139280000Y-147330000D01*
X139720000Y-146720000D01*
G36*
X140160000Y-147330000D02*
G01*
X139280000Y-147330000D01*
X139720000Y-146720000D01*
X140160000Y-147330000D01*
G37*
%TO.C,SW4*%
X163380000Y-113660000D02*
X174620000Y-113660000D01*
X163380000Y-116020000D02*
X163380000Y-113660000D01*
X163380000Y-129140000D02*
X163380000Y-116620000D01*
X164000000Y-113660000D02*
X164000000Y-129140000D01*
X166500000Y-113660000D02*
X166500000Y-129140000D01*
X172700000Y-113660000D02*
X172700000Y-129140000D01*
X174620000Y-113660000D02*
X174620000Y-129140000D01*
X174620000Y-129140000D02*
X163380000Y-129140000D01*
X163380000Y-116320000D02*
X162770000Y-116760000D01*
X162770000Y-115880000D01*
X163380000Y-116320000D01*
G36*
X163380000Y-116320000D02*
G01*
X162770000Y-116760000D01*
X162770000Y-115880000D01*
X163380000Y-116320000D01*
G37*
%TD*%
M02*
