%TF.GenerationSoftware,KiCad,Pcbnew,10.0.5*%
%TF.CreationDate,2026-09-20T20:42:16-04:00*%
%TF.ProjectId,compact_stepper_controller,636f6d70-6163-4745-9f73-746570706572,rev?*%
%TF.SameCoordinates,Original*%
%TF.FileFunction,Copper,L4,Bot*%
%TF.FilePolarity,Positive*%
%FSLAX46Y46*%
G04 Gerber Fmt 4.6, Leading zero omitted, Abs format (unit mm)*
G04 Created by KiCad (PCBNEW 10.0.5) date 2026-09-20 20:42:16*
%MOMM*%
%LPD*%
G01*
G04 APERTURE LIST*
G04 Aperture macros list*
%AMRoundRect*
0 Rectangle with rounded corners*
0 $1 Rounding radius*
0 $2 $3 $4 $5 $6 $7 $8 $9 X,Y pos of 4 corners*
0 Add a 4 corners polygon primitive as box body*
4,1,4,$2,$3,$4,$5,$6,$7,$8,$9,$2,$3,0*
0 Add four circle primitives for the rounded corners*
1,1,$1+$1,$2,$3*
1,1,$1+$1,$4,$5*
1,1,$1+$1,$6,$7*
1,1,$1+$1,$8,$9*
0 Add four rect primitives between the rounded corners*
20,1,$1+$1,$2,$3,$4,$5,0*
20,1,$1+$1,$4,$5,$6,$7,0*
20,1,$1+$1,$6,$7,$8,$9,0*
20,1,$1+$1,$8,$9,$2,$3,0*%
%AMOutline5P*
0 Free polygon, 5 corners , with rotation*
0 The origin of the aperture is its center*
0 number of corners: always 5*
0 $1 to $10 corner X, Y*
0 $11 Rotation angle, in degrees counterclockwise*
0 create outline with 5 corners*
4,1,5,$1,$2,$3,$4,$5,$6,$7,$8,$9,$10,$1,$2,$11*%
%AMOutline6P*
0 Free polygon, 6 corners , with rotation*
0 The origin of the aperture is its center*
0 number of corners: always 6*
0 $1 to $12 corner X, Y*
0 $13 Rotation angle, in degrees counterclockwise*
0 create outline with 6 corners*
4,1,6,$1,$2,$3,$4,$5,$6,$7,$8,$9,$10,$11,$12,$1,$2,$13*%
%AMOutline7P*
0 Free polygon, 7 corners , with rotation*
0 The origin of the aperture is its center*
0 number of corners: always 7*
0 $1 to $14 corner X, Y*
0 $15 Rotation angle, in degrees counterclockwise*
0 create outline with 7 corners*
4,1,7,$1,$2,$3,$4,$5,$6,$7,$8,$9,$10,$11,$12,$13,$14,$1,$2,$15*%
%AMOutline8P*
0 Free polygon, 8 corners , with rotation*
0 The origin of the aperture is its center*
0 number of corners: always 8*
0 $1 to $16 corner X, Y*
0 $17 Rotation angle, in degrees counterclockwise*
0 create outline with 8 corners*
4,1,8,$1,$2,$3,$4,$5,$6,$7,$8,$9,$10,$11,$12,$13,$14,$15,$16,$1,$2,$17*%
%AMFreePoly0*
4,1,37,0.603843,0.796157,0.639018,0.796157,0.711114,0.766294,0.766294,0.711114,0.796157,0.639018,0.796157,0.603843,0.800000,0.600000,0.800000,-0.600000,0.796157,-0.603843,0.796157,-0.639018,0.766294,-0.711114,0.711114,-0.766294,0.639018,-0.796157,0.603843,-0.796157,0.600000,-0.800000,0.000000,-0.800000,0.000000,-0.796148,-0.078414,-0.796148,-0.232228,-0.765552,-0.377117,-0.705537,
-0.507515,-0.618408,-0.618408,-0.507515,-0.705537,-0.377117,-0.765552,-0.232228,-0.796148,-0.078414,-0.796148,0.078414,-0.765552,0.232228,-0.705537,0.377117,-0.618408,0.507515,-0.507515,0.618408,-0.377117,0.705537,-0.232228,0.765552,-0.078414,0.796148,0.000000,0.796148,0.000000,0.800000,0.600000,0.800000,0.603843,0.796157,0.603843,0.796157,$1*%
%AMFreePoly1*
4,1,37,0.000000,0.796148,0.078414,0.796148,0.232228,0.765552,0.377117,0.705537,0.507515,0.618408,0.618408,0.507515,0.705537,0.377117,0.765552,0.232228,0.796148,0.078414,0.796148,-0.078414,0.765552,-0.232228,0.705537,-0.377117,0.618408,-0.507515,0.507515,-0.618408,0.377117,-0.705537,0.232228,-0.765552,0.078414,-0.796148,0.000000,-0.796148,0.000000,-0.800000,-0.600000,-0.800000,
-0.603843,-0.796157,-0.639018,-0.796157,-0.711114,-0.766294,-0.766294,-0.711114,-0.796157,-0.639018,-0.796157,-0.603843,-0.800000,-0.600000,-0.800000,0.600000,-0.796157,0.603843,-0.796157,0.639018,-0.766294,0.711114,-0.711114,0.766294,-0.639018,0.796157,-0.603843,0.796157,-0.600000,0.800000,0.000000,0.800000,0.000000,0.796148,0.000000,0.796148,$1*%
G04 Aperture macros list end*
%TA.AperFunction,ComponentPad*%
%ADD10O,1.740000X2.190000*%
%TD*%
%TA.AperFunction,ComponentPad*%
%ADD11RoundRect,0.250000X-0.620000X-0.845000X0.620000X-0.845000X0.620000X0.845000X-0.620000X0.845000X0*%
%TD*%
%TA.AperFunction,ComponentPad*%
%ADD12Outline5P,-0.870000X0.747000X-0.522000X1.095000X0.870000X1.095000X0.870000X-1.095000X-0.870000X-1.095000X0.000000*%
%TD*%
%TA.AperFunction,ComponentPad*%
%ADD13RoundRect,0.250000X-0.450000X0.450000X-0.450000X-0.450000X0.450000X-0.450000X0.450000X0.450000X0*%
%TD*%
%TA.AperFunction,ComponentPad*%
%ADD14C,1.400000*%
%TD*%
%TA.AperFunction,ComponentPad*%
%ADD15C,1.700000*%
%TD*%
%TA.AperFunction,ComponentPad*%
%ADD16Outline5P,-0.850000X0.660000X-0.510000X1.000000X0.850000X1.000000X0.850000X-1.000000X-0.850000X-1.000000X90.000000*%
%TD*%
%TA.AperFunction,ComponentPad*%
%ADD17C,1.600000*%
%TD*%
%TA.AperFunction,ComponentPad*%
%ADD18RoundRect,0.250000X-0.550000X-0.550000X0.550000X-0.550000X0.550000X0.550000X-0.550000X0.550000X0*%
%TD*%
%TA.AperFunction,ComponentPad*%
%ADD19R,1.600000X1.600000*%
%TD*%
%TA.AperFunction,ComponentPad*%
%ADD20O,1.600000X1.600000*%
%TD*%
%TA.AperFunction,ComponentPad*%
%ADD21C,0.800000*%
%TD*%
%TA.AperFunction,ComponentPad*%
%ADD22Outline5P,-3.500000X3.500000X2.100000X3.500000X3.500000X2.100000X3.500000X-3.500000X-3.500000X-3.500000X0.000000*%
%TD*%
%TA.AperFunction,ComponentPad*%
%ADD23C,2.500000*%
%TD*%
%TA.AperFunction,ComponentPad*%
%ADD24Outline5P,-1.250000X0.750000X-0.750000X1.250000X1.250000X1.250000X1.250000X-1.250000X-1.250000X-1.250000X0.000000*%
%TD*%
%TA.AperFunction,ComponentPad*%
%ADD25Outline5P,-0.850000X0.660000X-0.510000X1.000000X0.850000X1.000000X0.850000X-1.000000X-0.850000X-1.000000X270.000000*%
%TD*%
%TA.AperFunction,ComponentPad*%
%ADD26O,1.950000X1.700000*%
%TD*%
%TA.AperFunction,ComponentPad*%
%ADD27Outline5P,-3.500000X2.100000X-2.100000X3.500000X3.500000X3.500000X3.500000X-3.500000X-3.500000X-3.500000X0.000000*%
%TD*%
%TA.AperFunction,ComponentPad*%
%ADD28C,7.000000*%
%TD*%
%TA.AperFunction,ComponentPad*%
%ADD29Outline5P,-1.300000X0.780000X-0.780000X1.300000X1.300000X1.300000X1.300000X-1.300000X-1.300000X-1.300000X270.000000*%
%TD*%
%TA.AperFunction,ComponentPad*%
%ADD30C,2.600000*%
%TD*%
%TA.AperFunction,ComponentPad*%
%ADD31RoundRect,0.200000X-0.600000X-0.600000X0.600000X-0.600000X0.600000X0.600000X-0.600000X0.600000X0*%
%TD*%
%TA.AperFunction,ComponentPad*%
%ADD32FreePoly0,0.000000*%
%TD*%
%TA.AperFunction,ComponentPad*%
%ADD33Outline5P,-0.800000X0.480000X-0.480000X0.800000X0.800000X0.800000X0.800000X-0.800000X-0.800000X-0.800000X0.000000*%
%TD*%
%TA.AperFunction,ComponentPad*%
%ADD34FreePoly1,0.000000*%
%TD*%
%TA.AperFunction,ViaPad*%
%ADD35C,0.600000*%
%TD*%
%TA.AperFunction,Conductor*%
%ADD36C,2.500000*%
%TD*%
%TA.AperFunction,Conductor*%
%ADD37C,0.200000*%
%TD*%
G04 APERTURE END LIST*
D10*
%TO.P,J15,1,Pin_1_1*%
%TO.N,Net-(A1-GPIO20)*%
X172720000Y-134600000D03*
%TO.P,J15,2,Pin_2_2*%
%TO.N,Net-(A1-GPIO19)*%
X175260000Y-134600000D03*
%TO.P,J15,3,Pin_3_3*%
%TO.N,Net-(A1-GPIO18)*%
X177800000Y-134600000D03*
D11*
%TO.P,J15,4,Pin_4_4*%
%TO.N,Net-(A1-AGND)*%
X180340000Y-134600000D03*
D12*
%TO.P,J15,5,Pin_5_5*%
%TO.N,Net-(A1-VBUS)*%
X182880000Y-134600000D03*
%TO.P,J15,6,Pin_6_6*%
%TO.N,Net-(A2-VMOT)*%
X185420000Y-134600000D03*
%TD*%
D13*
%TO.P,SW6,1,C_1*%
%TO.N,unconnected-(SW6-C-Pad1)*%
X114900000Y-130400000D03*
D14*
%TO.P,SW6,2,B_2*%
%TO.N,Net-(A2-M1)*%
X114900000Y-132900000D03*
%TO.P,SW6,3,A_3*%
%TO.N,Net-(A2-VMOT)*%
X114900000Y-135400000D03*
%TO.P,SW6,4*%
%TO.N,N/C*%
X111600000Y-135400000D03*
%TO.P,SW6,5*%
X111600000Y-132900000D03*
%TO.P,SW6,6*%
X111600000Y-130400000D03*
%TD*%
D15*
%TO.P,J8,1,Pin_1_1*%
%TO.N,Net-(A1-GPIO27_ADC1)*%
X98400000Y-128200000D03*
D16*
%TO.P,J8,2,Pin_2_2*%
%TO.N,Net-(A1-AGND)*%
X98400000Y-125700000D03*
%TD*%
D17*
%TO.P,C3,1*%
%TO.N,Net-(A2-VMOT)*%
X125700000Y-103600000D03*
D18*
%TO.P,C3,2*%
%TO.N,Net-(A1-AGND)*%
X128200000Y-103600000D03*
%TD*%
D19*
%TO.P,A2,1,GND_1*%
%TO.N,Net-(A1-AGND)*%
X162510000Y-73540000D03*
D20*
%TO.P,A2,2,~{FLT}_2*%
%TO.N,unconnected-(A2-~{FLT}-Pad2)*%
X165050000Y-73540000D03*
%TO.P,A2,3,A2_3*%
%TO.N,Net-(A2-A2)*%
X167590000Y-73540000D03*
%TO.P,A2,4,A1_4*%
%TO.N,Net-(A2-A1)*%
X170130000Y-73540000D03*
%TO.P,A2,5,B1_5*%
%TO.N,Net-(A2-B1)*%
X172670000Y-73540000D03*
%TO.P,A2,6,B2_6*%
%TO.N,Net-(A2-B2)*%
X175210000Y-73540000D03*
%TO.P,A2,7,GND_7*%
%TO.N,Net-(A1-AGND)*%
X177750000Y-73540000D03*
%TO.P,A2,8,VMOT_8*%
%TO.N,Net-(A2-VMOT)*%
X180290000Y-73540000D03*
%TO.P,A2,9,~{EN}_9*%
%TO.N,Net-(A1-GPIO0)*%
X180290000Y-60840000D03*
%TO.P,A2,10,M0_10*%
%TO.N,Net-(A2-M0)*%
X177750000Y-60840000D03*
%TO.P,A2,11,M1_11*%
%TO.N,Net-(A2-M1)*%
X175210000Y-60840000D03*
%TO.P,A2,12,M2_12*%
%TO.N,Net-(A2-M2)*%
X172670000Y-60840000D03*
%TO.P,A2,13,~{RST}_13*%
%TO.N,Net-(A1-VBUS)*%
X170130000Y-60840000D03*
%TO.P,A2,14,~{SLP}_14*%
X167590000Y-60840000D03*
%TO.P,A2,15,STEP_15*%
%TO.N,Net-(A1-GPIO1)*%
X165050000Y-60840000D03*
%TO.P,A2,16,DIR_16*%
%TO.N,Net-(A1-GPIO2)*%
X162510000Y-60840000D03*
%TD*%
D13*
%TO.P,SW8,1,C_1*%
%TO.N,unconnected-(SW8-C-Pad1)*%
X104900000Y-140100000D03*
D14*
%TO.P,SW8,2,B_2*%
%TO.N,Net-(J17-Pin_2)*%
X104900000Y-142600000D03*
%TO.P,SW8,3,A_3*%
%TO.N,Net-(A1-AGND)*%
X104900000Y-145100000D03*
%TO.P,SW8,4*%
%TO.N,N/C*%
X101600000Y-145100000D03*
%TO.P,SW8,5*%
X101600000Y-142600000D03*
%TO.P,SW8,6*%
X101600000Y-140100000D03*
%TD*%
D21*
%TO.P,REF\u002A\u002A,1*%
%TO.N,Net-(A1-AGND)*%
X189375000Y-62256155D03*
X190143845Y-60400000D03*
X190143845Y-64112310D03*
X192000000Y-59631155D03*
D22*
X192000000Y-62256155D03*
D21*
X192000000Y-64881155D03*
X193856155Y-60400000D03*
X193856155Y-64112310D03*
X194625000Y-62256155D03*
%TD*%
D23*
%TO.P,J17,1,Pin_1_1*%
%TO.N,Net-(A2-VMOT)*%
X109200000Y-142400000D03*
D24*
%TO.P,J17,2,Pin_2_2*%
%TO.N,Net-(J17-Pin_2)*%
X114280000Y-142400000D03*
%TD*%
D15*
%TO.P,J7,1,Pin_1_1*%
%TO.N,Net-(A1-GPIO22)*%
X185600000Y-116000000D03*
D25*
%TO.P,J7,2,Pin_2_2*%
%TO.N,Net-(A1-AGND)*%
X185600000Y-118500000D03*
%TD*%
D26*
%TO.P,J4,1,Pin_1_1*%
%TO.N,Net-(A4-A2)*%
X185300000Y-99450000D03*
%TO.P,J4,2,Pin_2_2*%
%TO.N,Net-(A4-A1)*%
X185300000Y-101950000D03*
%TO.P,J4,3,Pin_3_3*%
%TO.N,Net-(A4-B1)*%
X185300000Y-104450000D03*
%TO.P,J4,4,Pin_4_4*%
%TO.N,Net-(A4-B2)*%
X185300000Y-106950000D03*
%TD*%
D19*
%TO.P,A3,1,GND_1*%
%TO.N,Net-(A1-AGND)*%
X162510000Y-91740000D03*
D20*
%TO.P,A3,2,~{FLT}_2*%
%TO.N,unconnected-(A3-~{FLT}-Pad2)*%
X165050000Y-91740000D03*
%TO.P,A3,3,A2_3*%
%TO.N,Net-(A3-A2)*%
X167590000Y-91740000D03*
%TO.P,A3,4,A1_4*%
%TO.N,Net-(A3-A1)*%
X170130000Y-91740000D03*
%TO.P,A3,5,B1_5*%
%TO.N,Net-(A3-B1)*%
X172670000Y-91740000D03*
%TO.P,A3,6,B2_6*%
%TO.N,Net-(A3-B2)*%
X175210000Y-91740000D03*
%TO.P,A3,7,GND_7*%
%TO.N,Net-(A1-AGND)*%
X177750000Y-91740000D03*
%TO.P,A3,8,VMOT_8*%
%TO.N,Net-(A2-VMOT)*%
X180290000Y-91740000D03*
%TO.P,A3,9,~{EN}_9*%
%TO.N,Net-(A1-GPIO3)*%
X180290000Y-79040000D03*
%TO.P,A3,10,M0_10*%
%TO.N,Net-(A2-M0)*%
X177750000Y-79040000D03*
%TO.P,A3,11,M1_11*%
%TO.N,Net-(A2-M1)*%
X175210000Y-79040000D03*
%TO.P,A3,12,M2_12*%
%TO.N,Net-(A2-M2)*%
X172670000Y-79040000D03*
%TO.P,A3,13,~{RST}_13*%
%TO.N,Net-(A1-VBUS)*%
X170130000Y-79040000D03*
%TO.P,A3,14,~{SLP}_14*%
X167590000Y-79040000D03*
%TO.P,A3,15,STEP_15*%
%TO.N,Net-(A1-GPIO4)*%
X165050000Y-79040000D03*
%TO.P,A3,16,DIR_16*%
%TO.N,Net-(A1-GPIO5)*%
X162510000Y-79040000D03*
%TD*%
D21*
%TO.P,REF\u002A\u002A,1*%
%TO.N,Net-(A1-AGND)*%
X89775000Y-62400000D03*
X90543845Y-60543845D03*
X90543845Y-64256155D03*
X92400000Y-59775000D03*
D27*
X92400000Y-62400000D03*
D21*
X92400000Y-65025000D03*
X94256155Y-60543845D03*
X94256155Y-64256155D03*
X95025000Y-62400000D03*
%TD*%
%TO.P,REF\u002A\u002A,1*%
%TO.N,Net-(A1-AGND)*%
X189375000Y-143000000D03*
X190143845Y-141143845D03*
X190143845Y-144856155D03*
X192000000Y-140375000D03*
D28*
X192000000Y-143000000D03*
D21*
X192000000Y-145625000D03*
X193856155Y-141143845D03*
X193856155Y-144856155D03*
X194625000Y-143000000D03*
%TD*%
D17*
%TO.P,C7,1*%
%TO.N,Net-(A1-VBUS)*%
X156017621Y-74400000D03*
D18*
%TO.P,C7,2*%
%TO.N,Net-(A1-AGND)*%
X158517621Y-74400000D03*
%TD*%
D19*
%TO.P,A7,1,GND_1*%
%TO.N,Net-(A1-AGND)*%
X121690000Y-60860000D03*
D20*
%TO.P,A7,2,~{FLT}_2*%
%TO.N,unconnected-(A7-~{FLT}-Pad2)*%
X119150000Y-60860000D03*
%TO.P,A7,3,A2_3*%
%TO.N,Net-(A7-A2)*%
X116610000Y-60860000D03*
%TO.P,A7,4,A1_4*%
%TO.N,Net-(A7-A1)*%
X114070000Y-60860000D03*
%TO.P,A7,5,B1_5*%
%TO.N,Net-(A7-B1)*%
X111530000Y-60860000D03*
%TO.P,A7,6,B2_6*%
%TO.N,Net-(A7-B2)*%
X108990000Y-60860000D03*
%TO.P,A7,7,GND_7*%
%TO.N,Net-(A1-AGND)*%
X106450000Y-60860000D03*
%TO.P,A7,8,VMOT_8*%
%TO.N,Net-(A2-VMOT)*%
X103910000Y-60860000D03*
%TO.P,A7,9,~{EN}_9*%
%TO.N,Net-(A1-GPIO15)*%
X103910000Y-73560000D03*
%TO.P,A7,10,M0_10*%
%TO.N,Net-(A2-M0)*%
X106450000Y-73560000D03*
%TO.P,A7,11,M1_11*%
%TO.N,Net-(A2-M1)*%
X108990000Y-73560000D03*
%TO.P,A7,12,M2_12*%
%TO.N,Net-(A2-M2)*%
X111530000Y-73560000D03*
%TO.P,A7,13,~{RST}_13*%
%TO.N,Net-(A1-VBUS)*%
X114070000Y-73560000D03*
%TO.P,A7,14,~{SLP}_14*%
X116610000Y-73560000D03*
%TO.P,A7,15,STEP_15*%
%TO.N,Net-(A1-GPIO16)*%
X119150000Y-73560000D03*
%TO.P,A7,16,DIR_16*%
%TO.N,Net-(A1-GPIO17)*%
X121690000Y-73560000D03*
%TD*%
D23*
%TO.P,J1,1,Pin_1_1*%
%TO.N,Net-(J1-Pin_1)*%
X151135000Y-142600000D03*
D24*
%TO.P,J1,2,Pin_2_2*%
%TO.N,Net-(A1-AGND)*%
X156215000Y-142600000D03*
%TD*%
D19*
%TO.P,A5,1,GND_1*%
%TO.N,Net-(A1-AGND)*%
X121620000Y-97220000D03*
D20*
%TO.P,A5,2,~{FLT}_2*%
%TO.N,unconnected-(A5-~{FLT}-Pad2)*%
X119080000Y-97220000D03*
%TO.P,A5,3,A2_3*%
%TO.N,Net-(A5-A2)*%
X116540000Y-97220000D03*
%TO.P,A5,4,A1_4*%
%TO.N,Net-(A5-A1)*%
X114000000Y-97220000D03*
%TO.P,A5,5,B1_5*%
%TO.N,Net-(A5-B1)*%
X111460000Y-97220000D03*
%TO.P,A5,6,B2_6*%
%TO.N,Net-(A5-B2)*%
X108920000Y-97220000D03*
%TO.P,A5,7,GND_7*%
%TO.N,Net-(A1-AGND)*%
X106380000Y-97220000D03*
%TO.P,A5,8,VMOT_8*%
%TO.N,Net-(A2-VMOT)*%
X103840000Y-97220000D03*
%TO.P,A5,9,~{EN}_9*%
%TO.N,Net-(A1-GPIO9)*%
X103840000Y-109920000D03*
%TO.P,A5,10,M0_10*%
%TO.N,Net-(A2-M0)*%
X106380000Y-109920000D03*
%TO.P,A5,11,M1_11*%
%TO.N,Net-(A2-M1)*%
X108920000Y-109920000D03*
%TO.P,A5,12,M2_12*%
%TO.N,Net-(A2-M2)*%
X111460000Y-109920000D03*
%TO.P,A5,13,~{RST}_13*%
%TO.N,Net-(A1-VBUS)*%
X114000000Y-109920000D03*
%TO.P,A5,14,~{SLP}_14*%
X116540000Y-109920000D03*
%TO.P,A5,15,STEP_15*%
%TO.N,Net-(A1-GPIO10)*%
X119080000Y-109920000D03*
%TO.P,A5,16,DIR_16*%
%TO.N,Net-(A1-GPIO11)*%
X121620000Y-109920000D03*
%TD*%
D17*
%TO.P,C2,1*%
%TO.N,Net-(A2-VMOT)*%
X125700000Y-85400000D03*
D18*
%TO.P,C2,2*%
%TO.N,Net-(A1-AGND)*%
X128200000Y-85400000D03*
%TD*%
%TO.P,C8,1*%
%TO.N,Net-(A1-VBUS)*%
X155900000Y-81800000D03*
D17*
%TO.P,C8,2*%
%TO.N,Net-(A1-AGND)*%
X158400000Y-81800000D03*
%TD*%
D26*
%TO.P,J2,1,Pin_1_1*%
%TO.N,Net-(A2-A2)*%
X185600000Y-63450000D03*
%TO.P,J2,2,Pin_2_2*%
%TO.N,Net-(A2-A1)*%
X185600000Y-65950000D03*
%TO.P,J2,3,Pin_3_3*%
%TO.N,Net-(A2-B1)*%
X185600000Y-68450000D03*
%TO.P,J2,4,Pin_4_4*%
%TO.N,Net-(A2-B2)*%
X185600000Y-70950000D03*
%TD*%
D17*
%TO.P,C6,1*%
%TO.N,Net-(A2-VMOT)*%
X155700000Y-102600000D03*
D18*
%TO.P,C6,2*%
%TO.N,Net-(A1-AGND)*%
X158200000Y-102600000D03*
%TD*%
D23*
%TO.P,J14,1,Pin_1_1*%
%TO.N,Net-(J14-Pin_1)*%
X162520000Y-142600000D03*
D24*
%TO.P,J14,2,Pin_2_2*%
%TO.N,Net-(A1-AGND)*%
X167600000Y-142600000D03*
%TD*%
D23*
%TO.P,J13,1,Pin_1_1*%
%TO.N,Net-(J13-Pin_1)*%
X128320000Y-142600000D03*
D24*
%TO.P,J13,2,Pin_2_2*%
%TO.N,Net-(A1-AGND)*%
X133400000Y-142600000D03*
%TD*%
D17*
%TO.P,C5,1*%
%TO.N,Net-(A2-VMOT)*%
X156100000Y-89200000D03*
D18*
%TO.P,C5,2*%
%TO.N,Net-(A1-AGND)*%
X158600000Y-89200000D03*
%TD*%
D17*
%TO.P,C4,1*%
%TO.N,Net-(A2-VMOT)*%
X156100000Y-66800000D03*
D18*
%TO.P,C4,2*%
%TO.N,Net-(A1-AGND)*%
X158600000Y-66800000D03*
%TD*%
D13*
%TO.P,SW7,1,C_1*%
%TO.N,unconnected-(SW7-C-Pad1)*%
X107700000Y-130400000D03*
D14*
%TO.P,SW7,2,B_2*%
%TO.N,Net-(A2-M2)*%
X107700000Y-132900000D03*
%TO.P,SW7,3,A_3*%
%TO.N,Net-(A2-VMOT)*%
X107700000Y-135400000D03*
%TO.P,SW7,4*%
%TO.N,N/C*%
X104400000Y-135400000D03*
%TO.P,SW7,5*%
X104400000Y-132900000D03*
%TO.P,SW7,6*%
X104400000Y-130400000D03*
%TD*%
D26*
%TO.P,J11,1,Pin_1_1*%
%TO.N,Net-(A5-A2)*%
X98400000Y-107300000D03*
%TO.P,J11,2,Pin_2_2*%
%TO.N,Net-(A5-A1)*%
X98400000Y-104800000D03*
%TO.P,J11,3,Pin_3_3*%
%TO.N,Net-(A5-B1)*%
X98400000Y-102300000D03*
%TO.P,J11,4,Pin_4_4*%
%TO.N,Net-(A5-B2)*%
X98400000Y-99800000D03*
%TD*%
D15*
%TO.P,J10,1,Pin_1_1*%
%TO.N,Net-(A1-GPIO26_ADC0)*%
X98400000Y-118600000D03*
D16*
%TO.P,J10,2,Pin_2_2*%
%TO.N,Net-(A1-AGND)*%
X98400000Y-116100000D03*
%TD*%
D15*
%TO.P,J6,1,Pin_1_1*%
%TO.N,Net-(A1-GPIO21)*%
X185600000Y-125600000D03*
D25*
%TO.P,J6,2,Pin_2_2*%
%TO.N,Net-(A1-AGND)*%
X185600000Y-128100000D03*
%TD*%
D26*
%TO.P,J9,1,Pin_1_1*%
%TO.N,Net-(A6-A2)*%
X98600000Y-89000000D03*
%TO.P,J9,2,Pin_2_2*%
%TO.N,Net-(A6-A1)*%
X98600000Y-86500000D03*
%TO.P,J9,3,Pin_3_3*%
%TO.N,Net-(A6-B1)*%
X98600000Y-84000000D03*
%TO.P,J9,4,Pin_4_4*%
%TO.N,Net-(A6-B2)*%
X98600000Y-81500000D03*
%TD*%
D13*
%TO.P,SW5,1,C_1*%
%TO.N,unconnected-(SW5-C-Pad1)*%
X107700000Y-120400000D03*
D14*
%TO.P,SW5,2,B_2*%
%TO.N,Net-(A2-M0)*%
X107700000Y-122900000D03*
%TO.P,SW5,3,A_3*%
%TO.N,Net-(A2-VMOT)*%
X107700000Y-125400000D03*
%TO.P,SW5,4*%
%TO.N,N/C*%
X104400000Y-125400000D03*
%TO.P,SW5,5*%
X104400000Y-122900000D03*
%TO.P,SW5,6*%
X104400000Y-120400000D03*
%TD*%
D26*
%TO.P,J5,1,Pin_1_1*%
%TO.N,Net-(A7-A2)*%
X98600000Y-71200000D03*
%TO.P,J5,2,Pin_2_2*%
%TO.N,Net-(A7-A1)*%
X98600000Y-68700000D03*
%TO.P,J5,3,Pin_3_3*%
%TO.N,Net-(A7-B1)*%
X98600000Y-66200000D03*
%TO.P,J5,4,Pin_4_4*%
%TO.N,Net-(A7-B2)*%
X98600000Y-63700000D03*
%TD*%
D21*
%TO.P,REF\u002A\u002A,1*%
%TO.N,Net-(A1-AGND)*%
X89775000Y-143000000D03*
X90543845Y-141143845D03*
X90543845Y-144856155D03*
X92400000Y-140375000D03*
D28*
X92400000Y-143000000D03*
D21*
X92400000Y-145625000D03*
X94256155Y-141143845D03*
X94256155Y-144856155D03*
X95025000Y-143000000D03*
%TD*%
D19*
%TO.P,A4,1,GND_1*%
%TO.N,Net-(A1-AGND)*%
X162460000Y-109800000D03*
D20*
%TO.P,A4,2,~{FLT}_2*%
%TO.N,unconnected-(A4-~{FLT}-Pad2)*%
X165000000Y-109800000D03*
%TO.P,A4,3,A2_3*%
%TO.N,Net-(A4-A2)*%
X167540000Y-109800000D03*
%TO.P,A4,4,A1_4*%
%TO.N,Net-(A4-A1)*%
X170080000Y-109800000D03*
%TO.P,A4,5,B1_5*%
%TO.N,Net-(A4-B1)*%
X172620000Y-109800000D03*
%TO.P,A4,6,B2_6*%
%TO.N,Net-(A4-B2)*%
X175160000Y-109800000D03*
%TO.P,A4,7,GND_7*%
%TO.N,Net-(A1-AGND)*%
X177700000Y-109800000D03*
%TO.P,A4,8,VMOT_8*%
%TO.N,Net-(A2-VMOT)*%
X180240000Y-109800000D03*
%TO.P,A4,9,~{EN}_9*%
%TO.N,Net-(A1-GPIO6)*%
X180240000Y-97100000D03*
%TO.P,A4,10,M0_10*%
%TO.N,Net-(A2-M0)*%
X177700000Y-97100000D03*
%TO.P,A4,11,M1_11*%
%TO.N,Net-(A2-M1)*%
X175160000Y-97100000D03*
%TO.P,A4,12,M2_12*%
%TO.N,Net-(A2-M2)*%
X172620000Y-97100000D03*
%TO.P,A4,13,~{RST}_13*%
%TO.N,Net-(A1-VBUS)*%
X170080000Y-97100000D03*
%TO.P,A4,14,~{SLP}_14*%
X167540000Y-97100000D03*
%TO.P,A4,15,STEP_15*%
%TO.N,Net-(A1-GPIO7)*%
X165000000Y-97100000D03*
%TO.P,A4,16,DIR_16*%
%TO.N,Net-(A1-GPIO8)*%
X162460000Y-97100000D03*
%TD*%
D29*
%TO.P,SW1,1,C_1*%
%TO.N,unconnected-(SW1-C-Pad1)*%
X156600000Y-116320000D03*
D30*
%TO.P,SW1,2,B_2*%
%TO.N,Net-(A2-VMOT)*%
X156600000Y-121400000D03*
D29*
%TO.P,SW1,3,A_3*%
%TO.N,Net-(J1-Pin_1)*%
X156600000Y-126480000D03*
%TD*%
D31*
%TO.P,Raspberry Pi Pico ,1,GPIO0_1*%
%TO.N,Net-(A1-GPIO0)*%
X133115000Y-60535000D03*
D17*
%TO.P,Raspberry Pi Pico ,2,GPIO1_2*%
%TO.N,Net-(A1-GPIO1)*%
X133115000Y-63075000D03*
D32*
%TO.P,Raspberry Pi Pico ,3,GND_3*%
%TO.N,Net-(A1-AGND)*%
X133115000Y-65615000D03*
D17*
%TO.P,Raspberry Pi Pico ,4,GPIO2_4*%
%TO.N,Net-(A1-GPIO2)*%
X133115000Y-68155000D03*
%TO.P,Raspberry Pi Pico ,5,GPIO3_5*%
%TO.N,Net-(A1-GPIO3)*%
X133115000Y-70695000D03*
%TO.P,Raspberry Pi Pico ,6,GPIO4_6*%
%TO.N,Net-(A1-GPIO4)*%
X133115000Y-73235000D03*
%TO.P,Raspberry Pi Pico ,7,GPIO5_7*%
%TO.N,Net-(A1-GPIO5)*%
X133115000Y-75775000D03*
D32*
%TO.P,Raspberry Pi Pico ,8,GND_8*%
%TO.N,Net-(A1-AGND)*%
X133115000Y-78315000D03*
D17*
%TO.P,Raspberry Pi Pico ,9,GPIO6_9*%
%TO.N,Net-(A1-GPIO6)*%
X133115000Y-80855000D03*
%TO.P,Raspberry Pi Pico ,10,GPIO7_10*%
%TO.N,Net-(A1-GPIO7)*%
X133115000Y-83395000D03*
%TO.P,Raspberry Pi Pico ,11,GPIO8_11*%
%TO.N,Net-(A1-GPIO8)*%
X133115000Y-85935000D03*
%TO.P,Raspberry Pi Pico ,12,GPIO9_12*%
%TO.N,Net-(A1-GPIO9)*%
X133115000Y-88475000D03*
D32*
%TO.P,Raspberry Pi Pico ,13,GND_13*%
%TO.N,Net-(A1-AGND)*%
X133115000Y-91015000D03*
D17*
%TO.P,Raspberry Pi Pico ,14,GPIO10_14*%
%TO.N,Net-(A1-GPIO10)*%
X133115000Y-93555000D03*
%TO.P,Raspberry Pi Pico ,15,GPIO11_15*%
%TO.N,Net-(A1-GPIO11)*%
X133115000Y-96095000D03*
%TO.P,Raspberry Pi Pico ,16,GPIO12_16*%
%TO.N,Net-(A1-GPIO12)*%
X133115000Y-98635000D03*
%TO.P,Raspberry Pi Pico ,17,GPIO13_17*%
%TO.N,Net-(A1-GPIO13)*%
X133115000Y-101175000D03*
D32*
%TO.P,Raspberry Pi Pico ,18,GND_18*%
%TO.N,Net-(A1-AGND)*%
X133115000Y-103715000D03*
D17*
%TO.P,Raspberry Pi Pico ,19,GPIO14_19*%
%TO.N,Net-(A1-GPIO14)*%
X133115000Y-106255000D03*
%TO.P,Raspberry Pi Pico ,20,GPIO15_20*%
%TO.N,Net-(A1-GPIO15)*%
X133115000Y-108795000D03*
D33*
%TO.P,Raspberry Pi Pico ,21,GPIO16_21*%
%TO.N,Net-(A1-GPIO16)*%
X150895000Y-108795000D03*
D17*
%TO.P,Raspberry Pi Pico ,22,GPIO17_22*%
%TO.N,Net-(A1-GPIO17)*%
X150895000Y-106255000D03*
D34*
%TO.P,Raspberry Pi Pico ,23,GND_23*%
%TO.N,Net-(A1-AGND)*%
X150895000Y-103715000D03*
D17*
%TO.P,Raspberry Pi Pico ,24,GPIO18_24*%
%TO.N,Net-(A1-GPIO18)*%
X150895000Y-101175000D03*
%TO.P,Raspberry Pi Pico ,25,GPIO19_25*%
%TO.N,Net-(A1-GPIO19)*%
X150895000Y-98635000D03*
%TO.P,Raspberry Pi Pico ,26,GPIO20_26*%
%TO.N,Net-(A1-GPIO20)*%
X150895000Y-96095000D03*
%TO.P,Raspberry Pi Pico ,27,GPIO21_27*%
%TO.N,Net-(A1-GPIO21)*%
X150895000Y-93555000D03*
D34*
%TO.P,Raspberry Pi Pico ,28,GND_28*%
%TO.N,Net-(A1-AGND)*%
X150895000Y-91015000D03*
D17*
%TO.P,Raspberry Pi Pico ,29,GPIO22_29*%
%TO.N,Net-(A1-GPIO22)*%
X150895000Y-88475000D03*
%TO.P,Raspberry Pi Pico ,30,RUN_30*%
%TO.N,unconnected-(A1-RUN-Pad30)*%
X150895000Y-85935000D03*
%TO.P,Raspberry Pi Pico ,31,GPIO26_ADC0_31*%
%TO.N,Net-(A1-GPIO26_ADC0)*%
X150895000Y-83395000D03*
%TO.P,Raspberry Pi Pico ,32,GPIO27_ADC1_32*%
%TO.N,Net-(A1-GPIO27_ADC1)*%
X150895000Y-80855000D03*
D34*
%TO.P,Raspberry Pi Pico ,33,AGND_33*%
%TO.N,Net-(A1-AGND)*%
X150895000Y-78315000D03*
D17*
%TO.P,Raspberry Pi Pico ,34,GPIO28_ADC2_34*%
%TO.N,unconnected-(A1-GPIO28_ADC2-Pad34)*%
X150895000Y-75775000D03*
%TO.P,Raspberry Pi Pico ,35,ADC_VREF_35*%
%TO.N,unconnected-(A1-ADC_VREF-Pad35)*%
X150895000Y-73235000D03*
%TO.P,Raspberry Pi Pico ,36,3V3_36*%
%TO.N,unconnected-(A1-3V3-Pad36)*%
X150895000Y-70695000D03*
%TO.P,Raspberry Pi Pico ,37,3V3_EN_37*%
%TO.N,unconnected-(A1-3V3_EN-Pad37)*%
X150895000Y-68155000D03*
D34*
%TO.P,Raspberry Pi Pico ,38,GND_38*%
%TO.N,Net-(A1-AGND)*%
X150895000Y-65615000D03*
D17*
%TO.P,Raspberry Pi Pico ,39,VSYS_39*%
%TO.N,unconnected-(A1-VSYS-Pad39)*%
X150895000Y-63075000D03*
%TO.P,Raspberry Pi Pico ,40,VBUS_40*%
%TO.N,Net-(A1-VBUS)*%
X150895000Y-60535000D03*
%TD*%
D19*
%TO.P,A6,1,GND_1*%
%TO.N,Net-(A1-AGND)*%
X121630000Y-79000000D03*
D20*
%TO.P,A6,2,~{FLT}_2*%
%TO.N,unconnected-(A6-~{FLT}-Pad2)*%
X119090000Y-79000000D03*
%TO.P,A6,3,A2_3*%
%TO.N,Net-(A6-A2)*%
X116550000Y-79000000D03*
%TO.P,A6,4,A1_4*%
%TO.N,Net-(A6-A1)*%
X114010000Y-79000000D03*
%TO.P,A6,5,B1_5*%
%TO.N,Net-(A6-B1)*%
X111470000Y-79000000D03*
%TO.P,A6,6,B2_6*%
%TO.N,Net-(A6-B2)*%
X108930000Y-79000000D03*
%TO.P,A6,7,GND_7*%
%TO.N,Net-(A1-AGND)*%
X106390000Y-79000000D03*
%TO.P,A6,8,VMOT_8*%
%TO.N,Net-(A2-VMOT)*%
X103850000Y-79000000D03*
%TO.P,A6,9,~{EN}_9*%
%TO.N,Net-(A1-GPIO12)*%
X103850000Y-91700000D03*
%TO.P,A6,10,M0_10*%
%TO.N,Net-(A2-M0)*%
X106390000Y-91700000D03*
%TO.P,A6,11,M1_11*%
%TO.N,Net-(A2-M1)*%
X108930000Y-91700000D03*
%TO.P,A6,12,M2_12*%
%TO.N,Net-(A2-M2)*%
X111470000Y-91700000D03*
%TO.P,A6,13,~{RST}_13*%
%TO.N,Net-(A1-VBUS)*%
X114010000Y-91700000D03*
%TO.P,A6,14,~{SLP}_14*%
X116550000Y-91700000D03*
%TO.P,A6,15,STEP_15*%
%TO.N,Net-(A1-GPIO13)*%
X119090000Y-91700000D03*
%TO.P,A6,16,DIR_16*%
%TO.N,Net-(A1-GPIO14)*%
X121630000Y-91700000D03*
%TD*%
D29*
%TO.P,SW2,1,C_1*%
%TO.N,unconnected-(SW2-C-Pad1)*%
X137932500Y-116320000D03*
D30*
%TO.P,SW2,2,B_2*%
%TO.N,Net-(A2-VMOT)*%
X137932500Y-121400000D03*
D29*
%TO.P,SW2,3,A_3*%
%TO.N,Net-(J12-Pin_1)*%
X137932500Y-126480000D03*
%TD*%
%TO.P,SW3,1,C_1*%
%TO.N,unconnected-(SW3-C-Pad1)*%
X125600000Y-116320000D03*
D30*
%TO.P,SW3,2,B_2*%
%TO.N,Net-(A2-VMOT)*%
X125600000Y-121400000D03*
D29*
%TO.P,SW3,3,A_3*%
%TO.N,Net-(J13-Pin_1)*%
X125600000Y-126480000D03*
%TD*%
D26*
%TO.P,J3,1,Pin_1_1*%
%TO.N,Net-(A3-A2)*%
X185500000Y-81650000D03*
%TO.P,J3,2,Pin_2_2*%
%TO.N,Net-(A3-A1)*%
X185500000Y-84150000D03*
%TO.P,J3,3,Pin_3_3*%
%TO.N,Net-(A3-B1)*%
X185500000Y-86650000D03*
%TO.P,J3,4,Pin_4_4*%
%TO.N,Net-(A3-B2)*%
X185500000Y-89150000D03*
%TD*%
D17*
%TO.P,C1,1*%
%TO.N,Net-(A2-VMOT)*%
X125700000Y-67400000D03*
D18*
%TO.P,C1,2*%
%TO.N,Net-(A1-AGND)*%
X128200000Y-67400000D03*
%TD*%
D23*
%TO.P,J16,1,Pin_1_1*%
%TO.N,Net-(A1-VBUS)*%
X177800000Y-142600000D03*
D24*
%TO.P,J16,2,Pin_2_2*%
%TO.N,Net-(A1-AGND)*%
X182880000Y-142600000D03*
%TD*%
D23*
%TO.P,J12,1,Pin_1_1*%
%TO.N,Net-(J12-Pin_1)*%
X139720000Y-142600000D03*
D24*
%TO.P,J12,2,Pin_2_2*%
%TO.N,Net-(A1-AGND)*%
X144800000Y-142600000D03*
%TD*%
D29*
%TO.P,SW4,1,C_1*%
%TO.N,unconnected-(SW4-C-Pad1)*%
X169000000Y-116320000D03*
D30*
%TO.P,SW4,2,B_2*%
%TO.N,Net-(A1-VBUS)*%
X169000000Y-121400000D03*
D29*
%TO.P,SW4,3,A_3*%
%TO.N,Net-(J14-Pin_1)*%
X169000000Y-126480000D03*
%TD*%
D35*
%TO.N,Net-(A1-GPIO17)*%
X146546472Y-94395000D03*
X148600000Y-112400000D03*
%TO.N,Net-(A1-GPIO20)*%
X156575735Y-112224265D03*
%TD*%
%TO.N,Net-(A1-AGND)*%
D36*
X133115000Y-91015000D02*
X150895000Y-91015000D01*
X150895000Y-78315000D02*
X133115000Y-78315000D01*
X133115000Y-65615000D02*
X150895000Y-65615000D01*
%TO.N,Net-(A1-VBUS)*%
X169000000Y-121400000D02*
X171750000Y-124150000D01*
X171750000Y-124150000D02*
X171750000Y-130450000D01*
X171750000Y-130450000D02*
X168200000Y-134000000D01*
X168200000Y-134000000D02*
X168200000Y-136200000D01*
X168200000Y-136200000D02*
X171000000Y-139000000D01*
X171000000Y-139000000D02*
X174200000Y-139000000D01*
X174200000Y-139000000D02*
X177800000Y-142600000D01*
%TO.N,Net-(J14-Pin_1)*%
X169000000Y-126480000D02*
X169000000Y-126600000D01*
X169000000Y-126600000D02*
X162600000Y-133000000D01*
X162600000Y-133000000D02*
X162600000Y-142520000D01*
X162600000Y-142520000D02*
X162520000Y-142600000D01*
%TO.N,Net-(A1-VBUS)*%
D37*
X182880000Y-134600000D02*
X179400000Y-138080000D01*
X179400000Y-138080000D02*
X179400000Y-141000000D01*
X179400000Y-141000000D02*
X177800000Y-142600000D01*
%TO.N,Net-(A2-VMOT)*%
X185420000Y-134600000D02*
X181357258Y-130537258D01*
X181357258Y-130537258D02*
X180400000Y-130537258D01*
X180400000Y-130537258D02*
X169662742Y-119800000D01*
X169662742Y-119800000D02*
X158200000Y-119800000D01*
X158200000Y-119800000D02*
X156600000Y-121400000D01*
D36*
X137932500Y-121400000D02*
X142200000Y-121400000D01*
X125700000Y-111569390D02*
X122850000Y-114419390D01*
X117050000Y-133790560D02*
X113290560Y-137550000D01*
X122850000Y-118650000D02*
X125600000Y-121400000D01*
X107700000Y-135400000D02*
X107700000Y-140900000D01*
X113290560Y-137550000D02*
X109850000Y-137550000D01*
X125600000Y-121400000D02*
X117050000Y-129950000D01*
X122850000Y-114419390D02*
X122850000Y-118650000D01*
X180240000Y-110441981D02*
X178181981Y-112500000D01*
X155700000Y-89600000D02*
X155700000Y-102600000D01*
X115889949Y-135400000D02*
X114900000Y-135400000D01*
X155700000Y-102600000D02*
X155700000Y-107900000D01*
X109850000Y-137550000D02*
X107700000Y-135400000D01*
X107700000Y-140900000D02*
X109200000Y-142400000D01*
X178181981Y-112500000D02*
X165500000Y-112500000D01*
X180240000Y-109800000D02*
X180240000Y-110441981D01*
X117050000Y-129950000D02*
X117050000Y-134239949D01*
X125700000Y-103600000D02*
X125700000Y-111569390D01*
X117050000Y-134239949D02*
X115889949Y-135400000D01*
X155700000Y-107900000D02*
X142200000Y-121400000D01*
X121600000Y-125400000D02*
X107700000Y-125400000D01*
X125600000Y-121400000D02*
X121600000Y-125400000D01*
X156100000Y-89200000D02*
X155700000Y-89600000D01*
X125600000Y-121400000D02*
X137932500Y-121400000D01*
X142200000Y-121400000D02*
X156600000Y-121400000D01*
X117050000Y-129950000D02*
X117050000Y-133790560D01*
X165500000Y-112500000D02*
X156600000Y-121400000D01*
%TO.N,Net-(A2-A1)*%
X185600000Y-65950000D02*
X176498019Y-65950000D01*
X170130000Y-72318019D02*
X170130000Y-73540000D01*
X176498019Y-65950000D02*
X170130000Y-72318019D01*
%TO.N,Net-(A2-B2)*%
X185600000Y-70950000D02*
X176668630Y-70950000D01*
X176668630Y-70950000D02*
X175210000Y-72408630D01*
X175210000Y-72408630D02*
X175210000Y-73540000D01*
%TO.N,Net-(A1-VBUS)*%
D37*
X156017621Y-74400000D02*
X156017621Y-74617621D01*
X114000000Y-109920000D02*
X116540000Y-109920000D01*
X156017621Y-74617621D02*
X155900000Y-74735242D01*
X155900000Y-74735242D02*
X155900000Y-81800000D01*
X170130000Y-79040000D02*
X167590000Y-79040000D01*
X166490000Y-61940000D02*
X167590000Y-60840000D01*
X150895000Y-60535000D02*
X152300000Y-61940000D01*
X155000000Y-73382379D02*
X156017621Y-74400000D01*
X155000000Y-64640000D02*
X155000000Y-73382379D01*
X170080000Y-97100000D02*
X167540000Y-97100000D01*
X114070000Y-73560000D02*
X116610000Y-73560000D01*
X170130000Y-60840000D02*
X167590000Y-60840000D01*
X114010000Y-91700000D02*
X116550000Y-91700000D01*
X150895000Y-60535000D02*
X155000000Y-64640000D01*
X152300000Y-61940000D02*
X166490000Y-61940000D01*
%TO.N,Net-(A4-A1)*%
D36*
X170080000Y-108578019D02*
X170080000Y-109800000D01*
X185300000Y-101950000D02*
X176708019Y-101950000D01*
X176708019Y-101950000D02*
X170080000Y-108578019D01*
%TO.N,Net-(A4-B2)*%
X177368019Y-106950000D02*
X185300000Y-106950000D01*
X175160000Y-109158019D02*
X177368019Y-106950000D01*
X175160000Y-109800000D02*
X175160000Y-109158019D01*
%TO.N,Net-(A3-A1)*%
X185500000Y-84150000D02*
X176588630Y-84150000D01*
X176588630Y-84150000D02*
X170130000Y-90608630D01*
X170130000Y-90608630D02*
X170130000Y-91740000D01*
%TO.N,Net-(A3-B2)*%
X185500000Y-89150000D02*
X176668630Y-89150000D01*
X176668630Y-89150000D02*
X175210000Y-90608630D01*
X175210000Y-90608630D02*
X175210000Y-91740000D01*
%TO.N,Net-(A7-A1)*%
X114070000Y-60860000D02*
X114070000Y-61991370D01*
X114070000Y-61991370D02*
X107361370Y-68700000D01*
X107361370Y-68700000D02*
X98600000Y-68700000D01*
%TO.N,Net-(A7-B2)*%
X98600000Y-63700000D02*
X106791981Y-63700000D01*
X108990000Y-61501981D02*
X108990000Y-60860000D01*
X106791981Y-63700000D02*
X108990000Y-61501981D01*
%TO.N,Net-(J1-Pin_1)*%
X156600000Y-126480000D02*
X156600000Y-137135000D01*
X156600000Y-137135000D02*
X151135000Y-142600000D01*
%TO.N,Net-(A5-A1)*%
X114000000Y-97220000D02*
X114000000Y-98351370D01*
X107551370Y-104800000D02*
X98400000Y-104800000D01*
X114000000Y-98351370D02*
X107551370Y-104800000D01*
%TO.N,Net-(A5-B2)*%
X107471370Y-99800000D02*
X98400000Y-99800000D01*
X108920000Y-97220000D02*
X108920000Y-98351370D01*
X108920000Y-98351370D02*
X107471370Y-99800000D01*
%TO.N,Net-(J13-Pin_1)*%
X125600000Y-126480000D02*
X125600000Y-139880000D01*
X125600000Y-139880000D02*
X128320000Y-142600000D01*
%TO.N,Net-(A6-A1)*%
X98600000Y-86500000D02*
X107731981Y-86500000D01*
X114010000Y-80221981D02*
X114010000Y-79000000D01*
X107731981Y-86500000D02*
X114010000Y-80221981D01*
%TO.N,Net-(A6-B2)*%
X108930000Y-79000000D02*
X108930000Y-80131370D01*
X107561370Y-81500000D02*
X98600000Y-81500000D01*
X108930000Y-80131370D02*
X107561370Y-81500000D01*
%TO.N,Net-(J12-Pin_1)*%
X137932500Y-126480000D02*
X137932500Y-140812500D01*
X137932500Y-140812500D02*
X139720000Y-142600000D01*
%TD*%
M02*
