%TF.GenerationSoftware,KiCad,Pcbnew,10.0.5*%
%TF.CreationDate,2026-09-22T18:43:12-04:00*%
%TF.ProjectId,compact_stepper_controller,636f6d70-6163-4745-9f73-746570706572,rev?*%
%TF.SameCoordinates,Original*%
%TF.FileFunction,Copper,L1,Top*%
%TF.FilePolarity,Positive*%
%FSLAX46Y46*%
G04 Gerber Fmt 4.6, Leading zero omitted, Abs format (unit mm)*
G04 Created by KiCad (PCBNEW 10.0.5) date 2026-09-22 18:43:12*
%MOMM*%
%LPD*%
G01*
G04 APERTURE LIST*
G04 Aperture macros list*
%AMRoundRect*
0 Rectangle with rounded corners*
0 $1 Rounding radius*
0 $2 $3 $4 $5 $6 $7 $8 $9 X,Y pos of 4 corners*
0 Add a 4 corners polygon primitive as box body*
4,1,4,$2,$3,$4,$5,$6,$7,$8,$9,$2,$3,0*
0 Add four circle primitives for the rounded corners*
1,1,$1+$1,$2,$3*
1,1,$1+$1,$4,$5*
1,1,$1+$1,$6,$7*
1,1,$1+$1,$8,$9*
0 Add four rect primitives between the rounded corners*
20,1,$1+$1,$2,$3,$4,$5,0*
20,1,$1+$1,$4,$5,$6,$7,0*
20,1,$1+$1,$6,$7,$8,$9,0*
20,1,$1+$1,$8,$9,$2,$3,0*%
%AMRotRect*
0 Rectangle, with rotation*
0 The origin of the aperture is its center*
0 $1 length*
0 $2 width*
0 $3 Rotation angle, in degrees counterclockwise*
0 Add horizontal line*
21,1,$1,$2,0,0,$3*%
%AMOutline5P*
0 Free polygon, 5 corners , with rotation*
0 The origin of the aperture is its center*
0 number of corners: always 5*
0 $1 to $10 corner X, Y*
0 $11 Rotation angle, in degrees counterclockwise*
0 create outline with 5 corners*
4,1,5,$1,$2,$3,$4,$5,$6,$7,$8,$9,$10,$1,$2,$11*%
%AMOutline6P*
0 Free polygon, 6 corners , with rotation*
0 The origin of the aperture is its center*
0 number of corners: always 6*
0 $1 to $12 corner X, Y*
0 $13 Rotation angle, in degrees counterclockwise*
0 create outline with 6 corners*
4,1,6,$1,$2,$3,$4,$5,$6,$7,$8,$9,$10,$11,$12,$1,$2,$13*%
%AMOutline7P*
0 Free polygon, 7 corners , with rotation*
0 The origin of the aperture is its center*
0 number of corners: always 7*
0 $1 to $14 corner X, Y*
0 $15 Rotation angle, in degrees counterclockwise*
0 create outline with 7 corners*
4,1,7,$1,$2,$3,$4,$5,$6,$7,$8,$9,$10,$11,$12,$13,$14,$1,$2,$15*%
%AMOutline8P*
0 Free polygon, 8 corners , with rotation*
0 The origin of the aperture is its center*
0 number of corners: always 8*
0 $1 to $16 corner X, Y*
0 $17 Rotation angle, in degrees counterclockwise*
0 create outline with 8 corners*
4,1,8,$1,$2,$3,$4,$5,$6,$7,$8,$9,$10,$11,$12,$13,$14,$15,$16,$1,$2,$17*%
%AMFreePoly0*
4,1,18,-0.800000,0.480000,-0.480000,0.800000,0.600000,0.800000,0.676537,0.784776,0.741421,0.741421,0.784776,0.676537,0.800000,0.600000,0.800000,-0.600000,0.784776,-0.676537,0.741421,-0.741421,0.676537,-0.784776,0.600000,-0.800000,-0.600000,-0.800000,-0.676537,-0.784776,-0.741421,-0.741421,-0.784776,-0.676537,-0.800000,-0.600000,-0.800000,0.480000,-0.800000,0.480000,$1*%
%AMFreePoly1*
4,1,37,0.603843,0.796157,0.639018,0.796157,0.711114,0.766294,0.766294,0.711114,0.796157,0.639018,0.796157,0.603843,0.800000,0.600000,0.800000,-0.600000,0.796157,-0.603843,0.796157,-0.639018,0.766294,-0.711114,0.711114,-0.766294,0.639018,-0.796157,0.603843,-0.796157,0.600000,-0.800000,0.000000,-0.800000,0.000000,-0.796148,-0.078414,-0.796148,-0.232228,-0.765552,-0.377117,-0.705537,
-0.507515,-0.618408,-0.618408,-0.507515,-0.705537,-0.377117,-0.765552,-0.232228,-0.796148,-0.078414,-0.796148,0.078414,-0.765552,0.232228,-0.705537,0.377117,-0.618408,0.507515,-0.507515,0.618408,-0.377117,0.705537,-0.232228,0.765552,-0.078414,0.796148,0.000000,0.796148,0.000000,0.800000,0.600000,0.800000,0.603843,0.796157,0.603843,0.796157,$1*%
%AMFreePoly2*
4,1,37,0.000000,0.796148,0.078414,0.796148,0.232228,0.765552,0.377117,0.705537,0.507515,0.618408,0.618408,0.507515,0.705537,0.377117,0.765552,0.232228,0.796148,0.078414,0.796148,-0.078414,0.765552,-0.232228,0.705537,-0.377117,0.618408,-0.507515,0.507515,-0.618408,0.377117,-0.705537,0.232228,-0.765552,0.078414,-0.796148,0.000000,-0.796148,0.000000,-0.800000,-0.600000,-0.800000,
-0.603843,-0.796157,-0.639018,-0.796157,-0.711114,-0.766294,-0.766294,-0.711114,-0.796157,-0.639018,-0.796157,-0.603843,-0.800000,-0.600000,-0.800000,0.600000,-0.796157,0.603843,-0.796157,0.639018,-0.766294,0.711114,-0.711114,0.766294,-0.639018,0.796157,-0.603843,0.796157,-0.600000,0.800000,0.000000,0.800000,0.000000,0.796148,0.000000,0.796148,$1*%
G04 Aperture macros list end*
%TA.AperFunction,ComponentPad*%
%ADD10RotRect,1.400000X1.400000X315.000000*%
%TD*%
%TA.AperFunction,ComponentPad*%
%ADD11R,1.400000X1.400000*%
%TD*%
%TA.AperFunction,ComponentPad*%
%ADD12C,1.400000*%
%TD*%
%TA.AperFunction,ComponentPad*%
%ADD13C,1.700000*%
%TD*%
%TA.AperFunction,ComponentPad*%
%ADD14R,2.000000X1.700000*%
%TD*%
%TA.AperFunction,ComponentPad*%
%ADD15Outline6P,-0.800000X0.480000X-0.480000X0.800000X0.800000X0.800000X0.800000X-0.480000X0.480000X-0.800000X-0.800000X-0.800000X0.000000*%
%TD*%
%TA.AperFunction,ComponentPad*%
%ADD16R,1.600000X1.600000*%
%TD*%
%TA.AperFunction,ComponentPad*%
%ADD17RotRect,1.200000X1.200000X135.000000*%
%TD*%
%TA.AperFunction,ComponentPad*%
%ADD18O,1.600000X1.600000*%
%TD*%
%TA.AperFunction,ComponentPad*%
%ADD19Outline6P,-0.800000X0.800000X0.480000X0.800000X0.800000X0.480000X0.800000X-0.800000X-0.480000X-0.800000X-0.800000X-0.480000X90.000000*%
%TD*%
%TA.AperFunction,ComponentPad*%
%ADD20Outline6P,-0.700000X0.420000X-0.420000X0.700000X0.700000X0.700000X0.700000X-0.420000X0.420000X-0.700000X-0.700000X-0.700000X270.000000*%
%TD*%
%TA.AperFunction,ComponentPad*%
%ADD21Outline5P,-0.600000X0.360000X-0.360000X0.600000X0.600000X0.600000X0.600000X-0.600000X-0.600000X-0.600000X270.000000*%
%TD*%
%TA.AperFunction,ComponentPad*%
%ADD22C,0.800000*%
%TD*%
%TA.AperFunction,ComponentPad*%
%ADD23Outline5P,-3.500000X3.500000X2.100000X3.500000X3.500000X2.100000X3.500000X-3.500000X-3.500000X-3.500000X0.000000*%
%TD*%
%TA.AperFunction,ComponentPad*%
%ADD24Outline7P,-1.100000X0.660000X-0.660000X1.100000X1.100000X1.100000X1.100000X-0.660000X0.660000X-1.100000X-0.660000X-1.100000X-1.100000X-0.660000X0.000000*%
%TD*%
%TA.AperFunction,ComponentPad*%
%ADD25R,2.500000X2.500000*%
%TD*%
%TA.AperFunction,ComponentPad*%
%ADD26RoundRect,0.250000X-0.725000X0.600000X-0.725000X-0.600000X0.725000X-0.600000X0.725000X0.600000X0*%
%TD*%
%TA.AperFunction,ComponentPad*%
%ADD27O,1.950000X1.700000*%
%TD*%
%TA.AperFunction,ComponentPad*%
%ADD28Outline5P,-3.500000X2.100000X-2.100000X3.500000X3.500000X3.500000X3.500000X-3.500000X-3.500000X-3.500000X0.000000*%
%TD*%
%TA.AperFunction,ComponentPad*%
%ADD29C,7.000000*%
%TD*%
%TA.AperFunction,ComponentPad*%
%ADD30Outline5P,-0.800000X0.480000X-0.480000X0.800000X0.800000X0.800000X0.800000X-0.800000X-0.800000X-0.800000X0.000000*%
%TD*%
%TA.AperFunction,ComponentPad*%
%ADD31RotRect,1.200000X1.200000X315.000000*%
%TD*%
%TA.AperFunction,ComponentPad*%
%ADD32Outline6P,-0.800000X0.800000X0.480000X0.800000X0.800000X0.480000X0.800000X-0.800000X-0.480000X-0.800000X-0.800000X-0.480000X270.000000*%
%TD*%
%TA.AperFunction,ComponentPad*%
%ADD33Outline6P,-1.250000X0.750000X-0.750000X1.250000X1.250000X1.250000X1.250000X-0.750000X0.750000X-1.250000X-1.250000X-1.250000X0.000000*%
%TD*%
%TA.AperFunction,ComponentPad*%
%ADD34RoundRect,0.250000X0.725000X-0.600000X0.725000X0.600000X-0.725000X0.600000X-0.725000X-0.600000X0*%
%TD*%
%TA.AperFunction,ComponentPad*%
%ADD35O,1.740000X2.190000*%
%TD*%
%TA.AperFunction,ComponentPad*%
%ADD36R,1.740000X2.190000*%
%TD*%
%TA.AperFunction,ComponentPad*%
%ADD37Outline5P,-0.870000X0.747000X-0.522000X1.095000X0.870000X1.095000X0.870000X-1.095000X-0.870000X-1.095000X0.000000*%
%TD*%
%TA.AperFunction,ComponentPad*%
%ADD38Outline6P,-0.870000X0.747000X-0.522000X1.095000X0.870000X1.095000X0.870000X-0.747000X0.522000X-1.095000X-0.870000X-1.095000X0.000000*%
%TD*%
%TA.AperFunction,ComponentPad*%
%ADD39RotRect,2.600000X2.600000X315.000000*%
%TD*%
%TA.AperFunction,ComponentPad*%
%ADD40C,2.600000*%
%TD*%
%TA.AperFunction,ComponentPad*%
%ADD41Outline5P,-1.300000X0.780000X-0.780000X1.300000X1.300000X1.300000X1.300000X-1.300000X-1.300000X-1.300000X270.000000*%
%TD*%
%TA.AperFunction,ComponentPad*%
%ADD42FreePoly0,0.000000*%
%TD*%
%TA.AperFunction,ComponentPad*%
%ADD43C,1.600000*%
%TD*%
%TA.AperFunction,ComponentPad*%
%ADD44FreePoly1,0.000000*%
%TD*%
%TA.AperFunction,ComponentPad*%
%ADD45FreePoly2,0.000000*%
%TD*%
%TA.AperFunction,ViaPad*%
%ADD46C,0.600000*%
%TD*%
%TA.AperFunction,Conductor*%
%ADD47C,0.200000*%
%TD*%
%TA.AperFunction,Conductor*%
%ADD48C,2.500000*%
%TD*%
G04 APERTURE END LIST*
D10*
%TO.P,SW6,1,C_1*%
%TO.N,unconnected-(SW6-C-Pad1)*%
X114900000Y-130400000D03*
D11*
%TO.P,SW6,2,B_2*%
%TO.N,Net-(A2-M1)*%
X114900000Y-132900000D03*
D12*
%TO.P,SW6,3,A_3*%
%TO.N,Net-(A2-VMOT)*%
X114900000Y-135400000D03*
%TO.P,SW6,4*%
%TO.N,N/C*%
X111600000Y-135400000D03*
%TO.P,SW6,5*%
X111600000Y-132900000D03*
%TO.P,SW6,6*%
X111600000Y-130400000D03*
%TD*%
D13*
%TO.P,J8,1,Pin_1_1*%
%TO.N,Net-(A1-GPIO27_ADC1)*%
X98400000Y-128200000D03*
D14*
%TO.P,J8,2,Pin_2_2*%
%TO.N,Net-(A1-AGND)*%
X98400000Y-125700000D03*
%TD*%
D15*
%TO.P,C3,1*%
%TO.N,Net-(A2-VMOT)*%
X125700000Y-103600000D03*
D16*
%TO.P,C3,2*%
%TO.N,Net-(A1-AGND)*%
X128200000Y-103600000D03*
%TD*%
%TO.P,A2,1,GND_1*%
%TO.N,Net-(A1-AGND)*%
X162510000Y-73540000D03*
D17*
%TO.P,A2,2,~{FLT}_2*%
%TO.N,unconnected-(A2-~{FLT}-Pad2)*%
X165050000Y-73540000D03*
D18*
%TO.P,A2,3,A2_3*%
%TO.N,Net-(A2-A2)*%
X167590000Y-73540000D03*
%TO.P,A2,4,A1_4*%
%TO.N,Net-(A2-A1)*%
X170130000Y-73540000D03*
%TO.P,A2,5,B1_5*%
%TO.N,Net-(A2-B1)*%
X172670000Y-73540000D03*
%TO.P,A2,6,B2_6*%
%TO.N,Net-(A2-B2)*%
X175210000Y-73540000D03*
D16*
%TO.P,A2,7,GND_7*%
%TO.N,Net-(A1-AGND)*%
X177750000Y-73540000D03*
D19*
%TO.P,A2,8,VMOT_8*%
%TO.N,Net-(A2-VMOT)*%
X180290000Y-73540000D03*
D18*
%TO.P,A2,9,~{EN}_9*%
%TO.N,Net-(A1-GPIO0)*%
X180290000Y-60840000D03*
%TO.P,A2,10,M0_10*%
%TO.N,Net-(A2-M0)*%
X177750000Y-60840000D03*
%TO.P,A2,11,M1_11*%
%TO.N,Net-(A2-M1)*%
X175210000Y-60840000D03*
%TO.P,A2,12,M2_12*%
%TO.N,Net-(A2-M2)*%
X172670000Y-60840000D03*
%TO.P,A2,13,~{RST}_13*%
%TO.N,Net-(A1-VBUS)*%
X170130000Y-60840000D03*
%TO.P,A2,14,~{SLP}_14*%
X167590000Y-60840000D03*
%TO.P,A2,15,STEP_15*%
%TO.N,Net-(A1-GPIO1)*%
X165050000Y-60840000D03*
%TO.P,A2,16,DIR_16*%
%TO.N,Net-(A1-GPIO2)*%
X162510000Y-60840000D03*
%TD*%
D10*
%TO.P,SW8,1,C_1*%
%TO.N,unconnected-(SW8-C-Pad1)*%
X104900000Y-140100000D03*
D20*
%TO.P,SW8,2,B_2*%
%TO.N,Net-(J17-Pin_2)*%
X104900000Y-142600000D03*
D21*
%TO.P,SW8,3,A_3*%
%TO.N,Net-(A1-AGND)*%
X104900000Y-145100000D03*
D12*
%TO.P,SW8,4*%
%TO.N,N/C*%
X101600000Y-145100000D03*
%TO.P,SW8,5*%
X101600000Y-142600000D03*
%TO.P,SW8,6*%
X101600000Y-140100000D03*
%TD*%
D22*
%TO.P,REF\u002A\u002A,1*%
%TO.N,Net-(A1-AGND)*%
X189375000Y-62256155D03*
X190143845Y-60400000D03*
X190143845Y-64112310D03*
X192000000Y-59631155D03*
D23*
X192000000Y-62256155D03*
D22*
X192000000Y-64881155D03*
X193856155Y-60400000D03*
X193856155Y-64112310D03*
X194625000Y-62256155D03*
%TD*%
D24*
%TO.P,J17,1,Pin_1_1*%
%TO.N,Net-(A2-VMOT)*%
X109200000Y-142400000D03*
D25*
%TO.P,J17,2,Pin_2_2*%
%TO.N,Net-(J17-Pin_2)*%
X114280000Y-142400000D03*
%TD*%
D13*
%TO.P,J7,1,Pin_1_1*%
%TO.N,Net-(A1-GPIO22)*%
X185600000Y-116000000D03*
D14*
%TO.P,J7,2,Pin_2_2*%
%TO.N,Net-(A1-AGND)*%
X185600000Y-118500000D03*
%TD*%
D26*
%TO.P,J4,1,Pin_1_1*%
%TO.N,Net-(A4-A2)*%
X185300000Y-99450000D03*
D27*
%TO.P,J4,2,Pin_2_2*%
%TO.N,Net-(A4-A1)*%
X185300000Y-101950000D03*
%TO.P,J4,3,Pin_3_3*%
%TO.N,Net-(A4-B1)*%
X185300000Y-104450000D03*
D26*
%TO.P,J4,4,Pin_4_4*%
%TO.N,Net-(A4-B2)*%
X185300000Y-106950000D03*
%TD*%
D16*
%TO.P,A3,1,GND_1*%
%TO.N,Net-(A1-AGND)*%
X162510000Y-91740000D03*
D17*
%TO.P,A3,2,~{FLT}_2*%
%TO.N,unconnected-(A3-~{FLT}-Pad2)*%
X165050000Y-91740000D03*
D18*
%TO.P,A3,3,A2_3*%
%TO.N,Net-(A3-A2)*%
X167590000Y-91740000D03*
%TO.P,A3,4,A1_4*%
%TO.N,Net-(A3-A1)*%
X170130000Y-91740000D03*
%TO.P,A3,5,B1_5*%
%TO.N,Net-(A3-B1)*%
X172670000Y-91740000D03*
%TO.P,A3,6,B2_6*%
%TO.N,Net-(A3-B2)*%
X175210000Y-91740000D03*
D16*
%TO.P,A3,7,GND_7*%
%TO.N,Net-(A1-AGND)*%
X177750000Y-91740000D03*
D19*
%TO.P,A3,8,VMOT_8*%
%TO.N,Net-(A2-VMOT)*%
X180290000Y-91740000D03*
D18*
%TO.P,A3,9,~{EN}_9*%
%TO.N,Net-(A1-GPIO3)*%
X180290000Y-79040000D03*
%TO.P,A3,10,M0_10*%
%TO.N,Net-(A2-M0)*%
X177750000Y-79040000D03*
%TO.P,A3,11,M1_11*%
%TO.N,Net-(A2-M1)*%
X175210000Y-79040000D03*
%TO.P,A3,12,M2_12*%
%TO.N,Net-(A2-M2)*%
X172670000Y-79040000D03*
%TO.P,A3,13,~{RST}_13*%
%TO.N,Net-(A1-VBUS)*%
X170130000Y-79040000D03*
%TO.P,A3,14,~{SLP}_14*%
X167590000Y-79040000D03*
%TO.P,A3,15,STEP_15*%
%TO.N,Net-(A1-GPIO4)*%
X165050000Y-79040000D03*
%TO.P,A3,16,DIR_16*%
%TO.N,Net-(A1-GPIO5)*%
X162510000Y-79040000D03*
%TD*%
D22*
%TO.P,REF\u002A\u002A,1*%
%TO.N,Net-(A1-AGND)*%
X89775000Y-62400000D03*
X90543845Y-60543845D03*
X90543845Y-64256155D03*
X92400000Y-59775000D03*
D28*
X92400000Y-62400000D03*
D22*
X92400000Y-65025000D03*
X94256155Y-60543845D03*
X94256155Y-64256155D03*
X95025000Y-62400000D03*
%TD*%
%TO.P,REF\u002A\u002A,1*%
%TO.N,Net-(A1-AGND)*%
X189375000Y-143000000D03*
X190143845Y-141143845D03*
X190143845Y-144856155D03*
X192000000Y-140375000D03*
D29*
X192000000Y-143000000D03*
D22*
X192000000Y-145625000D03*
X193856155Y-141143845D03*
X193856155Y-144856155D03*
X194625000Y-143000000D03*
%TD*%
D30*
%TO.P,C7,1*%
%TO.N,Net-(A1-VBUS)*%
X156017621Y-74400000D03*
D16*
%TO.P,C7,2*%
%TO.N,Net-(A1-AGND)*%
X158517621Y-74400000D03*
%TD*%
%TO.P,A7,1,GND_1*%
%TO.N,Net-(A1-AGND)*%
X121690000Y-60860000D03*
D31*
%TO.P,A7,2,~{FLT}_2*%
%TO.N,unconnected-(A7-~{FLT}-Pad2)*%
X119150000Y-60860000D03*
D18*
%TO.P,A7,3,A2_3*%
%TO.N,Net-(A7-A2)*%
X116610000Y-60860000D03*
%TO.P,A7,4,A1_4*%
%TO.N,Net-(A7-A1)*%
X114070000Y-60860000D03*
%TO.P,A7,5,B1_5*%
%TO.N,Net-(A7-B1)*%
X111530000Y-60860000D03*
%TO.P,A7,6,B2_6*%
%TO.N,Net-(A7-B2)*%
X108990000Y-60860000D03*
D16*
%TO.P,A7,7,GND_7*%
%TO.N,Net-(A1-AGND)*%
X106450000Y-60860000D03*
D32*
%TO.P,A7,8,VMOT_8*%
%TO.N,Net-(A2-VMOT)*%
X103910000Y-60860000D03*
D18*
%TO.P,A7,9,~{EN}_9*%
%TO.N,Net-(A1-GPIO15)*%
X103910000Y-73560000D03*
%TO.P,A7,10,M0_10*%
%TO.N,Net-(A2-M0)*%
X106450000Y-73560000D03*
%TO.P,A7,11,M1_11*%
%TO.N,Net-(A2-M1)*%
X108990000Y-73560000D03*
%TO.P,A7,12,M2_12*%
%TO.N,Net-(A2-M2)*%
X111530000Y-73560000D03*
%TO.P,A7,13,~{RST}_13*%
%TO.N,Net-(A1-VBUS)*%
X114070000Y-73560000D03*
%TO.P,A7,14,~{SLP}_14*%
X116610000Y-73560000D03*
%TO.P,A7,15,STEP_15*%
%TO.N,Net-(A1-GPIO16)*%
X119150000Y-73560000D03*
%TO.P,A7,16,DIR_16*%
%TO.N,Net-(A1-GPIO17)*%
X121690000Y-73560000D03*
%TD*%
D33*
%TO.P,J1,1,Pin_1_1*%
%TO.N,Net-(J1-Pin_1)*%
X151135000Y-142600000D03*
D25*
%TO.P,J1,2,Pin_2_2*%
%TO.N,Net-(A1-AGND)*%
X156215000Y-142600000D03*
%TD*%
D16*
%TO.P,A5,1,GND_1*%
%TO.N,Net-(A1-AGND)*%
X121620000Y-97220000D03*
D31*
%TO.P,A5,2,~{FLT}_2*%
%TO.N,unconnected-(A5-~{FLT}-Pad2)*%
X119080000Y-97220000D03*
D18*
%TO.P,A5,3,A2_3*%
%TO.N,Net-(A5-A2)*%
X116540000Y-97220000D03*
%TO.P,A5,4,A1_4*%
%TO.N,Net-(A5-A1)*%
X114000000Y-97220000D03*
%TO.P,A5,5,B1_5*%
%TO.N,Net-(A5-B1)*%
X111460000Y-97220000D03*
%TO.P,A5,6,B2_6*%
%TO.N,Net-(A5-B2)*%
X108920000Y-97220000D03*
D16*
%TO.P,A5,7,GND_7*%
%TO.N,Net-(A1-AGND)*%
X106380000Y-97220000D03*
D32*
%TO.P,A5,8,VMOT_8*%
%TO.N,Net-(A2-VMOT)*%
X103840000Y-97220000D03*
D18*
%TO.P,A5,9,~{EN}_9*%
%TO.N,Net-(A1-GPIO9)*%
X103840000Y-109920000D03*
%TO.P,A5,10,M0_10*%
%TO.N,Net-(A2-M0)*%
X106380000Y-109920000D03*
%TO.P,A5,11,M1_11*%
%TO.N,Net-(A2-M1)*%
X108920000Y-109920000D03*
%TO.P,A5,12,M2_12*%
%TO.N,Net-(A2-M2)*%
X111460000Y-109920000D03*
%TO.P,A5,13,~{RST}_13*%
%TO.N,Net-(A1-VBUS)*%
X114000000Y-109920000D03*
%TO.P,A5,14,~{SLP}_14*%
X116540000Y-109920000D03*
%TO.P,A5,15,STEP_15*%
%TO.N,Net-(A1-GPIO10)*%
X119080000Y-109920000D03*
%TO.P,A5,16,DIR_16*%
%TO.N,Net-(A1-GPIO11)*%
X121620000Y-109920000D03*
%TD*%
D15*
%TO.P,C2,1*%
%TO.N,Net-(A2-VMOT)*%
X125700000Y-85400000D03*
D16*
%TO.P,C2,2*%
%TO.N,Net-(A1-AGND)*%
X128200000Y-85400000D03*
%TD*%
D30*
%TO.P,C8,1*%
%TO.N,Net-(A1-VBUS)*%
X155900000Y-81800000D03*
D16*
%TO.P,C8,2*%
%TO.N,Net-(A1-AGND)*%
X158400000Y-81800000D03*
%TD*%
D26*
%TO.P,J2,1,Pin_1_1*%
%TO.N,Net-(A2-A2)*%
X185600000Y-63450000D03*
D27*
%TO.P,J2,2,Pin_2_2*%
%TO.N,Net-(A2-A1)*%
X185600000Y-65950000D03*
%TO.P,J2,3,Pin_3_3*%
%TO.N,Net-(A2-B1)*%
X185600000Y-68450000D03*
D26*
%TO.P,J2,4,Pin_4_4*%
%TO.N,Net-(A2-B2)*%
X185600000Y-70950000D03*
%TD*%
D15*
%TO.P,C6,1*%
%TO.N,Net-(A2-VMOT)*%
X155700000Y-102600000D03*
D16*
%TO.P,C6,2*%
%TO.N,Net-(A1-AGND)*%
X158200000Y-102600000D03*
%TD*%
D33*
%TO.P,J14,1,Pin_1_1*%
%TO.N,Net-(J14-Pin_1)*%
X162520000Y-142600000D03*
D25*
%TO.P,J14,2,Pin_2_2*%
%TO.N,Net-(A1-AGND)*%
X167600000Y-142600000D03*
%TD*%
D33*
%TO.P,J13,1,Pin_1_1*%
%TO.N,Net-(J13-Pin_1)*%
X128320000Y-142600000D03*
D25*
%TO.P,J13,2,Pin_2_2*%
%TO.N,Net-(A1-AGND)*%
X133400000Y-142600000D03*
%TD*%
D15*
%TO.P,C5,1*%
%TO.N,Net-(A2-VMOT)*%
X156100000Y-89200000D03*
D16*
%TO.P,C5,2*%
%TO.N,Net-(A1-AGND)*%
X158600000Y-89200000D03*
%TD*%
D15*
%TO.P,C4,1*%
%TO.N,Net-(A2-VMOT)*%
X156100000Y-66800000D03*
D16*
%TO.P,C4,2*%
%TO.N,Net-(A1-AGND)*%
X158600000Y-66800000D03*
%TD*%
D10*
%TO.P,SW7,1,C_1*%
%TO.N,unconnected-(SW7-C-Pad1)*%
X107700000Y-130400000D03*
D11*
%TO.P,SW7,2,B_2*%
%TO.N,Net-(A2-M2)*%
X107700000Y-132900000D03*
D12*
%TO.P,SW7,3,A_3*%
%TO.N,Net-(A2-VMOT)*%
X107700000Y-135400000D03*
%TO.P,SW7,4*%
%TO.N,N/C*%
X104400000Y-135400000D03*
%TO.P,SW7,5*%
X104400000Y-132900000D03*
%TO.P,SW7,6*%
X104400000Y-130400000D03*
%TD*%
D34*
%TO.P,J11,1,Pin_1_1*%
%TO.N,Net-(A5-A2)*%
X98400000Y-107300000D03*
D27*
%TO.P,J11,2,Pin_2_2*%
%TO.N,Net-(A5-A1)*%
X98400000Y-104800000D03*
%TO.P,J11,3,Pin_3_3*%
%TO.N,Net-(A5-B1)*%
X98400000Y-102300000D03*
D34*
%TO.P,J11,4,Pin_4_4*%
%TO.N,Net-(A5-B2)*%
X98400000Y-99800000D03*
%TD*%
D13*
%TO.P,J10,1,Pin_1_1*%
%TO.N,Net-(A1-GPIO26_ADC0)*%
X98400000Y-118600000D03*
D14*
%TO.P,J10,2,Pin_2_2*%
%TO.N,Net-(A1-AGND)*%
X98400000Y-116100000D03*
%TD*%
D13*
%TO.P,J6,1,Pin_1_1*%
%TO.N,Net-(A1-GPIO21)*%
X185600000Y-125600000D03*
D14*
%TO.P,J6,2,Pin_2_2*%
%TO.N,Net-(A1-AGND)*%
X185600000Y-128100000D03*
%TD*%
D34*
%TO.P,J9,1,Pin_1_1*%
%TO.N,Net-(A6-A2)*%
X98600000Y-89000000D03*
D27*
%TO.P,J9,2,Pin_2_2*%
%TO.N,Net-(A6-A1)*%
X98600000Y-86500000D03*
%TO.P,J9,3,Pin_3_3*%
%TO.N,Net-(A6-B1)*%
X98600000Y-84000000D03*
D34*
%TO.P,J9,4,Pin_4_4*%
%TO.N,Net-(A6-B2)*%
X98600000Y-81500000D03*
%TD*%
D10*
%TO.P,SW5,1,C_1*%
%TO.N,unconnected-(SW5-C-Pad1)*%
X107700000Y-120400000D03*
D11*
%TO.P,SW5,2,B_2*%
%TO.N,Net-(A2-M0)*%
X107700000Y-122900000D03*
D12*
%TO.P,SW5,3,A_3*%
%TO.N,Net-(A2-VMOT)*%
X107700000Y-125400000D03*
%TO.P,SW5,4*%
%TO.N,N/C*%
X104400000Y-125400000D03*
%TO.P,SW5,5*%
X104400000Y-122900000D03*
%TO.P,SW5,6*%
X104400000Y-120400000D03*
%TD*%
D35*
%TO.P,J15,1,Pin_1_1*%
%TO.N,Net-(A1-GPIO20)*%
X172720000Y-134600000D03*
%TO.P,J15,2,Pin_2_2*%
%TO.N,Net-(A1-GPIO19)*%
X175260000Y-134600000D03*
%TO.P,J15,3,Pin_3_3*%
%TO.N,Net-(A1-GPIO18)*%
X177800000Y-134600000D03*
D36*
%TO.P,J15,4,Pin_4_4*%
%TO.N,Net-(A1-AGND)*%
X180340000Y-134600000D03*
D37*
%TO.P,J15,5,Pin_5_5*%
%TO.N,Net-(A1-VBUS)*%
X182880000Y-134600000D03*
D38*
%TO.P,J15,6,Pin_6_6*%
%TO.N,Net-(A2-VMOT)*%
X185420000Y-134600000D03*
%TD*%
D34*
%TO.P,J5,1,Pin_1_1*%
%TO.N,Net-(A7-A2)*%
X98600000Y-71200000D03*
D27*
%TO.P,J5,2,Pin_2_2*%
%TO.N,Net-(A7-A1)*%
X98600000Y-68700000D03*
%TO.P,J5,3,Pin_3_3*%
%TO.N,Net-(A7-B1)*%
X98600000Y-66200000D03*
D34*
%TO.P,J5,4,Pin_4_4*%
%TO.N,Net-(A7-B2)*%
X98600000Y-63700000D03*
%TD*%
D22*
%TO.P,REF\u002A\u002A,1*%
%TO.N,Net-(A1-AGND)*%
X89775000Y-143000000D03*
X90543845Y-141143845D03*
X90543845Y-144856155D03*
X92400000Y-140375000D03*
D29*
X92400000Y-143000000D03*
D22*
X92400000Y-145625000D03*
X94256155Y-141143845D03*
X94256155Y-144856155D03*
X95025000Y-143000000D03*
%TD*%
D16*
%TO.P,A4,1,GND_1*%
%TO.N,Net-(A1-AGND)*%
X162460000Y-109800000D03*
D17*
%TO.P,A4,2,~{FLT}_2*%
%TO.N,unconnected-(A4-~{FLT}-Pad2)*%
X165000000Y-109800000D03*
D18*
%TO.P,A4,3,A2_3*%
%TO.N,Net-(A4-A2)*%
X167540000Y-109800000D03*
%TO.P,A4,4,A1_4*%
%TO.N,Net-(A4-A1)*%
X170080000Y-109800000D03*
%TO.P,A4,5,B1_5*%
%TO.N,Net-(A4-B1)*%
X172620000Y-109800000D03*
%TO.P,A4,6,B2_6*%
%TO.N,Net-(A4-B2)*%
X175160000Y-109800000D03*
D16*
%TO.P,A4,7,GND_7*%
%TO.N,Net-(A1-AGND)*%
X177700000Y-109800000D03*
D19*
%TO.P,A4,8,VMOT_8*%
%TO.N,Net-(A2-VMOT)*%
X180240000Y-109800000D03*
D18*
%TO.P,A4,9,~{EN}_9*%
%TO.N,Net-(A1-GPIO6)*%
X180240000Y-97100000D03*
%TO.P,A4,10,M0_10*%
%TO.N,Net-(A2-M0)*%
X177700000Y-97100000D03*
%TO.P,A4,11,M1_11*%
%TO.N,Net-(A2-M1)*%
X175160000Y-97100000D03*
%TO.P,A4,12,M2_12*%
%TO.N,Net-(A2-M2)*%
X172620000Y-97100000D03*
%TO.P,A4,13,~{RST}_13*%
%TO.N,Net-(A1-VBUS)*%
X170080000Y-97100000D03*
%TO.P,A4,14,~{SLP}_14*%
X167540000Y-97100000D03*
%TO.P,A4,15,STEP_15*%
%TO.N,Net-(A1-GPIO7)*%
X165000000Y-97100000D03*
%TO.P,A4,16,DIR_16*%
%TO.N,Net-(A1-GPIO8)*%
X162460000Y-97100000D03*
%TD*%
D39*
%TO.P,SW1,1,C_1*%
%TO.N,unconnected-(SW1-C-Pad1)*%
X156600000Y-116320000D03*
D40*
%TO.P,SW1,2,B_2*%
%TO.N,Net-(A2-VMOT)*%
X156600000Y-121400000D03*
D41*
%TO.P,SW1,3,A_3*%
%TO.N,Net-(J1-Pin_1)*%
X156600000Y-126480000D03*
%TD*%
D42*
%TO.P,Raspberry Pi Pico ,1,GPIO0_1*%
%TO.N,Net-(A1-GPIO0)*%
X133115000Y-60535000D03*
D43*
%TO.P,Raspberry Pi Pico ,2,GPIO1_2*%
%TO.N,Net-(A1-GPIO1)*%
X133115000Y-63075000D03*
D44*
%TO.P,Raspberry Pi Pico ,3,GND_3*%
%TO.N,Net-(A1-AGND)*%
X133115000Y-65615000D03*
D43*
%TO.P,Raspberry Pi Pico ,4,GPIO2_4*%
%TO.N,Net-(A1-GPIO2)*%
X133115000Y-68155000D03*
%TO.P,Raspberry Pi Pico ,5,GPIO3_5*%
%TO.N,Net-(A1-GPIO3)*%
X133115000Y-70695000D03*
%TO.P,Raspberry Pi Pico ,6,GPIO4_6*%
%TO.N,Net-(A1-GPIO4)*%
X133115000Y-73235000D03*
%TO.P,Raspberry Pi Pico ,7,GPIO5_7*%
%TO.N,Net-(A1-GPIO5)*%
X133115000Y-75775000D03*
D44*
%TO.P,Raspberry Pi Pico ,8,GND_8*%
%TO.N,Net-(A1-AGND)*%
X133115000Y-78315000D03*
D43*
%TO.P,Raspberry Pi Pico ,9,GPIO6_9*%
%TO.N,Net-(A1-GPIO6)*%
X133115000Y-80855000D03*
%TO.P,Raspberry Pi Pico ,10,GPIO7_10*%
%TO.N,Net-(A1-GPIO7)*%
X133115000Y-83395000D03*
%TO.P,Raspberry Pi Pico ,11,GPIO8_11*%
%TO.N,Net-(A1-GPIO8)*%
X133115000Y-85935000D03*
%TO.P,Raspberry Pi Pico ,12,GPIO9_12*%
%TO.N,Net-(A1-GPIO9)*%
X133115000Y-88475000D03*
D44*
%TO.P,Raspberry Pi Pico ,13,GND_13*%
%TO.N,Net-(A1-AGND)*%
X133115000Y-91015000D03*
D43*
%TO.P,Raspberry Pi Pico ,14,GPIO10_14*%
%TO.N,Net-(A1-GPIO10)*%
X133115000Y-93555000D03*
%TO.P,Raspberry Pi Pico ,15,GPIO11_15*%
%TO.N,Net-(A1-GPIO11)*%
X133115000Y-96095000D03*
%TO.P,Raspberry Pi Pico ,16,GPIO12_16*%
%TO.N,Net-(A1-GPIO12)*%
X133115000Y-98635000D03*
%TO.P,Raspberry Pi Pico ,17,GPIO13_17*%
%TO.N,Net-(A1-GPIO13)*%
X133115000Y-101175000D03*
D44*
%TO.P,Raspberry Pi Pico ,18,GND_18*%
%TO.N,Net-(A1-AGND)*%
X133115000Y-103715000D03*
D43*
%TO.P,Raspberry Pi Pico ,19,GPIO14_19*%
%TO.N,Net-(A1-GPIO14)*%
X133115000Y-106255000D03*
%TO.P,Raspberry Pi Pico ,20,GPIO15_20*%
%TO.N,Net-(A1-GPIO15)*%
X133115000Y-108795000D03*
D30*
%TO.P,Raspberry Pi Pico ,21,GPIO16_21*%
%TO.N,Net-(A1-GPIO16)*%
X150895000Y-108795000D03*
D43*
%TO.P,Raspberry Pi Pico ,22,GPIO17_22*%
%TO.N,Net-(A1-GPIO17)*%
X150895000Y-106255000D03*
D45*
%TO.P,Raspberry Pi Pico ,23,GND_23*%
%TO.N,Net-(A1-AGND)*%
X150895000Y-103715000D03*
D43*
%TO.P,Raspberry Pi Pico ,24,GPIO18_24*%
%TO.N,Net-(A1-GPIO18)*%
X150895000Y-101175000D03*
%TO.P,Raspberry Pi Pico ,25,GPIO19_25*%
%TO.N,Net-(A1-GPIO19)*%
X150895000Y-98635000D03*
%TO.P,Raspberry Pi Pico ,26,GPIO20_26*%
%TO.N,Net-(A1-GPIO20)*%
X150895000Y-96095000D03*
%TO.P,Raspberry Pi Pico ,27,GPIO21_27*%
%TO.N,Net-(A1-GPIO21)*%
X150895000Y-93555000D03*
D45*
%TO.P,Raspberry Pi Pico ,28,GND_28*%
%TO.N,Net-(A1-AGND)*%
X150895000Y-91015000D03*
D43*
%TO.P,Raspberry Pi Pico ,29,GPIO22_29*%
%TO.N,Net-(A1-GPIO22)*%
X150895000Y-88475000D03*
%TO.P,Raspberry Pi Pico ,30,RUN_30*%
%TO.N,unconnected-(A1-RUN-Pad30)*%
X150895000Y-85935000D03*
%TO.P,Raspberry Pi Pico ,31,GPIO26_ADC0_31*%
%TO.N,Net-(A1-GPIO26_ADC0)*%
X150895000Y-83395000D03*
%TO.P,Raspberry Pi Pico ,32,GPIO27_ADC1_32*%
%TO.N,Net-(A1-GPIO27_ADC1)*%
X150895000Y-80855000D03*
D45*
%TO.P,Raspberry Pi Pico ,33,AGND_33*%
%TO.N,Net-(A1-AGND)*%
X150895000Y-78315000D03*
D43*
%TO.P,Raspberry Pi Pico ,34,GPIO28_ADC2_34*%
%TO.N,unconnected-(A1-GPIO28_ADC2-Pad34)*%
X150895000Y-75775000D03*
%TO.P,Raspberry Pi Pico ,35,ADC_VREF_35*%
%TO.N,unconnected-(A1-ADC_VREF-Pad35)*%
X150895000Y-73235000D03*
%TO.P,Raspberry Pi Pico ,36,3V3_36*%
%TO.N,unconnected-(A1-3V3-Pad36)*%
X150895000Y-70695000D03*
%TO.P,Raspberry Pi Pico ,37,3V3_EN_37*%
%TO.N,unconnected-(A1-3V3_EN-Pad37)*%
X150895000Y-68155000D03*
D45*
%TO.P,Raspberry Pi Pico ,38,GND_38*%
%TO.N,Net-(A1-AGND)*%
X150895000Y-65615000D03*
D43*
%TO.P,Raspberry Pi Pico ,39,VSYS_39*%
%TO.N,unconnected-(A1-VSYS-Pad39)*%
X150895000Y-63075000D03*
%TO.P,Raspberry Pi Pico ,40,VBUS_40*%
%TO.N,Net-(A1-VBUS)*%
X150895000Y-60535000D03*
%TD*%
D16*
%TO.P,A6,1,GND_1*%
%TO.N,Net-(A1-AGND)*%
X121630000Y-79000000D03*
D31*
%TO.P,A6,2,~{FLT}_2*%
%TO.N,unconnected-(A6-~{FLT}-Pad2)*%
X119090000Y-79000000D03*
D18*
%TO.P,A6,3,A2_3*%
%TO.N,Net-(A6-A2)*%
X116550000Y-79000000D03*
%TO.P,A6,4,A1_4*%
%TO.N,Net-(A6-A1)*%
X114010000Y-79000000D03*
%TO.P,A6,5,B1_5*%
%TO.N,Net-(A6-B1)*%
X111470000Y-79000000D03*
%TO.P,A6,6,B2_6*%
%TO.N,Net-(A6-B2)*%
X108930000Y-79000000D03*
D16*
%TO.P,A6,7,GND_7*%
%TO.N,Net-(A1-AGND)*%
X106390000Y-79000000D03*
D32*
%TO.P,A6,8,VMOT_8*%
%TO.N,Net-(A2-VMOT)*%
X103850000Y-79000000D03*
D18*
%TO.P,A6,9,~{EN}_9*%
%TO.N,Net-(A1-GPIO12)*%
X103850000Y-91700000D03*
%TO.P,A6,10,M0_10*%
%TO.N,Net-(A2-M0)*%
X106390000Y-91700000D03*
%TO.P,A6,11,M1_11*%
%TO.N,Net-(A2-M1)*%
X108930000Y-91700000D03*
%TO.P,A6,12,M2_12*%
%TO.N,Net-(A2-M2)*%
X111470000Y-91700000D03*
%TO.P,A6,13,~{RST}_13*%
%TO.N,Net-(A1-VBUS)*%
X114010000Y-91700000D03*
%TO.P,A6,14,~{SLP}_14*%
X116550000Y-91700000D03*
%TO.P,A6,15,STEP_15*%
%TO.N,Net-(A1-GPIO13)*%
X119090000Y-91700000D03*
%TO.P,A6,16,DIR_16*%
%TO.N,Net-(A1-GPIO14)*%
X121630000Y-91700000D03*
%TD*%
D39*
%TO.P,SW2,1,C_1*%
%TO.N,unconnected-(SW2-C-Pad1)*%
X137932500Y-116320000D03*
D40*
%TO.P,SW2,2,B_2*%
%TO.N,Net-(A2-VMOT)*%
X137932500Y-121400000D03*
D41*
%TO.P,SW2,3,A_3*%
%TO.N,Net-(J12-Pin_1)*%
X137932500Y-126480000D03*
%TD*%
D39*
%TO.P,SW3,1,C_1*%
%TO.N,unconnected-(SW3-C-Pad1)*%
X125600000Y-116320000D03*
D40*
%TO.P,SW3,2,B_2*%
%TO.N,Net-(A2-VMOT)*%
X125600000Y-121400000D03*
D41*
%TO.P,SW3,3,A_3*%
%TO.N,Net-(J13-Pin_1)*%
X125600000Y-126480000D03*
%TD*%
D26*
%TO.P,J3,1,Pin_1_1*%
%TO.N,Net-(A3-A2)*%
X185500000Y-81650000D03*
D27*
%TO.P,J3,2,Pin_2_2*%
%TO.N,Net-(A3-A1)*%
X185500000Y-84150000D03*
%TO.P,J3,3,Pin_3_3*%
%TO.N,Net-(A3-B1)*%
X185500000Y-86650000D03*
D26*
%TO.P,J3,4,Pin_4_4*%
%TO.N,Net-(A3-B2)*%
X185500000Y-89150000D03*
%TD*%
D15*
%TO.P,C1,1*%
%TO.N,Net-(A2-VMOT)*%
X125700000Y-67400000D03*
D16*
%TO.P,C1,2*%
%TO.N,Net-(A1-AGND)*%
X128200000Y-67400000D03*
%TD*%
D33*
%TO.P,J16,1,Pin_1_1*%
%TO.N,Net-(A1-VBUS)*%
X177800000Y-142600000D03*
D25*
%TO.P,J16,2,Pin_2_2*%
%TO.N,Net-(A1-AGND)*%
X182880000Y-142600000D03*
%TD*%
D33*
%TO.P,J12,1,Pin_1_1*%
%TO.N,Net-(J12-Pin_1)*%
X139720000Y-142600000D03*
D25*
%TO.P,J12,2,Pin_2_2*%
%TO.N,Net-(A1-AGND)*%
X144800000Y-142600000D03*
%TD*%
D39*
%TO.P,SW4,1,C_1*%
%TO.N,unconnected-(SW4-C-Pad1)*%
X169000000Y-116320000D03*
D40*
%TO.P,SW4,2,B_2*%
%TO.N,Net-(A1-VBUS)*%
X169000000Y-121400000D03*
D41*
%TO.P,SW4,3,A_3*%
%TO.N,Net-(J14-Pin_1)*%
X169000000Y-126480000D03*
%TD*%
D46*
%TO.N,Net-(A1-GPIO17)*%
X146546472Y-94395000D03*
X148600000Y-112400000D03*
%TO.N,Net-(A1-GPIO20)*%
X156575735Y-112224265D03*
%TD*%
%TO.N,Net-(A1-GPIO22)*%
D47*
X129200000Y-82600000D02*
X129200000Y-83400000D01*
%TO.N,Net-(A1-GPIO15)*%
X133115000Y-108795000D02*
X134220000Y-107690000D01*
X134220000Y-107690000D02*
X134220000Y-88024365D01*
X134220000Y-88024365D02*
X133230635Y-87035000D01*
X133230635Y-87035000D02*
X132235000Y-87035000D01*
X132235000Y-87035000D02*
X119860000Y-74660000D01*
X119860000Y-74660000D02*
X105010000Y-74660000D01*
X105010000Y-74660000D02*
X103910000Y-73560000D01*
%TO.N,Net-(A1-GPIO22)*%
X185600000Y-116000000D02*
X183400000Y-113800000D01*
X183400000Y-113800000D02*
X162400000Y-113800000D01*
X162400000Y-113800000D02*
X153400000Y-104800000D01*
X153400000Y-104800000D02*
X153400000Y-99392031D01*
X153400000Y-99392031D02*
X151462334Y-97454365D01*
X151462334Y-97454365D02*
X150454365Y-97454365D01*
X150454365Y-97454365D02*
X145855000Y-92855000D01*
X145855000Y-92855000D02*
X142009315Y-92855000D01*
X142009315Y-92855000D02*
X133649314Y-84495000D01*
X133649314Y-84495000D02*
X130295000Y-84495000D01*
X130295000Y-84495000D02*
X129200000Y-83400000D01*
X129200000Y-82600000D02*
X129505000Y-82295000D01*
X129505000Y-82295000D02*
X133570635Y-82295000D01*
X133570635Y-82295000D02*
X139750635Y-88475000D01*
X139750635Y-88475000D02*
X150895000Y-88475000D01*
%TO.N,Net-(A1-VBUS)*%
X150895000Y-60535000D02*
X140169314Y-60535000D01*
X140169314Y-60535000D02*
X133649314Y-67055000D01*
X133649314Y-67055000D02*
X130945000Y-67055000D01*
X130945000Y-67055000D02*
X125540000Y-72460000D01*
X125540000Y-72460000D02*
X117710000Y-72460000D01*
X117710000Y-72460000D02*
X116610000Y-73560000D01*
%TO.N,Net-(A1-GPIO9)*%
X133115000Y-88475000D02*
X130200000Y-91390000D01*
X130200000Y-91390000D02*
X130200000Y-104268628D01*
X130200000Y-104268628D02*
X129318628Y-105150000D01*
X129318628Y-105150000D02*
X108610000Y-105150000D01*
X108610000Y-105150000D02*
X103840000Y-109920000D01*
%TO.N,Net-(A1-GPIO10)*%
X133115000Y-93555000D02*
X130600000Y-96070000D01*
X130600000Y-96070000D02*
X130600000Y-104434314D01*
X130600000Y-104434314D02*
X126214314Y-108820000D01*
X126214314Y-108820000D02*
X120180000Y-108820000D01*
X120180000Y-108820000D02*
X119080000Y-109920000D01*
%TO.N,Net-(A1-GPIO11)*%
X133115000Y-96095000D02*
X131000000Y-98210000D01*
X131000000Y-98210000D02*
X131000000Y-104600000D01*
X131000000Y-104600000D02*
X125680000Y-109920000D01*
X125680000Y-109920000D02*
X121620000Y-109920000D01*
%TO.N,Net-(A1-GPIO12)*%
X133115000Y-98635000D02*
X132010000Y-99740000D01*
X132010000Y-99740000D02*
X132010000Y-104390000D01*
X132010000Y-104390000D02*
X125380000Y-111020000D01*
X125380000Y-111020000D02*
X103384365Y-111020000D01*
X103384365Y-111020000D02*
X102290000Y-109925635D01*
X102290000Y-109925635D02*
X102290000Y-93260000D01*
X102290000Y-93260000D02*
X103850000Y-91700000D01*
%TO.N,Net-(A2-VMOT)*%
D48*
X180240000Y-108668630D02*
X178721370Y-107150000D01*
X158100000Y-107000000D02*
X155700000Y-104600000D01*
X178721370Y-107150000D02*
X163429339Y-107150000D01*
X180240000Y-109800000D02*
X180240000Y-108668630D01*
X163429339Y-107150000D02*
X163279338Y-107000000D01*
X163279338Y-107000000D02*
X158100000Y-107000000D01*
X155700000Y-104600000D02*
X155700000Y-102600000D01*
X180290000Y-91740000D02*
X180290000Y-92871370D01*
X180290000Y-92871370D02*
X178961370Y-94200000D01*
X178961370Y-94200000D02*
X159392032Y-94200000D01*
X159392032Y-94200000D02*
X156100000Y-90907968D01*
X156100000Y-90907968D02*
X156100000Y-89200000D01*
%TO.N,Net-(A1-GPIO6)*%
D47*
X133115000Y-80855000D02*
X137095000Y-84835000D01*
X137095000Y-84835000D02*
X152642969Y-84835000D01*
X152642969Y-84835000D02*
X152642969Y-89642969D01*
X152642969Y-89642969D02*
X159000000Y-96000000D01*
X159000000Y-96000000D02*
X179140000Y-96000000D01*
X179140000Y-96000000D02*
X180240000Y-97100000D01*
%TO.N,Net-(A1-GPIO7)*%
X133115000Y-83395000D02*
X142175000Y-92455000D01*
X142175000Y-92455000D02*
X154655000Y-92455000D01*
X154655000Y-92455000D02*
X160400000Y-98200000D01*
X160400000Y-98200000D02*
X163900000Y-98200000D01*
X163900000Y-98200000D02*
X165000000Y-97100000D01*
%TO.N,Net-(A2-VMOT)*%
D48*
X103850000Y-79000000D02*
X103850000Y-80960000D01*
X103850000Y-80960000D02*
X105090000Y-82200000D01*
X105090000Y-82200000D02*
X122500000Y-82200000D01*
X122500000Y-82200000D02*
X125700000Y-85400000D01*
%TO.N,Net-(A1-GPIO4)*%
D47*
X133115000Y-73235000D02*
X134215000Y-74335000D01*
X134215000Y-74335000D02*
X153535000Y-74335000D01*
X153535000Y-74335000D02*
X157140000Y-77940000D01*
X157140000Y-77940000D02*
X163950000Y-77940000D01*
X163950000Y-77940000D02*
X165050000Y-79040000D01*
%TO.N,Net-(A1-GPIO21)*%
X150895000Y-93555000D02*
X152026370Y-93555000D01*
X152026370Y-93555000D02*
X164071370Y-105600000D01*
X164071370Y-105600000D02*
X179363402Y-105600000D01*
X179363402Y-105600000D02*
X186900000Y-113136598D01*
X186900000Y-113136598D02*
X186900000Y-124300000D01*
X186900000Y-124300000D02*
X185600000Y-125600000D01*
%TO.N,Net-(A1-VBUS)*%
X170080000Y-97100000D02*
X177980000Y-105000000D01*
X177980000Y-105000000D02*
X179329087Y-105000000D01*
X179329087Y-105000000D02*
X187300000Y-112970913D01*
X187300000Y-112970913D02*
X187300000Y-125526346D01*
X187300000Y-125526346D02*
X186076346Y-126750000D01*
X186076346Y-126750000D02*
X174350000Y-126750000D01*
X174350000Y-126750000D02*
X169000000Y-121400000D01*
%TO.N,Net-(A2-VMOT)*%
D48*
X180290000Y-73540000D02*
X180290000Y-70890000D01*
X180290000Y-70890000D02*
X180200000Y-70800000D01*
X180200000Y-70800000D02*
X178191981Y-70800000D01*
X178191981Y-70800000D02*
X176441981Y-69050000D01*
X176441981Y-69050000D02*
X160850000Y-69050000D01*
X160850000Y-69050000D02*
X157338910Y-69050000D01*
X157338910Y-69050000D02*
X156350000Y-69050000D01*
X156350000Y-69050000D02*
X156350000Y-68061090D01*
X156350000Y-68061090D02*
X156100000Y-67811090D01*
X156100000Y-67811090D02*
X156100000Y-66800000D01*
X101660000Y-76810000D02*
X101660000Y-72628019D01*
X103840000Y-97220000D02*
X103840000Y-98351370D01*
X103850000Y-79000000D02*
X101660000Y-76810000D01*
X122700000Y-70400000D02*
X125700000Y-67400000D01*
X109088630Y-103600000D02*
X125700000Y-103600000D01*
X125700000Y-67400000D02*
X125700000Y-64411006D01*
X182540000Y-75790000D02*
X182540000Y-89490000D01*
X125700000Y-64411006D02*
X131826006Y-58285000D01*
X101660000Y-72628019D02*
X106888019Y-67400000D01*
X180916981Y-58285000D02*
X182540000Y-59908019D01*
X180290000Y-73540000D02*
X182540000Y-75790000D01*
X112318630Y-70400000D02*
X122700000Y-70400000D01*
X109318630Y-67400000D02*
X112318630Y-70400000D01*
X125700000Y-90811981D02*
X125700000Y-85400000D01*
X106888019Y-67400000D02*
X109318630Y-67400000D01*
X182540000Y-89490000D02*
X180290000Y-91740000D01*
X131826006Y-58285000D02*
X180916981Y-58285000D01*
X103840000Y-98351370D02*
X109088630Y-103600000D01*
X182540000Y-59908019D02*
X182540000Y-75790000D01*
X103910000Y-61991370D02*
X109318630Y-67400000D01*
X103910000Y-60860000D02*
X103910000Y-61991370D01*
X125700000Y-103600000D02*
X125700000Y-90811981D01*
%TO.N,Net-(A1-GPIO2)*%
D47*
X159867969Y-60840000D02*
X153652969Y-67055000D01*
X162510000Y-60840000D02*
X159867969Y-60840000D01*
X134215000Y-67055000D02*
X133115000Y-68155000D01*
X153652969Y-67055000D02*
X134215000Y-67055000D01*
%TO.N,Net-(A1-GPIO5)*%
X133115000Y-75775000D02*
X136760000Y-79420000D01*
X162130000Y-79420000D02*
X162510000Y-79040000D01*
X136760000Y-79420000D02*
X162130000Y-79420000D01*
%TO.N,Net-(A1-GPIO17)*%
X146546472Y-94395000D02*
X146595000Y-94395000D01*
X149205000Y-97005000D02*
X149205000Y-111795000D01*
X146595000Y-94395000D02*
X149205000Y-97005000D01*
X149205000Y-111795000D02*
X148600000Y-112400000D01*
%TO.N,Net-(A1-GPIO20)*%
X156575735Y-112224265D02*
X151424264Y-117375736D01*
X151424264Y-117375736D02*
X151424264Y-118800000D01*
X151424264Y-118800000D02*
X168424264Y-135800000D01*
X168424264Y-135800000D02*
X171520000Y-135800000D01*
X171520000Y-135800000D02*
X172720000Y-134600000D01*
%TO.N,Net-(A1-GPIO19)*%
X176400000Y-131200000D02*
X152000000Y-106800000D01*
X152000000Y-106800000D02*
X152000000Y-99740000D01*
X176400000Y-133460000D02*
X176400000Y-131200000D01*
X152000000Y-99740000D02*
X150895000Y-98635000D01*
X175260000Y-134600000D02*
X176400000Y-133460000D01*
%TO.N,Net-(A1-GPIO18)*%
X177400000Y-136200000D02*
X177400000Y-135000000D01*
X149790000Y-122694264D02*
X163620736Y-136525000D01*
X177075000Y-136525000D02*
X177400000Y-136200000D01*
X150895000Y-101175000D02*
X149790000Y-102280000D01*
X163620736Y-136525000D02*
X177075000Y-136525000D01*
X149790000Y-102280000D02*
X149790000Y-122694264D01*
X177400000Y-135000000D02*
X177800000Y-134600000D01*
%TD*%
M02*
