%TF.GenerationSoftware,KiCad,Pcbnew,10.0.5*%
%TF.CreationDate,2026-09-21T21:57:40-04:00*%
%TF.ProjectId,compact_stepper_controller,636f6d70-6163-4745-9f73-746570706572,rev?*%
%TF.SameCoordinates,Original*%
%TF.FileFunction,Legend,Top*%
%TF.FilePolarity,Positive*%
%FSLAX46Y46*%
G04 Gerber Fmt 4.6, Leading zero omitted, Abs format (unit mm)*
G04 Created by KiCad (PCBNEW 10.0.5) date 2026-09-21 21:57:40*
%MOMM*%
%LPD*%
G01*
G04 APERTURE LIST*
%ADD10C,0.334239*%
%ADD11C,0.131658*%
%ADD12C,0.112680*%
%ADD13C,0.200000*%
%ADD14C,0.300000*%
%ADD15C,0.120000*%
G04 APERTURE END LIST*
D10*
X135000000Y-86801090D02*
X135000000Y-96828268D01*
D11*
X139200663Y-90065557D02*
X139200663Y-94015322D01*
D12*
X139200663Y-90130816D02*
X135000000Y-86801090D01*
X139200663Y-94015322D02*
X135000000Y-96828268D01*
D10*
X141127727Y-89029355D02*
X135000000Y-86801090D01*
X141127727Y-98499468D02*
X135000000Y-96828268D01*
X141127727Y-98499468D02*
X141127727Y-89029355D01*
D11*
X141614391Y-90943290D02*
X139200663Y-90065557D01*
D12*
X141614391Y-90943290D02*
X141127727Y-89029355D01*
D11*
X141614391Y-94673602D02*
X139200663Y-94015322D01*
D12*
X141614391Y-94673602D02*
X141127727Y-98499468D01*
D11*
X141614391Y-94673602D02*
X141614391Y-90943290D01*
X142053248Y-88968420D02*
X139200663Y-90065557D01*
D12*
X142053248Y-88968420D02*
X142241862Y-84015758D01*
D11*
X142053248Y-93137591D02*
X139200663Y-94015322D01*
X142053248Y-93137591D02*
X142053248Y-88968420D01*
D10*
X142241862Y-84015758D02*
X135000000Y-86801090D01*
X142241862Y-94600000D02*
X135000000Y-96828268D01*
X142241862Y-94600000D02*
X142241862Y-84015758D01*
D12*
X142245028Y-94450194D02*
X142053248Y-93137591D01*
D11*
X144686410Y-89846142D02*
X141614391Y-90943290D01*
X144686410Y-89846142D02*
X142053248Y-88968420D01*
D12*
X144686410Y-89846142D02*
X148926654Y-86244032D01*
D11*
X144686410Y-93795875D02*
X141614391Y-94673602D01*
X144686410Y-93795875D02*
X142053248Y-93137591D01*
X144686410Y-93795875D02*
X144686410Y-89846142D01*
D12*
X144686410Y-93795875D02*
X148926654Y-96271194D01*
D10*
X148926654Y-86244032D02*
X141127727Y-89029355D01*
X148926654Y-86244032D02*
X142241862Y-84015758D01*
X148926654Y-96271194D02*
X141127727Y-98499468D01*
X148926654Y-96271194D02*
X142241862Y-94600000D01*
X148926654Y-96271194D02*
X148926654Y-86244032D01*
D13*
X109219047Y-145867219D02*
X108647619Y-145867219D01*
X108933333Y-145867219D02*
X108933333Y-144867219D01*
X108933333Y-144867219D02*
X108838095Y-145010076D01*
X108838095Y-145010076D02*
X108742857Y-145105314D01*
X108742857Y-145105314D02*
X108647619Y-145152933D01*
X109600000Y-144962457D02*
X109647619Y-144914838D01*
X109647619Y-144914838D02*
X109742857Y-144867219D01*
X109742857Y-144867219D02*
X109980952Y-144867219D01*
X109980952Y-144867219D02*
X110076190Y-144914838D01*
X110076190Y-144914838D02*
X110123809Y-144962457D01*
X110123809Y-144962457D02*
X110171428Y-145057695D01*
X110171428Y-145057695D02*
X110171428Y-145152933D01*
X110171428Y-145152933D02*
X110123809Y-145295790D01*
X110123809Y-145295790D02*
X109552381Y-145867219D01*
X109552381Y-145867219D02*
X110171428Y-145867219D01*
X110457143Y-144867219D02*
X110790476Y-145867219D01*
X110790476Y-145867219D02*
X111123809Y-144867219D01*
X112552381Y-145343409D02*
X112219048Y-145343409D01*
X112219048Y-145867219D02*
X112219048Y-144867219D01*
X112219048Y-144867219D02*
X112695238Y-144867219D01*
X113028572Y-145581504D02*
X113504762Y-145581504D01*
X112933334Y-145867219D02*
X113266667Y-144867219D01*
X113266667Y-144867219D02*
X113600000Y-145867219D01*
X113933334Y-145867219D02*
X113933334Y-144867219D01*
X113933334Y-144867219D02*
X114504762Y-145867219D01*
X114504762Y-145867219D02*
X114504762Y-144867219D01*
X128714285Y-146067219D02*
X128142857Y-146067219D01*
X128428571Y-146067219D02*
X128428571Y-145067219D01*
X128428571Y-145067219D02*
X128333333Y-145210076D01*
X128333333Y-145210076D02*
X128238095Y-145305314D01*
X128238095Y-145305314D02*
X128142857Y-145352933D01*
X129095238Y-145162457D02*
X129142857Y-145114838D01*
X129142857Y-145114838D02*
X129238095Y-145067219D01*
X129238095Y-145067219D02*
X129476190Y-145067219D01*
X129476190Y-145067219D02*
X129571428Y-145114838D01*
X129571428Y-145114838D02*
X129619047Y-145162457D01*
X129619047Y-145162457D02*
X129666666Y-145257695D01*
X129666666Y-145257695D02*
X129666666Y-145352933D01*
X129666666Y-145352933D02*
X129619047Y-145495790D01*
X129619047Y-145495790D02*
X129047619Y-146067219D01*
X129047619Y-146067219D02*
X129666666Y-146067219D01*
X130095238Y-146067219D02*
X130095238Y-145067219D01*
X130571428Y-146067219D02*
X130571428Y-145067219D01*
X130571428Y-145067219D02*
X131142856Y-146067219D01*
X131142856Y-146067219D02*
X131142856Y-145067219D01*
X132333333Y-146019600D02*
X132476190Y-146067219D01*
X132476190Y-146067219D02*
X132714285Y-146067219D01*
X132714285Y-146067219D02*
X132809523Y-146019600D01*
X132809523Y-146019600D02*
X132857142Y-145971980D01*
X132857142Y-145971980D02*
X132904761Y-145876742D01*
X132904761Y-145876742D02*
X132904761Y-145781504D01*
X132904761Y-145781504D02*
X132857142Y-145686266D01*
X132857142Y-145686266D02*
X132809523Y-145638647D01*
X132809523Y-145638647D02*
X132714285Y-145591028D01*
X132714285Y-145591028D02*
X132523809Y-145543409D01*
X132523809Y-145543409D02*
X132428571Y-145495790D01*
X132428571Y-145495790D02*
X132380952Y-145448171D01*
X132380952Y-145448171D02*
X132333333Y-145352933D01*
X132333333Y-145352933D02*
X132333333Y-145257695D01*
X132333333Y-145257695D02*
X132380952Y-145162457D01*
X132380952Y-145162457D02*
X132428571Y-145114838D01*
X132428571Y-145114838D02*
X132523809Y-145067219D01*
X132523809Y-145067219D02*
X132761904Y-145067219D01*
X132761904Y-145067219D02*
X132904761Y-145114838D01*
X133238095Y-145067219D02*
X133857142Y-145067219D01*
X133857142Y-145067219D02*
X133523809Y-145448171D01*
X133523809Y-145448171D02*
X133666666Y-145448171D01*
X133666666Y-145448171D02*
X133761904Y-145495790D01*
X133761904Y-145495790D02*
X133809523Y-145543409D01*
X133809523Y-145543409D02*
X133857142Y-145638647D01*
X133857142Y-145638647D02*
X133857142Y-145876742D01*
X133857142Y-145876742D02*
X133809523Y-145971980D01*
X133809523Y-145971980D02*
X133761904Y-146019600D01*
X133761904Y-146019600D02*
X133666666Y-146067219D01*
X133666666Y-146067219D02*
X133380952Y-146067219D01*
X133380952Y-146067219D02*
X133285714Y-146019600D01*
X133285714Y-146019600D02*
X133238095Y-145971980D01*
X139914285Y-146067219D02*
X139342857Y-146067219D01*
X139628571Y-146067219D02*
X139628571Y-145067219D01*
X139628571Y-145067219D02*
X139533333Y-145210076D01*
X139533333Y-145210076D02*
X139438095Y-145305314D01*
X139438095Y-145305314D02*
X139342857Y-145352933D01*
X140295238Y-145162457D02*
X140342857Y-145114838D01*
X140342857Y-145114838D02*
X140438095Y-145067219D01*
X140438095Y-145067219D02*
X140676190Y-145067219D01*
X140676190Y-145067219D02*
X140771428Y-145114838D01*
X140771428Y-145114838D02*
X140819047Y-145162457D01*
X140819047Y-145162457D02*
X140866666Y-145257695D01*
X140866666Y-145257695D02*
X140866666Y-145352933D01*
X140866666Y-145352933D02*
X140819047Y-145495790D01*
X140819047Y-145495790D02*
X140247619Y-146067219D01*
X140247619Y-146067219D02*
X140866666Y-146067219D01*
X141295238Y-146067219D02*
X141295238Y-145067219D01*
X141771428Y-146067219D02*
X141771428Y-145067219D01*
X141771428Y-145067219D02*
X142342856Y-146067219D01*
X142342856Y-146067219D02*
X142342856Y-145067219D01*
X143533333Y-146019600D02*
X143676190Y-146067219D01*
X143676190Y-146067219D02*
X143914285Y-146067219D01*
X143914285Y-146067219D02*
X144009523Y-146019600D01*
X144009523Y-146019600D02*
X144057142Y-145971980D01*
X144057142Y-145971980D02*
X144104761Y-145876742D01*
X144104761Y-145876742D02*
X144104761Y-145781504D01*
X144104761Y-145781504D02*
X144057142Y-145686266D01*
X144057142Y-145686266D02*
X144009523Y-145638647D01*
X144009523Y-145638647D02*
X143914285Y-145591028D01*
X143914285Y-145591028D02*
X143723809Y-145543409D01*
X143723809Y-145543409D02*
X143628571Y-145495790D01*
X143628571Y-145495790D02*
X143580952Y-145448171D01*
X143580952Y-145448171D02*
X143533333Y-145352933D01*
X143533333Y-145352933D02*
X143533333Y-145257695D01*
X143533333Y-145257695D02*
X143580952Y-145162457D01*
X143580952Y-145162457D02*
X143628571Y-145114838D01*
X143628571Y-145114838D02*
X143723809Y-145067219D01*
X143723809Y-145067219D02*
X143961904Y-145067219D01*
X143961904Y-145067219D02*
X144104761Y-145114838D01*
X144485714Y-145162457D02*
X144533333Y-145114838D01*
X144533333Y-145114838D02*
X144628571Y-145067219D01*
X144628571Y-145067219D02*
X144866666Y-145067219D01*
X144866666Y-145067219D02*
X144961904Y-145114838D01*
X144961904Y-145114838D02*
X145009523Y-145162457D01*
X145009523Y-145162457D02*
X145057142Y-145257695D01*
X145057142Y-145257695D02*
X145057142Y-145352933D01*
X145057142Y-145352933D02*
X145009523Y-145495790D01*
X145009523Y-145495790D02*
X144438095Y-146067219D01*
X144438095Y-146067219D02*
X145057142Y-146067219D01*
X151514285Y-146067219D02*
X150942857Y-146067219D01*
X151228571Y-146067219D02*
X151228571Y-145067219D01*
X151228571Y-145067219D02*
X151133333Y-145210076D01*
X151133333Y-145210076D02*
X151038095Y-145305314D01*
X151038095Y-145305314D02*
X150942857Y-145352933D01*
X151895238Y-145162457D02*
X151942857Y-145114838D01*
X151942857Y-145114838D02*
X152038095Y-145067219D01*
X152038095Y-145067219D02*
X152276190Y-145067219D01*
X152276190Y-145067219D02*
X152371428Y-145114838D01*
X152371428Y-145114838D02*
X152419047Y-145162457D01*
X152419047Y-145162457D02*
X152466666Y-145257695D01*
X152466666Y-145257695D02*
X152466666Y-145352933D01*
X152466666Y-145352933D02*
X152419047Y-145495790D01*
X152419047Y-145495790D02*
X151847619Y-146067219D01*
X151847619Y-146067219D02*
X152466666Y-146067219D01*
X152895238Y-146067219D02*
X152895238Y-145067219D01*
X153371428Y-146067219D02*
X153371428Y-145067219D01*
X153371428Y-145067219D02*
X153942856Y-146067219D01*
X153942856Y-146067219D02*
X153942856Y-145067219D01*
X155133333Y-146019600D02*
X155276190Y-146067219D01*
X155276190Y-146067219D02*
X155514285Y-146067219D01*
X155514285Y-146067219D02*
X155609523Y-146019600D01*
X155609523Y-146019600D02*
X155657142Y-145971980D01*
X155657142Y-145971980D02*
X155704761Y-145876742D01*
X155704761Y-145876742D02*
X155704761Y-145781504D01*
X155704761Y-145781504D02*
X155657142Y-145686266D01*
X155657142Y-145686266D02*
X155609523Y-145638647D01*
X155609523Y-145638647D02*
X155514285Y-145591028D01*
X155514285Y-145591028D02*
X155323809Y-145543409D01*
X155323809Y-145543409D02*
X155228571Y-145495790D01*
X155228571Y-145495790D02*
X155180952Y-145448171D01*
X155180952Y-145448171D02*
X155133333Y-145352933D01*
X155133333Y-145352933D02*
X155133333Y-145257695D01*
X155133333Y-145257695D02*
X155180952Y-145162457D01*
X155180952Y-145162457D02*
X155228571Y-145114838D01*
X155228571Y-145114838D02*
X155323809Y-145067219D01*
X155323809Y-145067219D02*
X155561904Y-145067219D01*
X155561904Y-145067219D02*
X155704761Y-145114838D01*
X156657142Y-146067219D02*
X156085714Y-146067219D01*
X156371428Y-146067219D02*
X156371428Y-145067219D01*
X156371428Y-145067219D02*
X156276190Y-145210076D01*
X156276190Y-145210076D02*
X156180952Y-145305314D01*
X156180952Y-145305314D02*
X156085714Y-145352933D01*
X163142857Y-145067219D02*
X162666667Y-145067219D01*
X162666667Y-145067219D02*
X162619048Y-145543409D01*
X162619048Y-145543409D02*
X162666667Y-145495790D01*
X162666667Y-145495790D02*
X162761905Y-145448171D01*
X162761905Y-145448171D02*
X163000000Y-145448171D01*
X163000000Y-145448171D02*
X163095238Y-145495790D01*
X163095238Y-145495790D02*
X163142857Y-145543409D01*
X163142857Y-145543409D02*
X163190476Y-145638647D01*
X163190476Y-145638647D02*
X163190476Y-145876742D01*
X163190476Y-145876742D02*
X163142857Y-145971980D01*
X163142857Y-145971980D02*
X163095238Y-146019600D01*
X163095238Y-146019600D02*
X163000000Y-146067219D01*
X163000000Y-146067219D02*
X162761905Y-146067219D01*
X162761905Y-146067219D02*
X162666667Y-146019600D01*
X162666667Y-146019600D02*
X162619048Y-145971980D01*
X163619048Y-146067219D02*
X163619048Y-145067219D01*
X164095238Y-146067219D02*
X164095238Y-145067219D01*
X164095238Y-145067219D02*
X164666666Y-146067219D01*
X164666666Y-146067219D02*
X164666666Y-145067219D01*
X165857143Y-146019600D02*
X166000000Y-146067219D01*
X166000000Y-146067219D02*
X166238095Y-146067219D01*
X166238095Y-146067219D02*
X166333333Y-146019600D01*
X166333333Y-146019600D02*
X166380952Y-145971980D01*
X166380952Y-145971980D02*
X166428571Y-145876742D01*
X166428571Y-145876742D02*
X166428571Y-145781504D01*
X166428571Y-145781504D02*
X166380952Y-145686266D01*
X166380952Y-145686266D02*
X166333333Y-145638647D01*
X166333333Y-145638647D02*
X166238095Y-145591028D01*
X166238095Y-145591028D02*
X166047619Y-145543409D01*
X166047619Y-145543409D02*
X165952381Y-145495790D01*
X165952381Y-145495790D02*
X165904762Y-145448171D01*
X165904762Y-145448171D02*
X165857143Y-145352933D01*
X165857143Y-145352933D02*
X165857143Y-145257695D01*
X165857143Y-145257695D02*
X165904762Y-145162457D01*
X165904762Y-145162457D02*
X165952381Y-145114838D01*
X165952381Y-145114838D02*
X166047619Y-145067219D01*
X166047619Y-145067219D02*
X166285714Y-145067219D01*
X166285714Y-145067219D02*
X166428571Y-145114838D01*
X167380952Y-146067219D02*
X166809524Y-146067219D01*
X167095238Y-146067219D02*
X167095238Y-145067219D01*
X167095238Y-145067219D02*
X167000000Y-145210076D01*
X167000000Y-145210076D02*
X166904762Y-145305314D01*
X166904762Y-145305314D02*
X166809524Y-145352933D01*
X175838095Y-130819600D02*
X175980952Y-130867219D01*
X175980952Y-130867219D02*
X176219047Y-130867219D01*
X176219047Y-130867219D02*
X176314285Y-130819600D01*
X176314285Y-130819600D02*
X176361904Y-130771980D01*
X176361904Y-130771980D02*
X176409523Y-130676742D01*
X176409523Y-130676742D02*
X176409523Y-130581504D01*
X176409523Y-130581504D02*
X176361904Y-130486266D01*
X176361904Y-130486266D02*
X176314285Y-130438647D01*
X176314285Y-130438647D02*
X176219047Y-130391028D01*
X176219047Y-130391028D02*
X176028571Y-130343409D01*
X176028571Y-130343409D02*
X175933333Y-130295790D01*
X175933333Y-130295790D02*
X175885714Y-130248171D01*
X175885714Y-130248171D02*
X175838095Y-130152933D01*
X175838095Y-130152933D02*
X175838095Y-130057695D01*
X175838095Y-130057695D02*
X175885714Y-129962457D01*
X175885714Y-129962457D02*
X175933333Y-129914838D01*
X175933333Y-129914838D02*
X176028571Y-129867219D01*
X176028571Y-129867219D02*
X176266666Y-129867219D01*
X176266666Y-129867219D02*
X176409523Y-129914838D01*
X176838095Y-130343409D02*
X177171428Y-130343409D01*
X177314285Y-130867219D02*
X176838095Y-130867219D01*
X176838095Y-130867219D02*
X176838095Y-129867219D01*
X176838095Y-129867219D02*
X177314285Y-129867219D01*
X177742857Y-130867219D02*
X177742857Y-129867219D01*
X177742857Y-129867219D02*
X178314285Y-130867219D01*
X178314285Y-130867219D02*
X178314285Y-129867219D01*
X178742857Y-130819600D02*
X178885714Y-130867219D01*
X178885714Y-130867219D02*
X179123809Y-130867219D01*
X179123809Y-130867219D02*
X179219047Y-130819600D01*
X179219047Y-130819600D02*
X179266666Y-130771980D01*
X179266666Y-130771980D02*
X179314285Y-130676742D01*
X179314285Y-130676742D02*
X179314285Y-130581504D01*
X179314285Y-130581504D02*
X179266666Y-130486266D01*
X179266666Y-130486266D02*
X179219047Y-130438647D01*
X179219047Y-130438647D02*
X179123809Y-130391028D01*
X179123809Y-130391028D02*
X178933333Y-130343409D01*
X178933333Y-130343409D02*
X178838095Y-130295790D01*
X178838095Y-130295790D02*
X178790476Y-130248171D01*
X178790476Y-130248171D02*
X178742857Y-130152933D01*
X178742857Y-130152933D02*
X178742857Y-130057695D01*
X178742857Y-130057695D02*
X178790476Y-129962457D01*
X178790476Y-129962457D02*
X178838095Y-129914838D01*
X178838095Y-129914838D02*
X178933333Y-129867219D01*
X178933333Y-129867219D02*
X179171428Y-129867219D01*
X179171428Y-129867219D02*
X179314285Y-129914838D01*
X179933333Y-129867219D02*
X180123809Y-129867219D01*
X180123809Y-129867219D02*
X180219047Y-129914838D01*
X180219047Y-129914838D02*
X180314285Y-130010076D01*
X180314285Y-130010076D02*
X180361904Y-130200552D01*
X180361904Y-130200552D02*
X180361904Y-130533885D01*
X180361904Y-130533885D02*
X180314285Y-130724361D01*
X180314285Y-130724361D02*
X180219047Y-130819600D01*
X180219047Y-130819600D02*
X180123809Y-130867219D01*
X180123809Y-130867219D02*
X179933333Y-130867219D01*
X179933333Y-130867219D02*
X179838095Y-130819600D01*
X179838095Y-130819600D02*
X179742857Y-130724361D01*
X179742857Y-130724361D02*
X179695238Y-130533885D01*
X179695238Y-130533885D02*
X179695238Y-130200552D01*
X179695238Y-130200552D02*
X179742857Y-130010076D01*
X179742857Y-130010076D02*
X179838095Y-129914838D01*
X179838095Y-129914838D02*
X179933333Y-129867219D01*
X181361904Y-130867219D02*
X181028571Y-130391028D01*
X180790476Y-130867219D02*
X180790476Y-129867219D01*
X180790476Y-129867219D02*
X181171428Y-129867219D01*
X181171428Y-129867219D02*
X181266666Y-129914838D01*
X181266666Y-129914838D02*
X181314285Y-129962457D01*
X181314285Y-129962457D02*
X181361904Y-130057695D01*
X181361904Y-130057695D02*
X181361904Y-130200552D01*
X181361904Y-130200552D02*
X181314285Y-130295790D01*
X181314285Y-130295790D02*
X181266666Y-130343409D01*
X181266666Y-130343409D02*
X181171428Y-130391028D01*
X181171428Y-130391028D02*
X180790476Y-130391028D01*
X177804762Y-146019600D02*
X177947619Y-146067219D01*
X177947619Y-146067219D02*
X178185714Y-146067219D01*
X178185714Y-146067219D02*
X178280952Y-146019600D01*
X178280952Y-146019600D02*
X178328571Y-145971980D01*
X178328571Y-145971980D02*
X178376190Y-145876742D01*
X178376190Y-145876742D02*
X178376190Y-145781504D01*
X178376190Y-145781504D02*
X178328571Y-145686266D01*
X178328571Y-145686266D02*
X178280952Y-145638647D01*
X178280952Y-145638647D02*
X178185714Y-145591028D01*
X178185714Y-145591028D02*
X177995238Y-145543409D01*
X177995238Y-145543409D02*
X177900000Y-145495790D01*
X177900000Y-145495790D02*
X177852381Y-145448171D01*
X177852381Y-145448171D02*
X177804762Y-145352933D01*
X177804762Y-145352933D02*
X177804762Y-145257695D01*
X177804762Y-145257695D02*
X177852381Y-145162457D01*
X177852381Y-145162457D02*
X177900000Y-145114838D01*
X177900000Y-145114838D02*
X177995238Y-145067219D01*
X177995238Y-145067219D02*
X178233333Y-145067219D01*
X178233333Y-145067219D02*
X178376190Y-145114838D01*
X178709524Y-145067219D02*
X178947619Y-146067219D01*
X178947619Y-146067219D02*
X179138095Y-145352933D01*
X179138095Y-145352933D02*
X179328571Y-146067219D01*
X179328571Y-146067219D02*
X179566667Y-145067219D01*
X181185714Y-146067219D02*
X180709524Y-146067219D01*
X180709524Y-146067219D02*
X180709524Y-145067219D01*
X181519048Y-145543409D02*
X181852381Y-145543409D01*
X181995238Y-146067219D02*
X181519048Y-146067219D01*
X181519048Y-146067219D02*
X181519048Y-145067219D01*
X181519048Y-145067219D02*
X181995238Y-145067219D01*
X182423810Y-146067219D02*
X182423810Y-145067219D01*
X182423810Y-145067219D02*
X182661905Y-145067219D01*
X182661905Y-145067219D02*
X182804762Y-145114838D01*
X182804762Y-145114838D02*
X182900000Y-145210076D01*
X182900000Y-145210076D02*
X182947619Y-145305314D01*
X182947619Y-145305314D02*
X182995238Y-145495790D01*
X182995238Y-145495790D02*
X182995238Y-145638647D01*
X182995238Y-145638647D02*
X182947619Y-145829123D01*
X182947619Y-145829123D02*
X182900000Y-145924361D01*
X182900000Y-145924361D02*
X182804762Y-146019600D01*
X182804762Y-146019600D02*
X182661905Y-146067219D01*
X182661905Y-146067219D02*
X182423810Y-146067219D01*
X103256590Y-141990476D02*
X103256590Y-141657143D01*
X102732780Y-141657143D02*
X103732780Y-141657143D01*
X103732780Y-141657143D02*
X103732780Y-142133333D01*
X103018495Y-142466667D02*
X103018495Y-142942857D01*
X102732780Y-142371429D02*
X103732780Y-142704762D01*
X103732780Y-142704762D02*
X102732780Y-143038095D01*
X102732780Y-143371429D02*
X103732780Y-143371429D01*
X103732780Y-143371429D02*
X102732780Y-143942857D01*
X102732780Y-143942857D02*
X103732780Y-143942857D01*
X105532780Y-121714286D02*
X106532780Y-121714286D01*
X106532780Y-121714286D02*
X105818495Y-122047619D01*
X105818495Y-122047619D02*
X106532780Y-122380952D01*
X106532780Y-122380952D02*
X105532780Y-122380952D01*
X105580400Y-122809524D02*
X105532780Y-122952381D01*
X105532780Y-122952381D02*
X105532780Y-123190476D01*
X105532780Y-123190476D02*
X105580400Y-123285714D01*
X105580400Y-123285714D02*
X105628019Y-123333333D01*
X105628019Y-123333333D02*
X105723257Y-123380952D01*
X105723257Y-123380952D02*
X105818495Y-123380952D01*
X105818495Y-123380952D02*
X105913733Y-123333333D01*
X105913733Y-123333333D02*
X105961352Y-123285714D01*
X105961352Y-123285714D02*
X106008971Y-123190476D01*
X106008971Y-123190476D02*
X106056590Y-123000000D01*
X106056590Y-123000000D02*
X106104209Y-122904762D01*
X106104209Y-122904762D02*
X106151828Y-122857143D01*
X106151828Y-122857143D02*
X106247066Y-122809524D01*
X106247066Y-122809524D02*
X106342304Y-122809524D01*
X106342304Y-122809524D02*
X106437542Y-122857143D01*
X106437542Y-122857143D02*
X106485161Y-122904762D01*
X106485161Y-122904762D02*
X106532780Y-123000000D01*
X106532780Y-123000000D02*
X106532780Y-123238095D01*
X106532780Y-123238095D02*
X106485161Y-123380952D01*
X106532780Y-124000000D02*
X106532780Y-124095238D01*
X106532780Y-124095238D02*
X106485161Y-124190476D01*
X106485161Y-124190476D02*
X106437542Y-124238095D01*
X106437542Y-124238095D02*
X106342304Y-124285714D01*
X106342304Y-124285714D02*
X106151828Y-124333333D01*
X106151828Y-124333333D02*
X105913733Y-124333333D01*
X105913733Y-124333333D02*
X105723257Y-124285714D01*
X105723257Y-124285714D02*
X105628019Y-124238095D01*
X105628019Y-124238095D02*
X105580400Y-124190476D01*
X105580400Y-124190476D02*
X105532780Y-124095238D01*
X105532780Y-124095238D02*
X105532780Y-124000000D01*
X105532780Y-124000000D02*
X105580400Y-123904762D01*
X105580400Y-123904762D02*
X105628019Y-123857143D01*
X105628019Y-123857143D02*
X105723257Y-123809524D01*
X105723257Y-123809524D02*
X105913733Y-123761905D01*
X105913733Y-123761905D02*
X106151828Y-123761905D01*
X106151828Y-123761905D02*
X106342304Y-123809524D01*
X106342304Y-123809524D02*
X106437542Y-123857143D01*
X106437542Y-123857143D02*
X106485161Y-123904762D01*
X106485161Y-123904762D02*
X106532780Y-124000000D01*
X105532780Y-131714286D02*
X106532780Y-131714286D01*
X106532780Y-131714286D02*
X105818495Y-132047619D01*
X105818495Y-132047619D02*
X106532780Y-132380952D01*
X106532780Y-132380952D02*
X105532780Y-132380952D01*
X105580400Y-132809524D02*
X105532780Y-132952381D01*
X105532780Y-132952381D02*
X105532780Y-133190476D01*
X105532780Y-133190476D02*
X105580400Y-133285714D01*
X105580400Y-133285714D02*
X105628019Y-133333333D01*
X105628019Y-133333333D02*
X105723257Y-133380952D01*
X105723257Y-133380952D02*
X105818495Y-133380952D01*
X105818495Y-133380952D02*
X105913733Y-133333333D01*
X105913733Y-133333333D02*
X105961352Y-133285714D01*
X105961352Y-133285714D02*
X106008971Y-133190476D01*
X106008971Y-133190476D02*
X106056590Y-133000000D01*
X106056590Y-133000000D02*
X106104209Y-132904762D01*
X106104209Y-132904762D02*
X106151828Y-132857143D01*
X106151828Y-132857143D02*
X106247066Y-132809524D01*
X106247066Y-132809524D02*
X106342304Y-132809524D01*
X106342304Y-132809524D02*
X106437542Y-132857143D01*
X106437542Y-132857143D02*
X106485161Y-132904762D01*
X106485161Y-132904762D02*
X106532780Y-133000000D01*
X106532780Y-133000000D02*
X106532780Y-133238095D01*
X106532780Y-133238095D02*
X106485161Y-133380952D01*
X106437542Y-133761905D02*
X106485161Y-133809524D01*
X106485161Y-133809524D02*
X106532780Y-133904762D01*
X106532780Y-133904762D02*
X106532780Y-134142857D01*
X106532780Y-134142857D02*
X106485161Y-134238095D01*
X106485161Y-134238095D02*
X106437542Y-134285714D01*
X106437542Y-134285714D02*
X106342304Y-134333333D01*
X106342304Y-134333333D02*
X106247066Y-134333333D01*
X106247066Y-134333333D02*
X106104209Y-134285714D01*
X106104209Y-134285714D02*
X105532780Y-133714286D01*
X105532780Y-133714286D02*
X105532780Y-134333333D01*
X112732780Y-131714286D02*
X113732780Y-131714286D01*
X113732780Y-131714286D02*
X113018495Y-132047619D01*
X113018495Y-132047619D02*
X113732780Y-132380952D01*
X113732780Y-132380952D02*
X112732780Y-132380952D01*
X112780400Y-132809524D02*
X112732780Y-132952381D01*
X112732780Y-132952381D02*
X112732780Y-133190476D01*
X112732780Y-133190476D02*
X112780400Y-133285714D01*
X112780400Y-133285714D02*
X112828019Y-133333333D01*
X112828019Y-133333333D02*
X112923257Y-133380952D01*
X112923257Y-133380952D02*
X113018495Y-133380952D01*
X113018495Y-133380952D02*
X113113733Y-133333333D01*
X113113733Y-133333333D02*
X113161352Y-133285714D01*
X113161352Y-133285714D02*
X113208971Y-133190476D01*
X113208971Y-133190476D02*
X113256590Y-133000000D01*
X113256590Y-133000000D02*
X113304209Y-132904762D01*
X113304209Y-132904762D02*
X113351828Y-132857143D01*
X113351828Y-132857143D02*
X113447066Y-132809524D01*
X113447066Y-132809524D02*
X113542304Y-132809524D01*
X113542304Y-132809524D02*
X113637542Y-132857143D01*
X113637542Y-132857143D02*
X113685161Y-132904762D01*
X113685161Y-132904762D02*
X113732780Y-133000000D01*
X113732780Y-133000000D02*
X113732780Y-133238095D01*
X113732780Y-133238095D02*
X113685161Y-133380952D01*
X112732780Y-134333333D02*
X112732780Y-133761905D01*
X112732780Y-134047619D02*
X113732780Y-134047619D01*
X113732780Y-134047619D02*
X113589923Y-133952381D01*
X113589923Y-133952381D02*
X113494685Y-133857143D01*
X113494685Y-133857143D02*
X113447066Y-133761905D01*
X121332780Y-119114285D02*
X121332780Y-118542857D01*
X121332780Y-118828571D02*
X122332780Y-118828571D01*
X122332780Y-118828571D02*
X122189923Y-118733333D01*
X122189923Y-118733333D02*
X122094685Y-118638095D01*
X122094685Y-118638095D02*
X122047066Y-118542857D01*
X122237542Y-119495238D02*
X122285161Y-119542857D01*
X122285161Y-119542857D02*
X122332780Y-119638095D01*
X122332780Y-119638095D02*
X122332780Y-119876190D01*
X122332780Y-119876190D02*
X122285161Y-119971428D01*
X122285161Y-119971428D02*
X122237542Y-120019047D01*
X122237542Y-120019047D02*
X122142304Y-120066666D01*
X122142304Y-120066666D02*
X122047066Y-120066666D01*
X122047066Y-120066666D02*
X121904209Y-120019047D01*
X121904209Y-120019047D02*
X121332780Y-119447619D01*
X121332780Y-119447619D02*
X121332780Y-120066666D01*
X121332780Y-120495238D02*
X122332780Y-120495238D01*
X121332780Y-120971428D02*
X122332780Y-120971428D01*
X122332780Y-120971428D02*
X121332780Y-121542856D01*
X121332780Y-121542856D02*
X122332780Y-121542856D01*
X121380400Y-122733333D02*
X121332780Y-122876190D01*
X121332780Y-122876190D02*
X121332780Y-123114285D01*
X121332780Y-123114285D02*
X121380400Y-123209523D01*
X121380400Y-123209523D02*
X121428019Y-123257142D01*
X121428019Y-123257142D02*
X121523257Y-123304761D01*
X121523257Y-123304761D02*
X121618495Y-123304761D01*
X121618495Y-123304761D02*
X121713733Y-123257142D01*
X121713733Y-123257142D02*
X121761352Y-123209523D01*
X121761352Y-123209523D02*
X121808971Y-123114285D01*
X121808971Y-123114285D02*
X121856590Y-122923809D01*
X121856590Y-122923809D02*
X121904209Y-122828571D01*
X121904209Y-122828571D02*
X121951828Y-122780952D01*
X121951828Y-122780952D02*
X122047066Y-122733333D01*
X122047066Y-122733333D02*
X122142304Y-122733333D01*
X122142304Y-122733333D02*
X122237542Y-122780952D01*
X122237542Y-122780952D02*
X122285161Y-122828571D01*
X122285161Y-122828571D02*
X122332780Y-122923809D01*
X122332780Y-122923809D02*
X122332780Y-123161904D01*
X122332780Y-123161904D02*
X122285161Y-123304761D01*
X122332780Y-123638095D02*
X122332780Y-124257142D01*
X122332780Y-124257142D02*
X121951828Y-123923809D01*
X121951828Y-123923809D02*
X121951828Y-124066666D01*
X121951828Y-124066666D02*
X121904209Y-124161904D01*
X121904209Y-124161904D02*
X121856590Y-124209523D01*
X121856590Y-124209523D02*
X121761352Y-124257142D01*
X121761352Y-124257142D02*
X121523257Y-124257142D01*
X121523257Y-124257142D02*
X121428019Y-124209523D01*
X121428019Y-124209523D02*
X121380400Y-124161904D01*
X121380400Y-124161904D02*
X121332780Y-124066666D01*
X121332780Y-124066666D02*
X121332780Y-123780952D01*
X121332780Y-123780952D02*
X121380400Y-123685714D01*
X121380400Y-123685714D02*
X121428019Y-123638095D01*
X133732780Y-118914285D02*
X133732780Y-118342857D01*
X133732780Y-118628571D02*
X134732780Y-118628571D01*
X134732780Y-118628571D02*
X134589923Y-118533333D01*
X134589923Y-118533333D02*
X134494685Y-118438095D01*
X134494685Y-118438095D02*
X134447066Y-118342857D01*
X134637542Y-119295238D02*
X134685161Y-119342857D01*
X134685161Y-119342857D02*
X134732780Y-119438095D01*
X134732780Y-119438095D02*
X134732780Y-119676190D01*
X134732780Y-119676190D02*
X134685161Y-119771428D01*
X134685161Y-119771428D02*
X134637542Y-119819047D01*
X134637542Y-119819047D02*
X134542304Y-119866666D01*
X134542304Y-119866666D02*
X134447066Y-119866666D01*
X134447066Y-119866666D02*
X134304209Y-119819047D01*
X134304209Y-119819047D02*
X133732780Y-119247619D01*
X133732780Y-119247619D02*
X133732780Y-119866666D01*
X133732780Y-120295238D02*
X134732780Y-120295238D01*
X133732780Y-120771428D02*
X134732780Y-120771428D01*
X134732780Y-120771428D02*
X133732780Y-121342856D01*
X133732780Y-121342856D02*
X134732780Y-121342856D01*
X133780400Y-122533333D02*
X133732780Y-122676190D01*
X133732780Y-122676190D02*
X133732780Y-122914285D01*
X133732780Y-122914285D02*
X133780400Y-123009523D01*
X133780400Y-123009523D02*
X133828019Y-123057142D01*
X133828019Y-123057142D02*
X133923257Y-123104761D01*
X133923257Y-123104761D02*
X134018495Y-123104761D01*
X134018495Y-123104761D02*
X134113733Y-123057142D01*
X134113733Y-123057142D02*
X134161352Y-123009523D01*
X134161352Y-123009523D02*
X134208971Y-122914285D01*
X134208971Y-122914285D02*
X134256590Y-122723809D01*
X134256590Y-122723809D02*
X134304209Y-122628571D01*
X134304209Y-122628571D02*
X134351828Y-122580952D01*
X134351828Y-122580952D02*
X134447066Y-122533333D01*
X134447066Y-122533333D02*
X134542304Y-122533333D01*
X134542304Y-122533333D02*
X134637542Y-122580952D01*
X134637542Y-122580952D02*
X134685161Y-122628571D01*
X134685161Y-122628571D02*
X134732780Y-122723809D01*
X134732780Y-122723809D02*
X134732780Y-122961904D01*
X134732780Y-122961904D02*
X134685161Y-123104761D01*
X134637542Y-123485714D02*
X134685161Y-123533333D01*
X134685161Y-123533333D02*
X134732780Y-123628571D01*
X134732780Y-123628571D02*
X134732780Y-123866666D01*
X134732780Y-123866666D02*
X134685161Y-123961904D01*
X134685161Y-123961904D02*
X134637542Y-124009523D01*
X134637542Y-124009523D02*
X134542304Y-124057142D01*
X134542304Y-124057142D02*
X134447066Y-124057142D01*
X134447066Y-124057142D02*
X134304209Y-124009523D01*
X134304209Y-124009523D02*
X133732780Y-123438095D01*
X133732780Y-123438095D02*
X133732780Y-124057142D01*
X152332780Y-118914285D02*
X152332780Y-118342857D01*
X152332780Y-118628571D02*
X153332780Y-118628571D01*
X153332780Y-118628571D02*
X153189923Y-118533333D01*
X153189923Y-118533333D02*
X153094685Y-118438095D01*
X153094685Y-118438095D02*
X153047066Y-118342857D01*
X153237542Y-119295238D02*
X153285161Y-119342857D01*
X153285161Y-119342857D02*
X153332780Y-119438095D01*
X153332780Y-119438095D02*
X153332780Y-119676190D01*
X153332780Y-119676190D02*
X153285161Y-119771428D01*
X153285161Y-119771428D02*
X153237542Y-119819047D01*
X153237542Y-119819047D02*
X153142304Y-119866666D01*
X153142304Y-119866666D02*
X153047066Y-119866666D01*
X153047066Y-119866666D02*
X152904209Y-119819047D01*
X152904209Y-119819047D02*
X152332780Y-119247619D01*
X152332780Y-119247619D02*
X152332780Y-119866666D01*
X152332780Y-120295238D02*
X153332780Y-120295238D01*
X152332780Y-120771428D02*
X153332780Y-120771428D01*
X153332780Y-120771428D02*
X152332780Y-121342856D01*
X152332780Y-121342856D02*
X153332780Y-121342856D01*
X152380400Y-122533333D02*
X152332780Y-122676190D01*
X152332780Y-122676190D02*
X152332780Y-122914285D01*
X152332780Y-122914285D02*
X152380400Y-123009523D01*
X152380400Y-123009523D02*
X152428019Y-123057142D01*
X152428019Y-123057142D02*
X152523257Y-123104761D01*
X152523257Y-123104761D02*
X152618495Y-123104761D01*
X152618495Y-123104761D02*
X152713733Y-123057142D01*
X152713733Y-123057142D02*
X152761352Y-123009523D01*
X152761352Y-123009523D02*
X152808971Y-122914285D01*
X152808971Y-122914285D02*
X152856590Y-122723809D01*
X152856590Y-122723809D02*
X152904209Y-122628571D01*
X152904209Y-122628571D02*
X152951828Y-122580952D01*
X152951828Y-122580952D02*
X153047066Y-122533333D01*
X153047066Y-122533333D02*
X153142304Y-122533333D01*
X153142304Y-122533333D02*
X153237542Y-122580952D01*
X153237542Y-122580952D02*
X153285161Y-122628571D01*
X153285161Y-122628571D02*
X153332780Y-122723809D01*
X153332780Y-122723809D02*
X153332780Y-122961904D01*
X153332780Y-122961904D02*
X153285161Y-123104761D01*
X152332780Y-124057142D02*
X152332780Y-123485714D01*
X152332780Y-123771428D02*
X153332780Y-123771428D01*
X153332780Y-123771428D02*
X153189923Y-123676190D01*
X153189923Y-123676190D02*
X153094685Y-123580952D01*
X153094685Y-123580952D02*
X153047066Y-123485714D01*
X165732780Y-119542857D02*
X165732780Y-119066667D01*
X165732780Y-119066667D02*
X165256590Y-119019048D01*
X165256590Y-119019048D02*
X165304209Y-119066667D01*
X165304209Y-119066667D02*
X165351828Y-119161905D01*
X165351828Y-119161905D02*
X165351828Y-119400000D01*
X165351828Y-119400000D02*
X165304209Y-119495238D01*
X165304209Y-119495238D02*
X165256590Y-119542857D01*
X165256590Y-119542857D02*
X165161352Y-119590476D01*
X165161352Y-119590476D02*
X164923257Y-119590476D01*
X164923257Y-119590476D02*
X164828019Y-119542857D01*
X164828019Y-119542857D02*
X164780400Y-119495238D01*
X164780400Y-119495238D02*
X164732780Y-119400000D01*
X164732780Y-119400000D02*
X164732780Y-119161905D01*
X164732780Y-119161905D02*
X164780400Y-119066667D01*
X164780400Y-119066667D02*
X164828019Y-119019048D01*
X164732780Y-120019048D02*
X165732780Y-120019048D01*
X164732780Y-120495238D02*
X165732780Y-120495238D01*
X165732780Y-120495238D02*
X164732780Y-121066666D01*
X164732780Y-121066666D02*
X165732780Y-121066666D01*
X164780400Y-122257143D02*
X164732780Y-122400000D01*
X164732780Y-122400000D02*
X164732780Y-122638095D01*
X164732780Y-122638095D02*
X164780400Y-122733333D01*
X164780400Y-122733333D02*
X164828019Y-122780952D01*
X164828019Y-122780952D02*
X164923257Y-122828571D01*
X164923257Y-122828571D02*
X165018495Y-122828571D01*
X165018495Y-122828571D02*
X165113733Y-122780952D01*
X165113733Y-122780952D02*
X165161352Y-122733333D01*
X165161352Y-122733333D02*
X165208971Y-122638095D01*
X165208971Y-122638095D02*
X165256590Y-122447619D01*
X165256590Y-122447619D02*
X165304209Y-122352381D01*
X165304209Y-122352381D02*
X165351828Y-122304762D01*
X165351828Y-122304762D02*
X165447066Y-122257143D01*
X165447066Y-122257143D02*
X165542304Y-122257143D01*
X165542304Y-122257143D02*
X165637542Y-122304762D01*
X165637542Y-122304762D02*
X165685161Y-122352381D01*
X165685161Y-122352381D02*
X165732780Y-122447619D01*
X165732780Y-122447619D02*
X165732780Y-122685714D01*
X165732780Y-122685714D02*
X165685161Y-122828571D01*
X164732780Y-123780952D02*
X164732780Y-123209524D01*
X164732780Y-123495238D02*
X165732780Y-123495238D01*
X165732780Y-123495238D02*
X165589923Y-123400000D01*
X165589923Y-123400000D02*
X165494685Y-123304762D01*
X165494685Y-123304762D02*
X165447066Y-123209524D01*
D14*
X120721429Y-133385912D02*
X120721429Y-131885912D01*
X120721429Y-132600198D02*
X121578572Y-132600198D01*
X121578572Y-133385912D02*
X121578572Y-131885912D01*
X122292858Y-133385912D02*
X122292858Y-132385912D01*
X122292858Y-131885912D02*
X122221430Y-131957341D01*
X122221430Y-131957341D02*
X122292858Y-132028769D01*
X122292858Y-132028769D02*
X122364287Y-131957341D01*
X122364287Y-131957341D02*
X122292858Y-131885912D01*
X122292858Y-131885912D02*
X122292858Y-132028769D01*
X123650002Y-132385912D02*
X123650002Y-133600198D01*
X123650002Y-133600198D02*
X123578573Y-133743055D01*
X123578573Y-133743055D02*
X123507144Y-133814484D01*
X123507144Y-133814484D02*
X123364287Y-133885912D01*
X123364287Y-133885912D02*
X123150002Y-133885912D01*
X123150002Y-133885912D02*
X123007144Y-133814484D01*
X123650002Y-133314484D02*
X123507144Y-133385912D01*
X123507144Y-133385912D02*
X123221430Y-133385912D01*
X123221430Y-133385912D02*
X123078573Y-133314484D01*
X123078573Y-133314484D02*
X123007144Y-133243055D01*
X123007144Y-133243055D02*
X122935716Y-133100198D01*
X122935716Y-133100198D02*
X122935716Y-132671626D01*
X122935716Y-132671626D02*
X123007144Y-132528769D01*
X123007144Y-132528769D02*
X123078573Y-132457341D01*
X123078573Y-132457341D02*
X123221430Y-132385912D01*
X123221430Y-132385912D02*
X123507144Y-132385912D01*
X123507144Y-132385912D02*
X123650002Y-132457341D01*
X124364287Y-133385912D02*
X124364287Y-131885912D01*
X125007145Y-133385912D02*
X125007145Y-132600198D01*
X125007145Y-132600198D02*
X124935716Y-132457341D01*
X124935716Y-132457341D02*
X124792859Y-132385912D01*
X124792859Y-132385912D02*
X124578573Y-132385912D01*
X124578573Y-132385912D02*
X124435716Y-132457341D01*
X124435716Y-132457341D02*
X124364287Y-132528769D01*
X126864287Y-133385912D02*
X126864287Y-131885912D01*
X126864287Y-131885912D02*
X127435716Y-131885912D01*
X127435716Y-131885912D02*
X127578573Y-131957341D01*
X127578573Y-131957341D02*
X127650002Y-132028769D01*
X127650002Y-132028769D02*
X127721430Y-132171626D01*
X127721430Y-132171626D02*
X127721430Y-132385912D01*
X127721430Y-132385912D02*
X127650002Y-132528769D01*
X127650002Y-132528769D02*
X127578573Y-132600198D01*
X127578573Y-132600198D02*
X127435716Y-132671626D01*
X127435716Y-132671626D02*
X126864287Y-132671626D01*
X128578573Y-133385912D02*
X128435716Y-133314484D01*
X128435716Y-133314484D02*
X128364287Y-133243055D01*
X128364287Y-133243055D02*
X128292859Y-133100198D01*
X128292859Y-133100198D02*
X128292859Y-132671626D01*
X128292859Y-132671626D02*
X128364287Y-132528769D01*
X128364287Y-132528769D02*
X128435716Y-132457341D01*
X128435716Y-132457341D02*
X128578573Y-132385912D01*
X128578573Y-132385912D02*
X128792859Y-132385912D01*
X128792859Y-132385912D02*
X128935716Y-132457341D01*
X128935716Y-132457341D02*
X129007145Y-132528769D01*
X129007145Y-132528769D02*
X129078573Y-132671626D01*
X129078573Y-132671626D02*
X129078573Y-133100198D01*
X129078573Y-133100198D02*
X129007145Y-133243055D01*
X129007145Y-133243055D02*
X128935716Y-133314484D01*
X128935716Y-133314484D02*
X128792859Y-133385912D01*
X128792859Y-133385912D02*
X128578573Y-133385912D01*
X129578573Y-132385912D02*
X129864288Y-133385912D01*
X129864288Y-133385912D02*
X130150002Y-132671626D01*
X130150002Y-132671626D02*
X130435716Y-133385912D01*
X130435716Y-133385912D02*
X130721430Y-132385912D01*
X131864288Y-133314484D02*
X131721431Y-133385912D01*
X131721431Y-133385912D02*
X131435717Y-133385912D01*
X131435717Y-133385912D02*
X131292859Y-133314484D01*
X131292859Y-133314484D02*
X131221431Y-133171626D01*
X131221431Y-133171626D02*
X131221431Y-132600198D01*
X131221431Y-132600198D02*
X131292859Y-132457341D01*
X131292859Y-132457341D02*
X131435717Y-132385912D01*
X131435717Y-132385912D02*
X131721431Y-132385912D01*
X131721431Y-132385912D02*
X131864288Y-132457341D01*
X131864288Y-132457341D02*
X131935717Y-132600198D01*
X131935717Y-132600198D02*
X131935717Y-132743055D01*
X131935717Y-132743055D02*
X131221431Y-132885912D01*
X132578573Y-133385912D02*
X132578573Y-132385912D01*
X132578573Y-132671626D02*
X132650002Y-132528769D01*
X132650002Y-132528769D02*
X132721431Y-132457341D01*
X132721431Y-132457341D02*
X132864288Y-132385912D01*
X132864288Y-132385912D02*
X133007145Y-132385912D01*
X134578573Y-133314484D02*
X134792859Y-133385912D01*
X134792859Y-133385912D02*
X135150001Y-133385912D01*
X135150001Y-133385912D02*
X135292859Y-133314484D01*
X135292859Y-133314484D02*
X135364287Y-133243055D01*
X135364287Y-133243055D02*
X135435716Y-133100198D01*
X135435716Y-133100198D02*
X135435716Y-132957341D01*
X135435716Y-132957341D02*
X135364287Y-132814484D01*
X135364287Y-132814484D02*
X135292859Y-132743055D01*
X135292859Y-132743055D02*
X135150001Y-132671626D01*
X135150001Y-132671626D02*
X134864287Y-132600198D01*
X134864287Y-132600198D02*
X134721430Y-132528769D01*
X134721430Y-132528769D02*
X134650001Y-132457341D01*
X134650001Y-132457341D02*
X134578573Y-132314484D01*
X134578573Y-132314484D02*
X134578573Y-132171626D01*
X134578573Y-132171626D02*
X134650001Y-132028769D01*
X134650001Y-132028769D02*
X134721430Y-131957341D01*
X134721430Y-131957341D02*
X134864287Y-131885912D01*
X134864287Y-131885912D02*
X135221430Y-131885912D01*
X135221430Y-131885912D02*
X135435716Y-131957341D01*
X135864287Y-132385912D02*
X136435715Y-132385912D01*
X136078572Y-131885912D02*
X136078572Y-133171626D01*
X136078572Y-133171626D02*
X136150001Y-133314484D01*
X136150001Y-133314484D02*
X136292858Y-133385912D01*
X136292858Y-133385912D02*
X136435715Y-133385912D01*
X137507144Y-133314484D02*
X137364287Y-133385912D01*
X137364287Y-133385912D02*
X137078573Y-133385912D01*
X137078573Y-133385912D02*
X136935715Y-133314484D01*
X136935715Y-133314484D02*
X136864287Y-133171626D01*
X136864287Y-133171626D02*
X136864287Y-132600198D01*
X136864287Y-132600198D02*
X136935715Y-132457341D01*
X136935715Y-132457341D02*
X137078573Y-132385912D01*
X137078573Y-132385912D02*
X137364287Y-132385912D01*
X137364287Y-132385912D02*
X137507144Y-132457341D01*
X137507144Y-132457341D02*
X137578573Y-132600198D01*
X137578573Y-132600198D02*
X137578573Y-132743055D01*
X137578573Y-132743055D02*
X136864287Y-132885912D01*
X138221429Y-132385912D02*
X138221429Y-133885912D01*
X138221429Y-132457341D02*
X138364287Y-132385912D01*
X138364287Y-132385912D02*
X138650001Y-132385912D01*
X138650001Y-132385912D02*
X138792858Y-132457341D01*
X138792858Y-132457341D02*
X138864287Y-132528769D01*
X138864287Y-132528769D02*
X138935715Y-132671626D01*
X138935715Y-132671626D02*
X138935715Y-133100198D01*
X138935715Y-133100198D02*
X138864287Y-133243055D01*
X138864287Y-133243055D02*
X138792858Y-133314484D01*
X138792858Y-133314484D02*
X138650001Y-133385912D01*
X138650001Y-133385912D02*
X138364287Y-133385912D01*
X138364287Y-133385912D02*
X138221429Y-133314484D01*
X139578572Y-132385912D02*
X139578572Y-133885912D01*
X139578572Y-132457341D02*
X139721430Y-132385912D01*
X139721430Y-132385912D02*
X140007144Y-132385912D01*
X140007144Y-132385912D02*
X140150001Y-132457341D01*
X140150001Y-132457341D02*
X140221430Y-132528769D01*
X140221430Y-132528769D02*
X140292858Y-132671626D01*
X140292858Y-132671626D02*
X140292858Y-133100198D01*
X140292858Y-133100198D02*
X140221430Y-133243055D01*
X140221430Y-133243055D02*
X140150001Y-133314484D01*
X140150001Y-133314484D02*
X140007144Y-133385912D01*
X140007144Y-133385912D02*
X139721430Y-133385912D01*
X139721430Y-133385912D02*
X139578572Y-133314484D01*
X141507144Y-133314484D02*
X141364287Y-133385912D01*
X141364287Y-133385912D02*
X141078573Y-133385912D01*
X141078573Y-133385912D02*
X140935715Y-133314484D01*
X140935715Y-133314484D02*
X140864287Y-133171626D01*
X140864287Y-133171626D02*
X140864287Y-132600198D01*
X140864287Y-132600198D02*
X140935715Y-132457341D01*
X140935715Y-132457341D02*
X141078573Y-132385912D01*
X141078573Y-132385912D02*
X141364287Y-132385912D01*
X141364287Y-132385912D02*
X141507144Y-132457341D01*
X141507144Y-132457341D02*
X141578573Y-132600198D01*
X141578573Y-132600198D02*
X141578573Y-132743055D01*
X141578573Y-132743055D02*
X140864287Y-132885912D01*
X142221429Y-133385912D02*
X142221429Y-132385912D01*
X142221429Y-132671626D02*
X142292858Y-132528769D01*
X142292858Y-132528769D02*
X142364287Y-132457341D01*
X142364287Y-132457341D02*
X142507144Y-132385912D01*
X142507144Y-132385912D02*
X142650001Y-132385912D01*
X144292857Y-133385912D02*
X144292857Y-131885912D01*
X144292857Y-131885912D02*
X144792857Y-132957341D01*
X144792857Y-132957341D02*
X145292857Y-131885912D01*
X145292857Y-131885912D02*
X145292857Y-133385912D01*
X146221429Y-133385912D02*
X146078572Y-133314484D01*
X146078572Y-133314484D02*
X146007143Y-133243055D01*
X146007143Y-133243055D02*
X145935715Y-133100198D01*
X145935715Y-133100198D02*
X145935715Y-132671626D01*
X145935715Y-132671626D02*
X146007143Y-132528769D01*
X146007143Y-132528769D02*
X146078572Y-132457341D01*
X146078572Y-132457341D02*
X146221429Y-132385912D01*
X146221429Y-132385912D02*
X146435715Y-132385912D01*
X146435715Y-132385912D02*
X146578572Y-132457341D01*
X146578572Y-132457341D02*
X146650001Y-132528769D01*
X146650001Y-132528769D02*
X146721429Y-132671626D01*
X146721429Y-132671626D02*
X146721429Y-133100198D01*
X146721429Y-133100198D02*
X146650001Y-133243055D01*
X146650001Y-133243055D02*
X146578572Y-133314484D01*
X146578572Y-133314484D02*
X146435715Y-133385912D01*
X146435715Y-133385912D02*
X146221429Y-133385912D01*
X147150001Y-132385912D02*
X147721429Y-132385912D01*
X147364286Y-131885912D02*
X147364286Y-133171626D01*
X147364286Y-133171626D02*
X147435715Y-133314484D01*
X147435715Y-133314484D02*
X147578572Y-133385912D01*
X147578572Y-133385912D02*
X147721429Y-133385912D01*
X148435715Y-133385912D02*
X148292858Y-133314484D01*
X148292858Y-133314484D02*
X148221429Y-133243055D01*
X148221429Y-133243055D02*
X148150001Y-133100198D01*
X148150001Y-133100198D02*
X148150001Y-132671626D01*
X148150001Y-132671626D02*
X148221429Y-132528769D01*
X148221429Y-132528769D02*
X148292858Y-132457341D01*
X148292858Y-132457341D02*
X148435715Y-132385912D01*
X148435715Y-132385912D02*
X148650001Y-132385912D01*
X148650001Y-132385912D02*
X148792858Y-132457341D01*
X148792858Y-132457341D02*
X148864287Y-132528769D01*
X148864287Y-132528769D02*
X148935715Y-132671626D01*
X148935715Y-132671626D02*
X148935715Y-133100198D01*
X148935715Y-133100198D02*
X148864287Y-133243055D01*
X148864287Y-133243055D02*
X148792858Y-133314484D01*
X148792858Y-133314484D02*
X148650001Y-133385912D01*
X148650001Y-133385912D02*
X148435715Y-133385912D01*
X149578572Y-133385912D02*
X149578572Y-132385912D01*
X149578572Y-132671626D02*
X149650001Y-132528769D01*
X149650001Y-132528769D02*
X149721430Y-132457341D01*
X149721430Y-132457341D02*
X149864287Y-132385912D01*
X149864287Y-132385912D02*
X150007144Y-132385912D01*
X152507143Y-133243055D02*
X152435715Y-133314484D01*
X152435715Y-133314484D02*
X152221429Y-133385912D01*
X152221429Y-133385912D02*
X152078572Y-133385912D01*
X152078572Y-133385912D02*
X151864286Y-133314484D01*
X151864286Y-133314484D02*
X151721429Y-133171626D01*
X151721429Y-133171626D02*
X151650000Y-133028769D01*
X151650000Y-133028769D02*
X151578572Y-132743055D01*
X151578572Y-132743055D02*
X151578572Y-132528769D01*
X151578572Y-132528769D02*
X151650000Y-132243055D01*
X151650000Y-132243055D02*
X151721429Y-132100198D01*
X151721429Y-132100198D02*
X151864286Y-131957341D01*
X151864286Y-131957341D02*
X152078572Y-131885912D01*
X152078572Y-131885912D02*
X152221429Y-131885912D01*
X152221429Y-131885912D02*
X152435715Y-131957341D01*
X152435715Y-131957341D02*
X152507143Y-132028769D01*
X153364286Y-133385912D02*
X153221429Y-133314484D01*
X153221429Y-133314484D02*
X153150000Y-133243055D01*
X153150000Y-133243055D02*
X153078572Y-133100198D01*
X153078572Y-133100198D02*
X153078572Y-132671626D01*
X153078572Y-132671626D02*
X153150000Y-132528769D01*
X153150000Y-132528769D02*
X153221429Y-132457341D01*
X153221429Y-132457341D02*
X153364286Y-132385912D01*
X153364286Y-132385912D02*
X153578572Y-132385912D01*
X153578572Y-132385912D02*
X153721429Y-132457341D01*
X153721429Y-132457341D02*
X153792858Y-132528769D01*
X153792858Y-132528769D02*
X153864286Y-132671626D01*
X153864286Y-132671626D02*
X153864286Y-133100198D01*
X153864286Y-133100198D02*
X153792858Y-133243055D01*
X153792858Y-133243055D02*
X153721429Y-133314484D01*
X153721429Y-133314484D02*
X153578572Y-133385912D01*
X153578572Y-133385912D02*
X153364286Y-133385912D01*
X154507143Y-132385912D02*
X154507143Y-133385912D01*
X154507143Y-132528769D02*
X154578572Y-132457341D01*
X154578572Y-132457341D02*
X154721429Y-132385912D01*
X154721429Y-132385912D02*
X154935715Y-132385912D01*
X154935715Y-132385912D02*
X155078572Y-132457341D01*
X155078572Y-132457341D02*
X155150001Y-132600198D01*
X155150001Y-132600198D02*
X155150001Y-133385912D01*
X155650001Y-132385912D02*
X156221429Y-132385912D01*
X155864286Y-131885912D02*
X155864286Y-133171626D01*
X155864286Y-133171626D02*
X155935715Y-133314484D01*
X155935715Y-133314484D02*
X156078572Y-133385912D01*
X156078572Y-133385912D02*
X156221429Y-133385912D01*
X156721429Y-133385912D02*
X156721429Y-132385912D01*
X156721429Y-132671626D02*
X156792858Y-132528769D01*
X156792858Y-132528769D02*
X156864287Y-132457341D01*
X156864287Y-132457341D02*
X157007144Y-132385912D01*
X157007144Y-132385912D02*
X157150001Y-132385912D01*
X157864286Y-133385912D02*
X157721429Y-133314484D01*
X157721429Y-133314484D02*
X157650000Y-133243055D01*
X157650000Y-133243055D02*
X157578572Y-133100198D01*
X157578572Y-133100198D02*
X157578572Y-132671626D01*
X157578572Y-132671626D02*
X157650000Y-132528769D01*
X157650000Y-132528769D02*
X157721429Y-132457341D01*
X157721429Y-132457341D02*
X157864286Y-132385912D01*
X157864286Y-132385912D02*
X158078572Y-132385912D01*
X158078572Y-132385912D02*
X158221429Y-132457341D01*
X158221429Y-132457341D02*
X158292858Y-132528769D01*
X158292858Y-132528769D02*
X158364286Y-132671626D01*
X158364286Y-132671626D02*
X158364286Y-133100198D01*
X158364286Y-133100198D02*
X158292858Y-133243055D01*
X158292858Y-133243055D02*
X158221429Y-133314484D01*
X158221429Y-133314484D02*
X158078572Y-133385912D01*
X158078572Y-133385912D02*
X157864286Y-133385912D01*
X159221429Y-133385912D02*
X159078572Y-133314484D01*
X159078572Y-133314484D02*
X159007143Y-133171626D01*
X159007143Y-133171626D02*
X159007143Y-131885912D01*
X160007143Y-133385912D02*
X159864286Y-133314484D01*
X159864286Y-133314484D02*
X159792857Y-133171626D01*
X159792857Y-133171626D02*
X159792857Y-131885912D01*
X161150000Y-133314484D02*
X161007143Y-133385912D01*
X161007143Y-133385912D02*
X160721429Y-133385912D01*
X160721429Y-133385912D02*
X160578571Y-133314484D01*
X160578571Y-133314484D02*
X160507143Y-133171626D01*
X160507143Y-133171626D02*
X160507143Y-132600198D01*
X160507143Y-132600198D02*
X160578571Y-132457341D01*
X160578571Y-132457341D02*
X160721429Y-132385912D01*
X160721429Y-132385912D02*
X161007143Y-132385912D01*
X161007143Y-132385912D02*
X161150000Y-132457341D01*
X161150000Y-132457341D02*
X161221429Y-132600198D01*
X161221429Y-132600198D02*
X161221429Y-132743055D01*
X161221429Y-132743055D02*
X160507143Y-132885912D01*
X161864285Y-133385912D02*
X161864285Y-132385912D01*
X161864285Y-132671626D02*
X161935714Y-132528769D01*
X161935714Y-132528769D02*
X162007143Y-132457341D01*
X162007143Y-132457341D02*
X162150000Y-132385912D01*
X162150000Y-132385912D02*
X162292857Y-132385912D01*
X133007143Y-134657971D02*
X132864286Y-134586542D01*
X132864286Y-134586542D02*
X132578572Y-134586542D01*
X132578572Y-134586542D02*
X132435715Y-134657971D01*
X132435715Y-134657971D02*
X132292857Y-134800828D01*
X132292857Y-134800828D02*
X132221429Y-134943685D01*
X132221429Y-134943685D02*
X132221429Y-135229400D01*
X132221429Y-135229400D02*
X132292857Y-135372257D01*
X132292857Y-135372257D02*
X132435715Y-135515114D01*
X132435715Y-135515114D02*
X132578572Y-135586542D01*
X132578572Y-135586542D02*
X132864286Y-135586542D01*
X132864286Y-135586542D02*
X133007143Y-135515114D01*
X132721429Y-134086542D02*
X132364286Y-134157971D01*
X132364286Y-134157971D02*
X132007143Y-134372257D01*
X132007143Y-134372257D02*
X131792857Y-134729400D01*
X131792857Y-134729400D02*
X131721429Y-135086542D01*
X131721429Y-135086542D02*
X131792857Y-135443685D01*
X131792857Y-135443685D02*
X132007143Y-135800828D01*
X132007143Y-135800828D02*
X132364286Y-136015114D01*
X132364286Y-136015114D02*
X132721429Y-136086542D01*
X132721429Y-136086542D02*
X133078572Y-136015114D01*
X133078572Y-136015114D02*
X133435715Y-135800828D01*
X133435715Y-135800828D02*
X133650000Y-135443685D01*
X133650000Y-135443685D02*
X133721429Y-135086542D01*
X133721429Y-135086542D02*
X133650000Y-134729400D01*
X133650000Y-134729400D02*
X133435715Y-134372257D01*
X133435715Y-134372257D02*
X133078572Y-134157971D01*
X133078572Y-134157971D02*
X132721429Y-134086542D01*
X135435715Y-134443685D02*
X135507143Y-134372257D01*
X135507143Y-134372257D02*
X135650001Y-134300828D01*
X135650001Y-134300828D02*
X136007143Y-134300828D01*
X136007143Y-134300828D02*
X136150001Y-134372257D01*
X136150001Y-134372257D02*
X136221429Y-134443685D01*
X136221429Y-134443685D02*
X136292858Y-134586542D01*
X136292858Y-134586542D02*
X136292858Y-134729400D01*
X136292858Y-134729400D02*
X136221429Y-134943685D01*
X136221429Y-134943685D02*
X135364286Y-135800828D01*
X135364286Y-135800828D02*
X136292858Y-135800828D01*
X137221429Y-134300828D02*
X137364286Y-134300828D01*
X137364286Y-134300828D02*
X137507143Y-134372257D01*
X137507143Y-134372257D02*
X137578572Y-134443685D01*
X137578572Y-134443685D02*
X137650000Y-134586542D01*
X137650000Y-134586542D02*
X137721429Y-134872257D01*
X137721429Y-134872257D02*
X137721429Y-135229400D01*
X137721429Y-135229400D02*
X137650000Y-135515114D01*
X137650000Y-135515114D02*
X137578572Y-135657971D01*
X137578572Y-135657971D02*
X137507143Y-135729400D01*
X137507143Y-135729400D02*
X137364286Y-135800828D01*
X137364286Y-135800828D02*
X137221429Y-135800828D01*
X137221429Y-135800828D02*
X137078572Y-135729400D01*
X137078572Y-135729400D02*
X137007143Y-135657971D01*
X137007143Y-135657971D02*
X136935714Y-135515114D01*
X136935714Y-135515114D02*
X136864286Y-135229400D01*
X136864286Y-135229400D02*
X136864286Y-134872257D01*
X136864286Y-134872257D02*
X136935714Y-134586542D01*
X136935714Y-134586542D02*
X137007143Y-134443685D01*
X137007143Y-134443685D02*
X137078572Y-134372257D01*
X137078572Y-134372257D02*
X137221429Y-134300828D01*
X138292857Y-134443685D02*
X138364285Y-134372257D01*
X138364285Y-134372257D02*
X138507143Y-134300828D01*
X138507143Y-134300828D02*
X138864285Y-134300828D01*
X138864285Y-134300828D02*
X139007143Y-134372257D01*
X139007143Y-134372257D02*
X139078571Y-134443685D01*
X139078571Y-134443685D02*
X139150000Y-134586542D01*
X139150000Y-134586542D02*
X139150000Y-134729400D01*
X139150000Y-134729400D02*
X139078571Y-134943685D01*
X139078571Y-134943685D02*
X138221428Y-135800828D01*
X138221428Y-135800828D02*
X139150000Y-135800828D01*
X140435714Y-134300828D02*
X140149999Y-134300828D01*
X140149999Y-134300828D02*
X140007142Y-134372257D01*
X140007142Y-134372257D02*
X139935714Y-134443685D01*
X139935714Y-134443685D02*
X139792856Y-134657971D01*
X139792856Y-134657971D02*
X139721428Y-134943685D01*
X139721428Y-134943685D02*
X139721428Y-135515114D01*
X139721428Y-135515114D02*
X139792856Y-135657971D01*
X139792856Y-135657971D02*
X139864285Y-135729400D01*
X139864285Y-135729400D02*
X140007142Y-135800828D01*
X140007142Y-135800828D02*
X140292856Y-135800828D01*
X140292856Y-135800828D02*
X140435714Y-135729400D01*
X140435714Y-135729400D02*
X140507142Y-135657971D01*
X140507142Y-135657971D02*
X140578571Y-135515114D01*
X140578571Y-135515114D02*
X140578571Y-135157971D01*
X140578571Y-135157971D02*
X140507142Y-135015114D01*
X140507142Y-135015114D02*
X140435714Y-134943685D01*
X140435714Y-134943685D02*
X140292856Y-134872257D01*
X140292856Y-134872257D02*
X140007142Y-134872257D01*
X140007142Y-134872257D02*
X139864285Y-134943685D01*
X139864285Y-134943685D02*
X139792856Y-135015114D01*
X139792856Y-135015114D02*
X139721428Y-135157971D01*
X142364284Y-135015114D02*
X142864284Y-135015114D01*
X143078570Y-135800828D02*
X142364284Y-135800828D01*
X142364284Y-135800828D02*
X142364284Y-134300828D01*
X142364284Y-134300828D02*
X143078570Y-134300828D01*
X143507142Y-134800828D02*
X144078570Y-134800828D01*
X143721427Y-134300828D02*
X143721427Y-135586542D01*
X143721427Y-135586542D02*
X143792856Y-135729400D01*
X143792856Y-135729400D02*
X143935713Y-135800828D01*
X143935713Y-135800828D02*
X144078570Y-135800828D01*
X144578570Y-135800828D02*
X144578570Y-134300828D01*
X145221428Y-135800828D02*
X145221428Y-135015114D01*
X145221428Y-135015114D02*
X145149999Y-134872257D01*
X145149999Y-134872257D02*
X145007142Y-134800828D01*
X145007142Y-134800828D02*
X144792856Y-134800828D01*
X144792856Y-134800828D02*
X144649999Y-134872257D01*
X144649999Y-134872257D02*
X144578570Y-134943685D01*
X146578571Y-135800828D02*
X146578571Y-135015114D01*
X146578571Y-135015114D02*
X146507142Y-134872257D01*
X146507142Y-134872257D02*
X146364285Y-134800828D01*
X146364285Y-134800828D02*
X146078571Y-134800828D01*
X146078571Y-134800828D02*
X145935713Y-134872257D01*
X146578571Y-135729400D02*
X146435713Y-135800828D01*
X146435713Y-135800828D02*
X146078571Y-135800828D01*
X146078571Y-135800828D02*
X145935713Y-135729400D01*
X145935713Y-135729400D02*
X145864285Y-135586542D01*
X145864285Y-135586542D02*
X145864285Y-135443685D01*
X145864285Y-135443685D02*
X145935713Y-135300828D01*
X145935713Y-135300828D02*
X146078571Y-135229400D01*
X146078571Y-135229400D02*
X146435713Y-135229400D01*
X146435713Y-135229400D02*
X146578571Y-135157971D01*
X147292856Y-134800828D02*
X147292856Y-135800828D01*
X147292856Y-134943685D02*
X147364285Y-134872257D01*
X147364285Y-134872257D02*
X147507142Y-134800828D01*
X147507142Y-134800828D02*
X147721428Y-134800828D01*
X147721428Y-134800828D02*
X147864285Y-134872257D01*
X147864285Y-134872257D02*
X147935714Y-135015114D01*
X147935714Y-135015114D02*
X147935714Y-135800828D01*
X150507142Y-135800828D02*
X149792856Y-135800828D01*
X149792856Y-135800828D02*
X149792856Y-134300828D01*
X151007142Y-135800828D02*
X151007142Y-134800828D01*
X151007142Y-134300828D02*
X150935714Y-134372257D01*
X150935714Y-134372257D02*
X151007142Y-134443685D01*
X151007142Y-134443685D02*
X151078571Y-134372257D01*
X151078571Y-134372257D02*
X151007142Y-134300828D01*
X151007142Y-134300828D02*
X151007142Y-134443685D01*
X189015114Y-117807142D02*
X189086542Y-117592856D01*
X189086542Y-117592856D02*
X189157971Y-117521427D01*
X189157971Y-117521427D02*
X189300828Y-117449999D01*
X189300828Y-117449999D02*
X189515114Y-117449999D01*
X189515114Y-117449999D02*
X189657971Y-117521427D01*
X189657971Y-117521427D02*
X189729400Y-117592856D01*
X189729400Y-117592856D02*
X189800828Y-117735713D01*
X189800828Y-117735713D02*
X189800828Y-118307142D01*
X189800828Y-118307142D02*
X188300828Y-118307142D01*
X188300828Y-118307142D02*
X188300828Y-117807142D01*
X188300828Y-117807142D02*
X188372257Y-117664285D01*
X188372257Y-117664285D02*
X188443685Y-117592856D01*
X188443685Y-117592856D02*
X188586542Y-117521427D01*
X188586542Y-117521427D02*
X188729400Y-117521427D01*
X188729400Y-117521427D02*
X188872257Y-117592856D01*
X188872257Y-117592856D02*
X188943685Y-117664285D01*
X188943685Y-117664285D02*
X189015114Y-117807142D01*
X189015114Y-117807142D02*
X189015114Y-118307142D01*
X188443685Y-116878570D02*
X188372257Y-116807142D01*
X188372257Y-116807142D02*
X188300828Y-116664285D01*
X188300828Y-116664285D02*
X188300828Y-116307142D01*
X188300828Y-116307142D02*
X188372257Y-116164285D01*
X188372257Y-116164285D02*
X188443685Y-116092856D01*
X188443685Y-116092856D02*
X188586542Y-116021427D01*
X188586542Y-116021427D02*
X188729400Y-116021427D01*
X188729400Y-116021427D02*
X188943685Y-116092856D01*
X188943685Y-116092856D02*
X189800828Y-116949999D01*
X189800828Y-116949999D02*
X189800828Y-116021427D01*
X189015114Y-127407142D02*
X189086542Y-127192856D01*
X189086542Y-127192856D02*
X189157971Y-127121427D01*
X189157971Y-127121427D02*
X189300828Y-127049999D01*
X189300828Y-127049999D02*
X189515114Y-127049999D01*
X189515114Y-127049999D02*
X189657971Y-127121427D01*
X189657971Y-127121427D02*
X189729400Y-127192856D01*
X189729400Y-127192856D02*
X189800828Y-127335713D01*
X189800828Y-127335713D02*
X189800828Y-127907142D01*
X189800828Y-127907142D02*
X188300828Y-127907142D01*
X188300828Y-127907142D02*
X188300828Y-127407142D01*
X188300828Y-127407142D02*
X188372257Y-127264285D01*
X188372257Y-127264285D02*
X188443685Y-127192856D01*
X188443685Y-127192856D02*
X188586542Y-127121427D01*
X188586542Y-127121427D02*
X188729400Y-127121427D01*
X188729400Y-127121427D02*
X188872257Y-127192856D01*
X188872257Y-127192856D02*
X188943685Y-127264285D01*
X188943685Y-127264285D02*
X189015114Y-127407142D01*
X189015114Y-127407142D02*
X189015114Y-127907142D01*
X189800828Y-125621427D02*
X189800828Y-126478570D01*
X189800828Y-126049999D02*
X188300828Y-126049999D01*
X188300828Y-126049999D02*
X188515114Y-126192856D01*
X188515114Y-126192856D02*
X188657971Y-126335713D01*
X188657971Y-126335713D02*
X188729400Y-126478570D01*
X190000828Y-68614285D02*
X188500828Y-68614285D01*
X188500828Y-68614285D02*
X189572257Y-68114285D01*
X189572257Y-68114285D02*
X188500828Y-67614285D01*
X188500828Y-67614285D02*
X190000828Y-67614285D01*
X190000828Y-66114284D02*
X190000828Y-66971427D01*
X190000828Y-66542856D02*
X188500828Y-66542856D01*
X188500828Y-66542856D02*
X188715114Y-66685713D01*
X188715114Y-66685713D02*
X188857971Y-66828570D01*
X188857971Y-66828570D02*
X188929400Y-66971427D01*
X190000828Y-86414285D02*
X188500828Y-86414285D01*
X188500828Y-86414285D02*
X189572257Y-85914285D01*
X189572257Y-85914285D02*
X188500828Y-85414285D01*
X188500828Y-85414285D02*
X190000828Y-85414285D01*
X188643685Y-84771427D02*
X188572257Y-84699999D01*
X188572257Y-84699999D02*
X188500828Y-84557142D01*
X188500828Y-84557142D02*
X188500828Y-84199999D01*
X188500828Y-84199999D02*
X188572257Y-84057142D01*
X188572257Y-84057142D02*
X188643685Y-83985713D01*
X188643685Y-83985713D02*
X188786542Y-83914284D01*
X188786542Y-83914284D02*
X188929400Y-83914284D01*
X188929400Y-83914284D02*
X189143685Y-83985713D01*
X189143685Y-83985713D02*
X190000828Y-84842856D01*
X190000828Y-84842856D02*
X190000828Y-83914284D01*
X190000828Y-103814285D02*
X188500828Y-103814285D01*
X188500828Y-103814285D02*
X189572257Y-103314285D01*
X189572257Y-103314285D02*
X188500828Y-102814285D01*
X188500828Y-102814285D02*
X190000828Y-102814285D01*
X188500828Y-102242856D02*
X188500828Y-101314284D01*
X188500828Y-101314284D02*
X189072257Y-101814284D01*
X189072257Y-101814284D02*
X189072257Y-101599999D01*
X189072257Y-101599999D02*
X189143685Y-101457142D01*
X189143685Y-101457142D02*
X189215114Y-101385713D01*
X189215114Y-101385713D02*
X189357971Y-101314284D01*
X189357971Y-101314284D02*
X189715114Y-101314284D01*
X189715114Y-101314284D02*
X189857971Y-101385713D01*
X189857971Y-101385713D02*
X189929400Y-101457142D01*
X189929400Y-101457142D02*
X190000828Y-101599999D01*
X190000828Y-101599999D02*
X190000828Y-102028570D01*
X190000828Y-102028570D02*
X189929400Y-102171427D01*
X189929400Y-102171427D02*
X189857971Y-102242856D01*
X93599171Y-66585714D02*
X95099171Y-66585714D01*
X95099171Y-66585714D02*
X94027742Y-67085714D01*
X94027742Y-67085714D02*
X95099171Y-67585714D01*
X95099171Y-67585714D02*
X93599171Y-67585714D01*
X95099171Y-68942858D02*
X95099171Y-68657143D01*
X95099171Y-68657143D02*
X95027742Y-68514286D01*
X95027742Y-68514286D02*
X94956314Y-68442858D01*
X94956314Y-68442858D02*
X94742028Y-68300000D01*
X94742028Y-68300000D02*
X94456314Y-68228572D01*
X94456314Y-68228572D02*
X93884885Y-68228572D01*
X93884885Y-68228572D02*
X93742028Y-68300000D01*
X93742028Y-68300000D02*
X93670600Y-68371429D01*
X93670600Y-68371429D02*
X93599171Y-68514286D01*
X93599171Y-68514286D02*
X93599171Y-68800000D01*
X93599171Y-68800000D02*
X93670600Y-68942858D01*
X93670600Y-68942858D02*
X93742028Y-69014286D01*
X93742028Y-69014286D02*
X93884885Y-69085715D01*
X93884885Y-69085715D02*
X94242028Y-69085715D01*
X94242028Y-69085715D02*
X94384885Y-69014286D01*
X94384885Y-69014286D02*
X94456314Y-68942858D01*
X94456314Y-68942858D02*
X94527742Y-68800000D01*
X94527742Y-68800000D02*
X94527742Y-68514286D01*
X94527742Y-68514286D02*
X94456314Y-68371429D01*
X94456314Y-68371429D02*
X94384885Y-68300000D01*
X94384885Y-68300000D02*
X94242028Y-68228572D01*
X93599171Y-83985714D02*
X95099171Y-83985714D01*
X95099171Y-83985714D02*
X94027742Y-84485714D01*
X94027742Y-84485714D02*
X95099171Y-84985714D01*
X95099171Y-84985714D02*
X93599171Y-84985714D01*
X95099171Y-86414286D02*
X95099171Y-85700000D01*
X95099171Y-85700000D02*
X94384885Y-85628572D01*
X94384885Y-85628572D02*
X94456314Y-85700000D01*
X94456314Y-85700000D02*
X94527742Y-85842858D01*
X94527742Y-85842858D02*
X94527742Y-86200000D01*
X94527742Y-86200000D02*
X94456314Y-86342858D01*
X94456314Y-86342858D02*
X94384885Y-86414286D01*
X94384885Y-86414286D02*
X94242028Y-86485715D01*
X94242028Y-86485715D02*
X93884885Y-86485715D01*
X93884885Y-86485715D02*
X93742028Y-86414286D01*
X93742028Y-86414286D02*
X93670600Y-86342858D01*
X93670600Y-86342858D02*
X93599171Y-86200000D01*
X93599171Y-86200000D02*
X93599171Y-85842858D01*
X93599171Y-85842858D02*
X93670600Y-85700000D01*
X93670600Y-85700000D02*
X93742028Y-85628572D01*
X93599171Y-101785714D02*
X95099171Y-101785714D01*
X95099171Y-101785714D02*
X94027742Y-102285714D01*
X94027742Y-102285714D02*
X95099171Y-102785714D01*
X95099171Y-102785714D02*
X93599171Y-102785714D01*
X94599171Y-104142858D02*
X93599171Y-104142858D01*
X95170600Y-103785715D02*
X94099171Y-103428572D01*
X94099171Y-103428572D02*
X94099171Y-104357143D01*
X94984885Y-116592857D02*
X94913457Y-116807143D01*
X94913457Y-116807143D02*
X94842028Y-116878572D01*
X94842028Y-116878572D02*
X94699171Y-116950000D01*
X94699171Y-116950000D02*
X94484885Y-116950000D01*
X94484885Y-116950000D02*
X94342028Y-116878572D01*
X94342028Y-116878572D02*
X94270600Y-116807143D01*
X94270600Y-116807143D02*
X94199171Y-116664286D01*
X94199171Y-116664286D02*
X94199171Y-116092857D01*
X94199171Y-116092857D02*
X95699171Y-116092857D01*
X95699171Y-116092857D02*
X95699171Y-116592857D01*
X95699171Y-116592857D02*
X95627742Y-116735715D01*
X95627742Y-116735715D02*
X95556314Y-116807143D01*
X95556314Y-116807143D02*
X95413457Y-116878572D01*
X95413457Y-116878572D02*
X95270600Y-116878572D01*
X95270600Y-116878572D02*
X95127742Y-116807143D01*
X95127742Y-116807143D02*
X95056314Y-116735715D01*
X95056314Y-116735715D02*
X94984885Y-116592857D01*
X94984885Y-116592857D02*
X94984885Y-116092857D01*
X95699171Y-117450000D02*
X95699171Y-118378572D01*
X95699171Y-118378572D02*
X95127742Y-117878572D01*
X95127742Y-117878572D02*
X95127742Y-118092857D01*
X95127742Y-118092857D02*
X95056314Y-118235715D01*
X95056314Y-118235715D02*
X94984885Y-118307143D01*
X94984885Y-118307143D02*
X94842028Y-118378572D01*
X94842028Y-118378572D02*
X94484885Y-118378572D01*
X94484885Y-118378572D02*
X94342028Y-118307143D01*
X94342028Y-118307143D02*
X94270600Y-118235715D01*
X94270600Y-118235715D02*
X94199171Y-118092857D01*
X94199171Y-118092857D02*
X94199171Y-117664286D01*
X94199171Y-117664286D02*
X94270600Y-117521429D01*
X94270600Y-117521429D02*
X94342028Y-117450000D01*
X94984885Y-126192857D02*
X94913457Y-126407143D01*
X94913457Y-126407143D02*
X94842028Y-126478572D01*
X94842028Y-126478572D02*
X94699171Y-126550000D01*
X94699171Y-126550000D02*
X94484885Y-126550000D01*
X94484885Y-126550000D02*
X94342028Y-126478572D01*
X94342028Y-126478572D02*
X94270600Y-126407143D01*
X94270600Y-126407143D02*
X94199171Y-126264286D01*
X94199171Y-126264286D02*
X94199171Y-125692857D01*
X94199171Y-125692857D02*
X95699171Y-125692857D01*
X95699171Y-125692857D02*
X95699171Y-126192857D01*
X95699171Y-126192857D02*
X95627742Y-126335715D01*
X95627742Y-126335715D02*
X95556314Y-126407143D01*
X95556314Y-126407143D02*
X95413457Y-126478572D01*
X95413457Y-126478572D02*
X95270600Y-126478572D01*
X95270600Y-126478572D02*
X95127742Y-126407143D01*
X95127742Y-126407143D02*
X95056314Y-126335715D01*
X95056314Y-126335715D02*
X94984885Y-126192857D01*
X94984885Y-126192857D02*
X94984885Y-125692857D01*
X95199171Y-127835715D02*
X94199171Y-127835715D01*
X95770600Y-127478572D02*
X94699171Y-127121429D01*
X94699171Y-127121429D02*
X94699171Y-128050000D01*
%TO.C,SW6*%
D15*
X111150000Y-128300000D02*
X111150000Y-129500000D01*
X111150000Y-137500000D02*
X111150000Y-136300000D01*
X115350000Y-128300000D02*
X111150000Y-128300000D01*
X115350000Y-128650000D02*
X115350000Y-128300000D01*
X115350000Y-136300000D02*
X115350000Y-137500000D01*
X115350000Y-137500000D02*
X111150000Y-137500000D01*
X115350000Y-129400000D02*
X115350000Y-128920000D01*
X115830000Y-129400000D01*
X115350000Y-129400000D01*
G36*
X115830000Y-129400000D02*
G01*
X115350000Y-129400000D01*
X115350000Y-128920000D01*
X115830000Y-129400000D01*
G37*
%TO.C,J8*%
X97190000Y-123590000D02*
X98400000Y-123590000D01*
X97190000Y-130310000D02*
X97190000Y-123590000D01*
X98400000Y-123590000D02*
X98400000Y-123090000D01*
X98400000Y-130310000D02*
X97190000Y-130310000D01*
X98400000Y-130810000D02*
X98400000Y-130310000D01*
X98510000Y-131110000D02*
X101010000Y-131110000D01*
X99210000Y-123090000D02*
X99210000Y-124090000D01*
X99210000Y-124090000D02*
X100710000Y-124090000D01*
X99210000Y-129810000D02*
X100710000Y-129810000D01*
X99210000Y-130810000D02*
X99210000Y-129810000D01*
X101010000Y-131110000D02*
X101010000Y-128610000D01*
X96690000Y-123090000D02*
X100710000Y-123090000D01*
X100710000Y-130810000D01*
X96690000Y-130810000D01*
X96690000Y-123090000D01*
%TO.C,C3*%
X123449759Y-101761000D02*
X124079759Y-101761000D01*
X123764759Y-101446000D02*
X123764759Y-102076000D01*
X126950000Y-100370000D02*
X126950000Y-106830000D01*
X126990000Y-100370000D02*
X126990000Y-106830000D01*
X127030000Y-100371000D02*
X127030000Y-106829000D01*
X127070000Y-100372000D02*
X127070000Y-106828000D01*
X127110000Y-100374000D02*
X127110000Y-106826000D01*
X127150000Y-100376000D02*
X127150000Y-106824000D01*
X127190000Y-100379000D02*
X127190000Y-102560000D01*
X127190000Y-104640000D02*
X127190000Y-106821000D01*
X127230000Y-100382000D02*
X127230000Y-102560000D01*
X127230000Y-104640000D02*
X127230000Y-106818000D01*
X127270000Y-100386000D02*
X127270000Y-102560000D01*
X127270000Y-104640000D02*
X127270000Y-106814000D01*
X127310000Y-100390000D02*
X127310000Y-102560000D01*
X127310000Y-104640000D02*
X127310000Y-106810000D01*
X127350000Y-100395000D02*
X127350000Y-102560000D01*
X127350000Y-104640000D02*
X127350000Y-106805000D01*
X127390000Y-100400000D02*
X127390000Y-102560000D01*
X127390000Y-104640000D02*
X127390000Y-106800000D01*
X127430000Y-100405000D02*
X127430000Y-102560000D01*
X127430000Y-104640000D02*
X127430000Y-106795000D01*
X127470000Y-100412000D02*
X127470000Y-102560000D01*
X127470000Y-104640000D02*
X127470000Y-106788000D01*
X127510000Y-100418000D02*
X127510000Y-102560000D01*
X127510000Y-104640000D02*
X127510000Y-106782000D01*
X127550000Y-100426000D02*
X127550000Y-102560000D01*
X127550000Y-104640000D02*
X127550000Y-106774000D01*
X127590000Y-100433000D02*
X127590000Y-102560000D01*
X127590000Y-104640000D02*
X127590000Y-106767000D01*
X127630000Y-100441000D02*
X127630000Y-102560000D01*
X127630000Y-104640000D02*
X127630000Y-106759000D01*
X127670000Y-100450000D02*
X127670000Y-102560000D01*
X127670000Y-104640000D02*
X127670000Y-106750000D01*
X127710000Y-100460000D02*
X127710000Y-102560000D01*
X127710000Y-104640000D02*
X127710000Y-106740000D01*
X127750000Y-100469000D02*
X127750000Y-102560000D01*
X127750000Y-104640000D02*
X127750000Y-106731000D01*
X127790000Y-100480000D02*
X127790000Y-102560000D01*
X127790000Y-104640000D02*
X127790000Y-106720000D01*
X127830000Y-100491000D02*
X127830000Y-102560000D01*
X127830000Y-104640000D02*
X127830000Y-106709000D01*
X127870000Y-100502000D02*
X127870000Y-102560000D01*
X127870000Y-104640000D02*
X127870000Y-106698000D01*
X127910000Y-100514000D02*
X127910000Y-102560000D01*
X127910000Y-104640000D02*
X127910000Y-106686000D01*
X127950000Y-100527000D02*
X127950000Y-102560000D01*
X127950000Y-104640000D02*
X127950000Y-106673000D01*
X127990000Y-100540000D02*
X127990000Y-102560000D01*
X127990000Y-104640000D02*
X127990000Y-106660000D01*
X128030000Y-100553000D02*
X128030000Y-102560000D01*
X128030000Y-104640000D02*
X128030000Y-106647000D01*
X128070000Y-100568000D02*
X128070000Y-102560000D01*
X128070000Y-104640000D02*
X128070000Y-106632000D01*
X128110000Y-100583000D02*
X128110000Y-102560000D01*
X128110000Y-104640000D02*
X128110000Y-106617000D01*
X128150000Y-100598000D02*
X128150000Y-102560000D01*
X128150000Y-104640000D02*
X128150000Y-106602000D01*
X128190000Y-100614000D02*
X128190000Y-102560000D01*
X128190000Y-104640000D02*
X128190000Y-106586000D01*
X128230000Y-100631000D02*
X128230000Y-102560000D01*
X128230000Y-104640000D02*
X128230000Y-106569000D01*
X128270000Y-100648000D02*
X128270000Y-102560000D01*
X128270000Y-104640000D02*
X128270000Y-106552000D01*
X128310000Y-100666000D02*
X128310000Y-102560000D01*
X128310000Y-104640000D02*
X128310000Y-106534000D01*
X128350000Y-100685000D02*
X128350000Y-102560000D01*
X128350000Y-104640000D02*
X128350000Y-106515000D01*
X128390000Y-100704000D02*
X128390000Y-102560000D01*
X128390000Y-104640000D02*
X128390000Y-106496000D01*
X128430000Y-100724000D02*
X128430000Y-102560000D01*
X128430000Y-104640000D02*
X128430000Y-106476000D01*
X128470000Y-100745000D02*
X128470000Y-102560000D01*
X128470000Y-104640000D02*
X128470000Y-106455000D01*
X128510000Y-100766000D02*
X128510000Y-102560000D01*
X128510000Y-104640000D02*
X128510000Y-106434000D01*
X128550000Y-100788000D02*
X128550000Y-102560000D01*
X128550000Y-104640000D02*
X128550000Y-106412000D01*
X128590000Y-100811000D02*
X128590000Y-102560000D01*
X128590000Y-104640000D02*
X128590000Y-106389000D01*
X128630000Y-100835000D02*
X128630000Y-102560000D01*
X128630000Y-104640000D02*
X128630000Y-106365000D01*
X128670000Y-100859000D02*
X128670000Y-102560000D01*
X128670000Y-104640000D02*
X128670000Y-106341000D01*
X128710000Y-100884000D02*
X128710000Y-102560000D01*
X128710000Y-104640000D02*
X128710000Y-106316000D01*
X128750000Y-100910000D02*
X128750000Y-102560000D01*
X128750000Y-104640000D02*
X128750000Y-106290000D01*
X128790000Y-100937000D02*
X128790000Y-102560000D01*
X128790000Y-104640000D02*
X128790000Y-106263000D01*
X128830000Y-100964000D02*
X128830000Y-102560000D01*
X128830000Y-104640000D02*
X128830000Y-106236000D01*
X128870000Y-100993000D02*
X128870000Y-102560000D01*
X128870000Y-104640000D02*
X128870000Y-106207000D01*
X128910000Y-101023000D02*
X128910000Y-102560000D01*
X128910000Y-104640000D02*
X128910000Y-106177000D01*
X128950000Y-101053000D02*
X128950000Y-102560000D01*
X128950000Y-104640000D02*
X128950000Y-106147000D01*
X128990000Y-101084000D02*
X128990000Y-102560000D01*
X128990000Y-104640000D02*
X128990000Y-106116000D01*
X129030000Y-101117000D02*
X129030000Y-102560000D01*
X129030000Y-104640000D02*
X129030000Y-106083000D01*
X129070000Y-101150000D02*
X129070000Y-102560000D01*
X129070000Y-104640000D02*
X129070000Y-106050000D01*
X129110000Y-101185000D02*
X129110000Y-102560000D01*
X129110000Y-104640000D02*
X129110000Y-106015000D01*
X129150000Y-101221000D02*
X129150000Y-102560000D01*
X129150000Y-104640000D02*
X129150000Y-105979000D01*
X129190000Y-101258000D02*
X129190000Y-102560000D01*
X129190000Y-104640000D02*
X129190000Y-105942000D01*
X129230000Y-101296000D02*
X129230000Y-102560000D01*
X129230000Y-104640000D02*
X129230000Y-105904000D01*
X129270000Y-101336000D02*
X129270000Y-105864000D01*
X129310000Y-101377000D02*
X129310000Y-105823000D01*
X129350000Y-101419000D02*
X129350000Y-105781000D01*
X129390000Y-101463000D02*
X129390000Y-105737000D01*
X129430000Y-101509000D02*
X129430000Y-105691000D01*
X129470000Y-101556000D02*
X129470000Y-105644000D01*
X129510000Y-101605000D02*
X129510000Y-105595000D01*
X129550000Y-101657000D02*
X129550000Y-105543000D01*
X129590000Y-101710000D02*
X129590000Y-105490000D01*
X129630000Y-101766000D02*
X129630000Y-105434000D01*
X129670000Y-101825000D02*
X129670000Y-105375000D01*
X129710000Y-101886000D02*
X129710000Y-105314000D01*
X129750000Y-101951000D02*
X129750000Y-105249000D01*
X129790000Y-102019000D02*
X129790000Y-105181000D01*
X129830000Y-102091000D02*
X129830000Y-105109000D01*
X129870000Y-102168000D02*
X129870000Y-105032000D01*
X129910000Y-102250000D02*
X129910000Y-104950000D01*
X129950000Y-102339000D02*
X129950000Y-104861000D01*
X129990000Y-102435000D02*
X129990000Y-104765000D01*
X130030000Y-102542000D02*
X130030000Y-104658000D01*
X130070000Y-102661000D02*
X130070000Y-104539000D01*
X130110000Y-102799000D02*
X130110000Y-104401000D01*
X130150000Y-102967000D02*
X130150000Y-104233000D01*
X130190000Y-103198000D02*
X130190000Y-104002000D01*
X130220000Y-103600000D02*
G75*
G02*
X123680000Y-103600000I-3270000J0D01*
G01*
X123680000Y-103600000D02*
G75*
G02*
X130220000Y-103600000I3270000J0D01*
G01*
%TO.C,A2*%
X161110000Y-59440000D02*
X161110000Y-72270000D01*
X161110000Y-62110000D02*
X181690000Y-62110000D01*
X161110000Y-72270000D02*
X163780000Y-72270000D01*
X161110000Y-73540000D02*
X161110000Y-74940000D01*
X161110000Y-74940000D02*
X162510000Y-74940000D01*
X163780000Y-72270000D02*
X163780000Y-74940000D01*
X163780000Y-72270000D02*
X181690000Y-72270000D01*
X163780000Y-74940000D02*
X181690000Y-74940000D01*
X181690000Y-59440000D02*
X161110000Y-59440000D01*
X181690000Y-74940000D02*
X181690000Y-59440000D01*
%TO.C,SW8*%
X101150000Y-138000000D02*
X101150000Y-139200000D01*
X101150000Y-147200000D02*
X101150000Y-146000000D01*
X105350000Y-138000000D02*
X101150000Y-138000000D01*
X105350000Y-138350000D02*
X105350000Y-138000000D01*
X105350000Y-146000000D02*
X105350000Y-147200000D01*
X105350000Y-147200000D02*
X101150000Y-147200000D01*
X105350000Y-139100000D02*
X105350000Y-138620000D01*
X105830000Y-139100000D01*
X105350000Y-139100000D01*
G36*
X105830000Y-139100000D02*
G01*
X105350000Y-139100000D01*
X105350000Y-138620000D01*
X105830000Y-139100000D01*
G37*
%TO.C,J17*%
X106540000Y-138280000D02*
X116940000Y-138280000D01*
X106540000Y-140400000D02*
X116940000Y-140400000D01*
X106540000Y-144400000D02*
X116940000Y-144400000D01*
X106540000Y-146520000D02*
X106540000Y-138280000D01*
X108900000Y-146520000D02*
X106540000Y-146520000D01*
X116940000Y-138280000D02*
X116940000Y-146520000D01*
X116940000Y-146520000D02*
X109500000Y-146520000D01*
X109200000Y-146520000D02*
X109640000Y-147130000D01*
X108760000Y-147130000D01*
X109200000Y-146520000D01*
G36*
X109640000Y-147130000D02*
G01*
X108760000Y-147130000D01*
X109200000Y-146520000D01*
X109640000Y-147130000D01*
G37*
%TO.C,J7*%
X182990000Y-113090000D02*
X182990000Y-115590000D01*
X184790000Y-113390000D02*
X184790000Y-114390000D01*
X184790000Y-114390000D02*
X183290000Y-114390000D01*
X184790000Y-120110000D02*
X183290000Y-120110000D01*
X184790000Y-121110000D02*
X184790000Y-120110000D01*
X185490000Y-113090000D02*
X182990000Y-113090000D01*
X185600000Y-113390000D02*
X185600000Y-113890000D01*
X185600000Y-113890000D02*
X186810000Y-113890000D01*
X185600000Y-120610000D02*
X185600000Y-121110000D01*
X186810000Y-113890000D02*
X186810000Y-120610000D01*
X186810000Y-120610000D02*
X185600000Y-120610000D01*
X183290000Y-113390000D02*
X187310000Y-113390000D01*
X187310000Y-121110000D01*
X183290000Y-121110000D01*
X183290000Y-113390000D01*
%TO.C,J4*%
X182690000Y-96540000D02*
X182690000Y-99040000D01*
X184490000Y-96840000D02*
X184490000Y-97840000D01*
X184490000Y-97840000D02*
X182990000Y-97840000D01*
X184490000Y-108560000D02*
X182990000Y-108560000D01*
X184490000Y-109560000D02*
X184490000Y-108560000D01*
X185190000Y-96540000D02*
X182690000Y-96540000D01*
X185300000Y-96840000D02*
X185300000Y-97340000D01*
X185300000Y-97340000D02*
X186510000Y-97340000D01*
X185300000Y-109060000D02*
X185300000Y-109560000D01*
X186510000Y-97340000D02*
X186510000Y-109060000D01*
X186510000Y-109060000D02*
X185300000Y-109060000D01*
X182990000Y-96840000D02*
X187010000Y-96840000D01*
X187010000Y-109560000D01*
X182990000Y-109560000D01*
X182990000Y-96840000D01*
%TO.C,A3*%
X161110000Y-77640000D02*
X161110000Y-90470000D01*
X161110000Y-80310000D02*
X181690000Y-80310000D01*
X161110000Y-90470000D02*
X163780000Y-90470000D01*
X161110000Y-91740000D02*
X161110000Y-93140000D01*
X161110000Y-93140000D02*
X162510000Y-93140000D01*
X163780000Y-90470000D02*
X163780000Y-93140000D01*
X163780000Y-90470000D02*
X181690000Y-90470000D01*
X163780000Y-93140000D02*
X181690000Y-93140000D01*
X181690000Y-77640000D02*
X161110000Y-77640000D01*
X181690000Y-93140000D02*
X181690000Y-77640000D01*
%TO.C,C7*%
X153767380Y-72561000D02*
X154397380Y-72561000D01*
X154082380Y-72246000D02*
X154082380Y-72876000D01*
X157267621Y-71170000D02*
X157267621Y-77630000D01*
X157307621Y-71170000D02*
X157307621Y-77630000D01*
X157347621Y-71171000D02*
X157347621Y-77629000D01*
X157387621Y-71172000D02*
X157387621Y-77628000D01*
X157427621Y-71174000D02*
X157427621Y-77626000D01*
X157467621Y-71176000D02*
X157467621Y-77624000D01*
X157507621Y-71179000D02*
X157507621Y-73360000D01*
X157507621Y-75440000D02*
X157507621Y-77621000D01*
X157547621Y-71182000D02*
X157547621Y-73360000D01*
X157547621Y-75440000D02*
X157547621Y-77618000D01*
X157587621Y-71186000D02*
X157587621Y-73360000D01*
X157587621Y-75440000D02*
X157587621Y-77614000D01*
X157627621Y-71190000D02*
X157627621Y-73360000D01*
X157627621Y-75440000D02*
X157627621Y-77610000D01*
X157667621Y-71195000D02*
X157667621Y-73360000D01*
X157667621Y-75440000D02*
X157667621Y-77605000D01*
X157707621Y-71200000D02*
X157707621Y-73360000D01*
X157707621Y-75440000D02*
X157707621Y-77600000D01*
X157747621Y-71205000D02*
X157747621Y-73360000D01*
X157747621Y-75440000D02*
X157747621Y-77595000D01*
X157787621Y-71212000D02*
X157787621Y-73360000D01*
X157787621Y-75440000D02*
X157787621Y-77588000D01*
X157827621Y-71218000D02*
X157827621Y-73360000D01*
X157827621Y-75440000D02*
X157827621Y-77582000D01*
X157867621Y-71226000D02*
X157867621Y-73360000D01*
X157867621Y-75440000D02*
X157867621Y-77574000D01*
X157907621Y-71233000D02*
X157907621Y-73360000D01*
X157907621Y-75440000D02*
X157907621Y-77567000D01*
X157947621Y-71241000D02*
X157947621Y-73360000D01*
X157947621Y-75440000D02*
X157947621Y-77559000D01*
X157987621Y-71250000D02*
X157987621Y-73360000D01*
X157987621Y-75440000D02*
X157987621Y-77550000D01*
X158027621Y-71260000D02*
X158027621Y-73360000D01*
X158027621Y-75440000D02*
X158027621Y-77540000D01*
X158067621Y-71269000D02*
X158067621Y-73360000D01*
X158067621Y-75440000D02*
X158067621Y-77531000D01*
X158107621Y-71280000D02*
X158107621Y-73360000D01*
X158107621Y-75440000D02*
X158107621Y-77520000D01*
X158147621Y-71291000D02*
X158147621Y-73360000D01*
X158147621Y-75440000D02*
X158147621Y-77509000D01*
X158187621Y-71302000D02*
X158187621Y-73360000D01*
X158187621Y-75440000D02*
X158187621Y-77498000D01*
X158227621Y-71314000D02*
X158227621Y-73360000D01*
X158227621Y-75440000D02*
X158227621Y-77486000D01*
X158267621Y-71327000D02*
X158267621Y-73360000D01*
X158267621Y-75440000D02*
X158267621Y-77473000D01*
X158307621Y-71340000D02*
X158307621Y-73360000D01*
X158307621Y-75440000D02*
X158307621Y-77460000D01*
X158347621Y-71353000D02*
X158347621Y-73360000D01*
X158347621Y-75440000D02*
X158347621Y-77447000D01*
X158387621Y-71368000D02*
X158387621Y-73360000D01*
X158387621Y-75440000D02*
X158387621Y-77432000D01*
X158427621Y-71383000D02*
X158427621Y-73360000D01*
X158427621Y-75440000D02*
X158427621Y-77417000D01*
X158467621Y-71398000D02*
X158467621Y-73360000D01*
X158467621Y-75440000D02*
X158467621Y-77402000D01*
X158507621Y-71414000D02*
X158507621Y-73360000D01*
X158507621Y-75440000D02*
X158507621Y-77386000D01*
X158547621Y-71431000D02*
X158547621Y-73360000D01*
X158547621Y-75440000D02*
X158547621Y-77369000D01*
X158587621Y-71448000D02*
X158587621Y-73360000D01*
X158587621Y-75440000D02*
X158587621Y-77352000D01*
X158627621Y-71466000D02*
X158627621Y-73360000D01*
X158627621Y-75440000D02*
X158627621Y-77334000D01*
X158667621Y-71485000D02*
X158667621Y-73360000D01*
X158667621Y-75440000D02*
X158667621Y-77315000D01*
X158707621Y-71504000D02*
X158707621Y-73360000D01*
X158707621Y-75440000D02*
X158707621Y-77296000D01*
X158747621Y-71524000D02*
X158747621Y-73360000D01*
X158747621Y-75440000D02*
X158747621Y-77276000D01*
X158787621Y-71545000D02*
X158787621Y-73360000D01*
X158787621Y-75440000D02*
X158787621Y-77255000D01*
X158827621Y-71566000D02*
X158827621Y-73360000D01*
X158827621Y-75440000D02*
X158827621Y-77234000D01*
X158867621Y-71588000D02*
X158867621Y-73360000D01*
X158867621Y-75440000D02*
X158867621Y-77212000D01*
X158907621Y-71611000D02*
X158907621Y-73360000D01*
X158907621Y-75440000D02*
X158907621Y-77189000D01*
X158947621Y-71635000D02*
X158947621Y-73360000D01*
X158947621Y-75440000D02*
X158947621Y-77165000D01*
X158987621Y-71659000D02*
X158987621Y-73360000D01*
X158987621Y-75440000D02*
X158987621Y-77141000D01*
X159027621Y-71684000D02*
X159027621Y-73360000D01*
X159027621Y-75440000D02*
X159027621Y-77116000D01*
X159067621Y-71710000D02*
X159067621Y-73360000D01*
X159067621Y-75440000D02*
X159067621Y-77090000D01*
X159107621Y-71737000D02*
X159107621Y-73360000D01*
X159107621Y-75440000D02*
X159107621Y-77063000D01*
X159147621Y-71764000D02*
X159147621Y-73360000D01*
X159147621Y-75440000D02*
X159147621Y-77036000D01*
X159187621Y-71793000D02*
X159187621Y-73360000D01*
X159187621Y-75440000D02*
X159187621Y-77007000D01*
X159227621Y-71823000D02*
X159227621Y-73360000D01*
X159227621Y-75440000D02*
X159227621Y-76977000D01*
X159267621Y-71853000D02*
X159267621Y-73360000D01*
X159267621Y-75440000D02*
X159267621Y-76947000D01*
X159307621Y-71884000D02*
X159307621Y-73360000D01*
X159307621Y-75440000D02*
X159307621Y-76916000D01*
X159347621Y-71917000D02*
X159347621Y-73360000D01*
X159347621Y-75440000D02*
X159347621Y-76883000D01*
X159387621Y-71950000D02*
X159387621Y-73360000D01*
X159387621Y-75440000D02*
X159387621Y-76850000D01*
X159427621Y-71985000D02*
X159427621Y-73360000D01*
X159427621Y-75440000D02*
X159427621Y-76815000D01*
X159467621Y-72021000D02*
X159467621Y-73360000D01*
X159467621Y-75440000D02*
X159467621Y-76779000D01*
X159507621Y-72058000D02*
X159507621Y-73360000D01*
X159507621Y-75440000D02*
X159507621Y-76742000D01*
X159547621Y-72096000D02*
X159547621Y-73360000D01*
X159547621Y-75440000D02*
X159547621Y-76704000D01*
X159587621Y-72136000D02*
X159587621Y-76664000D01*
X159627621Y-72177000D02*
X159627621Y-76623000D01*
X159667621Y-72219000D02*
X159667621Y-76581000D01*
X159707621Y-72263000D02*
X159707621Y-76537000D01*
X159747621Y-72309000D02*
X159747621Y-76491000D01*
X159787621Y-72356000D02*
X159787621Y-76444000D01*
X159827621Y-72405000D02*
X159827621Y-76395000D01*
X159867621Y-72457000D02*
X159867621Y-76343000D01*
X159907621Y-72510000D02*
X159907621Y-76290000D01*
X159947621Y-72566000D02*
X159947621Y-76234000D01*
X159987621Y-72625000D02*
X159987621Y-76175000D01*
X160027621Y-72686000D02*
X160027621Y-76114000D01*
X160067621Y-72751000D02*
X160067621Y-76049000D01*
X160107621Y-72819000D02*
X160107621Y-75981000D01*
X160147621Y-72891000D02*
X160147621Y-75909000D01*
X160187621Y-72968000D02*
X160187621Y-75832000D01*
X160227621Y-73050000D02*
X160227621Y-75750000D01*
X160267621Y-73139000D02*
X160267621Y-75661000D01*
X160307621Y-73235000D02*
X160307621Y-75565000D01*
X160347621Y-73342000D02*
X160347621Y-75458000D01*
X160387621Y-73461000D02*
X160387621Y-75339000D01*
X160427621Y-73599000D02*
X160427621Y-75201000D01*
X160467621Y-73767000D02*
X160467621Y-75033000D01*
X160507621Y-73998000D02*
X160507621Y-74802000D01*
X160537621Y-74400000D02*
G75*
G02*
X153997621Y-74400000I-3270000J0D01*
G01*
X153997621Y-74400000D02*
G75*
G02*
X160537621Y-74400000I3270000J0D01*
G01*
%TO.C,A7*%
X102510000Y-59460000D02*
X102510000Y-74960000D01*
X102510000Y-74960000D02*
X123090000Y-74960000D01*
X120420000Y-59460000D02*
X102510000Y-59460000D01*
X120420000Y-62130000D02*
X102510000Y-62130000D01*
X120420000Y-62130000D02*
X120420000Y-59460000D01*
X123090000Y-59460000D02*
X121690000Y-59460000D01*
X123090000Y-60860000D02*
X123090000Y-59460000D01*
X123090000Y-62130000D02*
X120420000Y-62130000D01*
X123090000Y-72290000D02*
X102510000Y-72290000D01*
X123090000Y-74960000D02*
X123090000Y-62130000D01*
%TO.C,J1*%
X148475000Y-138480000D02*
X158875000Y-138480000D01*
X148475000Y-140600000D02*
X158875000Y-140600000D01*
X148475000Y-144600000D02*
X158875000Y-144600000D01*
X148475000Y-146720000D02*
X148475000Y-138480000D01*
X150835000Y-146720000D02*
X148475000Y-146720000D01*
X158875000Y-138480000D02*
X158875000Y-146720000D01*
X158875000Y-146720000D02*
X151435000Y-146720000D01*
X151135000Y-146720000D02*
X151575000Y-147330000D01*
X150695000Y-147330000D01*
X151135000Y-146720000D01*
G36*
X151575000Y-147330000D02*
G01*
X150695000Y-147330000D01*
X151135000Y-146720000D01*
X151575000Y-147330000D01*
G37*
%TO.C,A5*%
X102440000Y-95820000D02*
X102440000Y-111320000D01*
X102440000Y-111320000D02*
X123020000Y-111320000D01*
X120350000Y-95820000D02*
X102440000Y-95820000D01*
X120350000Y-98490000D02*
X102440000Y-98490000D01*
X120350000Y-98490000D02*
X120350000Y-95820000D01*
X123020000Y-95820000D02*
X121620000Y-95820000D01*
X123020000Y-97220000D02*
X123020000Y-95820000D01*
X123020000Y-98490000D02*
X120350000Y-98490000D01*
X123020000Y-108650000D02*
X102440000Y-108650000D01*
X123020000Y-111320000D02*
X123020000Y-98490000D01*
%TO.C,C2*%
X123449759Y-83561000D02*
X124079759Y-83561000D01*
X123764759Y-83246000D02*
X123764759Y-83876000D01*
X126950000Y-82170000D02*
X126950000Y-88630000D01*
X126990000Y-82170000D02*
X126990000Y-88630000D01*
X127030000Y-82171000D02*
X127030000Y-88629000D01*
X127070000Y-82172000D02*
X127070000Y-88628000D01*
X127110000Y-82174000D02*
X127110000Y-88626000D01*
X127150000Y-82176000D02*
X127150000Y-88624000D01*
X127190000Y-82179000D02*
X127190000Y-84360000D01*
X127190000Y-86440000D02*
X127190000Y-88621000D01*
X127230000Y-82182000D02*
X127230000Y-84360000D01*
X127230000Y-86440000D02*
X127230000Y-88618000D01*
X127270000Y-82186000D02*
X127270000Y-84360000D01*
X127270000Y-86440000D02*
X127270000Y-88614000D01*
X127310000Y-82190000D02*
X127310000Y-84360000D01*
X127310000Y-86440000D02*
X127310000Y-88610000D01*
X127350000Y-82195000D02*
X127350000Y-84360000D01*
X127350000Y-86440000D02*
X127350000Y-88605000D01*
X127390000Y-82200000D02*
X127390000Y-84360000D01*
X127390000Y-86440000D02*
X127390000Y-88600000D01*
X127430000Y-82205000D02*
X127430000Y-84360000D01*
X127430000Y-86440000D02*
X127430000Y-88595000D01*
X127470000Y-82212000D02*
X127470000Y-84360000D01*
X127470000Y-86440000D02*
X127470000Y-88588000D01*
X127510000Y-82218000D02*
X127510000Y-84360000D01*
X127510000Y-86440000D02*
X127510000Y-88582000D01*
X127550000Y-82226000D02*
X127550000Y-84360000D01*
X127550000Y-86440000D02*
X127550000Y-88574000D01*
X127590000Y-82233000D02*
X127590000Y-84360000D01*
X127590000Y-86440000D02*
X127590000Y-88567000D01*
X127630000Y-82241000D02*
X127630000Y-84360000D01*
X127630000Y-86440000D02*
X127630000Y-88559000D01*
X127670000Y-82250000D02*
X127670000Y-84360000D01*
X127670000Y-86440000D02*
X127670000Y-88550000D01*
X127710000Y-82260000D02*
X127710000Y-84360000D01*
X127710000Y-86440000D02*
X127710000Y-88540000D01*
X127750000Y-82269000D02*
X127750000Y-84360000D01*
X127750000Y-86440000D02*
X127750000Y-88531000D01*
X127790000Y-82280000D02*
X127790000Y-84360000D01*
X127790000Y-86440000D02*
X127790000Y-88520000D01*
X127830000Y-82291000D02*
X127830000Y-84360000D01*
X127830000Y-86440000D02*
X127830000Y-88509000D01*
X127870000Y-82302000D02*
X127870000Y-84360000D01*
X127870000Y-86440000D02*
X127870000Y-88498000D01*
X127910000Y-82314000D02*
X127910000Y-84360000D01*
X127910000Y-86440000D02*
X127910000Y-88486000D01*
X127950000Y-82327000D02*
X127950000Y-84360000D01*
X127950000Y-86440000D02*
X127950000Y-88473000D01*
X127990000Y-82340000D02*
X127990000Y-84360000D01*
X127990000Y-86440000D02*
X127990000Y-88460000D01*
X128030000Y-82353000D02*
X128030000Y-84360000D01*
X128030000Y-86440000D02*
X128030000Y-88447000D01*
X128070000Y-82368000D02*
X128070000Y-84360000D01*
X128070000Y-86440000D02*
X128070000Y-88432000D01*
X128110000Y-82383000D02*
X128110000Y-84360000D01*
X128110000Y-86440000D02*
X128110000Y-88417000D01*
X128150000Y-82398000D02*
X128150000Y-84360000D01*
X128150000Y-86440000D02*
X128150000Y-88402000D01*
X128190000Y-82414000D02*
X128190000Y-84360000D01*
X128190000Y-86440000D02*
X128190000Y-88386000D01*
X128230000Y-82431000D02*
X128230000Y-84360000D01*
X128230000Y-86440000D02*
X128230000Y-88369000D01*
X128270000Y-82448000D02*
X128270000Y-84360000D01*
X128270000Y-86440000D02*
X128270000Y-88352000D01*
X128310000Y-82466000D02*
X128310000Y-84360000D01*
X128310000Y-86440000D02*
X128310000Y-88334000D01*
X128350000Y-82485000D02*
X128350000Y-84360000D01*
X128350000Y-86440000D02*
X128350000Y-88315000D01*
X128390000Y-82504000D02*
X128390000Y-84360000D01*
X128390000Y-86440000D02*
X128390000Y-88296000D01*
X128430000Y-82524000D02*
X128430000Y-84360000D01*
X128430000Y-86440000D02*
X128430000Y-88276000D01*
X128470000Y-82545000D02*
X128470000Y-84360000D01*
X128470000Y-86440000D02*
X128470000Y-88255000D01*
X128510000Y-82566000D02*
X128510000Y-84360000D01*
X128510000Y-86440000D02*
X128510000Y-88234000D01*
X128550000Y-82588000D02*
X128550000Y-84360000D01*
X128550000Y-86440000D02*
X128550000Y-88212000D01*
X128590000Y-82611000D02*
X128590000Y-84360000D01*
X128590000Y-86440000D02*
X128590000Y-88189000D01*
X128630000Y-82635000D02*
X128630000Y-84360000D01*
X128630000Y-86440000D02*
X128630000Y-88165000D01*
X128670000Y-82659000D02*
X128670000Y-84360000D01*
X128670000Y-86440000D02*
X128670000Y-88141000D01*
X128710000Y-82684000D02*
X128710000Y-84360000D01*
X128710000Y-86440000D02*
X128710000Y-88116000D01*
X128750000Y-82710000D02*
X128750000Y-84360000D01*
X128750000Y-86440000D02*
X128750000Y-88090000D01*
X128790000Y-82737000D02*
X128790000Y-84360000D01*
X128790000Y-86440000D02*
X128790000Y-88063000D01*
X128830000Y-82764000D02*
X128830000Y-84360000D01*
X128830000Y-86440000D02*
X128830000Y-88036000D01*
X128870000Y-82793000D02*
X128870000Y-84360000D01*
X128870000Y-86440000D02*
X128870000Y-88007000D01*
X128910000Y-82823000D02*
X128910000Y-84360000D01*
X128910000Y-86440000D02*
X128910000Y-87977000D01*
X128950000Y-82853000D02*
X128950000Y-84360000D01*
X128950000Y-86440000D02*
X128950000Y-87947000D01*
X128990000Y-82884000D02*
X128990000Y-84360000D01*
X128990000Y-86440000D02*
X128990000Y-87916000D01*
X129030000Y-82917000D02*
X129030000Y-84360000D01*
X129030000Y-86440000D02*
X129030000Y-87883000D01*
X129070000Y-82950000D02*
X129070000Y-84360000D01*
X129070000Y-86440000D02*
X129070000Y-87850000D01*
X129110000Y-82985000D02*
X129110000Y-84360000D01*
X129110000Y-86440000D02*
X129110000Y-87815000D01*
X129150000Y-83021000D02*
X129150000Y-84360000D01*
X129150000Y-86440000D02*
X129150000Y-87779000D01*
X129190000Y-83058000D02*
X129190000Y-84360000D01*
X129190000Y-86440000D02*
X129190000Y-87742000D01*
X129230000Y-83096000D02*
X129230000Y-84360000D01*
X129230000Y-86440000D02*
X129230000Y-87704000D01*
X129270000Y-83136000D02*
X129270000Y-87664000D01*
X129310000Y-83177000D02*
X129310000Y-87623000D01*
X129350000Y-83219000D02*
X129350000Y-87581000D01*
X129390000Y-83263000D02*
X129390000Y-87537000D01*
X129430000Y-83309000D02*
X129430000Y-87491000D01*
X129470000Y-83356000D02*
X129470000Y-87444000D01*
X129510000Y-83405000D02*
X129510000Y-87395000D01*
X129550000Y-83457000D02*
X129550000Y-87343000D01*
X129590000Y-83510000D02*
X129590000Y-87290000D01*
X129630000Y-83566000D02*
X129630000Y-87234000D01*
X129670000Y-83625000D02*
X129670000Y-87175000D01*
X129710000Y-83686000D02*
X129710000Y-87114000D01*
X129750000Y-83751000D02*
X129750000Y-87049000D01*
X129790000Y-83819000D02*
X129790000Y-86981000D01*
X129830000Y-83891000D02*
X129830000Y-86909000D01*
X129870000Y-83968000D02*
X129870000Y-86832000D01*
X129910000Y-84050000D02*
X129910000Y-86750000D01*
X129950000Y-84139000D02*
X129950000Y-86661000D01*
X129990000Y-84235000D02*
X129990000Y-86565000D01*
X130030000Y-84342000D02*
X130030000Y-86458000D01*
X130070000Y-84461000D02*
X130070000Y-86339000D01*
X130110000Y-84599000D02*
X130110000Y-86201000D01*
X130150000Y-84767000D02*
X130150000Y-86033000D01*
X130190000Y-84998000D02*
X130190000Y-85802000D01*
X130220000Y-85400000D02*
G75*
G02*
X123680000Y-85400000I-3270000J0D01*
G01*
X123680000Y-85400000D02*
G75*
G02*
X130220000Y-85400000I3270000J0D01*
G01*
%TO.C,C8*%
X153649759Y-79961000D02*
X154279759Y-79961000D01*
X153964759Y-79646000D02*
X153964759Y-80276000D01*
X157150000Y-78570000D02*
X157150000Y-85030000D01*
X157190000Y-78570000D02*
X157190000Y-85030000D01*
X157230000Y-78571000D02*
X157230000Y-85029000D01*
X157270000Y-78572000D02*
X157270000Y-85028000D01*
X157310000Y-78574000D02*
X157310000Y-85026000D01*
X157350000Y-78576000D02*
X157350000Y-85024000D01*
X157390000Y-78579000D02*
X157390000Y-80760000D01*
X157390000Y-82840000D02*
X157390000Y-85021000D01*
X157430000Y-78582000D02*
X157430000Y-80760000D01*
X157430000Y-82840000D02*
X157430000Y-85018000D01*
X157470000Y-78586000D02*
X157470000Y-80760000D01*
X157470000Y-82840000D02*
X157470000Y-85014000D01*
X157510000Y-78590000D02*
X157510000Y-80760000D01*
X157510000Y-82840000D02*
X157510000Y-85010000D01*
X157550000Y-78595000D02*
X157550000Y-80760000D01*
X157550000Y-82840000D02*
X157550000Y-85005000D01*
X157590000Y-78600000D02*
X157590000Y-80760000D01*
X157590000Y-82840000D02*
X157590000Y-85000000D01*
X157630000Y-78605000D02*
X157630000Y-80760000D01*
X157630000Y-82840000D02*
X157630000Y-84995000D01*
X157670000Y-78612000D02*
X157670000Y-80760000D01*
X157670000Y-82840000D02*
X157670000Y-84988000D01*
X157710000Y-78618000D02*
X157710000Y-80760000D01*
X157710000Y-82840000D02*
X157710000Y-84982000D01*
X157750000Y-78626000D02*
X157750000Y-80760000D01*
X157750000Y-82840000D02*
X157750000Y-84974000D01*
X157790000Y-78633000D02*
X157790000Y-80760000D01*
X157790000Y-82840000D02*
X157790000Y-84967000D01*
X157830000Y-78641000D02*
X157830000Y-80760000D01*
X157830000Y-82840000D02*
X157830000Y-84959000D01*
X157870000Y-78650000D02*
X157870000Y-80760000D01*
X157870000Y-82840000D02*
X157870000Y-84950000D01*
X157910000Y-78660000D02*
X157910000Y-80760000D01*
X157910000Y-82840000D02*
X157910000Y-84940000D01*
X157950000Y-78669000D02*
X157950000Y-80760000D01*
X157950000Y-82840000D02*
X157950000Y-84931000D01*
X157990000Y-78680000D02*
X157990000Y-80760000D01*
X157990000Y-82840000D02*
X157990000Y-84920000D01*
X158030000Y-78691000D02*
X158030000Y-80760000D01*
X158030000Y-82840000D02*
X158030000Y-84909000D01*
X158070000Y-78702000D02*
X158070000Y-80760000D01*
X158070000Y-82840000D02*
X158070000Y-84898000D01*
X158110000Y-78714000D02*
X158110000Y-80760000D01*
X158110000Y-82840000D02*
X158110000Y-84886000D01*
X158150000Y-78727000D02*
X158150000Y-80760000D01*
X158150000Y-82840000D02*
X158150000Y-84873000D01*
X158190000Y-78740000D02*
X158190000Y-80760000D01*
X158190000Y-82840000D02*
X158190000Y-84860000D01*
X158230000Y-78753000D02*
X158230000Y-80760000D01*
X158230000Y-82840000D02*
X158230000Y-84847000D01*
X158270000Y-78768000D02*
X158270000Y-80760000D01*
X158270000Y-82840000D02*
X158270000Y-84832000D01*
X158310000Y-78783000D02*
X158310000Y-80760000D01*
X158310000Y-82840000D02*
X158310000Y-84817000D01*
X158350000Y-78798000D02*
X158350000Y-80760000D01*
X158350000Y-82840000D02*
X158350000Y-84802000D01*
X158390000Y-78814000D02*
X158390000Y-80760000D01*
X158390000Y-82840000D02*
X158390000Y-84786000D01*
X158430000Y-78831000D02*
X158430000Y-80760000D01*
X158430000Y-82840000D02*
X158430000Y-84769000D01*
X158470000Y-78848000D02*
X158470000Y-80760000D01*
X158470000Y-82840000D02*
X158470000Y-84752000D01*
X158510000Y-78866000D02*
X158510000Y-80760000D01*
X158510000Y-82840000D02*
X158510000Y-84734000D01*
X158550000Y-78885000D02*
X158550000Y-80760000D01*
X158550000Y-82840000D02*
X158550000Y-84715000D01*
X158590000Y-78904000D02*
X158590000Y-80760000D01*
X158590000Y-82840000D02*
X158590000Y-84696000D01*
X158630000Y-78924000D02*
X158630000Y-80760000D01*
X158630000Y-82840000D02*
X158630000Y-84676000D01*
X158670000Y-78945000D02*
X158670000Y-80760000D01*
X158670000Y-82840000D02*
X158670000Y-84655000D01*
X158710000Y-78966000D02*
X158710000Y-80760000D01*
X158710000Y-82840000D02*
X158710000Y-84634000D01*
X158750000Y-78988000D02*
X158750000Y-80760000D01*
X158750000Y-82840000D02*
X158750000Y-84612000D01*
X158790000Y-79011000D02*
X158790000Y-80760000D01*
X158790000Y-82840000D02*
X158790000Y-84589000D01*
X158830000Y-79035000D02*
X158830000Y-80760000D01*
X158830000Y-82840000D02*
X158830000Y-84565000D01*
X158870000Y-79059000D02*
X158870000Y-80760000D01*
X158870000Y-82840000D02*
X158870000Y-84541000D01*
X158910000Y-79084000D02*
X158910000Y-80760000D01*
X158910000Y-82840000D02*
X158910000Y-84516000D01*
X158950000Y-79110000D02*
X158950000Y-80760000D01*
X158950000Y-82840000D02*
X158950000Y-84490000D01*
X158990000Y-79137000D02*
X158990000Y-80760000D01*
X158990000Y-82840000D02*
X158990000Y-84463000D01*
X159030000Y-79164000D02*
X159030000Y-80760000D01*
X159030000Y-82840000D02*
X159030000Y-84436000D01*
X159070000Y-79193000D02*
X159070000Y-80760000D01*
X159070000Y-82840000D02*
X159070000Y-84407000D01*
X159110000Y-79223000D02*
X159110000Y-80760000D01*
X159110000Y-82840000D02*
X159110000Y-84377000D01*
X159150000Y-79253000D02*
X159150000Y-80760000D01*
X159150000Y-82840000D02*
X159150000Y-84347000D01*
X159190000Y-79284000D02*
X159190000Y-80760000D01*
X159190000Y-82840000D02*
X159190000Y-84316000D01*
X159230000Y-79317000D02*
X159230000Y-80760000D01*
X159230000Y-82840000D02*
X159230000Y-84283000D01*
X159270000Y-79350000D02*
X159270000Y-80760000D01*
X159270000Y-82840000D02*
X159270000Y-84250000D01*
X159310000Y-79385000D02*
X159310000Y-80760000D01*
X159310000Y-82840000D02*
X159310000Y-84215000D01*
X159350000Y-79421000D02*
X159350000Y-80760000D01*
X159350000Y-82840000D02*
X159350000Y-84179000D01*
X159390000Y-79458000D02*
X159390000Y-80760000D01*
X159390000Y-82840000D02*
X159390000Y-84142000D01*
X159430000Y-79496000D02*
X159430000Y-80760000D01*
X159430000Y-82840000D02*
X159430000Y-84104000D01*
X159470000Y-79536000D02*
X159470000Y-84064000D01*
X159510000Y-79577000D02*
X159510000Y-84023000D01*
X159550000Y-79619000D02*
X159550000Y-83981000D01*
X159590000Y-79663000D02*
X159590000Y-83937000D01*
X159630000Y-79709000D02*
X159630000Y-83891000D01*
X159670000Y-79756000D02*
X159670000Y-83844000D01*
X159710000Y-79805000D02*
X159710000Y-83795000D01*
X159750000Y-79857000D02*
X159750000Y-83743000D01*
X159790000Y-79910000D02*
X159790000Y-83690000D01*
X159830000Y-79966000D02*
X159830000Y-83634000D01*
X159870000Y-80025000D02*
X159870000Y-83575000D01*
X159910000Y-80086000D02*
X159910000Y-83514000D01*
X159950000Y-80151000D02*
X159950000Y-83449000D01*
X159990000Y-80219000D02*
X159990000Y-83381000D01*
X160030000Y-80291000D02*
X160030000Y-83309000D01*
X160070000Y-80368000D02*
X160070000Y-83232000D01*
X160110000Y-80450000D02*
X160110000Y-83150000D01*
X160150000Y-80539000D02*
X160150000Y-83061000D01*
X160190000Y-80635000D02*
X160190000Y-82965000D01*
X160230000Y-80742000D02*
X160230000Y-82858000D01*
X160270000Y-80861000D02*
X160270000Y-82739000D01*
X160310000Y-80999000D02*
X160310000Y-82601000D01*
X160350000Y-81167000D02*
X160350000Y-82433000D01*
X160390000Y-81398000D02*
X160390000Y-82202000D01*
X160420000Y-81800000D02*
G75*
G02*
X153880000Y-81800000I-3270000J0D01*
G01*
X153880000Y-81800000D02*
G75*
G02*
X160420000Y-81800000I3270000J0D01*
G01*
%TO.C,J2*%
X182990000Y-60540000D02*
X182990000Y-63040000D01*
X184790000Y-60840000D02*
X184790000Y-61840000D01*
X184790000Y-61840000D02*
X183290000Y-61840000D01*
X184790000Y-72560000D02*
X183290000Y-72560000D01*
X184790000Y-73560000D02*
X184790000Y-72560000D01*
X185490000Y-60540000D02*
X182990000Y-60540000D01*
X185600000Y-60840000D02*
X185600000Y-61340000D01*
X185600000Y-61340000D02*
X186810000Y-61340000D01*
X185600000Y-73060000D02*
X185600000Y-73560000D01*
X186810000Y-61340000D02*
X186810000Y-73060000D01*
X186810000Y-73060000D02*
X185600000Y-73060000D01*
X183290000Y-60840000D02*
X187310000Y-60840000D01*
X187310000Y-73560000D01*
X183290000Y-73560000D01*
X183290000Y-60840000D01*
%TO.C,C6*%
X153449759Y-100761000D02*
X154079759Y-100761000D01*
X153764759Y-100446000D02*
X153764759Y-101076000D01*
X156950000Y-99370000D02*
X156950000Y-105830000D01*
X156990000Y-99370000D02*
X156990000Y-105830000D01*
X157030000Y-99371000D02*
X157030000Y-105829000D01*
X157070000Y-99372000D02*
X157070000Y-105828000D01*
X157110000Y-99374000D02*
X157110000Y-105826000D01*
X157150000Y-99376000D02*
X157150000Y-105824000D01*
X157190000Y-99379000D02*
X157190000Y-101560000D01*
X157190000Y-103640000D02*
X157190000Y-105821000D01*
X157230000Y-99382000D02*
X157230000Y-101560000D01*
X157230000Y-103640000D02*
X157230000Y-105818000D01*
X157270000Y-99386000D02*
X157270000Y-101560000D01*
X157270000Y-103640000D02*
X157270000Y-105814000D01*
X157310000Y-99390000D02*
X157310000Y-101560000D01*
X157310000Y-103640000D02*
X157310000Y-105810000D01*
X157350000Y-99395000D02*
X157350000Y-101560000D01*
X157350000Y-103640000D02*
X157350000Y-105805000D01*
X157390000Y-99400000D02*
X157390000Y-101560000D01*
X157390000Y-103640000D02*
X157390000Y-105800000D01*
X157430000Y-99405000D02*
X157430000Y-101560000D01*
X157430000Y-103640000D02*
X157430000Y-105795000D01*
X157470000Y-99412000D02*
X157470000Y-101560000D01*
X157470000Y-103640000D02*
X157470000Y-105788000D01*
X157510000Y-99418000D02*
X157510000Y-101560000D01*
X157510000Y-103640000D02*
X157510000Y-105782000D01*
X157550000Y-99426000D02*
X157550000Y-101560000D01*
X157550000Y-103640000D02*
X157550000Y-105774000D01*
X157590000Y-99433000D02*
X157590000Y-101560000D01*
X157590000Y-103640000D02*
X157590000Y-105767000D01*
X157630000Y-99441000D02*
X157630000Y-101560000D01*
X157630000Y-103640000D02*
X157630000Y-105759000D01*
X157670000Y-99450000D02*
X157670000Y-101560000D01*
X157670000Y-103640000D02*
X157670000Y-105750000D01*
X157710000Y-99460000D02*
X157710000Y-101560000D01*
X157710000Y-103640000D02*
X157710000Y-105740000D01*
X157750000Y-99469000D02*
X157750000Y-101560000D01*
X157750000Y-103640000D02*
X157750000Y-105731000D01*
X157790000Y-99480000D02*
X157790000Y-101560000D01*
X157790000Y-103640000D02*
X157790000Y-105720000D01*
X157830000Y-99491000D02*
X157830000Y-101560000D01*
X157830000Y-103640000D02*
X157830000Y-105709000D01*
X157870000Y-99502000D02*
X157870000Y-101560000D01*
X157870000Y-103640000D02*
X157870000Y-105698000D01*
X157910000Y-99514000D02*
X157910000Y-101560000D01*
X157910000Y-103640000D02*
X157910000Y-105686000D01*
X157950000Y-99527000D02*
X157950000Y-101560000D01*
X157950000Y-103640000D02*
X157950000Y-105673000D01*
X157990000Y-99540000D02*
X157990000Y-101560000D01*
X157990000Y-103640000D02*
X157990000Y-105660000D01*
X158030000Y-99553000D02*
X158030000Y-101560000D01*
X158030000Y-103640000D02*
X158030000Y-105647000D01*
X158070000Y-99568000D02*
X158070000Y-101560000D01*
X158070000Y-103640000D02*
X158070000Y-105632000D01*
X158110000Y-99583000D02*
X158110000Y-101560000D01*
X158110000Y-103640000D02*
X158110000Y-105617000D01*
X158150000Y-99598000D02*
X158150000Y-101560000D01*
X158150000Y-103640000D02*
X158150000Y-105602000D01*
X158190000Y-99614000D02*
X158190000Y-101560000D01*
X158190000Y-103640000D02*
X158190000Y-105586000D01*
X158230000Y-99631000D02*
X158230000Y-101560000D01*
X158230000Y-103640000D02*
X158230000Y-105569000D01*
X158270000Y-99648000D02*
X158270000Y-101560000D01*
X158270000Y-103640000D02*
X158270000Y-105552000D01*
X158310000Y-99666000D02*
X158310000Y-101560000D01*
X158310000Y-103640000D02*
X158310000Y-105534000D01*
X158350000Y-99685000D02*
X158350000Y-101560000D01*
X158350000Y-103640000D02*
X158350000Y-105515000D01*
X158390000Y-99704000D02*
X158390000Y-101560000D01*
X158390000Y-103640000D02*
X158390000Y-105496000D01*
X158430000Y-99724000D02*
X158430000Y-101560000D01*
X158430000Y-103640000D02*
X158430000Y-105476000D01*
X158470000Y-99745000D02*
X158470000Y-101560000D01*
X158470000Y-103640000D02*
X158470000Y-105455000D01*
X158510000Y-99766000D02*
X158510000Y-101560000D01*
X158510000Y-103640000D02*
X158510000Y-105434000D01*
X158550000Y-99788000D02*
X158550000Y-101560000D01*
X158550000Y-103640000D02*
X158550000Y-105412000D01*
X158590000Y-99811000D02*
X158590000Y-101560000D01*
X158590000Y-103640000D02*
X158590000Y-105389000D01*
X158630000Y-99835000D02*
X158630000Y-101560000D01*
X158630000Y-103640000D02*
X158630000Y-105365000D01*
X158670000Y-99859000D02*
X158670000Y-101560000D01*
X158670000Y-103640000D02*
X158670000Y-105341000D01*
X158710000Y-99884000D02*
X158710000Y-101560000D01*
X158710000Y-103640000D02*
X158710000Y-105316000D01*
X158750000Y-99910000D02*
X158750000Y-101560000D01*
X158750000Y-103640000D02*
X158750000Y-105290000D01*
X158790000Y-99937000D02*
X158790000Y-101560000D01*
X158790000Y-103640000D02*
X158790000Y-105263000D01*
X158830000Y-99964000D02*
X158830000Y-101560000D01*
X158830000Y-103640000D02*
X158830000Y-105236000D01*
X158870000Y-99993000D02*
X158870000Y-101560000D01*
X158870000Y-103640000D02*
X158870000Y-105207000D01*
X158910000Y-100023000D02*
X158910000Y-101560000D01*
X158910000Y-103640000D02*
X158910000Y-105177000D01*
X158950000Y-100053000D02*
X158950000Y-101560000D01*
X158950000Y-103640000D02*
X158950000Y-105147000D01*
X158990000Y-100084000D02*
X158990000Y-101560000D01*
X158990000Y-103640000D02*
X158990000Y-105116000D01*
X159030000Y-100117000D02*
X159030000Y-101560000D01*
X159030000Y-103640000D02*
X159030000Y-105083000D01*
X159070000Y-100150000D02*
X159070000Y-101560000D01*
X159070000Y-103640000D02*
X159070000Y-105050000D01*
X159110000Y-100185000D02*
X159110000Y-101560000D01*
X159110000Y-103640000D02*
X159110000Y-105015000D01*
X159150000Y-100221000D02*
X159150000Y-101560000D01*
X159150000Y-103640000D02*
X159150000Y-104979000D01*
X159190000Y-100258000D02*
X159190000Y-101560000D01*
X159190000Y-103640000D02*
X159190000Y-104942000D01*
X159230000Y-100296000D02*
X159230000Y-101560000D01*
X159230000Y-103640000D02*
X159230000Y-104904000D01*
X159270000Y-100336000D02*
X159270000Y-104864000D01*
X159310000Y-100377000D02*
X159310000Y-104823000D01*
X159350000Y-100419000D02*
X159350000Y-104781000D01*
X159390000Y-100463000D02*
X159390000Y-104737000D01*
X159430000Y-100509000D02*
X159430000Y-104691000D01*
X159470000Y-100556000D02*
X159470000Y-104644000D01*
X159510000Y-100605000D02*
X159510000Y-104595000D01*
X159550000Y-100657000D02*
X159550000Y-104543000D01*
X159590000Y-100710000D02*
X159590000Y-104490000D01*
X159630000Y-100766000D02*
X159630000Y-104434000D01*
X159670000Y-100825000D02*
X159670000Y-104375000D01*
X159710000Y-100886000D02*
X159710000Y-104314000D01*
X159750000Y-100951000D02*
X159750000Y-104249000D01*
X159790000Y-101019000D02*
X159790000Y-104181000D01*
X159830000Y-101091000D02*
X159830000Y-104109000D01*
X159870000Y-101168000D02*
X159870000Y-104032000D01*
X159910000Y-101250000D02*
X159910000Y-103950000D01*
X159950000Y-101339000D02*
X159950000Y-103861000D01*
X159990000Y-101435000D02*
X159990000Y-103765000D01*
X160030000Y-101542000D02*
X160030000Y-103658000D01*
X160070000Y-101661000D02*
X160070000Y-103539000D01*
X160110000Y-101799000D02*
X160110000Y-103401000D01*
X160150000Y-101967000D02*
X160150000Y-103233000D01*
X160190000Y-102198000D02*
X160190000Y-103002000D01*
X160220000Y-102600000D02*
G75*
G02*
X153680000Y-102600000I-3270000J0D01*
G01*
X153680000Y-102600000D02*
G75*
G02*
X160220000Y-102600000I3270000J0D01*
G01*
%TO.C,J14*%
X159860000Y-138480000D02*
X170260000Y-138480000D01*
X159860000Y-140600000D02*
X170260000Y-140600000D01*
X159860000Y-144600000D02*
X170260000Y-144600000D01*
X159860000Y-146720000D02*
X159860000Y-138480000D01*
X162220000Y-146720000D02*
X159860000Y-146720000D01*
X170260000Y-138480000D02*
X170260000Y-146720000D01*
X170260000Y-146720000D02*
X162820000Y-146720000D01*
X162520000Y-146720000D02*
X162960000Y-147330000D01*
X162080000Y-147330000D01*
X162520000Y-146720000D01*
G36*
X162960000Y-147330000D02*
G01*
X162080000Y-147330000D01*
X162520000Y-146720000D01*
X162960000Y-147330000D01*
G37*
%TO.C,J13*%
X125660000Y-138480000D02*
X136060000Y-138480000D01*
X125660000Y-140600000D02*
X136060000Y-140600000D01*
X125660000Y-144600000D02*
X136060000Y-144600000D01*
X125660000Y-146720000D02*
X125660000Y-138480000D01*
X128020000Y-146720000D02*
X125660000Y-146720000D01*
X136060000Y-138480000D02*
X136060000Y-146720000D01*
X136060000Y-146720000D02*
X128620000Y-146720000D01*
X128320000Y-146720000D02*
X128760000Y-147330000D01*
X127880000Y-147330000D01*
X128320000Y-146720000D01*
G36*
X128760000Y-147330000D02*
G01*
X127880000Y-147330000D01*
X128320000Y-146720000D01*
X128760000Y-147330000D01*
G37*
%TO.C,C5*%
X153849759Y-87361000D02*
X154479759Y-87361000D01*
X154164759Y-87046000D02*
X154164759Y-87676000D01*
X157350000Y-85970000D02*
X157350000Y-92430000D01*
X157390000Y-85970000D02*
X157390000Y-92430000D01*
X157430000Y-85971000D02*
X157430000Y-92429000D01*
X157470000Y-85972000D02*
X157470000Y-92428000D01*
X157510000Y-85974000D02*
X157510000Y-92426000D01*
X157550000Y-85976000D02*
X157550000Y-92424000D01*
X157590000Y-85979000D02*
X157590000Y-88160000D01*
X157590000Y-90240000D02*
X157590000Y-92421000D01*
X157630000Y-85982000D02*
X157630000Y-88160000D01*
X157630000Y-90240000D02*
X157630000Y-92418000D01*
X157670000Y-85986000D02*
X157670000Y-88160000D01*
X157670000Y-90240000D02*
X157670000Y-92414000D01*
X157710000Y-85990000D02*
X157710000Y-88160000D01*
X157710000Y-90240000D02*
X157710000Y-92410000D01*
X157750000Y-85995000D02*
X157750000Y-88160000D01*
X157750000Y-90240000D02*
X157750000Y-92405000D01*
X157790000Y-86000000D02*
X157790000Y-88160000D01*
X157790000Y-90240000D02*
X157790000Y-92400000D01*
X157830000Y-86005000D02*
X157830000Y-88160000D01*
X157830000Y-90240000D02*
X157830000Y-92395000D01*
X157870000Y-86012000D02*
X157870000Y-88160000D01*
X157870000Y-90240000D02*
X157870000Y-92388000D01*
X157910000Y-86018000D02*
X157910000Y-88160000D01*
X157910000Y-90240000D02*
X157910000Y-92382000D01*
X157950000Y-86026000D02*
X157950000Y-88160000D01*
X157950000Y-90240000D02*
X157950000Y-92374000D01*
X157990000Y-86033000D02*
X157990000Y-88160000D01*
X157990000Y-90240000D02*
X157990000Y-92367000D01*
X158030000Y-86041000D02*
X158030000Y-88160000D01*
X158030000Y-90240000D02*
X158030000Y-92359000D01*
X158070000Y-86050000D02*
X158070000Y-88160000D01*
X158070000Y-90240000D02*
X158070000Y-92350000D01*
X158110000Y-86060000D02*
X158110000Y-88160000D01*
X158110000Y-90240000D02*
X158110000Y-92340000D01*
X158150000Y-86069000D02*
X158150000Y-88160000D01*
X158150000Y-90240000D02*
X158150000Y-92331000D01*
X158190000Y-86080000D02*
X158190000Y-88160000D01*
X158190000Y-90240000D02*
X158190000Y-92320000D01*
X158230000Y-86091000D02*
X158230000Y-88160000D01*
X158230000Y-90240000D02*
X158230000Y-92309000D01*
X158270000Y-86102000D02*
X158270000Y-88160000D01*
X158270000Y-90240000D02*
X158270000Y-92298000D01*
X158310000Y-86114000D02*
X158310000Y-88160000D01*
X158310000Y-90240000D02*
X158310000Y-92286000D01*
X158350000Y-86127000D02*
X158350000Y-88160000D01*
X158350000Y-90240000D02*
X158350000Y-92273000D01*
X158390000Y-86140000D02*
X158390000Y-88160000D01*
X158390000Y-90240000D02*
X158390000Y-92260000D01*
X158430000Y-86153000D02*
X158430000Y-88160000D01*
X158430000Y-90240000D02*
X158430000Y-92247000D01*
X158470000Y-86168000D02*
X158470000Y-88160000D01*
X158470000Y-90240000D02*
X158470000Y-92232000D01*
X158510000Y-86183000D02*
X158510000Y-88160000D01*
X158510000Y-90240000D02*
X158510000Y-92217000D01*
X158550000Y-86198000D02*
X158550000Y-88160000D01*
X158550000Y-90240000D02*
X158550000Y-92202000D01*
X158590000Y-86214000D02*
X158590000Y-88160000D01*
X158590000Y-90240000D02*
X158590000Y-92186000D01*
X158630000Y-86231000D02*
X158630000Y-88160000D01*
X158630000Y-90240000D02*
X158630000Y-92169000D01*
X158670000Y-86248000D02*
X158670000Y-88160000D01*
X158670000Y-90240000D02*
X158670000Y-92152000D01*
X158710000Y-86266000D02*
X158710000Y-88160000D01*
X158710000Y-90240000D02*
X158710000Y-92134000D01*
X158750000Y-86285000D02*
X158750000Y-88160000D01*
X158750000Y-90240000D02*
X158750000Y-92115000D01*
X158790000Y-86304000D02*
X158790000Y-88160000D01*
X158790000Y-90240000D02*
X158790000Y-92096000D01*
X158830000Y-86324000D02*
X158830000Y-88160000D01*
X158830000Y-90240000D02*
X158830000Y-92076000D01*
X158870000Y-86345000D02*
X158870000Y-88160000D01*
X158870000Y-90240000D02*
X158870000Y-92055000D01*
X158910000Y-86366000D02*
X158910000Y-88160000D01*
X158910000Y-90240000D02*
X158910000Y-92034000D01*
X158950000Y-86388000D02*
X158950000Y-88160000D01*
X158950000Y-90240000D02*
X158950000Y-92012000D01*
X158990000Y-86411000D02*
X158990000Y-88160000D01*
X158990000Y-90240000D02*
X158990000Y-91989000D01*
X159030000Y-86435000D02*
X159030000Y-88160000D01*
X159030000Y-90240000D02*
X159030000Y-91965000D01*
X159070000Y-86459000D02*
X159070000Y-88160000D01*
X159070000Y-90240000D02*
X159070000Y-91941000D01*
X159110000Y-86484000D02*
X159110000Y-88160000D01*
X159110000Y-90240000D02*
X159110000Y-91916000D01*
X159150000Y-86510000D02*
X159150000Y-88160000D01*
X159150000Y-90240000D02*
X159150000Y-91890000D01*
X159190000Y-86537000D02*
X159190000Y-88160000D01*
X159190000Y-90240000D02*
X159190000Y-91863000D01*
X159230000Y-86564000D02*
X159230000Y-88160000D01*
X159230000Y-90240000D02*
X159230000Y-91836000D01*
X159270000Y-86593000D02*
X159270000Y-88160000D01*
X159270000Y-90240000D02*
X159270000Y-91807000D01*
X159310000Y-86623000D02*
X159310000Y-88160000D01*
X159310000Y-90240000D02*
X159310000Y-91777000D01*
X159350000Y-86653000D02*
X159350000Y-88160000D01*
X159350000Y-90240000D02*
X159350000Y-91747000D01*
X159390000Y-86684000D02*
X159390000Y-88160000D01*
X159390000Y-90240000D02*
X159390000Y-91716000D01*
X159430000Y-86717000D02*
X159430000Y-88160000D01*
X159430000Y-90240000D02*
X159430000Y-91683000D01*
X159470000Y-86750000D02*
X159470000Y-88160000D01*
X159470000Y-90240000D02*
X159470000Y-91650000D01*
X159510000Y-86785000D02*
X159510000Y-88160000D01*
X159510000Y-90240000D02*
X159510000Y-91615000D01*
X159550000Y-86821000D02*
X159550000Y-88160000D01*
X159550000Y-90240000D02*
X159550000Y-91579000D01*
X159590000Y-86858000D02*
X159590000Y-88160000D01*
X159590000Y-90240000D02*
X159590000Y-91542000D01*
X159630000Y-86896000D02*
X159630000Y-88160000D01*
X159630000Y-90240000D02*
X159630000Y-91504000D01*
X159670000Y-86936000D02*
X159670000Y-91464000D01*
X159710000Y-86977000D02*
X159710000Y-91423000D01*
X159750000Y-87019000D02*
X159750000Y-91381000D01*
X159790000Y-87063000D02*
X159790000Y-91337000D01*
X159830000Y-87109000D02*
X159830000Y-91291000D01*
X159870000Y-87156000D02*
X159870000Y-91244000D01*
X159910000Y-87205000D02*
X159910000Y-91195000D01*
X159950000Y-87257000D02*
X159950000Y-91143000D01*
X159990000Y-87310000D02*
X159990000Y-91090000D01*
X160030000Y-87366000D02*
X160030000Y-91034000D01*
X160070000Y-87425000D02*
X160070000Y-90975000D01*
X160110000Y-87486000D02*
X160110000Y-90914000D01*
X160150000Y-87551000D02*
X160150000Y-90849000D01*
X160190000Y-87619000D02*
X160190000Y-90781000D01*
X160230000Y-87691000D02*
X160230000Y-90709000D01*
X160270000Y-87768000D02*
X160270000Y-90632000D01*
X160310000Y-87850000D02*
X160310000Y-90550000D01*
X160350000Y-87939000D02*
X160350000Y-90461000D01*
X160390000Y-88035000D02*
X160390000Y-90365000D01*
X160430000Y-88142000D02*
X160430000Y-90258000D01*
X160470000Y-88261000D02*
X160470000Y-90139000D01*
X160510000Y-88399000D02*
X160510000Y-90001000D01*
X160550000Y-88567000D02*
X160550000Y-89833000D01*
X160590000Y-88798000D02*
X160590000Y-89602000D01*
X160620000Y-89200000D02*
G75*
G02*
X154080000Y-89200000I-3270000J0D01*
G01*
X154080000Y-89200000D02*
G75*
G02*
X160620000Y-89200000I3270000J0D01*
G01*
%TO.C,C4*%
X153849759Y-64961000D02*
X154479759Y-64961000D01*
X154164759Y-64646000D02*
X154164759Y-65276000D01*
X157350000Y-63570000D02*
X157350000Y-70030000D01*
X157390000Y-63570000D02*
X157390000Y-70030000D01*
X157430000Y-63571000D02*
X157430000Y-70029000D01*
X157470000Y-63572000D02*
X157470000Y-70028000D01*
X157510000Y-63574000D02*
X157510000Y-70026000D01*
X157550000Y-63576000D02*
X157550000Y-70024000D01*
X157590000Y-63579000D02*
X157590000Y-65760000D01*
X157590000Y-67840000D02*
X157590000Y-70021000D01*
X157630000Y-63582000D02*
X157630000Y-65760000D01*
X157630000Y-67840000D02*
X157630000Y-70018000D01*
X157670000Y-63586000D02*
X157670000Y-65760000D01*
X157670000Y-67840000D02*
X157670000Y-70014000D01*
X157710000Y-63590000D02*
X157710000Y-65760000D01*
X157710000Y-67840000D02*
X157710000Y-70010000D01*
X157750000Y-63595000D02*
X157750000Y-65760000D01*
X157750000Y-67840000D02*
X157750000Y-70005000D01*
X157790000Y-63600000D02*
X157790000Y-65760000D01*
X157790000Y-67840000D02*
X157790000Y-70000000D01*
X157830000Y-63605000D02*
X157830000Y-65760000D01*
X157830000Y-67840000D02*
X157830000Y-69995000D01*
X157870000Y-63612000D02*
X157870000Y-65760000D01*
X157870000Y-67840000D02*
X157870000Y-69988000D01*
X157910000Y-63618000D02*
X157910000Y-65760000D01*
X157910000Y-67840000D02*
X157910000Y-69982000D01*
X157950000Y-63626000D02*
X157950000Y-65760000D01*
X157950000Y-67840000D02*
X157950000Y-69974000D01*
X157990000Y-63633000D02*
X157990000Y-65760000D01*
X157990000Y-67840000D02*
X157990000Y-69967000D01*
X158030000Y-63641000D02*
X158030000Y-65760000D01*
X158030000Y-67840000D02*
X158030000Y-69959000D01*
X158070000Y-63650000D02*
X158070000Y-65760000D01*
X158070000Y-67840000D02*
X158070000Y-69950000D01*
X158110000Y-63660000D02*
X158110000Y-65760000D01*
X158110000Y-67840000D02*
X158110000Y-69940000D01*
X158150000Y-63669000D02*
X158150000Y-65760000D01*
X158150000Y-67840000D02*
X158150000Y-69931000D01*
X158190000Y-63680000D02*
X158190000Y-65760000D01*
X158190000Y-67840000D02*
X158190000Y-69920000D01*
X158230000Y-63691000D02*
X158230000Y-65760000D01*
X158230000Y-67840000D02*
X158230000Y-69909000D01*
X158270000Y-63702000D02*
X158270000Y-65760000D01*
X158270000Y-67840000D02*
X158270000Y-69898000D01*
X158310000Y-63714000D02*
X158310000Y-65760000D01*
X158310000Y-67840000D02*
X158310000Y-69886000D01*
X158350000Y-63727000D02*
X158350000Y-65760000D01*
X158350000Y-67840000D02*
X158350000Y-69873000D01*
X158390000Y-63740000D02*
X158390000Y-65760000D01*
X158390000Y-67840000D02*
X158390000Y-69860000D01*
X158430000Y-63753000D02*
X158430000Y-65760000D01*
X158430000Y-67840000D02*
X158430000Y-69847000D01*
X158470000Y-63768000D02*
X158470000Y-65760000D01*
X158470000Y-67840000D02*
X158470000Y-69832000D01*
X158510000Y-63783000D02*
X158510000Y-65760000D01*
X158510000Y-67840000D02*
X158510000Y-69817000D01*
X158550000Y-63798000D02*
X158550000Y-65760000D01*
X158550000Y-67840000D02*
X158550000Y-69802000D01*
X158590000Y-63814000D02*
X158590000Y-65760000D01*
X158590000Y-67840000D02*
X158590000Y-69786000D01*
X158630000Y-63831000D02*
X158630000Y-65760000D01*
X158630000Y-67840000D02*
X158630000Y-69769000D01*
X158670000Y-63848000D02*
X158670000Y-65760000D01*
X158670000Y-67840000D02*
X158670000Y-69752000D01*
X158710000Y-63866000D02*
X158710000Y-65760000D01*
X158710000Y-67840000D02*
X158710000Y-69734000D01*
X158750000Y-63885000D02*
X158750000Y-65760000D01*
X158750000Y-67840000D02*
X158750000Y-69715000D01*
X158790000Y-63904000D02*
X158790000Y-65760000D01*
X158790000Y-67840000D02*
X158790000Y-69696000D01*
X158830000Y-63924000D02*
X158830000Y-65760000D01*
X158830000Y-67840000D02*
X158830000Y-69676000D01*
X158870000Y-63945000D02*
X158870000Y-65760000D01*
X158870000Y-67840000D02*
X158870000Y-69655000D01*
X158910000Y-63966000D02*
X158910000Y-65760000D01*
X158910000Y-67840000D02*
X158910000Y-69634000D01*
X158950000Y-63988000D02*
X158950000Y-65760000D01*
X158950000Y-67840000D02*
X158950000Y-69612000D01*
X158990000Y-64011000D02*
X158990000Y-65760000D01*
X158990000Y-67840000D02*
X158990000Y-69589000D01*
X159030000Y-64035000D02*
X159030000Y-65760000D01*
X159030000Y-67840000D02*
X159030000Y-69565000D01*
X159070000Y-64059000D02*
X159070000Y-65760000D01*
X159070000Y-67840000D02*
X159070000Y-69541000D01*
X159110000Y-64084000D02*
X159110000Y-65760000D01*
X159110000Y-67840000D02*
X159110000Y-69516000D01*
X159150000Y-64110000D02*
X159150000Y-65760000D01*
X159150000Y-67840000D02*
X159150000Y-69490000D01*
X159190000Y-64137000D02*
X159190000Y-65760000D01*
X159190000Y-67840000D02*
X159190000Y-69463000D01*
X159230000Y-64164000D02*
X159230000Y-65760000D01*
X159230000Y-67840000D02*
X159230000Y-69436000D01*
X159270000Y-64193000D02*
X159270000Y-65760000D01*
X159270000Y-67840000D02*
X159270000Y-69407000D01*
X159310000Y-64223000D02*
X159310000Y-65760000D01*
X159310000Y-67840000D02*
X159310000Y-69377000D01*
X159350000Y-64253000D02*
X159350000Y-65760000D01*
X159350000Y-67840000D02*
X159350000Y-69347000D01*
X159390000Y-64284000D02*
X159390000Y-65760000D01*
X159390000Y-67840000D02*
X159390000Y-69316000D01*
X159430000Y-64317000D02*
X159430000Y-65760000D01*
X159430000Y-67840000D02*
X159430000Y-69283000D01*
X159470000Y-64350000D02*
X159470000Y-65760000D01*
X159470000Y-67840000D02*
X159470000Y-69250000D01*
X159510000Y-64385000D02*
X159510000Y-65760000D01*
X159510000Y-67840000D02*
X159510000Y-69215000D01*
X159550000Y-64421000D02*
X159550000Y-65760000D01*
X159550000Y-67840000D02*
X159550000Y-69179000D01*
X159590000Y-64458000D02*
X159590000Y-65760000D01*
X159590000Y-67840000D02*
X159590000Y-69142000D01*
X159630000Y-64496000D02*
X159630000Y-65760000D01*
X159630000Y-67840000D02*
X159630000Y-69104000D01*
X159670000Y-64536000D02*
X159670000Y-69064000D01*
X159710000Y-64577000D02*
X159710000Y-69023000D01*
X159750000Y-64619000D02*
X159750000Y-68981000D01*
X159790000Y-64663000D02*
X159790000Y-68937000D01*
X159830000Y-64709000D02*
X159830000Y-68891000D01*
X159870000Y-64756000D02*
X159870000Y-68844000D01*
X159910000Y-64805000D02*
X159910000Y-68795000D01*
X159950000Y-64857000D02*
X159950000Y-68743000D01*
X159990000Y-64910000D02*
X159990000Y-68690000D01*
X160030000Y-64966000D02*
X160030000Y-68634000D01*
X160070000Y-65025000D02*
X160070000Y-68575000D01*
X160110000Y-65086000D02*
X160110000Y-68514000D01*
X160150000Y-65151000D02*
X160150000Y-68449000D01*
X160190000Y-65219000D02*
X160190000Y-68381000D01*
X160230000Y-65291000D02*
X160230000Y-68309000D01*
X160270000Y-65368000D02*
X160270000Y-68232000D01*
X160310000Y-65450000D02*
X160310000Y-68150000D01*
X160350000Y-65539000D02*
X160350000Y-68061000D01*
X160390000Y-65635000D02*
X160390000Y-67965000D01*
X160430000Y-65742000D02*
X160430000Y-67858000D01*
X160470000Y-65861000D02*
X160470000Y-67739000D01*
X160510000Y-65999000D02*
X160510000Y-67601000D01*
X160550000Y-66167000D02*
X160550000Y-67433000D01*
X160590000Y-66398000D02*
X160590000Y-67202000D01*
X160620000Y-66800000D02*
G75*
G02*
X154080000Y-66800000I-3270000J0D01*
G01*
X154080000Y-66800000D02*
G75*
G02*
X160620000Y-66800000I3270000J0D01*
G01*
%TO.C,SW7*%
X103950000Y-128300000D02*
X103950000Y-129500000D01*
X103950000Y-137500000D02*
X103950000Y-136300000D01*
X108150000Y-128300000D02*
X103950000Y-128300000D01*
X108150000Y-128650000D02*
X108150000Y-128300000D01*
X108150000Y-136300000D02*
X108150000Y-137500000D01*
X108150000Y-137500000D02*
X103950000Y-137500000D01*
X108150000Y-129400000D02*
X108150000Y-128920000D01*
X108630000Y-129400000D01*
X108150000Y-129400000D01*
G36*
X108630000Y-129400000D02*
G01*
X108150000Y-129400000D01*
X108150000Y-128920000D01*
X108630000Y-129400000D01*
G37*
%TO.C,J11*%
X97190000Y-97690000D02*
X98400000Y-97690000D01*
X97190000Y-109410000D02*
X97190000Y-97690000D01*
X98400000Y-97690000D02*
X98400000Y-97190000D01*
X98400000Y-109410000D02*
X97190000Y-109410000D01*
X98400000Y-109910000D02*
X98400000Y-109410000D01*
X98510000Y-110210000D02*
X101010000Y-110210000D01*
X99210000Y-97190000D02*
X99210000Y-98190000D01*
X99210000Y-98190000D02*
X100710000Y-98190000D01*
X99210000Y-108910000D02*
X100710000Y-108910000D01*
X99210000Y-109910000D02*
X99210000Y-108910000D01*
X101010000Y-110210000D02*
X101010000Y-107710000D01*
X96690000Y-97190000D02*
X100710000Y-97190000D01*
X100710000Y-109910000D01*
X96690000Y-109910000D01*
X96690000Y-97190000D01*
%TO.C,J10*%
X97190000Y-113990000D02*
X98400000Y-113990000D01*
X97190000Y-120710000D02*
X97190000Y-113990000D01*
X98400000Y-113990000D02*
X98400000Y-113490000D01*
X98400000Y-120710000D02*
X97190000Y-120710000D01*
X98400000Y-121210000D02*
X98400000Y-120710000D01*
X98510000Y-121510000D02*
X101010000Y-121510000D01*
X99210000Y-113490000D02*
X99210000Y-114490000D01*
X99210000Y-114490000D02*
X100710000Y-114490000D01*
X99210000Y-120210000D02*
X100710000Y-120210000D01*
X99210000Y-121210000D02*
X99210000Y-120210000D01*
X101010000Y-121510000D02*
X101010000Y-119010000D01*
X96690000Y-113490000D02*
X100710000Y-113490000D01*
X100710000Y-121210000D01*
X96690000Y-121210000D01*
X96690000Y-113490000D01*
%TO.C,J6*%
X182990000Y-122690000D02*
X182990000Y-125190000D01*
X184790000Y-122990000D02*
X184790000Y-123990000D01*
X184790000Y-123990000D02*
X183290000Y-123990000D01*
X184790000Y-129710000D02*
X183290000Y-129710000D01*
X184790000Y-130710000D02*
X184790000Y-129710000D01*
X185490000Y-122690000D02*
X182990000Y-122690000D01*
X185600000Y-122990000D02*
X185600000Y-123490000D01*
X185600000Y-123490000D02*
X186810000Y-123490000D01*
X185600000Y-130210000D02*
X185600000Y-130710000D01*
X186810000Y-123490000D02*
X186810000Y-130210000D01*
X186810000Y-130210000D02*
X185600000Y-130210000D01*
X183290000Y-122990000D02*
X187310000Y-122990000D01*
X187310000Y-130710000D01*
X183290000Y-130710000D01*
X183290000Y-122990000D01*
%TO.C,J9*%
X97390000Y-79390000D02*
X98600000Y-79390000D01*
X97390000Y-91110000D02*
X97390000Y-79390000D01*
X98600000Y-79390000D02*
X98600000Y-78890000D01*
X98600000Y-91110000D02*
X97390000Y-91110000D01*
X98600000Y-91610000D02*
X98600000Y-91110000D01*
X98710000Y-91910000D02*
X101210000Y-91910000D01*
X99410000Y-78890000D02*
X99410000Y-79890000D01*
X99410000Y-79890000D02*
X100910000Y-79890000D01*
X99410000Y-90610000D02*
X100910000Y-90610000D01*
X99410000Y-91610000D02*
X99410000Y-90610000D01*
X101210000Y-91910000D02*
X101210000Y-89410000D01*
X96890000Y-78890000D02*
X100910000Y-78890000D01*
X100910000Y-91610000D01*
X96890000Y-91610000D01*
X96890000Y-78890000D01*
%TO.C,SW5*%
X103950000Y-118300000D02*
X103950000Y-119500000D01*
X103950000Y-127500000D02*
X103950000Y-126300000D01*
X108150000Y-118300000D02*
X103950000Y-118300000D01*
X108150000Y-118650000D02*
X108150000Y-118300000D01*
X108150000Y-126300000D02*
X108150000Y-127500000D01*
X108150000Y-127500000D02*
X103950000Y-127500000D01*
X108150000Y-119400000D02*
X108150000Y-118920000D01*
X108630000Y-119400000D01*
X108150000Y-119400000D01*
G36*
X108630000Y-119400000D02*
G01*
X108150000Y-119400000D01*
X108150000Y-118920000D01*
X108630000Y-119400000D01*
G37*
%TO.C,J15*%
X171050000Y-132600000D02*
X171050000Y-136600000D01*
X171920000Y-131570000D02*
X171920000Y-132170000D01*
X171920000Y-132170000D02*
X173520000Y-132170000D01*
X172720000Y-136590000D02*
X172970000Y-136060000D01*
X172720000Y-136590000D02*
X185420000Y-136590000D01*
X172720000Y-137590000D02*
X172720000Y-136590000D01*
X172970000Y-136060000D02*
X185170000Y-136060000D01*
X172970000Y-137590000D02*
X172970000Y-136590000D01*
X173520000Y-132170000D02*
X173520000Y-131570000D01*
X174460000Y-131570000D02*
X174460000Y-132170000D01*
X174460000Y-132170000D02*
X176060000Y-132170000D01*
X176060000Y-132170000D02*
X176060000Y-131570000D01*
X177000000Y-131570000D02*
X177000000Y-132170000D01*
X177000000Y-132170000D02*
X178600000Y-132170000D01*
X178600000Y-132170000D02*
X178600000Y-131570000D01*
X179540000Y-131570000D02*
X179540000Y-132170000D01*
X179540000Y-132170000D02*
X181140000Y-132170000D01*
X181140000Y-132170000D02*
X181140000Y-131570000D01*
X182080000Y-131570000D02*
X182080000Y-132170000D01*
X182080000Y-132170000D02*
X183680000Y-132170000D01*
X183680000Y-132170000D02*
X183680000Y-131570000D01*
X184620000Y-131570000D02*
X184620000Y-132170000D01*
X184620000Y-132170000D02*
X186220000Y-132170000D01*
X185170000Y-136060000D02*
X185420000Y-136590000D01*
X185170000Y-137590000D02*
X185170000Y-136590000D01*
X185420000Y-136590000D02*
X185420000Y-137590000D01*
X186220000Y-132170000D02*
X186220000Y-131570000D01*
X171340000Y-131570000D02*
X186800000Y-131570000D01*
X186800000Y-137590000D01*
X171340000Y-137590000D01*
X171340000Y-131570000D01*
%TO.C,J5*%
X97390000Y-61590000D02*
X98600000Y-61590000D01*
X97390000Y-73310000D02*
X97390000Y-61590000D01*
X98600000Y-61590000D02*
X98600000Y-61090000D01*
X98600000Y-73310000D02*
X97390000Y-73310000D01*
X98600000Y-73810000D02*
X98600000Y-73310000D01*
X98710000Y-74110000D02*
X101210000Y-74110000D01*
X99410000Y-61090000D02*
X99410000Y-62090000D01*
X99410000Y-62090000D02*
X100910000Y-62090000D01*
X99410000Y-72810000D02*
X100910000Y-72810000D01*
X99410000Y-73810000D02*
X99410000Y-72810000D01*
X101210000Y-74110000D02*
X101210000Y-71610000D01*
X96890000Y-61090000D02*
X100910000Y-61090000D01*
X100910000Y-73810000D01*
X96890000Y-73810000D01*
X96890000Y-61090000D01*
%TO.C,A4*%
X161060000Y-95700000D02*
X161060000Y-108530000D01*
X161060000Y-98370000D02*
X181640000Y-98370000D01*
X161060000Y-108530000D02*
X163730000Y-108530000D01*
X161060000Y-109800000D02*
X161060000Y-111200000D01*
X161060000Y-111200000D02*
X162460000Y-111200000D01*
X163730000Y-108530000D02*
X163730000Y-111200000D01*
X163730000Y-108530000D02*
X181640000Y-108530000D01*
X163730000Y-111200000D02*
X181640000Y-111200000D01*
X181640000Y-95700000D02*
X161060000Y-95700000D01*
X181640000Y-111200000D02*
X181640000Y-95700000D01*
%TO.C,SW1*%
X150980000Y-113660000D02*
X162220000Y-113660000D01*
X150980000Y-116020000D02*
X150980000Y-113660000D01*
X150980000Y-129140000D02*
X150980000Y-116620000D01*
X151600000Y-113660000D02*
X151600000Y-129140000D01*
X154100000Y-113660000D02*
X154100000Y-129140000D01*
X160300000Y-113660000D02*
X160300000Y-129140000D01*
X162220000Y-113660000D02*
X162220000Y-129140000D01*
X162220000Y-129140000D02*
X150980000Y-129140000D01*
X150980000Y-116320000D02*
X150370000Y-116760000D01*
X150370000Y-115880000D01*
X150980000Y-116320000D01*
G36*
X150980000Y-116320000D02*
G01*
X150370000Y-116760000D01*
X150370000Y-115880000D01*
X150980000Y-116320000D01*
G37*
%TO.C,Raspberry Pi Pico *%
X131075000Y-61335000D02*
X131075000Y-59735000D01*
X131395000Y-59665000D02*
X131395000Y-109665000D01*
X131735000Y-59118000D02*
X131735000Y-110212000D01*
X132005000Y-59055000D02*
X134495000Y-59055000D01*
X132005000Y-110275000D02*
X135842939Y-110275000D01*
X134495000Y-59055000D02*
X134495000Y-59968520D01*
X134495000Y-59055000D02*
X135842940Y-59055000D01*
X134495000Y-62361480D02*
X134495000Y-106968520D01*
X134495000Y-109361480D02*
X134495000Y-110275000D01*
X136767061Y-59055000D02*
X137770000Y-59055000D01*
X137770000Y-59055000D02*
X146240000Y-59055000D01*
X137895000Y-57755000D02*
X137895000Y-58575000D01*
X137895000Y-57755000D02*
X146115000Y-57755000D01*
X137895000Y-58575000D02*
X138105000Y-58575000D01*
X138105000Y-58575000D02*
X138105000Y-59971000D01*
X138105000Y-62359000D02*
X138105000Y-63575000D01*
X138405000Y-110275000D02*
X136767061Y-110275000D01*
X145605000Y-110275000D02*
X138405000Y-110275000D01*
X145905000Y-58575000D02*
X145905000Y-59971000D01*
X145905000Y-62359000D02*
X145905000Y-63575000D01*
X145905000Y-63575000D02*
X138105000Y-63575000D01*
X146115000Y-57755000D02*
X146115000Y-58575000D01*
X146115000Y-58575000D02*
X145905000Y-58575000D01*
X146240000Y-59055000D02*
X147242939Y-59055000D01*
X147242939Y-110275000D02*
X145605000Y-110275000D01*
X148167061Y-59055000D02*
X149515000Y-59055000D01*
X148167061Y-110275000D02*
X152005000Y-110275000D01*
X149515000Y-59055000D02*
X149515000Y-59968520D01*
X149515000Y-62361480D02*
X149515000Y-106968520D01*
X149515000Y-109361480D02*
X149515000Y-110275000D01*
X152005000Y-59055000D02*
X149515000Y-59055000D01*
X152275000Y-110212000D02*
X152275000Y-59118000D01*
X152615000Y-59665000D02*
X152615000Y-109665000D01*
X131395000Y-59665000D02*
G75*
G02*
X132005000Y-59055000I610000J0D01*
G01*
X132005000Y-110275000D02*
G75*
G02*
X131395000Y-109665000I-99J609901D01*
G01*
X152005000Y-59055000D02*
G75*
G02*
X152615000Y-59665000I0J-610000D01*
G01*
X152615000Y-109665000D02*
G75*
G02*
X152005000Y-110275000I-610000J0D01*
G01*
%TO.C,A6*%
X102450000Y-77600000D02*
X102450000Y-93100000D01*
X102450000Y-93100000D02*
X123030000Y-93100000D01*
X120360000Y-77600000D02*
X102450000Y-77600000D01*
X120360000Y-80270000D02*
X102450000Y-80270000D01*
X120360000Y-80270000D02*
X120360000Y-77600000D01*
X123030000Y-77600000D02*
X121630000Y-77600000D01*
X123030000Y-79000000D02*
X123030000Y-77600000D01*
X123030000Y-80270000D02*
X120360000Y-80270000D01*
X123030000Y-90430000D02*
X102450000Y-90430000D01*
X123030000Y-93100000D02*
X123030000Y-80270000D01*
%TO.C,SW2*%
X132312500Y-113660000D02*
X143552500Y-113660000D01*
X132312500Y-116020000D02*
X132312500Y-113660000D01*
X132312500Y-129140000D02*
X132312500Y-116620000D01*
X132932500Y-113660000D02*
X132932500Y-129140000D01*
X135432500Y-113660000D02*
X135432500Y-129140000D01*
X141632500Y-113660000D02*
X141632500Y-129140000D01*
X143552500Y-113660000D02*
X143552500Y-129140000D01*
X143552500Y-129140000D02*
X132312500Y-129140000D01*
X132312500Y-116320000D02*
X131702500Y-116760000D01*
X131702500Y-115880000D01*
X132312500Y-116320000D01*
G36*
X132312500Y-116320000D02*
G01*
X131702500Y-116760000D01*
X131702500Y-115880000D01*
X132312500Y-116320000D01*
G37*
%TO.C,SW3*%
X119980000Y-113660000D02*
X131220000Y-113660000D01*
X119980000Y-116020000D02*
X119980000Y-113660000D01*
X119980000Y-129140000D02*
X119980000Y-116620000D01*
X120600000Y-113660000D02*
X120600000Y-129140000D01*
X123100000Y-113660000D02*
X123100000Y-129140000D01*
X129300000Y-113660000D02*
X129300000Y-129140000D01*
X131220000Y-113660000D02*
X131220000Y-129140000D01*
X131220000Y-129140000D02*
X119980000Y-129140000D01*
X119980000Y-116320000D02*
X119370000Y-116760000D01*
X119370000Y-115880000D01*
X119980000Y-116320000D01*
G36*
X119980000Y-116320000D02*
G01*
X119370000Y-116760000D01*
X119370000Y-115880000D01*
X119980000Y-116320000D01*
G37*
%TO.C,J3*%
X182890000Y-78740000D02*
X182890000Y-81240000D01*
X184690000Y-79040000D02*
X184690000Y-80040000D01*
X184690000Y-80040000D02*
X183190000Y-80040000D01*
X184690000Y-90760000D02*
X183190000Y-90760000D01*
X184690000Y-91760000D02*
X184690000Y-90760000D01*
X185390000Y-78740000D02*
X182890000Y-78740000D01*
X185500000Y-79040000D02*
X185500000Y-79540000D01*
X185500000Y-79540000D02*
X186710000Y-79540000D01*
X185500000Y-91260000D02*
X185500000Y-91760000D01*
X186710000Y-79540000D02*
X186710000Y-91260000D01*
X186710000Y-91260000D02*
X185500000Y-91260000D01*
X183190000Y-79040000D02*
X187210000Y-79040000D01*
X187210000Y-91760000D01*
X183190000Y-91760000D01*
X183190000Y-79040000D01*
%TO.C,C1*%
X123449759Y-65561000D02*
X124079759Y-65561000D01*
X123764759Y-65246000D02*
X123764759Y-65876000D01*
X126950000Y-64170000D02*
X126950000Y-70630000D01*
X126990000Y-64170000D02*
X126990000Y-70630000D01*
X127030000Y-64171000D02*
X127030000Y-70629000D01*
X127070000Y-64172000D02*
X127070000Y-70628000D01*
X127110000Y-64174000D02*
X127110000Y-70626000D01*
X127150000Y-64176000D02*
X127150000Y-70624000D01*
X127190000Y-64179000D02*
X127190000Y-66360000D01*
X127190000Y-68440000D02*
X127190000Y-70621000D01*
X127230000Y-64182000D02*
X127230000Y-66360000D01*
X127230000Y-68440000D02*
X127230000Y-70618000D01*
X127270000Y-64186000D02*
X127270000Y-66360000D01*
X127270000Y-68440000D02*
X127270000Y-70614000D01*
X127310000Y-64190000D02*
X127310000Y-66360000D01*
X127310000Y-68440000D02*
X127310000Y-70610000D01*
X127350000Y-64195000D02*
X127350000Y-66360000D01*
X127350000Y-68440000D02*
X127350000Y-70605000D01*
X127390000Y-64200000D02*
X127390000Y-66360000D01*
X127390000Y-68440000D02*
X127390000Y-70600000D01*
X127430000Y-64205000D02*
X127430000Y-66360000D01*
X127430000Y-68440000D02*
X127430000Y-70595000D01*
X127470000Y-64212000D02*
X127470000Y-66360000D01*
X127470000Y-68440000D02*
X127470000Y-70588000D01*
X127510000Y-64218000D02*
X127510000Y-66360000D01*
X127510000Y-68440000D02*
X127510000Y-70582000D01*
X127550000Y-64226000D02*
X127550000Y-66360000D01*
X127550000Y-68440000D02*
X127550000Y-70574000D01*
X127590000Y-64233000D02*
X127590000Y-66360000D01*
X127590000Y-68440000D02*
X127590000Y-70567000D01*
X127630000Y-64241000D02*
X127630000Y-66360000D01*
X127630000Y-68440000D02*
X127630000Y-70559000D01*
X127670000Y-64250000D02*
X127670000Y-66360000D01*
X127670000Y-68440000D02*
X127670000Y-70550000D01*
X127710000Y-64260000D02*
X127710000Y-66360000D01*
X127710000Y-68440000D02*
X127710000Y-70540000D01*
X127750000Y-64269000D02*
X127750000Y-66360000D01*
X127750000Y-68440000D02*
X127750000Y-70531000D01*
X127790000Y-64280000D02*
X127790000Y-66360000D01*
X127790000Y-68440000D02*
X127790000Y-70520000D01*
X127830000Y-64291000D02*
X127830000Y-66360000D01*
X127830000Y-68440000D02*
X127830000Y-70509000D01*
X127870000Y-64302000D02*
X127870000Y-66360000D01*
X127870000Y-68440000D02*
X127870000Y-70498000D01*
X127910000Y-64314000D02*
X127910000Y-66360000D01*
X127910000Y-68440000D02*
X127910000Y-70486000D01*
X127950000Y-64327000D02*
X127950000Y-66360000D01*
X127950000Y-68440000D02*
X127950000Y-70473000D01*
X127990000Y-64340000D02*
X127990000Y-66360000D01*
X127990000Y-68440000D02*
X127990000Y-70460000D01*
X128030000Y-64353000D02*
X128030000Y-66360000D01*
X128030000Y-68440000D02*
X128030000Y-70447000D01*
X128070000Y-64368000D02*
X128070000Y-66360000D01*
X128070000Y-68440000D02*
X128070000Y-70432000D01*
X128110000Y-64383000D02*
X128110000Y-66360000D01*
X128110000Y-68440000D02*
X128110000Y-70417000D01*
X128150000Y-64398000D02*
X128150000Y-66360000D01*
X128150000Y-68440000D02*
X128150000Y-70402000D01*
X128190000Y-64414000D02*
X128190000Y-66360000D01*
X128190000Y-68440000D02*
X128190000Y-70386000D01*
X128230000Y-64431000D02*
X128230000Y-66360000D01*
X128230000Y-68440000D02*
X128230000Y-70369000D01*
X128270000Y-64448000D02*
X128270000Y-66360000D01*
X128270000Y-68440000D02*
X128270000Y-70352000D01*
X128310000Y-64466000D02*
X128310000Y-66360000D01*
X128310000Y-68440000D02*
X128310000Y-70334000D01*
X128350000Y-64485000D02*
X128350000Y-66360000D01*
X128350000Y-68440000D02*
X128350000Y-70315000D01*
X128390000Y-64504000D02*
X128390000Y-66360000D01*
X128390000Y-68440000D02*
X128390000Y-70296000D01*
X128430000Y-64524000D02*
X128430000Y-66360000D01*
X128430000Y-68440000D02*
X128430000Y-70276000D01*
X128470000Y-64545000D02*
X128470000Y-66360000D01*
X128470000Y-68440000D02*
X128470000Y-70255000D01*
X128510000Y-64566000D02*
X128510000Y-66360000D01*
X128510000Y-68440000D02*
X128510000Y-70234000D01*
X128550000Y-64588000D02*
X128550000Y-66360000D01*
X128550000Y-68440000D02*
X128550000Y-70212000D01*
X128590000Y-64611000D02*
X128590000Y-66360000D01*
X128590000Y-68440000D02*
X128590000Y-70189000D01*
X128630000Y-64635000D02*
X128630000Y-66360000D01*
X128630000Y-68440000D02*
X128630000Y-70165000D01*
X128670000Y-64659000D02*
X128670000Y-66360000D01*
X128670000Y-68440000D02*
X128670000Y-70141000D01*
X128710000Y-64684000D02*
X128710000Y-66360000D01*
X128710000Y-68440000D02*
X128710000Y-70116000D01*
X128750000Y-64710000D02*
X128750000Y-66360000D01*
X128750000Y-68440000D02*
X128750000Y-70090000D01*
X128790000Y-64737000D02*
X128790000Y-66360000D01*
X128790000Y-68440000D02*
X128790000Y-70063000D01*
X128830000Y-64764000D02*
X128830000Y-66360000D01*
X128830000Y-68440000D02*
X128830000Y-70036000D01*
X128870000Y-64793000D02*
X128870000Y-66360000D01*
X128870000Y-68440000D02*
X128870000Y-70007000D01*
X128910000Y-64823000D02*
X128910000Y-66360000D01*
X128910000Y-68440000D02*
X128910000Y-69977000D01*
X128950000Y-64853000D02*
X128950000Y-66360000D01*
X128950000Y-68440000D02*
X128950000Y-69947000D01*
X128990000Y-64884000D02*
X128990000Y-66360000D01*
X128990000Y-68440000D02*
X128990000Y-69916000D01*
X129030000Y-64917000D02*
X129030000Y-66360000D01*
X129030000Y-68440000D02*
X129030000Y-69883000D01*
X129070000Y-64950000D02*
X129070000Y-66360000D01*
X129070000Y-68440000D02*
X129070000Y-69850000D01*
X129110000Y-64985000D02*
X129110000Y-66360000D01*
X129110000Y-68440000D02*
X129110000Y-69815000D01*
X129150000Y-65021000D02*
X129150000Y-66360000D01*
X129150000Y-68440000D02*
X129150000Y-69779000D01*
X129190000Y-65058000D02*
X129190000Y-66360000D01*
X129190000Y-68440000D02*
X129190000Y-69742000D01*
X129230000Y-65096000D02*
X129230000Y-66360000D01*
X129230000Y-68440000D02*
X129230000Y-69704000D01*
X129270000Y-65136000D02*
X129270000Y-69664000D01*
X129310000Y-65177000D02*
X129310000Y-69623000D01*
X129350000Y-65219000D02*
X129350000Y-69581000D01*
X129390000Y-65263000D02*
X129390000Y-69537000D01*
X129430000Y-65309000D02*
X129430000Y-69491000D01*
X129470000Y-65356000D02*
X129470000Y-69444000D01*
X129510000Y-65405000D02*
X129510000Y-69395000D01*
X129550000Y-65457000D02*
X129550000Y-69343000D01*
X129590000Y-65510000D02*
X129590000Y-69290000D01*
X129630000Y-65566000D02*
X129630000Y-69234000D01*
X129670000Y-65625000D02*
X129670000Y-69175000D01*
X129710000Y-65686000D02*
X129710000Y-69114000D01*
X129750000Y-65751000D02*
X129750000Y-69049000D01*
X129790000Y-65819000D02*
X129790000Y-68981000D01*
X129830000Y-65891000D02*
X129830000Y-68909000D01*
X129870000Y-65968000D02*
X129870000Y-68832000D01*
X129910000Y-66050000D02*
X129910000Y-68750000D01*
X129950000Y-66139000D02*
X129950000Y-68661000D01*
X129990000Y-66235000D02*
X129990000Y-68565000D01*
X130030000Y-66342000D02*
X130030000Y-68458000D01*
X130070000Y-66461000D02*
X130070000Y-68339000D01*
X130110000Y-66599000D02*
X130110000Y-68201000D01*
X130150000Y-66767000D02*
X130150000Y-68033000D01*
X130190000Y-66998000D02*
X130190000Y-67802000D01*
X130220000Y-67400000D02*
G75*
G02*
X123680000Y-67400000I-3270000J0D01*
G01*
X123680000Y-67400000D02*
G75*
G02*
X130220000Y-67400000I3270000J0D01*
G01*
%TO.C,J16*%
X175140000Y-138480000D02*
X185540000Y-138480000D01*
X175140000Y-140600000D02*
X185540000Y-140600000D01*
X175140000Y-144600000D02*
X185540000Y-144600000D01*
X175140000Y-146720000D02*
X175140000Y-138480000D01*
X177500000Y-146720000D02*
X175140000Y-146720000D01*
X185540000Y-138480000D02*
X185540000Y-146720000D01*
X185540000Y-146720000D02*
X178100000Y-146720000D01*
X177800000Y-146720000D02*
X178240000Y-147330000D01*
X177360000Y-147330000D01*
X177800000Y-146720000D01*
G36*
X178240000Y-147330000D02*
G01*
X177360000Y-147330000D01*
X177800000Y-146720000D01*
X178240000Y-147330000D01*
G37*
%TO.C,J12*%
X137060000Y-138480000D02*
X147460000Y-138480000D01*
X137060000Y-140600000D02*
X147460000Y-140600000D01*
X137060000Y-144600000D02*
X147460000Y-144600000D01*
X137060000Y-146720000D02*
X137060000Y-138480000D01*
X139420000Y-146720000D02*
X137060000Y-146720000D01*
X147460000Y-138480000D02*
X147460000Y-146720000D01*
X147460000Y-146720000D02*
X140020000Y-146720000D01*
X139720000Y-146720000D02*
X140160000Y-147330000D01*
X139280000Y-147330000D01*
X139720000Y-146720000D01*
G36*
X140160000Y-147330000D02*
G01*
X139280000Y-147330000D01*
X139720000Y-146720000D01*
X140160000Y-147330000D01*
G37*
%TO.C,SW4*%
X163380000Y-113660000D02*
X174620000Y-113660000D01*
X163380000Y-116020000D02*
X163380000Y-113660000D01*
X163380000Y-129140000D02*
X163380000Y-116620000D01*
X164000000Y-113660000D02*
X164000000Y-129140000D01*
X166500000Y-113660000D02*
X166500000Y-129140000D01*
X172700000Y-113660000D02*
X172700000Y-129140000D01*
X174620000Y-113660000D02*
X174620000Y-129140000D01*
X174620000Y-129140000D02*
X163380000Y-129140000D01*
X163380000Y-116320000D02*
X162770000Y-116760000D01*
X162770000Y-115880000D01*
X163380000Y-116320000D01*
G36*
X163380000Y-116320000D02*
G01*
X162770000Y-116760000D01*
X162770000Y-115880000D01*
X163380000Y-116320000D01*
G37*
%TD*%
M02*
