M48
; DRILL file KiCad 10.0.5 date 2026-09-22T18:43:14
; FORMAT={-:-/ absolute / metric / decimal}
; #@! TF.CreationDate,2026-09-22T18:43:14-04:00
; #@! TF.GenerationSoftware,Kicad,Pcbnew,10.0.5
; #@! TF.FileFunction,Plated,1,4,PTH
FMAT,2
METRIC
; #@! TA.AperFunction,Plated,PTH,ViaDrill
T1C0.300
; #@! TA.AperFunction,Plated,PTH,ComponentDrill
T2C0.500
; #@! TA.AperFunction,Plated,PTH,ComponentDrill
T3C0.800
; #@! TA.AperFunction,Plated,PTH,ComponentDrill
T4C0.900
; #@! TA.AperFunction,Plated,PTH,ComponentDrill
T5C0.950
; #@! TA.AperFunction,Plated,PTH,ComponentDrill
T6C1.000
; #@! TA.AperFunction,Plated,PTH,ComponentDrill
T7C1.190
; #@! TA.AperFunction,Plated,PTH,ComponentDrill
T8C1.300
; #@! TA.AperFunction,Plated,PTH,ComponentDrill
T9C1.400
; #@! TA.AperFunction,Plated,PTH,ComponentDrill
T10C3.500
%
G90
G05
T1
X146.546Y-94.395
X148.6Y-112.4
X156.576Y-112.224
T2
X89.775Y-62.4
X89.775Y-143.0
X90.544Y-60.544
X90.544Y-64.256
X90.544Y-141.144
X90.544Y-144.856
X92.4Y-59.775
X92.4Y-65.025
X92.4Y-140.375
X92.4Y-145.625
X94.256Y-60.544
X94.256Y-64.256
X94.256Y-141.144
X94.256Y-144.856
X95.025Y-62.4
X95.025Y-143.0
X189.375Y-62.256
X189.375Y-143.0
X190.144Y-60.4
X190.144Y-64.112
X190.144Y-141.144
X190.144Y-144.856
X192.0Y-59.631
X192.0Y-64.881
X192.0Y-140.375
X192.0Y-145.625
X193.856Y-60.4
X193.856Y-64.112
X193.856Y-141.144
X193.856Y-144.856
X194.625Y-62.256
X194.625Y-143.0
T3
X103.84Y-97.22
X103.84Y-109.92
X103.85Y-79.0
X103.85Y-91.7
X103.91Y-60.86
X103.91Y-73.56
X106.38Y-97.22
X106.38Y-109.92
X106.39Y-79.0
X106.39Y-91.7
X106.45Y-60.86
X106.45Y-73.56
X108.92Y-97.22
X108.92Y-109.92
X108.93Y-79.0
X108.93Y-91.7
X108.99Y-60.86
X108.99Y-73.56
X111.46Y-97.22
X111.46Y-109.92
X111.47Y-79.0
X111.47Y-91.7
X111.53Y-60.86
X111.53Y-73.56
X114.0Y-97.22
X114.0Y-109.92
X114.01Y-79.0
X114.01Y-91.7
X114.07Y-60.86
X114.07Y-73.56
X116.54Y-97.22
X116.54Y-109.92
X116.55Y-79.0
X116.55Y-91.7
X116.61Y-60.86
X116.61Y-73.56
X119.08Y-97.22
X119.08Y-109.92
X119.09Y-79.0
X119.09Y-91.7
X119.15Y-60.86
X119.15Y-73.56
X121.62Y-97.22
X121.62Y-109.92
X121.63Y-79.0
X121.63Y-91.7
X121.69Y-60.86
X121.69Y-73.56
X125.7Y-67.4
X125.7Y-85.4
X125.7Y-103.6
X128.2Y-67.4
X128.2Y-85.4
X128.2Y-103.6
X155.7Y-102.6
X155.9Y-81.8
X156.018Y-74.4
X156.1Y-66.8
X156.1Y-89.2
X158.2Y-102.6
X158.4Y-81.8
X158.518Y-74.4
X158.6Y-66.8
X158.6Y-89.2
X162.46Y-97.1
X162.46Y-109.8
X162.51Y-60.84
X162.51Y-73.54
X162.51Y-79.04
X162.51Y-91.74
X165.0Y-97.1
X165.0Y-109.8
X165.05Y-60.84
X165.05Y-73.54
X165.05Y-79.04
X165.05Y-91.74
X167.54Y-97.1
X167.54Y-109.8
X167.59Y-60.84
X167.59Y-73.54
X167.59Y-79.04
X167.59Y-91.74
X170.08Y-97.1
X170.08Y-109.8
X170.13Y-60.84
X170.13Y-73.54
X170.13Y-79.04
X170.13Y-91.74
X172.62Y-97.1
X172.62Y-109.8
X172.67Y-60.84
X172.67Y-73.54
X172.67Y-79.04
X172.67Y-91.74
X175.16Y-97.1
X175.16Y-109.8
X175.21Y-60.84
X175.21Y-73.54
X175.21Y-79.04
X175.21Y-91.74
X177.7Y-97.1
X177.7Y-109.8
X177.75Y-60.84
X177.75Y-73.54
X177.75Y-79.04
X177.75Y-91.74
X180.24Y-97.1
X180.24Y-109.8
X180.29Y-60.84
X180.29Y-73.54
X180.29Y-79.04
X180.29Y-91.74
T4
X101.6Y-140.1
X101.6Y-142.6
X101.6Y-145.1
X104.4Y-120.4
X104.4Y-122.9
X104.4Y-125.4
X104.4Y-130.4
X104.4Y-132.9
X104.4Y-135.4
X104.9Y-140.1
X104.9Y-142.6
X104.9Y-145.1
X107.7Y-120.4
X107.7Y-122.9
X107.7Y-125.4
X107.7Y-130.4
X107.7Y-132.9
X107.7Y-135.4
X111.6Y-130.4
X111.6Y-132.9
X111.6Y-135.4
X114.9Y-130.4
X114.9Y-132.9
X114.9Y-135.4
T5
X98.4Y-99.8
X98.4Y-102.3
X98.4Y-104.8
X98.4Y-107.3
X98.6Y-63.7
X98.6Y-66.2
X98.6Y-68.7
X98.6Y-71.2
X98.6Y-81.5
X98.6Y-84.0
X98.6Y-86.5
X98.6Y-89.0
X185.3Y-99.45
X185.3Y-101.95
X185.3Y-104.45
X185.3Y-106.95
X185.5Y-81.65
X185.5Y-84.15
X185.5Y-86.65
X185.5Y-89.15
X185.6Y-63.45
X185.6Y-65.95
X185.6Y-68.45
X185.6Y-70.95
T6
X98.4Y-116.1
X98.4Y-118.6
X98.4Y-125.7
X98.4Y-128.2
X133.115Y-60.535
X133.115Y-63.075
X133.115Y-65.615
X133.115Y-68.155
X133.115Y-70.695
X133.115Y-73.235
X133.115Y-75.775
X133.115Y-78.315
X133.115Y-80.855
X133.115Y-83.395
X133.115Y-85.935
X133.115Y-88.475
X133.115Y-91.015
X133.115Y-93.555
X133.115Y-96.095
X133.115Y-98.635
X133.115Y-101.175
X133.115Y-103.715
X133.115Y-106.255
X133.115Y-108.795
X150.895Y-60.535
X150.895Y-63.075
X150.895Y-65.615
X150.895Y-68.155
X150.895Y-70.695
X150.895Y-73.235
X150.895Y-75.775
X150.895Y-78.315
X150.895Y-80.855
X150.895Y-83.395
X150.895Y-85.935
X150.895Y-88.475
X150.895Y-91.015
X150.895Y-93.555
X150.895Y-96.095
X150.895Y-98.635
X150.895Y-101.175
X150.895Y-103.715
X150.895Y-106.255
X150.895Y-108.795
X185.6Y-116.0
X185.6Y-118.5
X185.6Y-125.6
X185.6Y-128.1
T7
X172.72Y-134.6
X175.26Y-134.6
X177.8Y-134.6
X180.34Y-134.6
X182.88Y-134.6
X185.42Y-134.6
T8
X109.2Y-142.4
X114.28Y-142.4
X128.32Y-142.6
X133.4Y-142.6
X139.72Y-142.6
X144.8Y-142.6
X151.135Y-142.6
X156.215Y-142.6
X162.52Y-142.6
X167.6Y-142.6
X177.8Y-142.6
X182.88Y-142.6
T9
X125.6Y-116.32
X125.6Y-121.4
X125.6Y-126.48
X137.933Y-116.32
X137.933Y-121.4
X137.933Y-126.48
X156.6Y-116.32
X156.6Y-121.4
X156.6Y-126.48
X169.0Y-116.32
X169.0Y-121.4
X169.0Y-126.48
T10
X92.4Y-62.4
X92.4Y-143.0
X192.0Y-62.256
X192.0Y-143.0
M30
