%TF.GenerationSoftware,KiCad,Pcbnew,10.0.5*%
%TF.CreationDate,2026-09-21T21:57:40-04:00*%
%TF.ProjectId,compact_stepper_controller,636f6d70-6163-4745-9f73-746570706572,rev?*%
%TF.SameCoordinates,Original*%
%TF.FileFunction,Copper,L3,Inr*%
%TF.FilePolarity,Positive*%
%FSLAX46Y46*%
G04 Gerber Fmt 4.6, Leading zero omitted, Abs format (unit mm)*
G04 Created by KiCad (PCBNEW 10.0.5) date 2026-09-21 21:57:40*
%MOMM*%
%LPD*%
G01*
G04 APERTURE LIST*
G04 Aperture macros list*
%AMRoundRect*
0 Rectangle with rounded corners*
0 $1 Rounding radius*
0 $2 $3 $4 $5 $6 $7 $8 $9 X,Y pos of 4 corners*
0 Add a 4 corners polygon primitive as box body*
4,1,4,$2,$3,$4,$5,$6,$7,$8,$9,$2,$3,0*
0 Add four circle primitives for the rounded corners*
1,1,$1+$1,$2,$3*
1,1,$1+$1,$4,$5*
1,1,$1+$1,$6,$7*
1,1,$1+$1,$8,$9*
0 Add four rect primitives between the rounded corners*
20,1,$1+$1,$2,$3,$4,$5,0*
20,1,$1+$1,$4,$5,$6,$7,0*
20,1,$1+$1,$6,$7,$8,$9,0*
20,1,$1+$1,$8,$9,$2,$3,0*%
%AMOutline5P*
0 Free polygon, 5 corners , with rotation*
0 The origin of the aperture is its center*
0 number of corners: always 5*
0 $1 to $10 corner X, Y*
0 $11 Rotation angle, in degrees counterclockwise*
0 create outline with 5 corners*
4,1,5,$1,$2,$3,$4,$5,$6,$7,$8,$9,$10,$1,$2,$11*%
%AMOutline6P*
0 Free polygon, 6 corners , with rotation*
0 The origin of the aperture is its center*
0 number of corners: always 6*
0 $1 to $12 corner X, Y*
0 $13 Rotation angle, in degrees counterclockwise*
0 create outline with 6 corners*
4,1,6,$1,$2,$3,$4,$5,$6,$7,$8,$9,$10,$11,$12,$1,$2,$13*%
%AMOutline7P*
0 Free polygon, 7 corners , with rotation*
0 The origin of the aperture is its center*
0 number of corners: always 7*
0 $1 to $14 corner X, Y*
0 $15 Rotation angle, in degrees counterclockwise*
0 create outline with 7 corners*
4,1,7,$1,$2,$3,$4,$5,$6,$7,$8,$9,$10,$11,$12,$13,$14,$1,$2,$15*%
%AMOutline8P*
0 Free polygon, 8 corners , with rotation*
0 The origin of the aperture is its center*
0 number of corners: always 8*
0 $1 to $16 corner X, Y*
0 $17 Rotation angle, in degrees counterclockwise*
0 create outline with 8 corners*
4,1,8,$1,$2,$3,$4,$5,$6,$7,$8,$9,$10,$11,$12,$13,$14,$15,$16,$1,$2,$17*%
%AMFreePoly0*
4,1,37,0.603843,0.796157,0.639018,0.796157,0.711114,0.766294,0.766294,0.711114,0.796157,0.639018,0.796157,0.603843,0.800000,0.600000,0.800000,-0.600000,0.796157,-0.603843,0.796157,-0.639018,0.766294,-0.711114,0.711114,-0.766294,0.639018,-0.796157,0.603843,-0.796157,0.600000,-0.800000,0.000000,-0.800000,0.000000,-0.796148,-0.078414,-0.796148,-0.232228,-0.765552,-0.377117,-0.705537,
-0.507515,-0.618408,-0.618408,-0.507515,-0.705537,-0.377117,-0.765552,-0.232228,-0.796148,-0.078414,-0.796148,0.078414,-0.765552,0.232228,-0.705537,0.377117,-0.618408,0.507515,-0.507515,0.618408,-0.377117,0.705537,-0.232228,0.765552,-0.078414,0.796148,0.000000,0.796148,0.000000,0.800000,0.600000,0.800000,0.603843,0.796157,0.603843,0.796157,$1*%
%AMFreePoly1*
4,1,37,0.000000,0.796148,0.078414,0.796148,0.232228,0.765552,0.377117,0.705537,0.507515,0.618408,0.618408,0.507515,0.705537,0.377117,0.765552,0.232228,0.796148,0.078414,0.796148,-0.078414,0.765552,-0.232228,0.705537,-0.377117,0.618408,-0.507515,0.507515,-0.618408,0.377117,-0.705537,0.232228,-0.765552,0.078414,-0.796148,0.000000,-0.796148,0.000000,-0.800000,-0.600000,-0.800000,
-0.603843,-0.796157,-0.639018,-0.796157,-0.711114,-0.766294,-0.766294,-0.711114,-0.796157,-0.639018,-0.796157,-0.603843,-0.800000,-0.600000,-0.800000,0.600000,-0.796157,0.603843,-0.796157,0.639018,-0.766294,0.711114,-0.711114,0.766294,-0.639018,0.796157,-0.603843,0.796157,-0.600000,0.800000,0.000000,0.800000,0.000000,0.796148,0.000000,0.796148,$1*%
G04 Aperture macros list end*
%TA.AperFunction,ComponentPad*%
%ADD10RoundRect,0.250000X-0.450000X0.450000X-0.450000X-0.450000X0.450000X-0.450000X0.450000X0.450000X0*%
%TD*%
%TA.AperFunction,ComponentPad*%
%ADD11C,1.400000*%
%TD*%
%TA.AperFunction,ComponentPad*%
%ADD12C,1.700000*%
%TD*%
%TA.AperFunction,ComponentPad*%
%ADD13Outline5P,-0.850000X0.660000X-0.510000X1.000000X0.850000X1.000000X0.850000X-1.000000X-0.850000X-1.000000X90.000000*%
%TD*%
%TA.AperFunction,ComponentPad*%
%ADD14C,1.600000*%
%TD*%
%TA.AperFunction,ComponentPad*%
%ADD15RoundRect,0.250000X-0.550000X-0.550000X0.550000X-0.550000X0.550000X0.550000X-0.550000X0.550000X0*%
%TD*%
%TA.AperFunction,ComponentPad*%
%ADD16R,1.600000X1.600000*%
%TD*%
%TA.AperFunction,ComponentPad*%
%ADD17O,1.600000X1.600000*%
%TD*%
%TA.AperFunction,ComponentPad*%
%ADD18C,0.800000*%
%TD*%
%TA.AperFunction,ComponentPad*%
%ADD19Outline5P,-3.500000X3.500000X2.100000X3.500000X3.500000X2.100000X3.500000X-3.500000X-3.500000X-3.500000X0.000000*%
%TD*%
%TA.AperFunction,ComponentPad*%
%ADD20C,2.500000*%
%TD*%
%TA.AperFunction,ComponentPad*%
%ADD21Outline5P,-1.250000X0.750000X-0.750000X1.250000X1.250000X1.250000X1.250000X-1.250000X-1.250000X-1.250000X0.000000*%
%TD*%
%TA.AperFunction,ComponentPad*%
%ADD22Outline5P,-0.850000X0.660000X-0.510000X1.000000X0.850000X1.000000X0.850000X-1.000000X-0.850000X-1.000000X270.000000*%
%TD*%
%TA.AperFunction,ComponentPad*%
%ADD23O,1.950000X1.700000*%
%TD*%
%TA.AperFunction,ComponentPad*%
%ADD24Outline5P,-3.500000X2.100000X-2.100000X3.500000X3.500000X3.500000X3.500000X-3.500000X-3.500000X-3.500000X0.000000*%
%TD*%
%TA.AperFunction,ComponentPad*%
%ADD25C,7.000000*%
%TD*%
%TA.AperFunction,ComponentPad*%
%ADD26O,1.740000X2.190000*%
%TD*%
%TA.AperFunction,ComponentPad*%
%ADD27RoundRect,0.250000X-0.620000X-0.845000X0.620000X-0.845000X0.620000X0.845000X-0.620000X0.845000X0*%
%TD*%
%TA.AperFunction,ComponentPad*%
%ADD28Outline5P,-0.870000X0.747000X-0.522000X1.095000X0.870000X1.095000X0.870000X-1.095000X-0.870000X-1.095000X0.000000*%
%TD*%
%TA.AperFunction,ComponentPad*%
%ADD29Outline5P,-1.300000X0.780000X-0.780000X1.300000X1.300000X1.300000X1.300000X-1.300000X-1.300000X-1.300000X270.000000*%
%TD*%
%TA.AperFunction,ComponentPad*%
%ADD30C,2.600000*%
%TD*%
%TA.AperFunction,ComponentPad*%
%ADD31RoundRect,0.200000X-0.600000X-0.600000X0.600000X-0.600000X0.600000X0.600000X-0.600000X0.600000X0*%
%TD*%
%TA.AperFunction,ComponentPad*%
%ADD32FreePoly0,0.000000*%
%TD*%
%TA.AperFunction,ComponentPad*%
%ADD33Outline5P,-0.800000X0.480000X-0.480000X0.800000X0.800000X0.800000X0.800000X-0.800000X-0.800000X-0.800000X0.000000*%
%TD*%
%TA.AperFunction,ComponentPad*%
%ADD34FreePoly1,0.000000*%
%TD*%
%TA.AperFunction,ViaPad*%
%ADD35C,0.600000*%
%TD*%
%TA.AperFunction,Conductor*%
%ADD36C,0.200000*%
%TD*%
%TA.AperFunction,Conductor*%
%ADD37C,2.500000*%
%TD*%
G04 APERTURE END LIST*
D10*
%TO.N,unconnected-(SW6-C-Pad1)*%
%TO.C,SW6*%
X114900000Y-130400000D03*
D11*
%TO.N,Net-(A2-M1)*%
X114900000Y-132900000D03*
%TO.N,Net-(A2-VMOT)*%
X114900000Y-135400000D03*
%TO.N,N/C*%
X111600000Y-135400000D03*
X111600000Y-132900000D03*
X111600000Y-130400000D03*
%TD*%
D12*
%TO.N,Net-(A1-GPIO27_ADC1)*%
%TO.C,J8*%
X98400000Y-128200000D03*
D13*
%TO.N,Net-(A1-AGND)*%
X98400000Y-125700000D03*
%TD*%
D14*
%TO.N,Net-(A2-VMOT)*%
%TO.C,C3*%
X125700000Y-103600000D03*
D15*
%TO.N,Net-(A1-AGND)*%
X128200000Y-103600000D03*
%TD*%
D16*
%TO.N,Net-(A1-AGND)*%
%TO.C,A2*%
X162510000Y-73540000D03*
D17*
%TO.N,unconnected-(A2-~{FLT}-Pad2)*%
X165050000Y-73540000D03*
%TO.N,Net-(A2-A2)*%
X167590000Y-73540000D03*
%TO.N,Net-(A2-A1)*%
X170130000Y-73540000D03*
%TO.N,Net-(A2-B1)*%
X172670000Y-73540000D03*
%TO.N,Net-(A2-B2)*%
X175210000Y-73540000D03*
%TO.N,Net-(A1-AGND)*%
X177750000Y-73540000D03*
%TO.N,Net-(A2-VMOT)*%
X180290000Y-73540000D03*
%TO.N,Net-(A1-GPIO0)*%
X180290000Y-60840000D03*
%TO.N,Net-(A2-M0)*%
X177750000Y-60840000D03*
%TO.N,Net-(A2-M1)*%
X175210000Y-60840000D03*
%TO.N,Net-(A2-M2)*%
X172670000Y-60840000D03*
%TO.N,Net-(A1-VBUS)*%
X170130000Y-60840000D03*
X167590000Y-60840000D03*
%TO.N,Net-(A1-GPIO1)*%
X165050000Y-60840000D03*
%TO.N,Net-(A1-GPIO2)*%
X162510000Y-60840000D03*
%TD*%
D10*
%TO.N,unconnected-(SW8-C-Pad1)*%
%TO.C,SW8*%
X104900000Y-140100000D03*
D11*
%TO.N,Net-(J17-Pin_2)*%
X104900000Y-142600000D03*
%TO.N,Net-(A1-AGND)*%
X104900000Y-145100000D03*
%TO.N,N/C*%
X101600000Y-145100000D03*
X101600000Y-142600000D03*
X101600000Y-140100000D03*
%TD*%
D18*
%TO.N,Net-(A1-AGND)*%
%TO.C,REF\u002A\u002A*%
X189375000Y-62256155D03*
X190143845Y-60400000D03*
X190143845Y-64112310D03*
X192000000Y-59631155D03*
D19*
X192000000Y-62256155D03*
D18*
X192000000Y-64881155D03*
X193856155Y-60400000D03*
X193856155Y-64112310D03*
X194625000Y-62256155D03*
%TD*%
D20*
%TO.N,Net-(A2-VMOT)*%
%TO.C,J17*%
X109200000Y-142400000D03*
D21*
%TO.N,Net-(J17-Pin_2)*%
X114280000Y-142400000D03*
%TD*%
D12*
%TO.N,Net-(A1-GPIO22)*%
%TO.C,J7*%
X185600000Y-116000000D03*
D22*
%TO.N,Net-(A1-AGND)*%
X185600000Y-118500000D03*
%TD*%
D23*
%TO.N,Net-(A4-A2)*%
%TO.C,J4*%
X185300000Y-99450000D03*
%TO.N,Net-(A4-A1)*%
X185300000Y-101950000D03*
%TO.N,Net-(A4-B1)*%
X185300000Y-104450000D03*
%TO.N,Net-(A4-B2)*%
X185300000Y-106950000D03*
%TD*%
D16*
%TO.N,Net-(A1-AGND)*%
%TO.C,A3*%
X162510000Y-91740000D03*
D17*
%TO.N,unconnected-(A3-~{FLT}-Pad2)*%
X165050000Y-91740000D03*
%TO.N,Net-(A3-A2)*%
X167590000Y-91740000D03*
%TO.N,Net-(A3-A1)*%
X170130000Y-91740000D03*
%TO.N,Net-(A3-B1)*%
X172670000Y-91740000D03*
%TO.N,Net-(A3-B2)*%
X175210000Y-91740000D03*
%TO.N,Net-(A1-AGND)*%
X177750000Y-91740000D03*
%TO.N,Net-(A2-VMOT)*%
X180290000Y-91740000D03*
%TO.N,Net-(A1-GPIO3)*%
X180290000Y-79040000D03*
%TO.N,Net-(A2-M0)*%
X177750000Y-79040000D03*
%TO.N,Net-(A2-M1)*%
X175210000Y-79040000D03*
%TO.N,Net-(A2-M2)*%
X172670000Y-79040000D03*
%TO.N,Net-(A1-VBUS)*%
X170130000Y-79040000D03*
X167590000Y-79040000D03*
%TO.N,Net-(A1-GPIO4)*%
X165050000Y-79040000D03*
%TO.N,Net-(A1-GPIO5)*%
X162510000Y-79040000D03*
%TD*%
D18*
%TO.N,Net-(A1-AGND)*%
%TO.C,REF\u002A\u002A*%
X89775000Y-62400000D03*
X90543845Y-60543845D03*
X90543845Y-64256155D03*
X92400000Y-59775000D03*
D24*
X92400000Y-62400000D03*
D18*
X92400000Y-65025000D03*
X94256155Y-60543845D03*
X94256155Y-64256155D03*
X95025000Y-62400000D03*
%TD*%
%TO.N,Net-(A1-AGND)*%
%TO.C,REF\u002A\u002A*%
X189375000Y-143000000D03*
X190143845Y-141143845D03*
X190143845Y-144856155D03*
X192000000Y-140375000D03*
D25*
X192000000Y-143000000D03*
D18*
X192000000Y-145625000D03*
X193856155Y-141143845D03*
X193856155Y-144856155D03*
X194625000Y-143000000D03*
%TD*%
D14*
%TO.N,Net-(A1-VBUS)*%
%TO.C,C7*%
X156017621Y-74400000D03*
D15*
%TO.N,Net-(A1-AGND)*%
X158517621Y-74400000D03*
%TD*%
D16*
%TO.N,Net-(A1-AGND)*%
%TO.C,A7*%
X121690000Y-60860000D03*
D17*
%TO.N,unconnected-(A7-~{FLT}-Pad2)*%
X119150000Y-60860000D03*
%TO.N,Net-(A7-A2)*%
X116610000Y-60860000D03*
%TO.N,Net-(A7-A1)*%
X114070000Y-60860000D03*
%TO.N,Net-(A7-B1)*%
X111530000Y-60860000D03*
%TO.N,Net-(A7-B2)*%
X108990000Y-60860000D03*
%TO.N,Net-(A1-AGND)*%
X106450000Y-60860000D03*
%TO.N,Net-(A2-VMOT)*%
X103910000Y-60860000D03*
%TO.N,Net-(A1-GPIO15)*%
X103910000Y-73560000D03*
%TO.N,Net-(A2-M0)*%
X106450000Y-73560000D03*
%TO.N,Net-(A2-M1)*%
X108990000Y-73560000D03*
%TO.N,Net-(A2-M2)*%
X111530000Y-73560000D03*
%TO.N,Net-(A1-VBUS)*%
X114070000Y-73560000D03*
X116610000Y-73560000D03*
%TO.N,Net-(A1-GPIO16)*%
X119150000Y-73560000D03*
%TO.N,Net-(A1-GPIO17)*%
X121690000Y-73560000D03*
%TD*%
D20*
%TO.N,Net-(J1-Pin_1)*%
%TO.C,J1*%
X151135000Y-142600000D03*
D21*
%TO.N,Net-(A1-AGND)*%
X156215000Y-142600000D03*
%TD*%
D16*
%TO.N,Net-(A1-AGND)*%
%TO.C,A5*%
X121620000Y-97220000D03*
D17*
%TO.N,unconnected-(A5-~{FLT}-Pad2)*%
X119080000Y-97220000D03*
%TO.N,Net-(A5-A2)*%
X116540000Y-97220000D03*
%TO.N,Net-(A5-A1)*%
X114000000Y-97220000D03*
%TO.N,Net-(A5-B1)*%
X111460000Y-97220000D03*
%TO.N,Net-(A5-B2)*%
X108920000Y-97220000D03*
%TO.N,Net-(A1-AGND)*%
X106380000Y-97220000D03*
%TO.N,Net-(A2-VMOT)*%
X103840000Y-97220000D03*
%TO.N,Net-(A1-GPIO9)*%
X103840000Y-109920000D03*
%TO.N,Net-(A2-M0)*%
X106380000Y-109920000D03*
%TO.N,Net-(A2-M1)*%
X108920000Y-109920000D03*
%TO.N,Net-(A2-M2)*%
X111460000Y-109920000D03*
%TO.N,Net-(A1-VBUS)*%
X114000000Y-109920000D03*
X116540000Y-109920000D03*
%TO.N,Net-(A1-GPIO10)*%
X119080000Y-109920000D03*
%TO.N,Net-(A1-GPIO11)*%
X121620000Y-109920000D03*
%TD*%
D14*
%TO.N,Net-(A2-VMOT)*%
%TO.C,C2*%
X125700000Y-85400000D03*
D15*
%TO.N,Net-(A1-AGND)*%
X128200000Y-85400000D03*
%TD*%
%TO.N,Net-(A1-VBUS)*%
%TO.C,C8*%
X155900000Y-81800000D03*
D14*
%TO.N,Net-(A1-AGND)*%
X158400000Y-81800000D03*
%TD*%
D23*
%TO.N,Net-(A2-A2)*%
%TO.C,J2*%
X185600000Y-63450000D03*
%TO.N,Net-(A2-A1)*%
X185600000Y-65950000D03*
%TO.N,Net-(A2-B1)*%
X185600000Y-68450000D03*
%TO.N,Net-(A2-B2)*%
X185600000Y-70950000D03*
%TD*%
D14*
%TO.N,Net-(A2-VMOT)*%
%TO.C,C6*%
X155700000Y-102600000D03*
D15*
%TO.N,Net-(A1-AGND)*%
X158200000Y-102600000D03*
%TD*%
D20*
%TO.N,Net-(J14-Pin_1)*%
%TO.C,J14*%
X162520000Y-142600000D03*
D21*
%TO.N,Net-(A1-AGND)*%
X167600000Y-142600000D03*
%TD*%
D20*
%TO.N,Net-(J13-Pin_1)*%
%TO.C,J13*%
X128320000Y-142600000D03*
D21*
%TO.N,Net-(A1-AGND)*%
X133400000Y-142600000D03*
%TD*%
D14*
%TO.N,Net-(A2-VMOT)*%
%TO.C,C5*%
X156100000Y-89200000D03*
D15*
%TO.N,Net-(A1-AGND)*%
X158600000Y-89200000D03*
%TD*%
D14*
%TO.N,Net-(A2-VMOT)*%
%TO.C,C4*%
X156100000Y-66800000D03*
D15*
%TO.N,Net-(A1-AGND)*%
X158600000Y-66800000D03*
%TD*%
D10*
%TO.N,unconnected-(SW7-C-Pad1)*%
%TO.C,SW7*%
X107700000Y-130400000D03*
D11*
%TO.N,Net-(A2-M2)*%
X107700000Y-132900000D03*
%TO.N,Net-(A2-VMOT)*%
X107700000Y-135400000D03*
%TO.N,N/C*%
X104400000Y-135400000D03*
X104400000Y-132900000D03*
X104400000Y-130400000D03*
%TD*%
D23*
%TO.N,Net-(A5-A2)*%
%TO.C,J11*%
X98400000Y-107300000D03*
%TO.N,Net-(A5-A1)*%
X98400000Y-104800000D03*
%TO.N,Net-(A5-B1)*%
X98400000Y-102300000D03*
%TO.N,Net-(A5-B2)*%
X98400000Y-99800000D03*
%TD*%
D12*
%TO.N,Net-(A1-GPIO26_ADC0)*%
%TO.C,J10*%
X98400000Y-118600000D03*
D13*
%TO.N,Net-(A1-AGND)*%
X98400000Y-116100000D03*
%TD*%
D12*
%TO.N,Net-(A1-GPIO21)*%
%TO.C,J6*%
X185600000Y-125600000D03*
D22*
%TO.N,Net-(A1-AGND)*%
X185600000Y-128100000D03*
%TD*%
D23*
%TO.N,Net-(A6-A2)*%
%TO.C,J9*%
X98600000Y-89000000D03*
%TO.N,Net-(A6-A1)*%
X98600000Y-86500000D03*
%TO.N,Net-(A6-B1)*%
X98600000Y-84000000D03*
%TO.N,Net-(A6-B2)*%
X98600000Y-81500000D03*
%TD*%
D10*
%TO.N,unconnected-(SW5-C-Pad1)*%
%TO.C,SW5*%
X107700000Y-120400000D03*
D11*
%TO.N,Net-(A2-M0)*%
X107700000Y-122900000D03*
%TO.N,Net-(A2-VMOT)*%
X107700000Y-125400000D03*
%TO.N,N/C*%
X104400000Y-125400000D03*
X104400000Y-122900000D03*
X104400000Y-120400000D03*
%TD*%
D26*
%TO.N,Net-(A1-GPIO20)*%
%TO.C,J15*%
X172720000Y-134600000D03*
%TO.N,Net-(A1-GPIO19)*%
X175260000Y-134600000D03*
%TO.N,Net-(A1-GPIO18)*%
X177800000Y-134600000D03*
D27*
%TO.N,Net-(A1-AGND)*%
X180340000Y-134600000D03*
D28*
%TO.N,Net-(A1-VBUS)*%
X182880000Y-134600000D03*
%TO.N,Net-(A2-VMOT)*%
X185420000Y-134600000D03*
%TD*%
D23*
%TO.N,Net-(A7-A2)*%
%TO.C,J5*%
X98600000Y-71200000D03*
%TO.N,Net-(A7-A1)*%
X98600000Y-68700000D03*
%TO.N,Net-(A7-B1)*%
X98600000Y-66200000D03*
%TO.N,Net-(A7-B2)*%
X98600000Y-63700000D03*
%TD*%
D18*
%TO.N,Net-(A1-AGND)*%
%TO.C,REF\u002A\u002A*%
X89775000Y-143000000D03*
X90543845Y-141143845D03*
X90543845Y-144856155D03*
X92400000Y-140375000D03*
D25*
X92400000Y-143000000D03*
D18*
X92400000Y-145625000D03*
X94256155Y-141143845D03*
X94256155Y-144856155D03*
X95025000Y-143000000D03*
%TD*%
D16*
%TO.N,Net-(A1-AGND)*%
%TO.C,A4*%
X162460000Y-109800000D03*
D17*
%TO.N,unconnected-(A4-~{FLT}-Pad2)*%
X165000000Y-109800000D03*
%TO.N,Net-(A4-A2)*%
X167540000Y-109800000D03*
%TO.N,Net-(A4-A1)*%
X170080000Y-109800000D03*
%TO.N,Net-(A4-B1)*%
X172620000Y-109800000D03*
%TO.N,Net-(A4-B2)*%
X175160000Y-109800000D03*
%TO.N,Net-(A1-AGND)*%
X177700000Y-109800000D03*
%TO.N,Net-(A2-VMOT)*%
X180240000Y-109800000D03*
%TO.N,Net-(A1-GPIO6)*%
X180240000Y-97100000D03*
%TO.N,Net-(A2-M0)*%
X177700000Y-97100000D03*
%TO.N,Net-(A2-M1)*%
X175160000Y-97100000D03*
%TO.N,Net-(A2-M2)*%
X172620000Y-97100000D03*
%TO.N,Net-(A1-VBUS)*%
X170080000Y-97100000D03*
X167540000Y-97100000D03*
%TO.N,Net-(A1-GPIO7)*%
X165000000Y-97100000D03*
%TO.N,Net-(A1-GPIO8)*%
X162460000Y-97100000D03*
%TD*%
D29*
%TO.N,unconnected-(SW1-C-Pad1)*%
%TO.C,SW1*%
X156600000Y-116320000D03*
D30*
%TO.N,Net-(A2-VMOT)*%
X156600000Y-121400000D03*
D29*
%TO.N,Net-(J1-Pin_1)*%
X156600000Y-126480000D03*
%TD*%
D31*
%TO.N,Net-(A1-GPIO0)*%
%TO.C,Raspberry Pi Pico *%
X133115000Y-60535000D03*
D14*
%TO.N,Net-(A1-GPIO1)*%
X133115000Y-63075000D03*
D32*
%TO.N,Net-(A1-AGND)*%
X133115000Y-65615000D03*
D14*
%TO.N,Net-(A1-GPIO2)*%
X133115000Y-68155000D03*
%TO.N,Net-(A1-GPIO3)*%
X133115000Y-70695000D03*
%TO.N,Net-(A1-GPIO4)*%
X133115000Y-73235000D03*
%TO.N,Net-(A1-GPIO5)*%
X133115000Y-75775000D03*
D32*
%TO.N,Net-(A1-AGND)*%
X133115000Y-78315000D03*
D14*
%TO.N,Net-(A1-GPIO6)*%
X133115000Y-80855000D03*
%TO.N,Net-(A1-GPIO7)*%
X133115000Y-83395000D03*
%TO.N,Net-(A1-GPIO8)*%
X133115000Y-85935000D03*
%TO.N,Net-(A1-GPIO9)*%
X133115000Y-88475000D03*
D32*
%TO.N,Net-(A1-AGND)*%
X133115000Y-91015000D03*
D14*
%TO.N,Net-(A1-GPIO10)*%
X133115000Y-93555000D03*
%TO.N,Net-(A1-GPIO11)*%
X133115000Y-96095000D03*
%TO.N,Net-(A1-GPIO12)*%
X133115000Y-98635000D03*
%TO.N,Net-(A1-GPIO13)*%
X133115000Y-101175000D03*
D32*
%TO.N,Net-(A1-AGND)*%
X133115000Y-103715000D03*
D14*
%TO.N,Net-(A1-GPIO14)*%
X133115000Y-106255000D03*
%TO.N,Net-(A1-GPIO15)*%
X133115000Y-108795000D03*
D33*
%TO.N,Net-(A1-GPIO16)*%
X150895000Y-108795000D03*
D14*
%TO.N,Net-(A1-GPIO17)*%
X150895000Y-106255000D03*
D34*
%TO.N,Net-(A1-AGND)*%
X150895000Y-103715000D03*
D14*
%TO.N,Net-(A1-GPIO18)*%
X150895000Y-101175000D03*
%TO.N,Net-(A1-GPIO19)*%
X150895000Y-98635000D03*
%TO.N,Net-(A1-GPIO20)*%
X150895000Y-96095000D03*
%TO.N,Net-(A1-GPIO21)*%
X150895000Y-93555000D03*
D34*
%TO.N,Net-(A1-AGND)*%
X150895000Y-91015000D03*
D14*
%TO.N,Net-(A1-GPIO22)*%
X150895000Y-88475000D03*
%TO.N,unconnected-(A1-RUN-Pad30)*%
X150895000Y-85935000D03*
%TO.N,Net-(A1-GPIO26_ADC0)*%
X150895000Y-83395000D03*
%TO.N,Net-(A1-GPIO27_ADC1)*%
X150895000Y-80855000D03*
D34*
%TO.N,Net-(A1-AGND)*%
X150895000Y-78315000D03*
D14*
%TO.N,unconnected-(A1-GPIO28_ADC2-Pad34)*%
X150895000Y-75775000D03*
%TO.N,unconnected-(A1-ADC_VREF-Pad35)*%
X150895000Y-73235000D03*
%TO.N,unconnected-(A1-3V3-Pad36)*%
X150895000Y-70695000D03*
%TO.N,unconnected-(A1-3V3_EN-Pad37)*%
X150895000Y-68155000D03*
D34*
%TO.N,Net-(A1-AGND)*%
X150895000Y-65615000D03*
D14*
%TO.N,unconnected-(A1-VSYS-Pad39)*%
X150895000Y-63075000D03*
%TO.N,Net-(A1-VBUS)*%
X150895000Y-60535000D03*
%TD*%
D16*
%TO.N,Net-(A1-AGND)*%
%TO.C,A6*%
X121630000Y-79000000D03*
D17*
%TO.N,unconnected-(A6-~{FLT}-Pad2)*%
X119090000Y-79000000D03*
%TO.N,Net-(A6-A2)*%
X116550000Y-79000000D03*
%TO.N,Net-(A6-A1)*%
X114010000Y-79000000D03*
%TO.N,Net-(A6-B1)*%
X111470000Y-79000000D03*
%TO.N,Net-(A6-B2)*%
X108930000Y-79000000D03*
%TO.N,Net-(A1-AGND)*%
X106390000Y-79000000D03*
%TO.N,Net-(A2-VMOT)*%
X103850000Y-79000000D03*
%TO.N,Net-(A1-GPIO12)*%
X103850000Y-91700000D03*
%TO.N,Net-(A2-M0)*%
X106390000Y-91700000D03*
%TO.N,Net-(A2-M1)*%
X108930000Y-91700000D03*
%TO.N,Net-(A2-M2)*%
X111470000Y-91700000D03*
%TO.N,Net-(A1-VBUS)*%
X114010000Y-91700000D03*
X116550000Y-91700000D03*
%TO.N,Net-(A1-GPIO13)*%
X119090000Y-91700000D03*
%TO.N,Net-(A1-GPIO14)*%
X121630000Y-91700000D03*
%TD*%
D29*
%TO.N,unconnected-(SW2-C-Pad1)*%
%TO.C,SW2*%
X137932500Y-116320000D03*
D30*
%TO.N,Net-(A2-VMOT)*%
X137932500Y-121400000D03*
D29*
%TO.N,Net-(J12-Pin_1)*%
X137932500Y-126480000D03*
%TD*%
%TO.N,unconnected-(SW3-C-Pad1)*%
%TO.C,SW3*%
X125600000Y-116320000D03*
D30*
%TO.N,Net-(A2-VMOT)*%
X125600000Y-121400000D03*
D29*
%TO.N,Net-(J13-Pin_1)*%
X125600000Y-126480000D03*
%TD*%
D23*
%TO.N,Net-(A3-A2)*%
%TO.C,J3*%
X185500000Y-81650000D03*
%TO.N,Net-(A3-A1)*%
X185500000Y-84150000D03*
%TO.N,Net-(A3-B1)*%
X185500000Y-86650000D03*
%TO.N,Net-(A3-B2)*%
X185500000Y-89150000D03*
%TD*%
D14*
%TO.N,Net-(A2-VMOT)*%
%TO.C,C1*%
X125700000Y-67400000D03*
D15*
%TO.N,Net-(A1-AGND)*%
X128200000Y-67400000D03*
%TD*%
D20*
%TO.N,Net-(A1-VBUS)*%
%TO.C,J16*%
X177800000Y-142600000D03*
D21*
%TO.N,Net-(A1-AGND)*%
X182880000Y-142600000D03*
%TD*%
D20*
%TO.N,Net-(J12-Pin_1)*%
%TO.C,J12*%
X139720000Y-142600000D03*
D21*
%TO.N,Net-(A1-AGND)*%
X144800000Y-142600000D03*
%TD*%
D29*
%TO.N,unconnected-(SW4-C-Pad1)*%
%TO.C,SW4*%
X169000000Y-116320000D03*
D30*
%TO.N,Net-(A1-VBUS)*%
X169000000Y-121400000D03*
D29*
%TO.N,Net-(J14-Pin_1)*%
X169000000Y-126480000D03*
%TD*%
D35*
%TO.N,Net-(A1-GPIO17)*%
X146546472Y-94395000D03*
X148600000Y-112400000D03*
%TO.N,Net-(A1-GPIO20)*%
X156575735Y-112224265D03*
%TD*%
%TO.N,Net-(A1-AGND)*%
D36*
X90543845Y-141143845D02*
X92400000Y-143000000D01*
D37*
X151700000Y-91015000D02*
X150895000Y-91015000D01*
X156631981Y-104850000D02*
X152835000Y-104850000D01*
X128200000Y-85400000D02*
X128200000Y-82425000D01*
D36*
X90543845Y-64256155D02*
X92400000Y-62400000D01*
D37*
X182880000Y-142600000D02*
X191600000Y-142600000D01*
X139200000Y-145300000D02*
X136100000Y-145300000D01*
X133000000Y-103600000D02*
X133115000Y-103715000D01*
X128200000Y-103600000D02*
X133000000Y-103600000D01*
D36*
X92400000Y-62400000D02*
X93000000Y-61800000D01*
D37*
X177700000Y-126900000D02*
X181400000Y-130600000D01*
X156215000Y-142600000D02*
X153515000Y-145300000D01*
X108438019Y-94520000D02*
X119561981Y-94520000D01*
X128200000Y-103600000D02*
X128200000Y-95125000D01*
X180180000Y-145300000D02*
X173400000Y-145300000D01*
D36*
X180400000Y-134660000D02*
X180400000Y-140120000D01*
D37*
X106390000Y-78358019D02*
X108448019Y-76300000D01*
X128200000Y-95125000D02*
X132310000Y-91015000D01*
X158400000Y-81800000D02*
X158400000Y-74517621D01*
X129985000Y-65615000D02*
X133115000Y-65615000D01*
X124920000Y-97220000D02*
X128200000Y-100500000D01*
X147500000Y-145300000D02*
X144800000Y-142600000D01*
D36*
X92400000Y-145625000D02*
X92400000Y-143000000D01*
D37*
X158200000Y-97515000D02*
X151700000Y-91015000D01*
X161650000Y-74400000D02*
X162510000Y-73540000D01*
X128200000Y-85400000D02*
X128200000Y-84600000D01*
D36*
X185600000Y-118500000D02*
X185600000Y-117700000D01*
D37*
X176181370Y-76240000D02*
X164568019Y-76240000D01*
X152835000Y-104850000D02*
X151700000Y-103715000D01*
X122600000Y-79000000D02*
X121630000Y-79000000D01*
X107988019Y-112170000D02*
X122551981Y-112170000D01*
X158200000Y-102600000D02*
X158200000Y-96050000D01*
X106450000Y-60860000D02*
X106450000Y-60218019D01*
X128200000Y-85400000D02*
X128200000Y-67400000D01*
D36*
X190143845Y-141143845D02*
X192000000Y-143000000D01*
D37*
X132310000Y-78315000D02*
X133115000Y-78315000D01*
X119561981Y-94520000D02*
X121620000Y-96578019D01*
X122551981Y-112170000D02*
X128200000Y-106521981D01*
D36*
X98400000Y-124985786D02*
X107285786Y-116100000D01*
D37*
X160800000Y-145300000D02*
X158915000Y-145300000D01*
D36*
X177700000Y-120200000D02*
X177700000Y-109800000D01*
D37*
X106450000Y-60218019D02*
X104841981Y-58610000D01*
D36*
X89775000Y-143000000D02*
X92400000Y-143000000D01*
D37*
X167600000Y-142600000D02*
X164900000Y-145300000D01*
X191600000Y-142600000D02*
X192000000Y-143000000D01*
D36*
X189375000Y-62256155D02*
X192000000Y-62256155D01*
D37*
X177700000Y-110441981D02*
X175641981Y-112500000D01*
D36*
X185600000Y-117700000D02*
X177700000Y-109800000D01*
X107285786Y-116100000D02*
X117100000Y-116100000D01*
X180340000Y-134600000D02*
X180400000Y-134660000D01*
D37*
X158200000Y-90600000D02*
X158600000Y-90200000D01*
X158400000Y-74517621D02*
X158517621Y-74400000D01*
X176181370Y-94440000D02*
X164568019Y-94440000D01*
X158200000Y-103281981D02*
X156631981Y-104850000D01*
X160800000Y-145300000D02*
X153515000Y-145300000D01*
X173400000Y-145300000D02*
X164900000Y-145300000D01*
X119631981Y-58160000D02*
X121690000Y-60218019D01*
D36*
X94256155Y-144856155D02*
X92400000Y-143000000D01*
X194625000Y-143000000D02*
X192000000Y-143000000D01*
X90543845Y-144856155D02*
X92400000Y-143000000D01*
D37*
X128200000Y-95125000D02*
X128200000Y-85400000D01*
X181400000Y-130600000D02*
X186000000Y-130600000D01*
X136100000Y-145300000D02*
X133400000Y-142600000D01*
D36*
X190143845Y-144856155D02*
X192000000Y-143000000D01*
D37*
X182880000Y-142600000D02*
X180180000Y-145300000D01*
X158517621Y-74400000D02*
X161650000Y-74400000D01*
D36*
X192000000Y-145625000D02*
X192000000Y-143000000D01*
X94256155Y-64256155D02*
X92400000Y-62400000D01*
D37*
X158400000Y-81800000D02*
X158400000Y-80788910D01*
X128200000Y-106521981D02*
X128200000Y-103600000D01*
X175641981Y-112500000D02*
X164518019Y-112500000D01*
X96190000Y-58610000D02*
X92400000Y-62400000D01*
X162510000Y-74181981D02*
X162510000Y-73540000D01*
X128200000Y-84600000D02*
X122600000Y-79000000D01*
X151700000Y-103715000D02*
X150895000Y-103715000D01*
D36*
X193856155Y-144856155D02*
X192000000Y-143000000D01*
D37*
X158915000Y-145300000D02*
X156215000Y-142600000D01*
D36*
X180400000Y-140120000D02*
X182880000Y-142600000D01*
D37*
X128200000Y-67400000D02*
X129985000Y-65615000D01*
X122460000Y-60860000D02*
X121690000Y-60860000D01*
D36*
X92400000Y-140375000D02*
X92400000Y-143000000D01*
D37*
X100700000Y-134700000D02*
X100700000Y-119458019D01*
X177750000Y-73540000D02*
X177750000Y-74181981D01*
X177700000Y-109800000D02*
X177700000Y-110441981D01*
D36*
X95025000Y-143000000D02*
X92400000Y-143000000D01*
D37*
X108508019Y-58160000D02*
X119631981Y-58160000D01*
D36*
X189375000Y-143000000D02*
X192000000Y-143000000D01*
D37*
X158200000Y-102600000D02*
X158200000Y-97515000D01*
X121620000Y-97220000D02*
X124920000Y-97220000D01*
X170300000Y-145300000D02*
X167600000Y-142600000D01*
X177750000Y-91740000D02*
X177750000Y-92871370D01*
D36*
X93000000Y-61800000D02*
X94425000Y-61800000D01*
D37*
X121630000Y-78358019D02*
X121630000Y-79000000D01*
X128200000Y-100500000D02*
X128200000Y-103600000D01*
D36*
X94425000Y-61800000D02*
X95025000Y-62400000D01*
D37*
X128200000Y-67400000D02*
X128200000Y-66600000D01*
X158517621Y-66882379D02*
X158600000Y-66800000D01*
X139200000Y-145300000D02*
X130700000Y-145300000D01*
X164568019Y-76240000D02*
X162510000Y-74181981D01*
X151700000Y-65615000D02*
X150895000Y-65615000D01*
X192000000Y-67927691D02*
X192000000Y-62256155D01*
X142100000Y-145300000D02*
X139200000Y-145300000D01*
X187740000Y-132340000D02*
X187740000Y-137740000D01*
X132310000Y-91015000D02*
X133115000Y-91015000D01*
D36*
X128200000Y-105000000D02*
X128200000Y-103600000D01*
D37*
X152765000Y-64550000D02*
X151700000Y-65615000D01*
X149800000Y-145300000D02*
X147500000Y-145300000D01*
X158600000Y-82000000D02*
X158400000Y-81800000D01*
D36*
X190143845Y-60400000D02*
X192000000Y-62256155D01*
D37*
X97450000Y-137950000D02*
X100700000Y-134700000D01*
D36*
X190143845Y-64112310D02*
X192000000Y-62256155D01*
D37*
X155926090Y-78315000D02*
X150895000Y-78315000D01*
X133400000Y-142600000D02*
X130700000Y-145300000D01*
X164518019Y-112500000D02*
X162460000Y-110441981D01*
X106380000Y-97220000D02*
X106380000Y-96578019D01*
X164568019Y-94440000D02*
X162510000Y-92381981D01*
X158200000Y-102600000D02*
X158200000Y-90600000D01*
X177750000Y-74181981D02*
X179358019Y-75790000D01*
D36*
X92400000Y-59775000D02*
X92400000Y-62400000D01*
X194625000Y-62256155D02*
X192000000Y-62256155D01*
X185600000Y-128100000D02*
X177700000Y-120200000D01*
D37*
X186000000Y-130600000D02*
X187740000Y-132340000D01*
X157150000Y-64550000D02*
X152765000Y-64550000D01*
X119571981Y-76300000D02*
X121630000Y-78358019D01*
X121690000Y-60218019D02*
X121690000Y-60860000D01*
X133400000Y-142600000D02*
X128750000Y-137950000D01*
X158400000Y-80788910D02*
X155926090Y-78315000D01*
X149800000Y-145300000D02*
X142100000Y-145300000D01*
X162510000Y-92381981D02*
X162510000Y-91740000D01*
X97450000Y-137950000D02*
X92400000Y-143000000D01*
X158200000Y-102600000D02*
X158200000Y-103281981D01*
X128200000Y-66600000D02*
X122460000Y-60860000D01*
X179358019Y-75790000D02*
X184137691Y-75790000D01*
D36*
X193856155Y-64112310D02*
X192000000Y-62256155D01*
D37*
X173400000Y-145300000D02*
X170300000Y-145300000D01*
X158200000Y-102600000D02*
X158200000Y-105540000D01*
X177700000Y-109800000D02*
X177700000Y-126900000D01*
X158600000Y-66800000D02*
X158600000Y-66000000D01*
D36*
X192000000Y-140375000D02*
X192000000Y-143000000D01*
D37*
X164900000Y-145300000D02*
X160800000Y-145300000D01*
X100700000Y-119458019D02*
X107988019Y-112170000D01*
X128200000Y-82425000D02*
X132310000Y-78315000D01*
D36*
X117100000Y-116100000D02*
X128200000Y-105000000D01*
X94256155Y-60543845D02*
X92400000Y-62400000D01*
D37*
X187740000Y-137740000D02*
X182880000Y-142600000D01*
D36*
X192000000Y-59631155D02*
X192000000Y-62256155D01*
D37*
X121620000Y-96578019D02*
X121620000Y-97220000D01*
X108448019Y-76300000D02*
X119571981Y-76300000D01*
X144800000Y-142600000D02*
X142100000Y-145300000D01*
X162460000Y-110441981D02*
X162460000Y-109800000D01*
X105100000Y-145300000D02*
X104900000Y-145100000D01*
X128750000Y-137950000D02*
X97450000Y-137950000D01*
D36*
X89775000Y-62400000D02*
X92400000Y-62400000D01*
X98400000Y-116100000D02*
X107285786Y-116100000D01*
D37*
X177750000Y-92871370D02*
X176181370Y-94440000D01*
X106450000Y-60218019D02*
X108508019Y-58160000D01*
X177750000Y-74671370D02*
X176181370Y-76240000D01*
D36*
X192000000Y-64881155D02*
X192000000Y-62256155D01*
D37*
X158517621Y-74400000D02*
X158517621Y-66882379D01*
X184137691Y-75790000D02*
X192000000Y-67927691D01*
X104841981Y-58610000D02*
X96190000Y-58610000D01*
X153515000Y-145300000D02*
X149800000Y-145300000D01*
D36*
X98400000Y-125700000D02*
X98400000Y-124985786D01*
D37*
X106390000Y-79000000D02*
X106390000Y-78358019D01*
X158600000Y-66000000D02*
X157150000Y-64550000D01*
D36*
X193856155Y-60400000D02*
X192000000Y-62256155D01*
D37*
X158200000Y-96050000D02*
X162510000Y-91740000D01*
D36*
X193856155Y-141143845D02*
X192000000Y-143000000D01*
D37*
X158600000Y-90200000D02*
X158600000Y-89200000D01*
D36*
X90543845Y-60543845D02*
X92400000Y-62400000D01*
X92400000Y-65025000D02*
X92400000Y-62400000D01*
D37*
X158200000Y-105540000D02*
X162460000Y-109800000D01*
X158600000Y-89200000D02*
X158600000Y-82000000D01*
D36*
X94256155Y-141143845D02*
X92400000Y-143000000D01*
D37*
X106380000Y-96578019D02*
X108438019Y-94520000D01*
X177750000Y-73540000D02*
X177750000Y-74671370D01*
X130700000Y-145300000D02*
X105100000Y-145300000D01*
%TO.N,Net-(A2-A2)*%
X185600000Y-63450000D02*
X176548630Y-63450000D01*
X176548630Y-63450000D02*
X167590000Y-72408630D01*
X167590000Y-72408630D02*
X167590000Y-73540000D01*
%TO.N,Net-(A2-B1)*%
X185600000Y-68450000D02*
X177118019Y-68450000D01*
X177118019Y-68450000D02*
X172670000Y-72898019D01*
X172670000Y-72898019D02*
X172670000Y-73540000D01*
%TO.N,Net-(A4-A2)*%
X176758630Y-99450000D02*
X167540000Y-108668630D01*
X185300000Y-99450000D02*
X176758630Y-99450000D01*
X167540000Y-108668630D02*
X167540000Y-109800000D01*
%TO.N,Net-(A4-B1)*%
X185300000Y-104450000D02*
X176838630Y-104450000D01*
X172620000Y-108668630D02*
X172620000Y-109800000D01*
X176838630Y-104450000D02*
X172620000Y-108668630D01*
%TO.N,Net-(A3-A2)*%
X177038019Y-81650000D02*
X167590000Y-91098019D01*
X185500000Y-81650000D02*
X177038019Y-81650000D01*
X167590000Y-91098019D02*
X167590000Y-91740000D01*
%TO.N,Net-(A3-B1)*%
X177118019Y-86650000D02*
X185500000Y-86650000D01*
X172670000Y-91098019D02*
X177118019Y-86650000D01*
X172670000Y-91740000D02*
X172670000Y-91098019D01*
%TO.N,Net-(A7-A2)*%
X116610000Y-61501981D02*
X116610000Y-60860000D01*
X106911981Y-71200000D02*
X116610000Y-61501981D01*
X98600000Y-71200000D02*
X106911981Y-71200000D01*
%TO.N,Net-(A7-B1)*%
X107321370Y-66200000D02*
X98600000Y-66200000D01*
X111530000Y-61991370D02*
X107321370Y-66200000D01*
X111530000Y-60860000D02*
X111530000Y-61991370D01*
%TO.N,Net-(A5-A2)*%
X116540000Y-97220000D02*
X116540000Y-98351370D01*
X107591370Y-107300000D02*
X98400000Y-107300000D01*
X116540000Y-98351370D02*
X107591370Y-107300000D01*
%TO.N,Net-(A5-B1)*%
X98400000Y-102300000D02*
X107511370Y-102300000D01*
X111460000Y-98351370D02*
X111460000Y-97220000D01*
X107511370Y-102300000D02*
X111460000Y-98351370D01*
%TO.N,Net-(A6-A2)*%
X116550000Y-80131370D02*
X107681370Y-89000000D01*
X107681370Y-89000000D02*
X98600000Y-89000000D01*
X116550000Y-79000000D02*
X116550000Y-80131370D01*
%TO.N,Net-(A6-B1)*%
X107601370Y-84000000D02*
X98600000Y-84000000D01*
X111470000Y-79000000D02*
X111470000Y-80131370D01*
X111470000Y-80131370D02*
X107601370Y-84000000D01*
%TD*%
M02*
