%TF.GenerationSoftware,KiCad,Pcbnew,10.0.5*%
%TF.CreationDate,2026-09-22T18:43:12-04:00*%
%TF.ProjectId,compact_stepper_controller,636f6d70-6163-4745-9f73-746570706572,rev?*%
%TF.SameCoordinates,Original*%
%TF.FileFunction,Soldermask,Bot*%
%TF.FilePolarity,Negative*%
%FSLAX46Y46*%
G04 Gerber Fmt 4.6, Leading zero omitted, Abs format (unit mm)*
G04 Created by KiCad (PCBNEW 10.0.5) date 2026-09-22 18:43:12*
%MOMM*%
%LPD*%
G01*
G04 APERTURE LIST*
G04 Aperture macros list*
%AMRoundRect*
0 Rectangle with rounded corners*
0 $1 Rounding radius*
0 $2 $3 $4 $5 $6 $7 $8 $9 X,Y pos of 4 corners*
0 Add a 4 corners polygon primitive as box body*
4,1,4,$2,$3,$4,$5,$6,$7,$8,$9,$2,$3,0*
0 Add four circle primitives for the rounded corners*
1,1,$1+$1,$2,$3*
1,1,$1+$1,$4,$5*
1,1,$1+$1,$6,$7*
1,1,$1+$1,$8,$9*
0 Add four rect primitives between the rounded corners*
20,1,$1+$1,$2,$3,$4,$5,0*
20,1,$1+$1,$4,$5,$6,$7,0*
20,1,$1+$1,$6,$7,$8,$9,0*
20,1,$1+$1,$8,$9,$2,$3,0*%
%AMRotRect*
0 Rectangle, with rotation*
0 The origin of the aperture is its center*
0 $1 length*
0 $2 width*
0 $3 Rotation angle, in degrees counterclockwise*
0 Add horizontal line*
21,1,$1,$2,0,0,$3*%
%AMOutline5P*
0 Free polygon, 5 corners , with rotation*
0 The origin of the aperture is its center*
0 number of corners: always 5*
0 $1 to $10 corner X, Y*
0 $11 Rotation angle, in degrees counterclockwise*
0 create outline with 5 corners*
4,1,5,$1,$2,$3,$4,$5,$6,$7,$8,$9,$10,$1,$2,$11*%
%AMOutline6P*
0 Free polygon, 6 corners , with rotation*
0 The origin of the aperture is its center*
0 number of corners: always 6*
0 $1 to $12 corner X, Y*
0 $13 Rotation angle, in degrees counterclockwise*
0 create outline with 6 corners*
4,1,6,$1,$2,$3,$4,$5,$6,$7,$8,$9,$10,$11,$12,$1,$2,$13*%
%AMOutline7P*
0 Free polygon, 7 corners , with rotation*
0 The origin of the aperture is its center*
0 number of corners: always 7*
0 $1 to $14 corner X, Y*
0 $15 Rotation angle, in degrees counterclockwise*
0 create outline with 7 corners*
4,1,7,$1,$2,$3,$4,$5,$6,$7,$8,$9,$10,$11,$12,$13,$14,$1,$2,$15*%
%AMOutline8P*
0 Free polygon, 8 corners , with rotation*
0 The origin of the aperture is its center*
0 number of corners: always 8*
0 $1 to $16 corner X, Y*
0 $17 Rotation angle, in degrees counterclockwise*
0 create outline with 8 corners*
4,1,8,$1,$2,$3,$4,$5,$6,$7,$8,$9,$10,$11,$12,$13,$14,$15,$16,$1,$2,$17*%
%AMFreePoly0*
4,1,18,-0.800000,0.480000,-0.480000,0.800000,0.600000,0.800000,0.676537,0.784776,0.741421,0.741421,0.784776,0.676537,0.800000,0.600000,0.800000,-0.600000,0.784776,-0.676537,0.741421,-0.741421,0.676537,-0.784776,0.600000,-0.800000,-0.600000,-0.800000,-0.676537,-0.784776,-0.741421,-0.741421,-0.784776,-0.676537,-0.800000,-0.600000,-0.800000,0.480000,-0.800000,0.480000,$1*%
%AMFreePoly1*
4,1,37,0.603843,0.796157,0.639018,0.796157,0.711114,0.766294,0.766294,0.711114,0.796157,0.639018,0.796157,0.603843,0.800000,0.600000,0.800000,-0.600000,0.796157,-0.603843,0.796157,-0.639018,0.766294,-0.711114,0.711114,-0.766294,0.639018,-0.796157,0.603843,-0.796157,0.600000,-0.800000,0.000000,-0.800000,0.000000,-0.796148,-0.078414,-0.796148,-0.232228,-0.765552,-0.377117,-0.705537,
-0.507515,-0.618408,-0.618408,-0.507515,-0.705537,-0.377117,-0.765552,-0.232228,-0.796148,-0.078414,-0.796148,0.078414,-0.765552,0.232228,-0.705537,0.377117,-0.618408,0.507515,-0.507515,0.618408,-0.377117,0.705537,-0.232228,0.765552,-0.078414,0.796148,0.000000,0.796148,0.000000,0.800000,0.600000,0.800000,0.603843,0.796157,0.603843,0.796157,$1*%
%AMFreePoly2*
4,1,37,0.000000,0.796148,0.078414,0.796148,0.232228,0.765552,0.377117,0.705537,0.507515,0.618408,0.618408,0.507515,0.705537,0.377117,0.765552,0.232228,0.796148,0.078414,0.796148,-0.078414,0.765552,-0.232228,0.705537,-0.377117,0.618408,-0.507515,0.507515,-0.618408,0.377117,-0.705537,0.232228,-0.765552,0.078414,-0.796148,0.000000,-0.796148,0.000000,-0.800000,-0.600000,-0.800000,
-0.603843,-0.796157,-0.639018,-0.796157,-0.711114,-0.766294,-0.766294,-0.711114,-0.796157,-0.639018,-0.796157,-0.603843,-0.800000,-0.600000,-0.800000,0.600000,-0.796157,0.603843,-0.796157,0.639018,-0.766294,0.711114,-0.711114,0.766294,-0.639018,0.796157,-0.603843,0.796157,-0.600000,0.800000,0.000000,0.800000,0.000000,0.796148,0.000000,0.796148,$1*%
G04 Aperture macros list end*
%ADD10RotRect,1.400000X1.400000X315.000000*%
%ADD11R,1.400000X1.400000*%
%ADD12C,1.400000*%
%ADD13C,1.700000*%
%ADD14R,2.000000X1.700000*%
%ADD15Outline6P,-0.800000X0.480000X-0.480000X0.800000X0.800000X0.800000X0.800000X-0.480000X0.480000X-0.800000X-0.800000X-0.800000X0.000000*%
%ADD16R,1.600000X1.600000*%
%ADD17RotRect,1.200000X1.200000X135.000000*%
%ADD18O,1.600000X1.600000*%
%ADD19Outline6P,-0.800000X0.800000X0.480000X0.800000X0.800000X0.480000X0.800000X-0.800000X-0.480000X-0.800000X-0.800000X-0.480000X90.000000*%
%ADD20Outline6P,-0.700000X0.420000X-0.420000X0.700000X0.700000X0.700000X0.700000X-0.420000X0.420000X-0.700000X-0.700000X-0.700000X270.000000*%
%ADD21Outline5P,-0.600000X0.360000X-0.360000X0.600000X0.600000X0.600000X0.600000X-0.600000X-0.600000X-0.600000X270.000000*%
%ADD22C,0.800000*%
%ADD23Outline5P,-3.500000X3.500000X2.100000X3.500000X3.500000X2.100000X3.500000X-3.500000X-3.500000X-3.500000X0.000000*%
%ADD24Outline7P,-1.100000X0.660000X-0.660000X1.100000X1.100000X1.100000X1.100000X-0.660000X0.660000X-1.100000X-0.660000X-1.100000X-1.100000X-0.660000X0.000000*%
%ADD25R,2.500000X2.500000*%
%ADD26RoundRect,0.250000X-0.725000X0.600000X-0.725000X-0.600000X0.725000X-0.600000X0.725000X0.600000X0*%
%ADD27O,1.950000X1.700000*%
%ADD28Outline5P,-3.500000X2.100000X-2.100000X3.500000X3.500000X3.500000X3.500000X-3.500000X-3.500000X-3.500000X0.000000*%
%ADD29C,7.000000*%
%ADD30Outline5P,-0.800000X0.480000X-0.480000X0.800000X0.800000X0.800000X0.800000X-0.800000X-0.800000X-0.800000X0.000000*%
%ADD31RotRect,1.200000X1.200000X315.000000*%
%ADD32Outline6P,-0.800000X0.800000X0.480000X0.800000X0.800000X0.480000X0.800000X-0.800000X-0.480000X-0.800000X-0.800000X-0.480000X270.000000*%
%ADD33Outline6P,-1.250000X0.750000X-0.750000X1.250000X1.250000X1.250000X1.250000X-0.750000X0.750000X-1.250000X-1.250000X-1.250000X0.000000*%
%ADD34RoundRect,0.250000X0.725000X-0.600000X0.725000X0.600000X-0.725000X0.600000X-0.725000X-0.600000X0*%
%ADD35O,1.740000X2.190000*%
%ADD36R,1.740000X2.190000*%
%ADD37Outline5P,-0.870000X0.747000X-0.522000X1.095000X0.870000X1.095000X0.870000X-1.095000X-0.870000X-1.095000X0.000000*%
%ADD38Outline6P,-0.870000X0.747000X-0.522000X1.095000X0.870000X1.095000X0.870000X-0.747000X0.522000X-1.095000X-0.870000X-1.095000X0.000000*%
%ADD39RotRect,2.600000X2.600000X315.000000*%
%ADD40C,2.600000*%
%ADD41Outline5P,-1.300000X0.780000X-0.780000X1.300000X1.300000X1.300000X1.300000X-1.300000X-1.300000X-1.300000X270.000000*%
%ADD42FreePoly0,0.000000*%
%ADD43C,1.600000*%
%ADD44FreePoly1,0.000000*%
%ADD45FreePoly2,0.000000*%
G04 APERTURE END LIST*
D10*
%TO.C,SW6*%
X114900000Y-130400000D03*
D11*
X114900000Y-132900000D03*
D12*
X114900000Y-135400000D03*
X111600000Y-135400000D03*
X111600000Y-132900000D03*
X111600000Y-130400000D03*
%TD*%
D13*
%TO.C,J8*%
X98400000Y-128200000D03*
D14*
X98400000Y-125700000D03*
%TD*%
D15*
%TO.C,C3*%
X125700000Y-103600000D03*
D16*
X128200000Y-103600000D03*
%TD*%
%TO.C,A2*%
X162510000Y-73540000D03*
D17*
X165050000Y-73540000D03*
D18*
X167590000Y-73540000D03*
X170130000Y-73540000D03*
X172670000Y-73540000D03*
X175210000Y-73540000D03*
D16*
X177750000Y-73540000D03*
D19*
X180290000Y-73540000D03*
D18*
X180290000Y-60840000D03*
X177750000Y-60840000D03*
X175210000Y-60840000D03*
X172670000Y-60840000D03*
X170130000Y-60840000D03*
X167590000Y-60840000D03*
X165050000Y-60840000D03*
X162510000Y-60840000D03*
%TD*%
D10*
%TO.C,SW8*%
X104900000Y-140100000D03*
D20*
X104900000Y-142600000D03*
D21*
X104900000Y-145100000D03*
D12*
X101600000Y-145100000D03*
X101600000Y-142600000D03*
X101600000Y-140100000D03*
%TD*%
D22*
%TO.C,REF\u002A\u002A*%
X189375000Y-62256155D03*
X190143845Y-60400000D03*
X190143845Y-64112310D03*
X192000000Y-59631155D03*
D23*
X192000000Y-62256155D03*
D22*
X192000000Y-64881155D03*
X193856155Y-60400000D03*
X193856155Y-64112310D03*
X194625000Y-62256155D03*
%TD*%
D24*
%TO.C,J17*%
X109200000Y-142400000D03*
D25*
X114280000Y-142400000D03*
%TD*%
D13*
%TO.C,J7*%
X185600000Y-116000000D03*
D14*
X185600000Y-118500000D03*
%TD*%
D26*
%TO.C,J4*%
X185300000Y-99450000D03*
D27*
X185300000Y-101950000D03*
X185300000Y-104450000D03*
D26*
X185300000Y-106950000D03*
%TD*%
D16*
%TO.C,A3*%
X162510000Y-91740000D03*
D17*
X165050000Y-91740000D03*
D18*
X167590000Y-91740000D03*
X170130000Y-91740000D03*
X172670000Y-91740000D03*
X175210000Y-91740000D03*
D16*
X177750000Y-91740000D03*
D19*
X180290000Y-91740000D03*
D18*
X180290000Y-79040000D03*
X177750000Y-79040000D03*
X175210000Y-79040000D03*
X172670000Y-79040000D03*
X170130000Y-79040000D03*
X167590000Y-79040000D03*
X165050000Y-79040000D03*
X162510000Y-79040000D03*
%TD*%
D22*
%TO.C,REF\u002A\u002A*%
X89775000Y-62400000D03*
X90543845Y-60543845D03*
X90543845Y-64256155D03*
X92400000Y-59775000D03*
D28*
X92400000Y-62400000D03*
D22*
X92400000Y-65025000D03*
X94256155Y-60543845D03*
X94256155Y-64256155D03*
X95025000Y-62400000D03*
%TD*%
%TO.C,REF\u002A\u002A*%
X189375000Y-143000000D03*
X190143845Y-141143845D03*
X190143845Y-144856155D03*
X192000000Y-140375000D03*
D29*
X192000000Y-143000000D03*
D22*
X192000000Y-145625000D03*
X193856155Y-141143845D03*
X193856155Y-144856155D03*
X194625000Y-143000000D03*
%TD*%
D30*
%TO.C,C7*%
X156017621Y-74400000D03*
D16*
X158517621Y-74400000D03*
%TD*%
%TO.C,A7*%
X121690000Y-60860000D03*
D31*
X119150000Y-60860000D03*
D18*
X116610000Y-60860000D03*
X114070000Y-60860000D03*
X111530000Y-60860000D03*
X108990000Y-60860000D03*
D16*
X106450000Y-60860000D03*
D32*
X103910000Y-60860000D03*
D18*
X103910000Y-73560000D03*
X106450000Y-73560000D03*
X108990000Y-73560000D03*
X111530000Y-73560000D03*
X114070000Y-73560000D03*
X116610000Y-73560000D03*
X119150000Y-73560000D03*
X121690000Y-73560000D03*
%TD*%
D33*
%TO.C,J1*%
X151135000Y-142600000D03*
D25*
X156215000Y-142600000D03*
%TD*%
D16*
%TO.C,A5*%
X121620000Y-97220000D03*
D31*
X119080000Y-97220000D03*
D18*
X116540000Y-97220000D03*
X114000000Y-97220000D03*
X111460000Y-97220000D03*
X108920000Y-97220000D03*
D16*
X106380000Y-97220000D03*
D32*
X103840000Y-97220000D03*
D18*
X103840000Y-109920000D03*
X106380000Y-109920000D03*
X108920000Y-109920000D03*
X111460000Y-109920000D03*
X114000000Y-109920000D03*
X116540000Y-109920000D03*
X119080000Y-109920000D03*
X121620000Y-109920000D03*
%TD*%
D15*
%TO.C,C2*%
X125700000Y-85400000D03*
D16*
X128200000Y-85400000D03*
%TD*%
D30*
%TO.C,C8*%
X155900000Y-81800000D03*
D16*
X158400000Y-81800000D03*
%TD*%
D26*
%TO.C,J2*%
X185600000Y-63450000D03*
D27*
X185600000Y-65950000D03*
X185600000Y-68450000D03*
D26*
X185600000Y-70950000D03*
%TD*%
D15*
%TO.C,C6*%
X155700000Y-102600000D03*
D16*
X158200000Y-102600000D03*
%TD*%
D33*
%TO.C,J14*%
X162520000Y-142600000D03*
D25*
X167600000Y-142600000D03*
%TD*%
D33*
%TO.C,J13*%
X128320000Y-142600000D03*
D25*
X133400000Y-142600000D03*
%TD*%
D15*
%TO.C,C5*%
X156100000Y-89200000D03*
D16*
X158600000Y-89200000D03*
%TD*%
D15*
%TO.C,C4*%
X156100000Y-66800000D03*
D16*
X158600000Y-66800000D03*
%TD*%
D10*
%TO.C,SW7*%
X107700000Y-130400000D03*
D11*
X107700000Y-132900000D03*
D12*
X107700000Y-135400000D03*
X104400000Y-135400000D03*
X104400000Y-132900000D03*
X104400000Y-130400000D03*
%TD*%
D34*
%TO.C,J11*%
X98400000Y-107300000D03*
D27*
X98400000Y-104800000D03*
X98400000Y-102300000D03*
D34*
X98400000Y-99800000D03*
%TD*%
D13*
%TO.C,J10*%
X98400000Y-118600000D03*
D14*
X98400000Y-116100000D03*
%TD*%
D13*
%TO.C,J6*%
X185600000Y-125600000D03*
D14*
X185600000Y-128100000D03*
%TD*%
D34*
%TO.C,J9*%
X98600000Y-89000000D03*
D27*
X98600000Y-86500000D03*
X98600000Y-84000000D03*
D34*
X98600000Y-81500000D03*
%TD*%
D10*
%TO.C,SW5*%
X107700000Y-120400000D03*
D11*
X107700000Y-122900000D03*
D12*
X107700000Y-125400000D03*
X104400000Y-125400000D03*
X104400000Y-122900000D03*
X104400000Y-120400000D03*
%TD*%
D35*
%TO.C,J15*%
X172720000Y-134600000D03*
X175260000Y-134600000D03*
X177800000Y-134600000D03*
D36*
X180340000Y-134600000D03*
D37*
X182880000Y-134600000D03*
D38*
X185420000Y-134600000D03*
%TD*%
D34*
%TO.C,J5*%
X98600000Y-71200000D03*
D27*
X98600000Y-68700000D03*
X98600000Y-66200000D03*
D34*
X98600000Y-63700000D03*
%TD*%
D22*
%TO.C,REF\u002A\u002A*%
X89775000Y-143000000D03*
X90543845Y-141143845D03*
X90543845Y-144856155D03*
X92400000Y-140375000D03*
D29*
X92400000Y-143000000D03*
D22*
X92400000Y-145625000D03*
X94256155Y-141143845D03*
X94256155Y-144856155D03*
X95025000Y-143000000D03*
%TD*%
D16*
%TO.C,A4*%
X162460000Y-109800000D03*
D17*
X165000000Y-109800000D03*
D18*
X167540000Y-109800000D03*
X170080000Y-109800000D03*
X172620000Y-109800000D03*
X175160000Y-109800000D03*
D16*
X177700000Y-109800000D03*
D19*
X180240000Y-109800000D03*
D18*
X180240000Y-97100000D03*
X177700000Y-97100000D03*
X175160000Y-97100000D03*
X172620000Y-97100000D03*
X170080000Y-97100000D03*
X167540000Y-97100000D03*
X165000000Y-97100000D03*
X162460000Y-97100000D03*
%TD*%
D39*
%TO.C,SW1*%
X156600000Y-116320000D03*
D40*
X156600000Y-121400000D03*
D41*
X156600000Y-126480000D03*
%TD*%
D42*
%TO.C,Raspberry Pi Pico *%
X133115000Y-60535000D03*
D43*
X133115000Y-63075000D03*
D44*
X133115000Y-65615000D03*
D43*
X133115000Y-68155000D03*
X133115000Y-70695000D03*
X133115000Y-73235000D03*
X133115000Y-75775000D03*
D44*
X133115000Y-78315000D03*
D43*
X133115000Y-80855000D03*
X133115000Y-83395000D03*
X133115000Y-85935000D03*
X133115000Y-88475000D03*
D44*
X133115000Y-91015000D03*
D43*
X133115000Y-93555000D03*
X133115000Y-96095000D03*
X133115000Y-98635000D03*
X133115000Y-101175000D03*
D44*
X133115000Y-103715000D03*
D43*
X133115000Y-106255000D03*
X133115000Y-108795000D03*
D30*
X150895000Y-108795000D03*
D43*
X150895000Y-106255000D03*
D45*
X150895000Y-103715000D03*
D43*
X150895000Y-101175000D03*
X150895000Y-98635000D03*
X150895000Y-96095000D03*
X150895000Y-93555000D03*
D45*
X150895000Y-91015000D03*
D43*
X150895000Y-88475000D03*
X150895000Y-85935000D03*
X150895000Y-83395000D03*
X150895000Y-80855000D03*
D45*
X150895000Y-78315000D03*
D43*
X150895000Y-75775000D03*
X150895000Y-73235000D03*
X150895000Y-70695000D03*
X150895000Y-68155000D03*
D45*
X150895000Y-65615000D03*
D43*
X150895000Y-63075000D03*
X150895000Y-60535000D03*
%TD*%
D16*
%TO.C,A6*%
X121630000Y-79000000D03*
D31*
X119090000Y-79000000D03*
D18*
X116550000Y-79000000D03*
X114010000Y-79000000D03*
X111470000Y-79000000D03*
X108930000Y-79000000D03*
D16*
X106390000Y-79000000D03*
D32*
X103850000Y-79000000D03*
D18*
X103850000Y-91700000D03*
X106390000Y-91700000D03*
X108930000Y-91700000D03*
X111470000Y-91700000D03*
X114010000Y-91700000D03*
X116550000Y-91700000D03*
X119090000Y-91700000D03*
X121630000Y-91700000D03*
%TD*%
D39*
%TO.C,SW2*%
X137932500Y-116320000D03*
D40*
X137932500Y-121400000D03*
D41*
X137932500Y-126480000D03*
%TD*%
D39*
%TO.C,SW3*%
X125600000Y-116320000D03*
D40*
X125600000Y-121400000D03*
D41*
X125600000Y-126480000D03*
%TD*%
D26*
%TO.C,J3*%
X185500000Y-81650000D03*
D27*
X185500000Y-84150000D03*
X185500000Y-86650000D03*
D26*
X185500000Y-89150000D03*
%TD*%
D15*
%TO.C,C1*%
X125700000Y-67400000D03*
D16*
X128200000Y-67400000D03*
%TD*%
D33*
%TO.C,J16*%
X177800000Y-142600000D03*
D25*
X182880000Y-142600000D03*
%TD*%
D33*
%TO.C,J12*%
X139720000Y-142600000D03*
D25*
X144800000Y-142600000D03*
%TD*%
D39*
%TO.C,SW4*%
X169000000Y-116320000D03*
D40*
X169000000Y-121400000D03*
D41*
X169000000Y-126480000D03*
%TD*%
M02*
